<?xml version="1.0" standalone="no"?>
<!DOCTYPE svg PUBLIC "-//W3C//DTD SVG 1.1//EN" "http://www.w3.org/Graphics/SVG/1.1/DTD/svg11.dtd" >
<svg>
<metadata>
Created by FontForge 20090914 at Sun Feb 28 05:29:03 2016
 By www-data
Copyright Ihsana IT Solution 2015. All rights reserved.
</metadata>
<defs>
<font id="GalauIcon" horiz-adv-x="1764" >
  <font-face 
    font-family="GalauIcon"
    font-weight="400"
    font-stretch="normal"
    units-per-em="1792"
    panose-1="2 0 0 0 0 0 0 0 0 0"
    ascent="1433"
    descent="-359"
    bbox="31.9941 -256.002 2058 1666"
    underline-thickness="0"
    underline-position="0"
    unicode-range="U+F100-U+F134"
  />
<missing-glyph horiz-adv-x="597" 
 />
    <glyph glyph-name=".notdef" horiz-adv-x="597" 
 />
    <glyph glyph-name="code" unicode="&#xf100;" horiz-adv-x="2084" 
d="M567 57c-15.333 -18 -30.666 -18.001 -45.999 -0.000976562l-466 533c-15.333 17.333 -15.333 35 0 53l466 533c15.333 18 30.666 18 45.999 0l50 -57c15.333 -17.333 15.333 -35 0 -53l-393 -450l393 -450c15.333 -17.333 15.333 -34.666 0 -51.999zM835 -143.001
c-2.66699 -9.33301 -7.66699 -16.666 -15 -21.999c-8 -4.66699 -16 -5.66699 -24 -3l-62 20c-8.66699 2.66699 -15 8.33398 -19 17.001c-4.66699 9.33301 -5.66699 18.666 -3 27.999l373 1479c2.66699 9.33301 7.66699 16.666 15 21.999c8 4.66699 16 5.66699 24 3l62 -20
c8.66699 -2.66699 15 -8.33398 19 -17.001c4.66699 -9.33301 5.66699 -18.666 3 -27.999zM1399 56.999c-15.333 -18 -30.666 -17.999 -45.999 0.000976562l-50 57c-15.333 17.333 -15.333 34.666 0 51.999l393 450l-393 450c-15.333 18 -15.333 35.667 0 53l50 57
c15.333 18 30.666 18 45.999 0l466 -533c15.333 -18 15.333 -35.667 0 -53z" />
    <glyph glyph-name="guicongrid" unicode="&#xf101;" horiz-adv-x="1892" 
d="M800 444v-413c0 -37.333 -12.667 -69.5 -38 -96.5s-55.333 -40.5 -90 -40.5h-512c-34.667 0 -64.667 13.5 -90 40.5s-38 59.167 -38 96.5v413c0 36 12.667 67.667 38 95s55.333 41 90 41h512c34.667 0 64.667 -13.667 90 -41s38 -59 38 -95zM800 1267v-413
c0 -36 -12.667 -67.667 -38 -95s-55.333 -41 -90 -41h-512c-34.667 0 -64.667 13.667 -90 41s-38 59 -38 95v413c0 37.333 12.667 69.5 38 96.5s55.333 40.5 90 40.5h512c34.667 0 64.667 -13.5 90 -40.5s38 -59.167 38 -96.5zM1696 444v-413
c0 -37.333 -12.667 -69.5 -38 -96.5s-55.333 -40.5 -90 -40.5h-512c-34.667 0 -64.667 13.5 -90 40.5s-38 59.167 -38 96.5v413c0 36 12.667 67.667 38 95s55.333 41 90 41h512c34.667 0 64.667 -13.667 90 -41s38 -59 38 -95zM1696 1267v-413
c0 -36 -12.667 -67.667 -38 -95s-55.333 -41 -90 -41h-512c-34.667 0 -64.667 13.667 -90 41s-38 59 -38 95v413c0 37.333 12.667 69.5 38 96.5s55.333 40.5 90 40.5h512c34.667 0 64.667 -13.5 90 -40.5s38 -59.167 38 -96.5z" />
    <glyph glyph-name="guiconbootstrap" unicode="&#xf102;" horiz-adv-x="1864" 
d="M299 1523l1101 0.000976562c99.333 0 179 -49 239 -147c19.333 -38.667 29 -77.667 29 -117v-1092c0 -98.667 -50.333 -177.334 -151 -236.001c-40.667 -18.667 -78.667 -28 -114 -28h-1109c-90 0 -166.333 47 -229 141c-22 43.333 -33 85.333 -33 126v1084
c0 69.333 26.333 132.333 79 189c58.667 53.333 121.334 80 188.001 80zM634.999 1163v-864.001h241c128 0 200 7 216 21c41.333 19.333 74 57 98 113c14 40.667 21 75.334 21 104.001v19c0 72 -25.667 129.333 -77 172c-19.333 14.667 -36.333 24 -51 28v5
c62.667 40.667 94 103 94 187c0 76.667 -30.667 138.667 -92 186c-27.333 19.333 -85.333 29 -174 29h-276zM775.999 1019h21c117.333 0 176 -3 176 -9c25.333 -14 38 -37.667 38 -71c0 -56 -33 -84 -99 -84h-136c-2 0 -3 0.666992 -3 2v160c0 1.33301 1 2 3 2zM775.999 654
h116c63.333 0 101.333 -9.66699 114 -29c19.333 -18 29 -45.667 29 -83c0 -48 -19 -80 -57 -96c-16.667 -4 -45 -6 -85 -6h-117c-2 0 -3 1 -3 3v208c0 2 1 3 3 3z" />
    <glyph glyph-name="guiconpanel" unicode="&#xf103;" horiz-adv-x="1827" 
d="M1509 1406c56.667 0 96.333 -32.002 119 -96.002c2 -16 3 -28.667 3 -38v-1245c0 -65.333 -25.333 -109.666 -76 -132.999c-15.333 -6.66699 -36 -10 -62 -10h-1332c-63.333 0 -105.333 33.667 -126 101c-2 6.66699 -3 16.334 -3 29.001v1269
c0 56.667 32.667 97.667 98 123h1379zM144.999 1049l1364 -0.000976562v151c0 58.667 -25.667 91.334 -77 98.001h-1210c-51.333 0 -77 -44.667 -77 -134v-115zM224.999 1243h1210c4 -1.33301 6 -5 6 -11v-115c0 -7.33301 -2 -11 -6 -11h-1210c-4 0 -6 3.66699 -6 11v115
c0.666992 7.33301 2.66699 11 6 11zM144.999 952.997v-829h1364v829h-1364z" />
    <glyph glyph-name="guiconviewgrid" unicode="&#xf104;" horiz-adv-x="1753" 
d="M247 1411v-1522h-99v1522h99zM847 1411v-1512h-99v1512h99zM1443 1407v-1508h-99v1508h99zM1557 1290v-85h-1522v85h1522zM1557 688v-85h-1520v85h1520zM1557 92v-85h-1525v85h1525z" />
    <glyph glyph-name="guiconalert" unicode="&#xf105;" 
d="M913 202v159c0 7.33301 -2.66699 13.666 -8 18.999s-11.666 8 -18.999 8h-160c-7.33301 0 -13.666 -2.66699 -18.999 -8s-8 -11.666 -8 -18.999v-159c0 -7.33301 2.66699 -13.666 8 -18.999s11.666 -8 18.999 -8h160c7.33301 0 13.666 2.66699 18.999 8
s8 11.666 8 18.999zM918 484l15.001 463.001c0 8 -2.66699 14.333 -8 19c-7.33301 7.33301 -14 11 -20 11h-184c-6 0 -12.667 -3.66699 -20 -11c-5.33301 -4.66699 -8 -11.334 -8 -20.001l14 -462c0 -6.66699 2.83301 -12.167 8.5 -16.5s12.167 -6.5 19.5 -6.5h155
c7.33301 0 13.666 2.16699 18.999 6.5s8.33301 9.83301 9 16.5zM896.001 1335l658 -1232c9.33301 -18.667 14 -36.667 14 -54c0 -19.333 -5.33301 -38.333 -16 -57c-10 -16.667 -23.333 -30 -40 -40s-34.667 -15 -54 -15h-1316c-19.333 0 -37.333 5 -54 15
s-30 23.333 -40 40c-10.667 18.667 -16 37.667 -16 57c0 17.333 4.66699 35.333 14 54l658 1232c9.33301 18.667 22.833 33.167 40.5 43.5s36.5 15.5 56.5 15.5s38.5 -5.16699 55.5 -15.5s30.167 -24.833 39.5 -43.5z" />
    <glyph glyph-name="guiconbutton" unicode="&#xf106;" horiz-adv-x="1817" 
d="M1597 763c-5.33301 -2 -10.333 -2.99902 -15 -2.99902c-8.66699 0 -16.667 4 -24 12c-20 16.667 -40.333 30 -61 40c-14 6.66699 -21 17 -21 31v231c0 49.333 -17.5 90.833 -52.5 124.5s-77.5 50.5 -127.5 50.5h-939c-50 0 -92.5 -16.833 -127.5 -50.5
s-52.5 -75.167 -52.5 -124.5v-902c0 -48 17.5 -88.833 52.5 -122.5s77.5 -50.5 127.5 -50.5h126c4.66699 0 11 -2 19 -6c41.333 -24 91.333 -45.333 150 -64c19.333 -4 29 -15.333 29 -34c0 -10 -3.66699 -18.5 -11 -25.5s-16 -10.5 -26 -10.5h-287
c-90 0 -166.667 30.5 -230 91.5s-95 134.833 -95 221.5v902c0 88 31.667 162.5 95 223.5s140 91.5 230 91.5h939c90 0 166.667 -30.5 230 -91.5s95 -135.5 95 -223.5v-279c0 -14.667 -8 -25.334 -24 -32.001zM479 910.001c-4 6.66699 -5.99902 13.332 -5.99902 19.999
c0 2 0.333008 4.66699 1 8c2 9.33301 6.33301 17 13 23c9.33301 8.66699 21 13 35 13c7.33301 0 14.666 -1.33301 21.999 -4l970 -442c10 -4.66699 17 -11.334 21 -20.001c3.33301 -6.66699 5 -13 5 -19c0 -3.33301 -0.333008 -6.66602 -1 -9.99902
c-2.66699 -10 -8.5 -18.167 -17.5 -24.5s-19.167 -9.5 -30.5 -9.5h-436v-397c0 -9.33301 -3.33301 -18.166 -10 -26.499s-15.667 -13.833 -27 -16.5c-5.33301 -0.666992 -9 -1 -11 -1c-20 0 -34.667 8 -44 24z" />
    <glyph glyph-name="guicontable" unicode="&#xf107;" horiz-adv-x="1892" 
d="M544 98v209c0 10 -3 18.333 -9 25s-13.667 10 -23 10h-320c-9.33301 0 -17 -3.33301 -23 -10s-9 -15 -9 -25v-209c0 -10.667 3 -19.334 9 -26.001s13.667 -10 23 -10h320c9.33301 0 17 3.33301 23 10s9 15.334 9 26.001zM544 516v210c0 10 -3 18.333 -9 25
s-13.667 10 -23 10h-320c-9.33301 0 -17 -3.33301 -23 -10s-9 -15 -9 -25v-210c0 -10 3 -18.167 9 -24.5s13.667 -9.5 23 -9.5h320c9.33301 0 17 3.16699 23 9.5s9 14.5 9 24.5zM1056 98v209c0 10 -3 18.333 -9 25s-13.667 10 -23 10h-320c-9.33301 0 -17 -3.33301 -23 -10
s-9 -15 -9 -25v-209c0 -10.667 3 -19.334 9 -26.001s13.667 -10 23 -10h320c9.33301 0 17 3.33301 23 10s9 15.334 9 26.001zM544 936v209c0 10.667 -3 19.167 -9 25.5s-13.667 9.5 -23 9.5h-320c-9.33301 0 -17 -3.16699 -23 -9.5s-9 -14.833 -9 -25.5v-209
c0 -10 3 -18.333 9 -25s13.667 -10 23 -10h320c9.33301 0 17 3.33301 23 10s9 15 9 25zM1056 516v210c0 10 -3 18.333 -9 25s-13.667 10 -23 10h-320c-9.33301 0 -17 -3.33301 -23 -10s-9 -15 -9 -25v-210c0 -10 3 -18.167 9 -24.5s13.667 -9.5 23 -9.5h320
c9.33301 0 17 3.16699 23 9.5s9 14.5 9 24.5zM1568 98v209c0 10 -3 18.333 -9 25s-13.667 10 -23 10h-320c-9.33301 0 -17 -3.33301 -23 -10s-9 -15 -9 -25v-209c0 -10.667 3 -19.334 9 -26.001s13.667 -10 23 -10h320c9.33301 0 17 3.33301 23 10s9 15.334 9 26.001z
M1056 936v209c0 10.667 -3 19.167 -9 25.5s-13.667 9.5 -23 9.5h-320c-9.33301 0 -17 -3.16699 -23 -9.5s-9 -14.833 -9 -25.5v-209c0 -10 3 -18.333 9 -25s13.667 -10 23 -10h320c9.33301 0 17 3.33301 23 10s9 15 9 25zM1568 516v210c0 10 -3 18.333 -9 25
s-13.667 10 -23 10h-320c-9.33301 0 -17 -3.33301 -23 -10s-9 -15 -9 -25v-210c0 -10 3 -18.167 9 -24.5s13.667 -9.5 23 -9.5h320c9.33301 0 17 3.16699 23 9.5s9 14.5 9 24.5zM1568 936v209c0 10.667 -3 19.167 -9 25.5s-13.667 9.5 -23 9.5h-320
c-9.33301 0 -17 -3.16699 -23 -9.5s-9 -14.833 -9 -25.5v-209c0 -10 3 -18.333 9 -25s13.667 -10 23 -10h320c9.33301 0 17 3.33301 23 10s9 15 9 25zM1696 1165v-1083c0 -43.333 -15.667 -80.666 -47 -111.999s-69 -47 -113 -47h-1344c-44 0 -81.667 15.667 -113 47
s-47 68.666 -47 111.999v1083c0 43.333 15.667 80.666 47 111.999s69 47 113 47h1344c44 0 81.667 -15.667 113 -47s47 -68.666 47 -111.999z" />
    <glyph glyph-name="guiconimage" unicode="&#xf108;" horiz-adv-x="1832" 
d="M673 927c0 -53.333 -18.667 -98.666 -56 -135.999s-82.666 -56 -135.999 -56s-98.666 18.667 -135.999 56s-56 82.666 -56 135.999s18.667 98.666 56 135.999s82.666 56 135.999 56s98.666 -18.667 135.999 -56s56 -82.666 56 -135.999zM1385 606v-395h-1097v169l249 282
l125 -141l399 451zM1481 1214h-1295c-7.33301 0 -13.5 -2.66699 -18.5 -8s-7.5 -12 -7.5 -20v-1069c0 -8 2.5 -14.667 7.5 -20s11.167 -8 18.5 -8h1295c7.33301 0 13.5 2.66699 18.5 8s7.5 12 7.5 20v1069c0 8 -2.5 14.667 -7.5 20s-11.167 8 -18.5 8zM1636 1194v-1102
c0 -40 -13.167 -74.167 -39.5 -102.5s-57.833 -42.5 -94.5 -42.5h-1336c-36.667 0 -68.167 14.167 -94.5 42.5s-39.5 62.5 -39.5 102.5v1102c0 39.333 13.167 73.166 39.5 101.499s57.833 42.5 94.5 42.5h1336c36.667 0 68.167 -14.167 94.5 -42.5
s39.5 -62.166 39.5 -101.499z" />
    <glyph glyph-name="guicontext" unicode="&#xf109;" horiz-adv-x="1832" 
d="M993 160v92h433v-92h-433zM281 1047l30.9951 -17.001c4 -2 43.667 -3 119 -3c16.667 0 41.667 0.333008 75 1s58.333 1 75 1c26.667 0 73.334 0.166992 140.001 0.5s124.334 0.5 173.001 0.5s95.334 -1 140.001 -3c12.667 0 23.334 6.66699 32.001 20h40
c0.666992 -48 1 -120 1 -216c0 -34.667 -1 -58 -3 -70c-14.667 -6 -27.334 -10 -38.001 -12c-10 19.333 -20.333 46.666 -31 81.999c-1.33301 4 -3.5 14.333 -6.5 31l-8.5 47.5c-2.66699 15 -4 22.833 -4 23.5c-4 5.33301 -9 9.33301 -15 12c-2 0.666992 -14.667 1 -38 1
c-11.333 0 -28.833 0.333008 -52.5 1s-43.167 1 -58.5 1s-33.166 -0.5 -53.499 -1.5s-38.5 -2.5 -54.5 -4.5c-3.33301 -35.333 -4.66602 -64.666 -3.99902 -87.999v-64c0 -24 0.166992 -57.167 0.5 -99.5s0.666016 -80.833 0.999023 -115.5s0.5 -67.334 0.5 -98.001
c0 -7.33301 -0.5 -22.833 -1.5 -46.5s-1 -43.167 0 -58.5s3.5 -30.333 7.5 -45c14.667 -8.66699 38 -17.5 70 -26.5s54.667 -17.167 68 -24.5c2 -16.667 3 -27.334 3 -32.001c0 -6 -0.666992 -12 -2 -18l-19 -1c-28.667 -1.33301 -69.834 0.166992 -123.501 4.5
s-92.834 6.5 -117.501 6.5c-19.333 0 -48 -1.83301 -86 -5.5s-66.667 -5.5 -86 -5.5l-2 33v6c6.66699 11.333 18.334 20.5 35.001 27.5s35.167 13.333 55.5 19s35.166 11.167 44.499 16.5c2.66699 7.33301 4.83398 23.333 6.50098 48s2.83398 55.834 3.50098 93.501
s1 71 1 100s-0.166992 61.833 -0.5 98.5s-0.5 56 -0.5 58c0 2.66699 -0.5 7 -1.5 13s-1.5 10.667 -1.5 14s0.166992 12.833 0.5 28.5l1 47c0.333008 15.667 0.333008 32.167 0 49.5s-1 31.833 -2 43.5s-2.16699 18.5 -3.5 20.5c-4 4.66699 -34.667 7 -92 7
c-15.333 0 -46.166 -2.83301 -92.499 -8.5s-72.5 -10.834 -78.5 -15.501c-7.33301 -5.33301 -13.833 -20.666 -19.5 -45.999s-11.5 -49.166 -17.5 -71.499s-14 -34.166 -24 -35.499c-16 12 -26.667 21.667 -32 29v246zM1481 1171h-1295c-7.33301 0 -13.5 -2.66699 -18.5 -8
s-7.5 -12 -7.5 -20v-1081c0 -8 2.5 -14.833 7.5 -20.5s11.167 -8.5 18.5 -8.5h1295c7.33301 0 13.5 2.83301 18.5 8.5s7.5 12.5 7.5 20.5v1081c0 8 -2.5 14.667 -7.5 20s-11.167 8 -18.5 8zM1636 1160v-1104c0 -40.667 -13.167 -75.167 -39.5 -103.5
s-57.833 -42.5 -94.5 -42.5h-1336c-36.667 0 -68.167 14.167 -94.5 42.5s-39.5 62.833 -39.5 103.5v1104c0 40 13.167 74.167 39.5 102.5s57.833 42.5 94.5 42.5h1336c36.667 0 68.167 -14.167 94.5 -42.5s39.5 -62.5 39.5 -102.5z" />
    <glyph glyph-name="guiconglyphicons" unicode="&#xf10a;" horiz-adv-x="1636" 
d="M1152 1218h-832c-44 0 -81.667 -15.667 -113 -47s-47 -69 -47 -113v-832c0 -44 15.667 -81.667 47 -113s69 -47 113 -47h832c44 0 81.667 15.667 113 47s47 69 47 113v832c0 44 -15.667 81.667 -47 113s-69 47 -113 47zM1440 1058v-832
c0 -79.333 -28.167 -147.166 -84.5 -203.499s-124.166 -84.5 -203.499 -84.5h-832c-79.333 0 -147.166 28.167 -203.499 84.5s-84.5 124.166 -84.5 203.499v832c0 79.333 28.167 147.166 84.5 203.499s124.166 84.5 203.499 84.5h832
c79.333 0 147.166 -28.167 203.499 -84.5s84.5 -124.166 84.5 -203.499zM874 790h352c8.66699 0 16.167 -3.16699 22.5 -9.5s9.5 -13.833 9.5 -22.5v-192c0 -8.66699 -3.16699 -16.167 -9.5 -22.5s-13.833 -9.5 -22.5 -9.5h-352v-352
c0 -8.66699 -3.16699 -16.167 -9.5 -22.5s-13.833 -9.5 -22.5 -9.5h-192c-8.66699 0 -16.167 3.16699 -22.5 9.5s-9.5 13.833 -9.5 22.5v352h-352c-8.66699 0 -16.167 3.16699 -22.5 9.5s-9.5 13.833 -9.5 22.5v192c0 8.66699 3.16699 16.167 9.5 22.5s13.833 9.5 22.5 9.5
h352v352c0 8.66699 3.16699 16.167 9.5 22.5s13.833 9.5 22.5 9.5h192c8.66699 0 16.167 -3.16699 22.5 -9.5s9.5 -13.833 9.5 -22.5v-352z" />
    <glyph glyph-name="guicondashicons" unicode="&#xf10b;" horiz-adv-x="1853" 
d="M380 474c0 32 -11.333 59.333 -34 82s-50 34 -82 34s-59.333 -11.333 -82 -34s-34 -50 -34 -82s11.333 -59.333 34 -82s50 -34 82 -34s59.333 11.333 82 34s34 50 34 82zM554 880c0 32 -11.333 59.333 -34 82s-50 34 -82 34s-59.333 -11.333 -82 -34s-34 -50 -34 -82
s11.333 -59.333 34 -82s50 -34 82 -34s59.333 11.333 82 34s34 50 34 82zM942 444l91.999 346c3.33301 16 1 30.833 -7 44.5s-19.5 22.667 -34.5 27s-29.5 2.33301 -43.5 -6s-23 -20.5 -27 -36.5l-92 -346c-36 -2.66699 -68.333 -15.667 -97 -39s-47.667 -53.333 -57 -90
c-12 -46 -6 -90 18 -132s59.333 -69 106 -81s90.834 -5.83301 132.501 18.5s68.5 59.5 80.5 105.5c10 36.667 8.33301 72.167 -5 106.5s-35.333 61.833 -66 82.5zM1541 474c0 32 -11.333 59.333 -34 82s-50 34 -82 34s-59.333 -11.333 -82 -34s-34 -50 -34 -82
s11.333 -59.333 34 -82s50 -34 82 -34s59.333 11.333 82 34s34 50 34 82zM960.999 1054c0 32 -11.333 59.333 -34 82s-50.167 34 -82.5 34s-59.833 -11.333 -82.5 -34s-34 -50 -34 -82s11.333 -59.333 34 -82s50.167 -34 82.5 -34s59.833 11.333 82.5 34s34 50 34 82z
M1367 880c0 32 -11.333 59.333 -34 82s-50 34 -82 34s-59.333 -11.333 -82 -34s-34 -50 -34 -82s11.333 -59.333 34 -82s50 -34 82 -34s59.333 11.333 82 34s34 50 34 82zM1657 474c0 -158 -42.665 -304 -127.998 -438c-11.333 -17.333 -27.666 -26 -48.999 -26h-1271
c-21.333 0 -37.666 8.66699 -48.999 26c-85.333 133.333 -128 279.333 -128 438c0 110 21.5 215.167 64.5 315.5s100.667 186.833 173 259.5s158.666 130.5 258.999 173.5s205.666 64.5 315.999 64.5s215.666 -21.5 315.999 -64.5s186.666 -100.833 258.999 -173.5
s130 -159.167 173 -259.5s64.5 -205.5 64.5 -315.5z" />
    <glyph glyph-name="guiconfontawesome" unicode="&#xf10c;" horiz-adv-x="1956" 
d="M288 1280c0 -48 -21.333 -84.667 -64 -110v-1266c0 -8.66699 -3.16699 -16.167 -9.5 -22.5s-13.833 -9.5 -22.5 -9.5h-64c-8.66699 0 -16.167 3.16699 -22.5 9.5s-9.5 13.833 -9.5 22.5v1266c-42.667 25.333 -64 62 -64 110c0 35.333 12.5 65.5 37.5 90.5
s55.167 37.5 90.5 37.5s65.5 -12.5 90.5 -37.5s37.5 -55.167 37.5 -90.5zM1760 1216l0.00292969 -762.999c0 -16.667 -4.16699 -29.5 -12.5 -38.5s-21.5 -18.167 -39.5 -27.5c-143.333 -77.333 -266.333 -116 -369 -116c-40.667 0 -81.834 7.33301 -123.501 22
s-77.834 30.667 -108.501 48s-69.167 33.333 -115.5 48s-93.833 22 -142.5 22c-128 0 -282.667 -48.667 -464 -146c-11.333 -6 -22.333 -9 -33 -9c-17.333 0 -32.333 6.33301 -45 19s-19 27.667 -19 45v742c0 21.333 10.333 39.666 31 54.999
c14 9.33301 40.333 23.666 79 42.999c157.333 80 297.666 120 420.999 120c71.333 0 138 -9.66699 200 -29s135 -48.666 219 -87.999c25.333 -12.667 54.666 -19 87.999 -19c36 0 75.167 7 117.5 21s79 29.667 110 47s60.333 33 88 47s45.834 21 54.501 21
c17.333 0 32.333 -6.33301 45 -19s19 -27.667 19 -45z" />
    <glyph glyph-name="guiconsearch" unicode="&#xf10d;" horiz-adv-x="1892" 
d="M1184 704c0 123.333 -43.833 228.833 -131.5 316.5s-193.167 131.5 -316.5 131.5s-228.833 -43.833 -316.5 -131.5s-131.5 -193.167 -131.5 -316.5s43.833 -228.833 131.5 -316.5s193.167 -131.5 316.5 -131.5s228.833 43.833 316.5 131.5s131.5 193.167 131.5 316.5z
M1696 -128c0 -34.667 -12.667 -64.667 -38 -90s-55.333 -38 -90 -38c-36 0 -66 12.667 -90 38l-343 342c-119.333 -82.667 -252.333 -124 -399 -124c-95.333 0 -186.5 18.5 -273.5 55.5s-162 87 -225 150s-113 138 -150 225s-55.5 178.167 -55.5 273.5
s18.5 186.5 55.5 273.5s87 162 150 225s138 113 225 150s178.167 55.5 273.5 55.5s186.5 -18.5 273.5 -55.5s162 -87 225 -150s113 -138 150 -225s55.5 -178.167 55.5 -273.5c0 -146.667 -41.333 -279.667 -124 -399l343 -343c24.667 -24.667 37 -54.667 37 -90z" />
    <glyph glyph-name="guiconform" unicode="&#xf10e;" horiz-adv-x="1892" 
d="M160 2h1448v1045h-1448v-1045zM544 1218v288c0 8.66699 -3.16699 16.167 -9.5 22.5s-13.833 9.5 -22.5 9.5h-64c-8.66699 0 -16.167 -3.16699 -22.5 -9.5s-9.5 -13.833 -9.5 -22.5v-288c0 -8.66699 3.16699 -16.167 9.5 -22.5s13.833 -9.5 22.5 -9.5h64
c8.66699 0 16.167 3.16699 22.5 9.5s9.5 13.833 9.5 22.5zM1312 1218v288c0 8.66699 -3.16699 16.167 -9.5 22.5s-13.833 9.5 -22.5 9.5h-64c-8.66699 0 -16.167 -3.16699 -22.5 -9.5s-9.5 -13.833 -9.5 -22.5v-288c0 -8.66699 3.16699 -16.167 9.5 -22.5
s13.833 -9.5 22.5 -9.5h64c8.66699 0 16.167 3.16699 22.5 9.5s9.5 13.833 9.5 22.5zM1696 1282v-1280c0 -34.667 -12.667 -64.667 -38 -90s-55.333 -38 -90 -38h-1408c-34.667 0 -64.667 12.667 -90 38s-38 55.333 -38 90v1280c0 34.667 12.667 64.667 38 90
s55.333 38 90 38h128v96c0 44 15.667 81.667 47 113s69 47 113 47h64c44 0 81.667 -15.667 113 -47s47 -69 47 -113v-96h384v96c0 44 15.667 81.667 47 113s69 47 113 47h64c44 0 81.667 -15.667 113 -47s47 -69 47 -113v-96h128c34.667 0 64.667 -12.667 90 -38
s38 -55.333 38 -90zM1532 330v-96h-1271v96h1271zM1535 728v-105h-1271v105h1271zM1528 526v-99h-1271v99h1271zM1525 934v-109h-1271v109h1271zM1528 171v-122h-554v122h554z" />
    <glyph glyph-name="guiconlabel" unicode="&#xf10f;" horiz-adv-x="1948" 
d="M438 1118c0 32 -11.333 59.333 -34 82s-50 34 -82 34s-59.333 -11.333 -82 -34s-34 -50 -34 -82s11.333 -59.333 34 -82s50 -34 82 -34s59.333 11.333 82 34s34 50 34 82zM1404 596c0 -32 -11.002 -59 -33.002 -81l-445 -446c-23.333 -22 -50.666 -33 -81.999 -33
c-32 0 -59.333 11 -82 33l-648 649c-22.667 22 -42 52.333 -58 91s-24 74 -24 106v377c0 31.333 11.5 58.5 34.5 81.5s50.167 34.5 81.5 34.5h377c32 0 67.333 -8 106 -24s69.334 -35.333 92.001 -58l648 -647c22 -23.333 33 -51 33 -83zM1752 596
c0 -32 -11.3311 -59 -33.998 -81l-444 -446c-24 -22 -51.667 -33 -83 -33c-21.333 0 -39 4.16699 -53 12.5s-30 21.833 -48 40.5l426 426c22 22 33 49 33 81s-11 59.667 -33 83l-648 647c-22.667 22.667 -53.334 42 -92.001 58s-74 24 -106 24h203c32 0 67.167 -8 105.5 -24
s69.166 -35.333 92.499 -58l647 -647c22.667 -23.333 34 -51 34 -83z" />
    <glyph glyph-name="guiconplus" unicode="&#xf110;" horiz-adv-x="1636" 
d="M1440 800v-192c0 -26.667 -9.33301 -49.334 -28 -68.001s-41.334 -28 -68.001 -28h-416v-416c0 -26.667 -9.33301 -49.334 -28 -68.001s-41.334 -28 -68.001 -28h-192c-26.667 0 -49.334 9.33301 -68.001 28s-28 41.334 -28 68.001v416h-416
c-26.667 0 -49.334 9.33301 -68.001 28s-28 41.334 -28 68.001v192c0 26.667 9.33301 49.334 28 68.001s41.334 28 68.001 28h416v416c0 26.667 9.33301 49.334 28 68.001s41.334 28 68.001 28h192c26.667 0 49.334 -9.33301 68.001 -28s28 -41.334 28 -68.001v-416h416
c26.667 0 49.334 -9.33301 68.001 -28s28 -41.334 28 -68.001z" />
    <glyph glyph-name="guiconjumbotron" unicode="&#xf111;" horiz-adv-x="1985" 
d="M1789 1280v-1280c0 -34.667 -9.66699 -64.667 -29 -90s-42.333 -38 -69 -38h-1561c-26.667 0 -49.667 12.667 -69 38s-29 55.333 -29 90v1280c0 34.667 9.66699 64.667 29 90s42.333 38 69 38h1561c26.667 0 49.667 -12.667 69 -38s29 -55.333 29 -90zM172 945h1124v277
h-1124v-277zM172 750h1544v85h-1544v-85zM169 617h1545v85h-1545v-85zM165 490h1544v85h-1544v-85zM165 366h1544v85h-1544v-85zM160 70h483v196h-483v-196z" />
    <glyph glyph-name="guiconwell" unicode="&#xf112;" horiz-adv-x="1901" 
d="M216 855h1063v161h-1063v-161zM216 660h1309v85h-1309v-85zM214 527h1313v85h-1313v-85zM209 400h1318v85h-1318v-85zM209 276h1318v85h-1318v-85zM1705 160c0 -44 -12 -81.667 -36 -113s-53 -47 -87 -47h-1427c-34 0 -63 15.667 -87 47s-36 69 -36 113v960
c0 44 12 81.667 36 113s53 47 87 47h1427c34 0 63 -15.667 87 -47s36 -69 36 -113v-960zM1601 1140c0 9.33301 -2.33301 17.166 -7 23.499s-10.667 9.5 -18 9.5h-1414c-7.33301 0 -13.333 -3.16699 -18 -9.5s-7 -14.166 -7 -23.499v-1004
c0 -9.33301 2.33301 -17.166 7 -23.499s10.667 -9.5 18 -9.5h1414c7.33301 0 13.333 3.16699 18 9.5s7 14.166 7 23.499v1004z" />
    <glyph glyph-name="guicontab" unicode="&#xf113;" horiz-adv-x="1974" 
d="M59 1394h611c19.333 -3.33301 29 -13.333 29 -30v-232h1050c19.333 -3.33301 29 -13 29 -29v-1148c0 -2 -1 -3 -3 -3h-1740c-2 0 -3 1 -3 3v1409c3.33301 20 12.333 30 27 30zM130 1255v-1207h1554v962c0 11.333 -7.33301 18 -22 20h-1017c-2 0 -3 1 -3 3v222
c0 11.333 -7.33301 18 -22 20h-471c-12.667 -3.33301 -19 -10 -19 -20zM746 1273h422c2 0 3 -1 3 -3v-96c0 -2.66699 -1 -4 -3 -4h-422c-2 0 -3 1.33301 -3 4v96c0 2 1 3 3 3zM1233 1271h422c2 0 3 -1 3 -3v-96c0 -2 -1 -3 -3 -3h-422c-2 0 -3 1 -3 3v96c0 2 1 3 3 3z
M152 1212h422c2 -0.666992 3 -1.66699 3 -3v-97c0 -2 -1 -3 -3 -3h-422c-2 0 -3 1 -3 3v97c0 2 1 3 3 3zM217 912h1335c2 -0.666992 3 -2 3 -4v-94c0 -2 -1 -3 -3 -3h-1335c-2 0 -3 1 -3 3v94c0.666992 2.66699 1.66699 4 3 4zM219 672h1334c2 -0.666992 3 -2 3 -4v-94
c0 -2 -1 -3 -3 -3h-1334c-2 0 -3 1 -3 3v94c0 2.66699 1 4 3 4zM219 462h1334c2 -0.666992 3 -2 3 -4v-94c0 -2 -1 -3 -3 -3h-1334c-2 0 -3 1 -3 3v94c0 2.66699 1 4 3 4zM215 248h1334c2 0 3 -1 3 -3v-94c0 -2.66699 -1 -4 -3 -4h-1334c-2 0 -3 1.33301 -3 4v94
c0 2 1 3 3 3z" />
    <glyph glyph-name="guiconbadges" unicode="&#xf114;" 
d="M1568 1120v-960c0 -79.333 -28.167 -147.166 -84.5 -203.499s-124.166 -84.5 -203.499 -84.5h-960c-79.333 0 -147.166 28.167 -203.499 84.5s-84.5 124.166 -84.5 203.499v960c0 79.333 28.167 147.166 84.5 203.499s124.166 84.5 203.499 84.5h960
c79.333 0 147.166 -28.167 203.499 -84.5s84.5 -124.166 84.5 -203.499zM935 386v629.999h-165l-212 -198l111 -118c43.333 38 69.333 66 78 84h3v-19c0 -41.333 -0.333008 -104.166 -1 -188.499s-1 -147.833 -1 -190.5h-167v-154h523v154h-169z" />
    <glyph glyph-name="guiconeffect" unicode="&#xf115;" horiz-adv-x="1819" 
d="M1504 1339h-1326c-7.33301 0 -13.666 -3.5 -18.999 -10.5s-8 -15.167 -8 -24.5v-1333c0 -8.66699 2.66699 -16.5 8 -23.5s11.666 -10.5 18.999 -10.5h1326c6.66699 0 12.667 3.5 18 10.5s8 14.833 8 23.5v1333c0 9.33301 -2.66699 17.5 -8 24.5s-11.333 10.5 -18 10.5z
M1623 1277v-1272c0 -46 -13 -85.333 -39 -118s-57.333 -49 -94 -49h-1325c-36.667 0 -68 16.333 -94 49s-39 72 -39 118v1272c0 46 13 85.333 39 118s57.333 49 94 49h1325c36.667 0 68 -16.333 94 -49s39 -72 39 -118zM693 1042c18 0 30.334 -4 37.001 -12
s10 -23.667 10 -47l144 15c0 28 -4.83301 51.333 -14.5 70s-23.667 32.834 -42 42.501s-37.5 16.167 -57.5 19.5s-43.333 5 -70 5c-73.333 0 -128.333 -14.5 -165 -43.5s-55 -74.833 -55 -137.5v-55h-79v-96h63c10.667 0 16 -2 16 -6v-289
c0 -7.33301 -1.33301 -12.333 -4 -15s-7.66699 -4.33398 -15 -5.00098l-60 -5v-67h371v65l-123 10l-7.5 1.5c-1.66699 0.333008 -2.66699 1 -3 2s-0.333008 2 0 3s0.5 2.83301 0.5 5.5v7v293h159l31 96h-191c-3.33301 0 -4 1.5 -2 4.5s3 5.5 3 7.5v60
c0 13.333 0.5 23.5 1.5 30.5s3.16699 14.167 6.5 21.5s8.66602 12.333 15.999 15s17.333 4 30 4zM1253 451l-33 -37c-4 -4.66699 -9 -7 -15 -7s-11.333 2.33301 -16 7l-132 152l-132 -152c-4.66699 -4.66699 -10 -7 -16 -7s-11 2.33301 -15 7l-33 37
c-4 5.33301 -6 11.333 -6 18s2 13 6 19l133 152l-133 151c-4 6 -6 12.333 -6 19s2 12.667 6 18l33 36c4 6 9 9 15 9s11.333 -3 16 -9l132 -151l132 151c4.66699 6 10 9 16 9s11 -3 15 -9l33 -36c4 -5.33301 6 -11.333 6 -18s-2 -13 -6 -19l-132 -151l132 -152
c4 -6 6 -12.333 6 -19s-2 -12.667 -6 -18zM1224 298c16.667 0 30.667 -2.66699 42 -8l88 -44c3.33301 -2 5 -4.5 5 -7.5s-1.66699 -5.16699 -5 -6.5l-88 -43c-11.333 -6 -25.333 -9 -42 -9h-830c-10.667 0 -20 2 -28 6s-12 8.33301 -12 13v79c0 5.33301 4 10 12 14
s17.333 6 28 6h830z" />
    <glyph glyph-name="guiconcarousel" unicode="&#xf116;" horiz-adv-x="1674" 
d="M1374 1318h-1238c-6.66699 0 -12.5 -3.33301 -17.5 -10s-7.5 -14.667 -7.5 -24v-1291c0 -8.66699 2.5 -16.5 7.5 -23.5s10.833 -10.5 17.5 -10.5h1238c6.66699 0 12.5 3.5 17.5 10.5s7.5 14.833 7.5 23.5v1291c0 9.33301 -2.5 17.333 -7.5 24s-10.833 10 -17.5 10z
M1478 1240v-1209c0 -44 -11.833 -81.5 -35.5 -112.5s-51.834 -46.5 -84.501 -46.5h-1205c-33.333 0 -61.833 15.5 -85.5 46.5s-35.5 68.5 -35.5 112.5v1209c0 44 11.833 81.5 35.5 112.5s52.167 46.5 85.5 46.5h1205c32.667 0 60.834 -15.5 84.501 -46.5
s35.5 -68.5 35.5 -112.5zM508 979c0 -7.33301 -1.33301 -13.6699 -4 -19.0029l-156 -325l156 -326c2.66699 -5.33301 4 -11.666 4 -18.999s-1.33301 -13.666 -4 -18.999l-20 -41c-2.66699 -6 -5.66699 -9 -9 -9s-6.33301 3 -9 9l-185 385c-2 6 -3 12.5 -3 19.5
s1 13.5 3 19.5l185 385c2.66699 6 5.66699 9 9 9s6.33301 -3 9 -9l20 -41c2.66699 -5.33301 4 -11.666 4 -18.999zM1261 635.496c0 -7 -1.33301 -13.4961 -4 -19.4961l-171 -386c-2.66699 -5.33301 -5.66699 -8 -9 -8s-6 2.66699 -8 8l-19 42
c-2 5.33301 -3 11.666 -3 18.999s1 13.666 3 18.999l144 325l-144 326c-2 5.33301 -3 11.666 -3 18.999s1 13.666 3 18.999l19 41c2 6 4.66699 9 8 9s6.33301 -3 9 -9l171 -386c2.66699 -5.33301 4 -11.5 4 -18.5zM763 915c0 -36 -9.5 -66.5 -28.5 -91.5
s-42.167 -37.5 -69.5 -37.5s-50.5 12.5 -69.5 37.5s-28.5 55.5 -28.5 91.5s9.5 66.5 28.5 91.5s42.167 37.5 69.5 37.5s50.5 -12.5 69.5 -37.5s28.5 -55.5 28.5 -91.5zM1020 612v-327h-449v140l102 234l51 -117l163 373z" />
    <glyph glyph-name="guiconfoundation_icons" unicode="&#xf117;" horiz-adv-x="1751" 
d="M32 1358v-1442l203 37v1519h-40c-108.667 -38 -163 -76 -163 -114zM1385 329c-5.33301 2 -9.33203 0.667969 -11.999 -3.99902l-21 -42c-1.33301 -1.33301 -2 -3 -2 -5c1.33301 -2.66699 3 -4.33398 5 -5.00098l55 -30h4c3.33301 0 6 1 8 3l22 42
c1.33301 2.66699 1.66602 4.66699 0.999023 6c-0.666992 2 -2 4 -4 6zM1386 1322c-5.33301 2 -9 0.666016 -11 -4.00098l-25 -41c-0.666992 -1.33301 -1 -3.33301 -1 -6c0.666992 -2 2 -3.66699 4 -5l56 -33c2 -0.666992 3.66699 -1 5 -1c2.66699 0 5 1.33301 7 4l24 41
c0.666992 2 1 4 1 6c-0.666992 2.66699 -2 4.33398 -4 5.00098zM1019 253l-247 133v940l247 -133v-940zM523.001 252l-213 115v942l213 -117v-940zM1266 393v924l30 -19h6c2 0 4 1.33301 6 4l24 41c2 1.33301 2.66699 3 2 5c-1.33301 2.66699 -2.66602 4.66699 -3.99902 6
l-23 13l-26 19c-12.667 6 -24 4.33301 -34 -5l-228 -124l-229 125h-2l-1 1l-4 2h-4l-3 1l-4 1l-4 -1l-4 -1h-4l-4 -2l-1 -1h-1l-229 -125l-231 125c-10.667 6.66699 -21.667 7 -33 1c-11.333 -5.33301 -17 -13.333 -17 -24v-1007c0 -10 5.33301 -17.667 16 -23l247 -134v0
l1 -1c5.33301 -2.66699 11 -4 17 -4c4.66699 0 9.66699 1.33301 15 4h1v1l231 123l230 -123v0l1 -1c5.33301 -2.66699 10.666 -4 15.999 -4c6 0 11 1.33301 15 4h1v0l2 1l229 123l18 -8l15 -8c0.666992 -0.666992 2 -1 4 -1c3.33301 0 6 1.66699 8 5l21 42
c2.66699 4.66699 2 8 -2 10zM1499 671c-5.33301 0 -8 -2.66699 -8 -8v-100c0 -5.33301 2.66699 -8 8 -8h48c5.33301 0 8 2.66699 8 8v100c0 5.33301 -2.66699 8 -8 8h-48zM1499 275c-1.33301 0 -2.66699 -0.332031 -4 -0.999023l-7 -5
c-1.33301 -0.666992 -2.33301 -1.66699 -3 -3l-22 -41c-2 -2 -2.33301 -4.33301 -1 -7c0.666992 -2 1.66699 -3.66699 3 -5l30 -15c8.66699 -4.66699 17 -7 25 -7c10 0 17.667 2.66699 23 8c8 7.33301 12 17.666 12 30.999v37c0 5.33301 -2.66699 8 -8 8h-48zM1499 1255
c-5.33301 3.33301 -9.33301 2.66602 -12 -2.00098l-24 -41c-0.666992 -2.66699 -1 -5 -1 -7c0.666992 -2.66699 1.66699 -4.33398 3 -5.00098l26 -15v-28c0 -6 2.66699 -9 8 -9h48c5.33301 0 8 3 8 9v35c0 12.667 -4 23.667 -12 33c-2 2.66699 -4.66699 5.33398 -8 8.00098
c-1.33301 0.666992 -2.33301 1.33398 -3 2.00098l-1 1v0zM1499 1066c-5.33301 0 -8 -2.66699 -8 -8v-99c0 -5.33301 2.66699 -8 8 -8h48c5.33301 0 8 2.66699 8 8v99c0 5.33301 -2.66699 8 -8 8h-48zM1499 472.001c-5.33301 0 -8 -2.66699 -8 -8v-99
c0 -5.33301 2.66699 -8 8 -8h48c5.33301 0 8 2.66699 8 8v99c0 5.33301 -2.66699 8 -8 8h-48zM1499 868.001c-5.33301 0 -8 -2.66699 -8 -8v-100c0 -5.33301 2.66699 -8 8 -8h48c5.33301 0 8 2.66699 8 8v100c0 5.33301 -2.66699 8 -8 8h-48z" />
    <glyph glyph-name="guiconfoundation" unicode="&#xf118;" horiz-adv-x="1869" 
d="M1460 -16c-6 3.33301 -10.667 2 -14 -4l-28 -52c-1.33301 -2.66699 -1.66602 -5.33398 -0.999023 -8.00098s2.33398 -4.66699 5.00098 -6l70 -37c1.33301 -1.33301 3 -2 5 -2c4 0 7 2 9 6l28 52c1.33301 2.66699 1.66602 5.33398 0.999023 8.00098
s-2.33398 4.66699 -5.00098 6zM1461 1229c-6 4 -10.668 2.99902 -14.001 -3.00098l-30 -51c-1.33301 -2.66699 -1.66602 -5.33398 -0.999023 -8.00098c0.666992 -3.33301 2 -5.66602 4 -6.99902l71 -41c1.33301 -0.666992 3 -1 5 -1c4 0 7 1.66699 9 5l30 51
c2 2.66699 2.33301 5.33398 1 8.00098c-0.666992 2.66699 -2 4.66699 -4 6zM1001 -111.001l-309 167v1181l309 -169v-1179zM380.999 -113.001l-268 145v1181l268 -145v-1181zM1312 63.999l0.000976562 1160l38 -22c2 -1.33301 3.66699 -2 5 -2c4 0 7 1.66699 9 5l30 51
c2 2.66699 2.66699 5.33398 2 8.00098c-1.33301 3.33301 -3 5.66602 -5 6.99902l-29 17l-32 22c-16 8 -30.333 6 -43 -6l-285 -154l-288 156v0l-2 1l-5 2h-5l-5 2h-5h-5l-4 -2h-6l-4 -2l-2 -1h-1l-288 -156l-287 156c-14 7.33301 -28 7.66602 -42 0.999023
s-21 -16.667 -21 -30v-1264c0 -12.667 6.33301 -22.334 19 -29.001l310 -169v0l2 -1c6 -2.66699 12.333 -4 19 -4c7.33301 0 14 1.33301 20 4l2 1v0l288 157l288 -157v0l2 -1c6 -2.66699 12.667 -4 20 -4c6.66699 0 13 1.33301 19 4l1 1h1h1l286 156l22 -9l21 -11
c1.33301 -0.666992 2.66602 -1 3.99902 -1c4.66699 0 8 1.66699 10 5l28 52c3.33301 6.66699 2 11.667 -4 15zM1603 413.001c-6.66699 0 -10 -3.33301 -10 -10v-124c0 -7.33301 3.33301 -11 10 -11h60c6.66699 0 10 3.66699 10 11v124c0 6.66699 -3.33301 10 -10 10h-60z
M1603 -82.999c-2 0 -3.66797 -0.666992 -5.00098 -2l-9 -5l-4 -4l-28 -52c-1.33301 -2.66699 -1.66602 -5.33398 -0.999023 -8.00098c1.33301 -3.33301 3.33301 -5.66602 6 -6.99902l36 -19c10.667 -5.33301 21 -8 31 -8c12 0 22 3.66699 30 11c9.33301 8 14 20.333 14 37
v46c0 7.33301 -3.33301 11 -10 11h-60zM1602 1147c-6 3.33301 -10.6689 2.00098 -14.002 -3.99902l-30 -51c-2 -2.66699 -2.66699 -5.33398 -2 -8.00098s2.33398 -4.66699 5.00098 -6l32 -19v-36c0 -6.66699 3.33301 -10 10 -10h60c6.66699 0 10 3.33301 10 10v44
c0 16 -5 30 -15 42c-2.66699 4 -6 7.33301 -10 10c-1.33301 1.33301 -2.66602 2.33301 -3.99902 3l-1 1v0zM1603 909.002c-6.66699 0 -10 -3.33301 -10 -10v-124c0 -7.33301 3.33301 -11 10 -11h60c6.66699 0 10 3.66699 10 11v124c0 6.66699 -3.33301 10 -10 10h-60z
M1603 165.002c-6.66699 0 -10 -3.66699 -10 -11v-124c0 -6.66699 3.33301 -10 10 -10h60c6.66699 0 10 3.33301 10 10v124c0 7.33301 -3.33301 11 -10 11h-60zM1603 661.002c-6.66699 0 -10 -3.33301 -10 -10v-124c0 -7.33301 3.33301 -11 10 -11h60
c6.66699 0 10 3.66699 10 11v124c0 6.66699 -3.33301 10 -10 10h-60z" />
    <glyph glyph-name="guiconspinner" unicode="&#xf119;" horiz-adv-x="1892" 
d="M494 142c0 -35.333 -12.5 -65.5 -37.5 -90.5s-55.167 -37.5 -90.5 -37.5c-34.667 0 -64.667 12.667 -90 38s-38 55.333 -38 90c0 35.333 12.5 65.5 37.5 90.5s55.167 37.5 90.5 37.5s65.5 -12.5 90.5 -37.5s37.5 -55.167 37.5 -90.5zM992 -64
c0 -35.333 -12.5 -65.5 -37.5 -90.5s-55.167 -37.5 -90.5 -37.5s-65.5 12.5 -90.5 37.5s-37.5 55.167 -37.5 90.5s12.5 65.5 37.5 90.5s55.167 37.5 90.5 37.5s65.5 -12.5 90.5 -37.5s37.5 -55.167 37.5 -90.5zM288 640c0 -35.333 -12.5 -65.5 -37.5 -90.5
s-55.167 -37.5 -90.5 -37.5s-65.5 12.5 -90.5 37.5s-37.5 55.167 -37.5 90.5s12.5 65.5 37.5 90.5s55.167 37.5 90.5 37.5s65.5 -12.5 90.5 -37.5s37.5 -55.167 37.5 -90.5zM1490 142c0 -34.667 -12.667 -64.667 -38 -90s-55.333 -38 -90 -38
c-35.333 0 -65.5 12.5 -90.5 37.5s-37.5 55.167 -37.5 90.5s12.5 65.5 37.5 90.5s55.167 37.5 90.5 37.5s65.5 -12.5 90.5 -37.5s37.5 -55.167 37.5 -90.5zM526 1138c0 -44 -15.667 -81.667 -47 -113s-69 -47 -113 -47s-81.667 15.667 -113 47s-47 69 -47 113
s15.667 81.667 47 113s69 47 113 47s81.667 -15.667 113 -47s47 -69 47 -113zM1696 640c0 -35.333 -12.5 -65.5 -37.5 -90.5s-55.167 -37.5 -90.5 -37.5s-65.5 12.5 -90.5 37.5s-37.5 55.167 -37.5 90.5s12.5 65.5 37.5 90.5s55.167 37.5 90.5 37.5s65.5 -12.5 90.5 -37.5
s37.5 -55.167 37.5 -90.5zM1056 1344c0 -53.333 -18.667 -98.666 -56 -135.999s-82.666 -56 -135.999 -56s-98.666 18.667 -135.999 56s-56 82.666 -56 135.999s18.667 98.666 56 135.999s82.666 56 135.999 56s98.666 -18.667 135.999 -56s56 -82.666 56 -135.999z
M1586 1138c0 -62 -22 -114.833 -66 -158.5s-96.667 -65.5 -158 -65.5c-62 0 -114.833 21.833 -158.5 65.5s-65.5 96.5 -65.5 158.5c0 61.333 21.833 114 65.5 158s96.5 66 158.5 66c61.333 0 114 -22 158 -66s66 -96.667 66 -158z" />
    <glyph glyph-name="guicondesktop" unicode="&#xf11a;" horiz-adv-x="2148" 
d="M1824 544v832c0 8.66699 -3.16699 16.167 -9.5 22.5s-13.833 9.5 -22.5 9.5h-1600c-8.66699 0 -16.167 -3.16699 -22.5 -9.5s-9.5 -13.833 -9.5 -22.5v-832c0 -8.66699 3.16699 -16.167 9.5 -22.5s13.833 -9.5 22.5 -9.5h1600c8.66699 0 16.167 3.16699 22.5 9.5
s9.5 13.833 9.5 22.5zM1952 1376l-0.00195312 -1088c0 -44 -15.667 -81.667 -47 -113s-69 -47 -113 -47h-544c0 -24.667 5.33301 -50.5 16 -77.5s21.334 -50.667 32.001 -71s16 -34.833 16 -43.5c0 -17.333 -6.33301 -32.333 -19 -45s-27.667 -19 -45 -19h-512
c-17.333 0 -32.333 6.33301 -45 19s-19 27.667 -19 45c0 9.33301 5.33301 24 16 44s21.334 43.333 32.001 70s16 52.667 16 78h-544c-44 0 -81.667 15.667 -113 47s-47 69 -47 113v1088c0 44 15.667 81.667 47 113s69 47 113 47h1600c44 0 81.667 -15.667 113 -47
s47 -69 47 -113z" />
    <glyph glyph-name="guiconlaptop" unicode="&#xf11b;" horiz-adv-x="2148" 
d="M448 256c-44 0 -81.667 15.667 -113 47s-47 69 -47 113v704c0 44 15.667 81.667 47 113s69 47 113 47h1088c44 0 81.667 -15.667 113 -47s47 -69 47 -113v-704c0 -44 -15.667 -81.667 -47 -113s-69 -47 -113 -47h-1088zM416 1120v-704
c0 -8.66699 3.16699 -16.167 9.5 -22.5s13.833 -9.5 22.5 -9.5h1088c8.66699 0 16.167 3.16699 22.5 9.5s9.5 13.833 9.5 22.5v704c0 8.66699 -3.16699 16.167 -9.5 22.5s-13.833 9.5 -22.5 9.5h-1088c-8.66699 0 -16.167 -3.16699 -22.5 -9.5s-9.5 -13.833 -9.5 -22.5z" />
    <glyph glyph-name="guicontablet" unicode="&#xf11c;" horiz-adv-x="1380" 
d="M672 128c0 17.333 -6.33301 32.333 -19 45s-27.667 19 -45 19s-32.333 -6.33301 -45 -19s-19 -27.667 -19 -45s6.33301 -32.333 19 -45s27.667 -19 45 -19s32.333 6.33301 45 19s19 27.667 19 45zM1056 288v960c0 8.66699 -3.16699 16.167 -9.5 22.5
s-13.833 9.5 -22.5 9.5h-832c-8.66699 0 -16.167 -3.16699 -22.5 -9.5s-9.5 -13.833 -9.5 -22.5v-960c0 -8.66699 3.16699 -16.167 9.5 -22.5s13.833 -9.5 22.5 -9.5h832c8.66699 0 16.167 3.16699 22.5 9.5s9.5 13.833 9.5 22.5zM1184 1248v-1088
c0 -44 -15.667 -81.667 -47 -113s-69 -47 -113 -47h-832c-44 0 -81.667 15.667 -113 47s-47 69 -47 113v1088c0 44 15.667 81.667 47 113s69 47 113 47h832c44 0 81.667 -15.667 113 -47s47 -69 47 -113z" />
    <glyph glyph-name="guiconphone" unicode="&#xf11d;" horiz-adv-x="996" 
d="M496 128c0 22 -7.83301 40.833 -23.5 56.5s-34.5 23.5 -56.5 23.5s-40.833 -7.83301 -56.5 -23.5s-23.5 -34.5 -23.5 -56.5s7.83301 -40.833 23.5 -56.5s34.5 -23.5 56.5 -23.5s40.833 7.83301 56.5 23.5s23.5 34.5 23.5 56.5zM704 288v704
c0 8.66699 -3.16699 16.167 -9.5 22.5s-13.833 9.5 -22.5 9.5h-512c-8.66699 0 -16.167 -3.16699 -22.5 -9.5s-9.5 -13.833 -9.5 -22.5v-704c0 -8.66699 3.16699 -16.167 9.5 -22.5s13.833 -9.5 22.5 -9.5h512c8.66699 0 16.167 3.16699 22.5 9.5s9.5 13.833 9.5 22.5z
M512 1136c0 10.667 -5.33301 16 -16 16h-160c-10.667 0 -16 -5.33301 -16 -16s5.33301 -16 16 -16h160c10.667 0 16 5.33301 16 16zM800 1152v-1024c0 -34.667 -12.667 -64.667 -38 -90s-55.333 -38 -90 -38h-512c-34.667 0 -64.667 12.667 -90 38s-38 55.333 -38 90v1024
c0 34.667 12.667 64.667 38 90s55.333 38 90 38h512c34.667 0 64.667 -12.667 90 -38s38 -55.333 38 -90z" />
    <glyph glyph-name="generic_icon" unicode="&#xf11e;" horiz-adv-x="2122" 
d="M1892 1003h166l-332 -1086h-997l332 1086h166l112 362h442zM1421 1003h278l-56 181h-166zM783 1365l112 -362l-332 -1086h-167l-332 1086h166l112 362h441zM424 1003h278l-56 181h-166z" />
    <glyph glyph-name="ionicons" unicode="&#xf11f;" horiz-adv-x="1701" 
d="M1493 1038c96 -136 144.002 -288.333 144.002 -457c0 -217.333 -76.333 -402.833 -229 -556.5s-337.334 -230.5 -554.001 -230.5s-402.5 76.833 -557.5 230.5s-232.5 339 -232.5 556s77.5 402.333 232.5 556s340.833 230.5 557.5 230.5c166.667 0 318 -48 454 -144
c25.333 20.667 51.666 31 78.999 31c35.333 0 66.333 -13.333 93 -40s40 -57.667 40 -93s-9 -63 -27 -83zM1387 1204c-22.667 0 -42.167 -8.16699 -58.5 -24.5s-24.5 -35.833 -24.5 -58.5s8.16699 -42.167 24.5 -58.5s35.833 -24.5 58.5 -24.5s42.334 8.16699 59.001 24.5
s25 35.833 25 58.5s-8.33301 42.167 -25 58.5s-36.334 24.5 -59.001 24.5zM1365 66c62.667 63.333 114.332 141.668 154.999 235.001c38 90.667 57 184 57 280c0 98 -19 192.333 -57 283c-18 45.333 -43.333 90.666 -76 135.999c-17.333 -7.33301 -36.333 -11 -57 -11
c-34.667 0 -65.334 13.167 -92.001 39.5s-40 57.166 -40 92.499c0 18 5 37 15 57c-45.333 32.667 -90.666 58 -135.999 76c-85.333 35.333 -179.833 53 -283.5 53s-198.167 -17.667 -283.5 -53c-86 -38 -163 -91 -231 -159c-65.333 -66 -117 -143 -155 -231
c-37.333 -90.667 -56 -185 -56 -283c0 -96 18.667 -189.333 56 -280c40.667 -93.333 92.334 -171.666 155.001 -234.999c66 -65.333 143 -117 231 -155c90.667 -37.333 185.167 -56 283.5 -56s192.833 18.667 283.5 56c88 38 165 89.667 231 155zM850.5 944.002
c101 0 186.833 -35.333 257.5 -106s106 -156.5 106 -257.5s-35.333 -186.667 -106 -257s-156.5 -105.5 -257.5 -105.5s-186.667 35.167 -257 105.5s-105.5 156 -105.5 257s35.167 186.833 105.5 257.5s156 106 257 106zM850.5 278.002c83 0 154.167 29.667 213.5 89
s89 130.5 89 213.5s-29.667 154.167 -89 213.5s-130.5 89 -213.5 89s-153.5 -29.667 -211.5 -89s-87 -130.5 -87 -213.5s29 -154.167 87 -213.5s128.5 -89 211.5 -89z" />
    <glyph glyph-name="guiconfiledir" unicode="&#xf120;" horiz-adv-x="1892" 
d="M1568 5l0.00195312 919.999c0 34.667 -9.33301 64.334 -28 89.001s-41.334 37 -68.001 37h-704c-26.667 0 -49.334 12.167 -68.001 36.5s-28 53.833 -28 88.5v84c0 34.667 -9.33301 64.167 -28 88.5s-41.334 36.5 -68.001 36.5h-320
c-26.667 0 -49.334 -12.167 -68.001 -36.5s-28 -53.833 -28 -88.5v-1255c0 -34.667 9.33301 -64.167 28 -88.5s41.334 -36.5 68.001 -36.5h1216c26.667 0 49.334 12.167 68.001 36.5s28 53.833 28 88.5zM1696 917.999v-885.001c0 -77.333 -22 -143.666 -66 -198.999
s-96.667 -83 -158 -83h-1216c-61.333 0 -114 27.667 -158 83s-66 121.666 -66 198.999v1207c0 77.333 22 143.666 66 198.999s96.667 83 158 83h320c61.333 0 114 -27.667 158 -83s66 -121.666 66 -198.999v-40h672c61.333 0 114 -27.667 158 -83s66 -121.666 66 -198.999z
" />
    <glyph glyph-name="guiconfilediropen" unicode="&#xf121;" horiz-adv-x="2137" 
d="M1813 518c0 29.333 -17.6699 43.998 -53.0029 43.998h-1088c-26.667 0 -55.167 -9 -85.5 -27s-54.166 -40.333 -71.499 -67l-294 -463c-12 -20.667 -18 -37.667 -18 -51c0 -30 17.667 -45 53 -45h1088c26.667 0 55.334 9.33301 86.001 28s54.334 41.334 71.001 68.001
l294 463c12 18.667 18 35.334 18 50.001zM671.997 725.998l768.004 0.000976562v204c0 34 -9.33301 62.833 -28 86.5s-41.334 35.5 -68.001 35.5h-576c-26.667 0 -49.334 12 -68.001 36s-28 53 -28 87v81c0 34 -9.33301 63 -28 87s-41.334 36 -68.001 36h-320
c-26.667 0 -49.334 -12 -68.001 -36s-28 -53 -28 -87v-1088l256 402c29.333 45.333 68 82.666 116 111.999s94.667 44 140 44zM1941 517.999c0 -52.667 -15.3311 -103.667 -45.998 -153l-295 -463c-28.667 -45.333 -67.334 -82.666 -116.001 -111.999
s-95.334 -44 -140.001 -44h-1088c-61.333 0 -114 28 -158 84s-66 123.333 -66 202v1224c0 78.667 22 146 66 202s96.667 84 158 84h320c61.333 0 114 -28 158 -84s66 -123.333 66 -202v-41h544c61.333 0 114 -28 158 -84s66 -123 66 -201v-204h192c36 0 69 -10.5 99 -31.5
s52.333 -51.167 67 -90.5c10 -26.667 15 -55.334 15 -86.001z" />
    <glyph glyph-name="guiconfileblank" unicode="&#xf122;" 
d="M1500 1156c18.667 -18.667 34.668 -44.001 48.001 -76.001s20 -61.333 20 -88v-1152c0 -26.667 -9.33301 -49.334 -28 -68.001s-41.334 -28 -68.001 -28h-1344c-26.667 0 -49.334 9.33301 -68.001 28s-28 41.334 -28 68.001v1600c0 26.667 9.33301 49.334 28 68.001
s41.334 28 68.001 28h896c26.667 0 56 -6.66699 88 -20s57.333 -29.333 76 -48zM1056 1400v-376h376c-6.66699 19.333 -14 33 -22 41l-313 313c-8 8 -21.667 15.333 -41 22zM1440 -128.001l0.000976562 1024h-416c-26.667 0 -49.334 9.33301 -68.001 28
s-28 41.334 -28 68.001v416h-768v-1536h1280z" />
    <glyph glyph-name="guiconfilesql" unicode="&#xf123;" 
d="M476 901l2.99609 0.00195312c33.333 0 74 -18.333 122 -55c81.333 0 162 -40 242 -120c58.667 -84.667 95.667 -162.334 111 -233.001c53.333 -68 84.333 -102 93 -102c52 -15.333 96.167 -40.5 132.5 -75.5s65.5 -51.5 87.5 -49.5
c-14.667 -16.667 -61.667 -31.334 -141 -44.001l-3 -6c8.66699 -11.333 38.667 -33.666 90 -66.999c38.667 -40 58 -64.333 58 -73h-2c-22.667 22 -73.334 44 -152.001 66c-29.333 42.667 -55.666 74 -78.999 94c50 16 94.667 24 134 24l-26 -1
c-9.33301 48 -61.333 71.667 -156 71c-38 47.333 -79.667 122.333 -125 225c-27.333 125.333 -112.666 203.666 -255.999 234.999c-25.333 14 -49.666 29 -72.999 45c-31.333 24.667 -52.333 37 -63 37c-6 0 -11.667 -6 -17 -18c0 -8 27 -40.667 81 -98
c19.333 -96.667 48.333 -146.667 87 -150l9 -28l-2 -28l-24 -97c1.33301 -57.333 5.33301 -83.333 12 -78s18.334 42 35.001 110l18 57c24.667 -135.333 67 -236.333 127 -303h-3c-75.333 61.333 -117 111 -125 149c-3.33301 0 -9 -24.333 -17 -73
c-11.333 -9.33301 -21 -14 -29 -14c-36.667 0 -62 44.667 -76 134v17c0 30.667 7.66699 72.667 23 126c-21.333 16.667 -52.666 70 -93.999 160c-32.667 57.333 -49 97 -49 119c0 24 15.667 38.667 47 44zM600.996 758.002l14.999 0.000976562
c19.333 -4.66699 29 -14.334 29 -29.001c-2.66699 -13.333 -6.66699 -20 -12 -20l-14 -8c2.66699 17.333 -6.66602 33.333 -27.999 48zM1500 1156c18.667 -18.667 34.668 -44.001 48.001 -76.001s20 -61.333 20 -88v-1152c0 -26.667 -9.33301 -49.334 -28 -68.001
s-41.334 -28 -68.001 -28h-1344c-26.667 0 -49.334 9.33301 -68.001 28s-28 41.334 -28 68.001v1600c0 26.667 9.33301 49.334 28 68.001s41.334 28 68.001 28h896c26.667 0 56 -6.66699 88 -20s57.333 -29.333 76 -48zM1056 1400v-376h376c-6.66699 19.333 -14 33 -22 41
l-313 313c-8 8 -21.667 15.333 -41 22zM1440 -127.998l0.000976562 1024h-416c-26.667 0 -49.334 9.33301 -68.001 28s-28 41.334 -28 68.001v416h-768v-1536h1280z" />
    <glyph glyph-name="guiconfilepdf" unicode="&#xf124;" 
d="M1500 1156c18.667 -18.667 34.668 -44.001 48.001 -76.001s20 -61.333 20 -88v-1152c0 -26.667 -9.33301 -49.334 -28 -68.001s-41.334 -28 -68.001 -28h-1344c-26.667 0 -49.334 9.33301 -68.001 28s-28 41.334 -28 68.001v1600c0 26.667 9.33301 49.334 28 68.001
s41.334 28 68.001 28h896c26.667 0 56 -6.66699 88 -20s57.333 -29.333 76 -48zM1056 1400v-376h376c-6.66699 19.333 -14 33 -22 41l-313 313c-8 8 -21.667 15.333 -41 22zM1440 -128.001l0.000976562 1024h-416c-26.667 0 -49.334 9.33301 -68.001 28
s-28 41.334 -28 68.001v416h-768v-1536h1280zM926.002 464.998c22 -17.333 49.9951 -36.0039 83.9951 -56.0039c39.333 4.66699 78.333 7 117 7c98 0 157 -16.333 177 -49c10.667 -14.667 11.334 -32 2.00098 -52c0 -0.666992 -0.333008 -1.33398 -1 -2.00098l-2 -2v-1
c-4 -25.333 -27.667 -38 -71 -38c-32 0 -70.333 6.66699 -115 20s-88 31 -130 53c-147.333 -16 -278 -43.667 -392 -83c-102 -174.667 -182.667 -262 -242 -262c-10 0 -19.333 2.33301 -28 7l-24 12c-0.666992 0.666992 -2.66699 2.33398 -6 5.00098
c-6.66699 6.66699 -8.66699 18.667 -6 36c6 26.667 24.667 57.167 56 91.5s75.333 66.5 132 96.5c9.33301 6 17 4 23 -6c1.33301 -1.33301 2 -2.66602 2 -3.99902c34.667 56.667 70.334 122.334 107.001 197.001c45.333 90.667 80 178 104 262
c-16 54.667 -26.167 107.834 -30.5 159.501s-2.16602 94.167 6.50098 127.5c7.33301 26.667 21.333 40 42 40h21h1c15.333 0 27 -5 35 -15c12 -14 15 -36.667 9 -68c-1.33301 -4 -2.66602 -6.66699 -3.99902 -8c0.666992 -2 1 -4.66699 1 -8v-30
c-1.33301 -82 -6 -146 -14 -192c36.667 -109.333 85.334 -188.666 146.001 -237.999zM349.997 53.9941c34.667 16 80.333 68.667 137 158c-34 -26.667 -63.167 -54.667 -87.5 -84s-40.833 -54 -49.5 -74zM747.996 973.994c-10 -28 -10.667 -72.002 -2 -132.002
c0.666992 4.66699 3 19.334 7 44.001c0 2 2.33301 16.333 7 43c0.666992 2.66699 2 5.33398 4 8.00098c-0.666992 0.666992 -1 1.33398 -1 2.00098s-0.166992 1.16699 -0.5 1.5s-0.5 0.833008 -0.5 1.5c-0.666992 14.667 -5 26.667 -13 36
c0 -0.666992 -0.333008 -1.33398 -1 -2.00098v-2zM623.996 312.992c90 36 184.665 62.998 283.998 80.998c-1.33301 0.666992 -5.66602 3.83398 -12.999 9.50098s-12.666 10.167 -15.999 13.5c-50.667 44.667 -93 103.334 -127 176.001c-18 -57.333 -45.667 -123 -83 -197z
M1269.99 328.99c-16 16 -62.667 24 -140 24c50.667 -18.667 92 -28 124 -28c9.33301 0 15.333 0.333008 18 1c0 0.666992 -0.666992 1.66699 -2 3z" />
    <glyph glyph-name="guiconfiledocx" unicode="&#xf125;" 
d="M1500 1156c18.667 -18.667 34.668 -44.001 48.001 -76.001s20 -61.333 20 -88v-1152c0 -26.667 -9.33301 -49.334 -28 -68.001s-41.334 -28 -68.001 -28h-1344c-26.667 0 -49.334 9.33301 -68.001 28s-28 41.334 -28 68.001v1600c0 26.667 9.33301 49.334 28 68.001
s41.334 28 68.001 28h896c26.667 0 56 -6.66699 88 -20s57.333 -29.333 76 -48zM1056 1400v-376h376c-6.66699 19.333 -14 33 -22 41l-313 313c-8 8 -21.667 15.333 -41 22zM1440 -128.001l0.000976562 1024h-416c-26.667 0 -49.334 9.33301 -68.001 28
s-28 41.334 -28 68.001v416h-768v-1536h1280zM265.002 767.998l-0.00292969 -106.999h70l164 -661h159l128 485c4.66699 13.333 8 28.666 10 45.999c1.33301 10.667 2 18.667 2 24h4l3 -24c0.666992 -2 1.83398 -8.66699 3.50098 -20s3.5 -20 5.5 -26l128 -485h159l164 661
h70v107h-300v-107h90l-99 -438c-3.33301 -13.333 -5.66602 -28.666 -6.99902 -45.999l-2 -21h-4l-3 21l-4 21c-2 10.667 -3.66699 19 -5 25l-144 545h-114l-144 -545c-1.33301 -6 -2.83301 -14.167 -4.5 -24.5l-3.5 -21.5l-4 -21h-4l-2 21
c-1.33301 17.333 -3.66602 32.666 -6.99902 45.999l-99 438h90v107h-300z" />
    <glyph glyph-name="guiconfilexlsx" unicode="&#xf126;" 
d="M1500 1156c18.667 -18.667 34.668 -44.001 48.001 -76.001s20 -61.333 20 -88v-1152c0 -26.667 -9.33301 -49.334 -28 -68.001s-41.334 -28 -68.001 -28h-1344c-26.667 0 -49.334 9.33301 -68.001 28s-28 41.334 -28 68.001v1600c0 26.667 9.33301 49.334 28 68.001
s41.334 28 68.001 28h896c26.667 0 56 -6.66699 88 -20s57.333 -29.333 76 -48zM1056 1400v-376h376c-6.66699 19.333 -14 33 -22 41l-313 313c-8 8 -21.667 15.333 -41 22zM1440 -128.001l0.000976562 1024h-416c-26.667 0 -49.334 9.33301 -68.001 28
s-28 41.334 -28 68.001v416h-768v-1536h1280zM461.002 105.998v-106h281v106h-75l103 161c3.33301 4.66699 6.66602 10.167 9.99902 16.5s5.83301 10.833 7.5 13.5s2.83398 4 3.50098 4h2c0.666992 -2.66699 2.33398 -6 5.00098 -10
c1.33301 -2.66699 2.83301 -5.16699 4.5 -7.5l6 -8l6.5 -8.5l107 -161h-76v-106h291v106h-68l-192 273l195 282h67v107h-279v-107h74l-103 -159c-2.66699 -4.66699 -6 -10.167 -10 -16.5s-7 -10.833 -9 -13.5l-2 -3h-2c-0.666992 2.66699 -2.33398 6 -5.00098 10
c-4 7.33301 -9.66699 15 -17 23l-106 159h76v107h-290v-107h68l189 -272l-194 -283h-68z" />
    <glyph glyph-name="guiconfilepptx" unicode="&#xf127;" 
d="M1500 1156c18.667 -18.667 34.668 -44.001 48.001 -76.001s20 -61.333 20 -88v-1152c0 -26.667 -9.33301 -49.334 -28 -68.001s-41.334 -28 -68.001 -28h-1344c-26.667 0 -49.334 9.33301 -68.001 28s-28 41.334 -28 68.001v1600c0 26.667 9.33301 49.334 28 68.001
s41.334 28 68.001 28h896c26.667 0 56 -6.66699 88 -20s57.333 -29.333 76 -48zM1056 1400v-376h376c-6.66699 19.333 -14 33 -22 41l-313 313c-8 8 -21.667 15.333 -41 22zM1440 -128.001l0.000976562 1024h-416c-26.667 0 -49.334 9.33301 -68.001 28
s-28 41.334 -28 68.001v416h-768v-1536h1280zM448.002 105.998v-106.001h327v106h-93v167h137c50.667 0 90 5 118 15c44.667 15.333 80.167 44.333 106.5 87s39.5 91.334 39.5 146.001c0 54 -12.333 101 -37 141s-58 69 -100 87c-32 12.667 -75.333 19 -130 19h-368v-107h92
v-555h-92zM801.002 385.997h-119.001v268h120c34.667 0 62.334 -6 83.001 -18c37.333 -22 56 -60.333 56 -115c0 -59.333 -20.667 -99.333 -62 -120c-20.667 -10 -46.667 -15 -78 -15z" />
    <glyph glyph-name="guiconfilepng" unicode="&#xf128;" 
d="M1500 1156c18.667 -18.667 34.668 -44.001 48.001 -76.001s20 -61.333 20 -88v-1152c0 -26.667 -9.33301 -49.334 -28 -68.001s-41.334 -28 -68.001 -28h-1344c-26.667 0 -49.334 9.33301 -68.001 28s-28 41.334 -28 68.001v1600c0 26.667 9.33301 49.334 28 68.001
s41.334 28 68.001 28h896c26.667 0 56 -6.66699 88 -20s57.333 -29.333 76 -48zM1056 1400v-376h376c-6.66699 19.333 -14 33 -22 41l-313 313c-8 8 -21.667 15.333 -41 22zM1440 -128.001l0.000976562 1024h-416c-26.667 0 -49.334 9.33301 -68.001 28
s-28 41.334 -28 68.001v416h-768v-1536h1280zM1312 319.998v-320h-1024v192l192 192l128 -128l384 384zM480.002 511.998c-53.333 0 -98.666 18.667 -135.999 56s-56 82.666 -56 135.999s18.667 98.666 56 135.999s82.666 56 135.999 56s98.666 -18.667 135.999 -56
s56 -82.666 56 -135.999s-18.667 -98.666 -56 -135.999s-82.666 -56 -135.999 -56z" />
    <glyph glyph-name="guiconfilezip" unicode="&#xf129;" 
d="M672 1152v128h-128v-128h128zM800 1024v128h-128v-128h128zM672 896v128h-128v-128h128zM800 768v128h-128v-128h128zM1500 1156c18.667 -18.667 34.668 -44.001 48.001 -76.001s20 -61.333 20 -88v-1152c0 -26.667 -9.33301 -49.334 -28 -68.001
s-41.334 -28 -68.001 -28h-1344c-26.667 0 -49.334 9.33301 -68.001 28s-28 41.334 -28 68.001v1600c0 26.667 9.33301 49.334 28 68.001s41.334 28 68.001 28h896c26.667 0 56 -6.66699 88 -20s57.333 -29.333 76 -48zM1056 1400v-376h376c-6.66699 19.333 -14 33 -22 41
l-313 313c-8 8 -21.667 15.333 -41 22zM1440 -128.001l0.000976562 1024h-416c-26.667 0 -49.334 9.33301 -68.001 28s-28 41.334 -28 68.001v416h-128v-128h-128v128h-512v-1536h1280zM813.002 592.998l107 -349c5.33301 -18 8 -35.333 8 -52
c0 -55.333 -24.167 -101.166 -72.5 -137.499s-109.5 -54.5 -183.5 -54.5s-135.167 18.167 -183.5 54.5s-72.5 82.166 -72.5 137.499c0 16.667 2.66699 34 8 52c14 42 54 174 120 396v128h128v-128h79c14.667 0 27.667 -4.33301 39 -13s19 -20 23 -34zM672.002 127.998
c35.333 0 65.5 6.33301 90.5 19s37.5 27.667 37.5 45s-12.5 32.333 -37.5 45s-55.167 19 -90.5 19s-65.5 -6.33301 -90.5 -19s-37.5 -27.667 -37.5 -45s12.5 -32.333 37.5 -45s55.167 -19 90.5 -19z" />
    <glyph glyph-name="guiconfilemp3" unicode="&#xf12a;" 
d="M1500 1156c18.667 -18.667 34.668 -44.001 48.001 -76.001s20 -61.333 20 -88v-1152c0 -26.667 -9.33301 -49.334 -28 -68.001s-41.334 -28 -68.001 -28h-1344c-26.667 0 -49.334 9.33301 -68.001 28s-28 41.334 -28 68.001v1600c0 26.667 9.33301 49.334 28 68.001
s41.334 28 68.001 28h896c26.667 0 56 -6.66699 88 -20s57.333 -29.333 76 -48zM1056 1400v-376h376c-6.66699 19.333 -14 33 -22 41l-313 313c-8 8 -21.667 15.333 -41 22zM1440 -128.001l0.000976562 1024h-416c-26.667 0 -49.334 9.33301 -68.001 28
s-28 41.334 -28 68.001v416h-768v-1536h1280zM652.002 685.998c13.333 -5.33301 19.999 -15.333 19.999 -30v-544c0 -14.667 -6.66699 -24.667 -20 -30c-5.33301 -1.33301 -9.33301 -2 -12 -2c-8 0 -15.667 3 -23 9l-166 167h-131c-9.33301 0 -17 3 -23 9s-9 13.667 -9 23
v192c0 9.33301 3 17 9 23s13.667 9 23 9h131l166 167c10.667 10 22.334 12.333 35.001 7zM1069 -3.00195c20.667 0 37.333 8.00098 50 24.001c86 106 129 227 129 363s-43 257 -129 363c-10.667 14 -25 22 -43 24s-33.667 -2.66699 -47 -14
c-14 -11.333 -21.833 -25.833 -23.5 -43.5s3.16602 -33.5 14.499 -47.5c66.667 -82 100 -176 100 -282s-33.333 -200 -100 -282c-11.333 -14 -16.166 -29.833 -14.499 -47.5s9.5 -31.834 23.5 -42.501c12 -10 25.333 -15 40 -15zM858 144.999c18 0 33.667 6.66602 47 19.999
c58 62 87 135 87 219s-29 157 -87 219c-12 12.667 -27 19.334 -45 20.001s-33.333 -5 -46 -17s-19.334 -26.833 -20.001 -44.5s5.33301 -33.167 18 -46.5c34.667 -38 52 -81.667 52 -131s-17.333 -93 -52 -131c-12.667 -13.333 -18.667 -28.833 -18 -46.5
s7.33398 -32.5 20.001 -44.5c13.333 -11.333 28 -17 44 -17z" />
    <glyph glyph-name="guiconfileavi" unicode="&#xf12b;" 
d="M1500 1156c18.667 -18.667 34.668 -44.001 48.001 -76.001s20 -61.333 20 -88v-1152c0 -26.667 -9.33301 -49.334 -28 -68.001s-41.334 -28 -68.001 -28h-1344c-26.667 0 -49.334 9.33301 -68.001 28s-28 41.334 -28 68.001v1600c0 26.667 9.33301 49.334 28 68.001
s41.334 28 68.001 28h896c26.667 0 56 -6.66699 88 -20s57.333 -29.333 76 -48zM1056 1400v-376h376c-6.66699 19.333 -14 33 -22 41l-313 313c-8 8 -21.667 15.333 -41 22zM1440 -128.001l0.000976562 1024h-416c-26.667 0 -49.334 9.33301 -68.001 28
s-28 41.334 -28 68.001v416h-768v-1536h1280zM800.002 767.998c34.667 0 64.667 -12.667 90 -38s38 -55.333 38 -90v-384c0 -34.667 -12.667 -64.667 -38 -90s-55.333 -38 -90 -38h-384c-34.667 0 -64.667 12.667 -90 38s-38 55.333 -38 90v384
c0 34.667 12.667 64.667 38 90s55.333 38 90 38h384zM1292 765.998c13.333 -5.33301 20 -15.333 20 -30v-576c0 -14.667 -6.66699 -24.667 -20 -30c-5.33301 -1.33301 -9.33301 -2 -12 -2c-9.33301 0 -17 3 -23 9l-265 266v90l265 266c6 6 13.667 9 23 9
c2.66699 0 6.66699 -0.666992 12 -2z" />
    <glyph glyph-name="guiconfilexml" unicode="&#xf12c;" 
d="M1500 1156c18.667 -18.667 34.668 -44.001 48.001 -76.001s20 -61.333 20 -88v-1152c0 -26.667 -9.33301 -49.334 -28 -68.001s-41.334 -28 -68.001 -28h-1344c-26.667 0 -49.334 9.33301 -68.001 28s-28 41.334 -28 68.001v1600c0 26.667 9.33301 49.334 28 68.001
s41.334 28 68.001 28h896c26.667 0 56 -6.66699 88 -20s57.333 -29.333 76 -48zM1056 1400v-376h376c-6.66699 19.333 -14 33 -22 41l-313 313c-8 8 -21.667 15.333 -41 22zM1440 -128.001l0.000976562 1024h-416c-26.667 0 -49.334 9.33301 -68.001 28
s-28 41.334 -28 68.001v416h-768v-1536h1280zM512.002 767.998c5.33301 7.33301 12.333 11.499 21 12.499s16.667 -1.16699 24 -6.5l51 -38c7.33301 -5.33301 11.5 -12.333 12.5 -21s-1.16699 -16.667 -6.5 -24l-182 -243l182 -243c5.33301 -7.33301 7.5 -15.333 6.5 -24
s-5.16699 -15.667 -12.5 -21l-51 -38c-7.33301 -5.33301 -15.333 -7.5 -24 -6.5s-15.667 5.16699 -21 12.5l-226 301c-9.33301 12.667 -9.33301 25.334 0 38.001zM1314 466.997c9.33301 -12.667 9.33301 -25.333 0 -38l-226 -301c-5.33301 -7.33301 -12.333 -11.5 -21 -12.5
s-16.667 1.16699 -24 6.5l-51 38c-7.33301 5.33301 -11.5 12.333 -12.5 21s1.16699 16.667 6.5 24l182 243l-182 243c-5.33301 7.33301 -7.5 15.333 -6.5 24s5.16699 15.667 12.5 21l51 38c7.33301 5.33301 15.333 7.5 24 6.5s15.667 -5.16699 21 -12.5zM694.002 5.99805
c-8.66699 1.33301 -15.5 5.66602 -20.5 12.999s-6.83301 15.333 -5.5 24l138 831c1.33301 8.66699 5.66602 15.5 12.999 20.5s15.333 6.83301 24 5.5l63 -10c8.66699 -1.33301 15.5 -5.66602 20.5 -12.999s6.83301 -15.333 5.5 -24l-138 -831
c-1.33301 -8.66699 -5.66602 -15.5 -12.999 -20.5s-15.333 -6.83301 -24 -5.5z" />
    <glyph glyph-name="guiconfilehtml" unicode="&#xf12d;" 
d="M376 896h814l-73 -831l-334 -92l-334 92zM1090 745l3 35h-296h-295l3 -35l28 -323h264h145l-13 -154l-132 -35v0l-132 35l-9 94h-63h-53l15 -185l242 -66v0l242 66v22l29 308l3 34h-32h-242h-157l-9 119h166h283h3v26zM1500 1204
c18.667 -18.667 34.668 -44.001 48.001 -76.001s20 -61.333 20 -88v-1152c0 -26.667 -9.33301 -49.334 -28 -68.001s-41.334 -28 -68.001 -28h-1344c-26.667 0 -49.334 9.33301 -68.001 28s-28 41.334 -28 68.001v1600c0 26.667 9.33301 49.334 28 68.001
s41.334 28 68.001 28h896c26.667 0 56 -6.66699 88 -20s57.333 -29.333 76 -48zM1056 1448v-376h376c-6.66699 19.333 -14 33 -22 41l-313 313c-8 8 -21.667 15.333 -41 22zM1440 -80.001l0.000976562 1024h-416c-26.667 0 -49.334 9.33301 -68.001 28
s-28 41.334 -28 68.001v416h-768v-1536h1280z" />
    <glyph glyph-name="guiconfilehtm" unicode="&#xf12e;" 
d="M1500 1156c18.667 -18.667 34.668 -44.001 48.001 -76.001s20 -61.333 20 -88v-1152c0 -26.667 -9.33301 -49.334 -28 -68.001s-41.334 -28 -68.001 -28h-1344c-26.667 0 -49.334 9.33301 -68.001 28s-28 41.334 -28 68.001v1600c0 26.667 9.33301 49.334 28 68.001
s41.334 28 68.001 28h896c26.667 0 56 -6.66699 88 -20s57.333 -29.333 76 -48zM1056 1400v-376h376c-6.66699 19.333 -14 33 -22 41l-313 313c-8 8 -21.667 15.333 -41 22zM1440 -128.001l0.000976562 1024h-416c-26.667 0 -49.334 9.33301 -68.001 28
s-28 41.334 -28 68.001v416h-768v-1536h1280zM1229 442.498c0 57.667 -11.167 112.667 -33.5 165s-52.5 97.5 -90.5 135.5s-83.167 68.167 -135.5 90.5s-107.333 33.5 -165 33.5s-112.667 -11.167 -165 -33.5s-97.5 -52.5 -135.5 -90.5s-68.167 -83.167 -90.5 -135.5
s-33.5 -107.333 -33.5 -165s11.167 -112.667 33.5 -165s52.5 -97.5 90.5 -135.5s83.167 -68.167 135.5 -90.5s107.333 -33.5 165 -33.5s112.667 11.167 165 33.5s97.5 52.5 135.5 90.5s68.167 83.167 90.5 135.5s33.5 107.333 33.5 165zM710.002 437.998
c-118.667 12 -204.665 47.999 -257.998 107.999c23.333 75.333 66 137.5 128 186.5s133.333 75.167 214 78.5c-10.667 -17.333 -19.667 -37.166 -27 -59.499s-12.333 -45.666 -15 -69.999s-0.666992 -48.5 6 -72.5s18 -44 34 -60c-10.667 -2 -21.334 -1.16699 -32.001 2.5
s-19.834 8.5 -27.501 14.5l-24 18.5c-8.33301 6.33301 -15.5 12 -21.5 17s-12.833 7.83301 -20.5 8.5s-14.5 -1.66602 -20.5 -6.99902c-28 -22 -34.667 -45.667 -20 -71c15.333 -27.333 51 -50 107 -68c20 -6 41 -11 63 -15c30.667 -5.33301 56.667 -11.833 78 -19.5
s38.166 -15.5 50.499 -23.5s21.833 -17.833 28.5 -29.5s10.834 -22.834 12.501 -33.501s2.5 -24 2.5 -40c-2 -93.333 -66 -167 -192 -221c0.666992 26.667 -1.16602 50.5 -5.49902 71.5s-10.333 38.167 -18 51.5s-16.167 25 -25.5 35s-19.333 18.167 -30 24.5l-29.5 17.5
c-9 5.33301 -17.5 11.166 -25.5 17.499s-13.667 12.833 -17 19.5c3.33301 13.333 6.33301 24 9 32s7 17.667 13 29s14.167 21.833 24.5 31.5s23.166 18.5 38.499 26.5zM1111 641.997c9.33301 -15.333 17.667 -30.835 25 -46.502s13.5 -30.167 18.5 -43.5
s8.66699 -27.333 11 -42s4 -27.5 5 -38.5s1.33301 -22.833 1 -35.5s-1 -23 -2 -31s-2.66699 -17.167 -5 -27.5s-4.16602 -17.666 -5.49902 -21.999s-3 -10.166 -5 -17.499l-4 -12c-6.66699 16.667 -14.834 32 -24.501 46s-19.167 25.667 -28.5 35l-27 27
c-8.66699 8.66699 -16.5 18 -23.5 28s-12.167 20.333 -15.5 31c-12 43.333 14.667 93 80 149z" />
    <glyph glyph-name="guiconfilecss" unicode="&#xf12f;" 
d="M503 819h829l-147 -734l-442 -147l-385 147l39 196h164l-16 -81l232 -89l268 89l37 187h-665l32 163h666l21 105h-665zM1500 1156c18.667 -18.667 34.668 -44.001 48.001 -76.001s20 -61.333 20 -88v-1152c0 -26.667 -9.33301 -49.334 -28 -68.001
s-41.334 -28 -68.001 -28h-1344c-26.667 0 -49.334 9.33301 -68.001 28s-28 41.334 -28 68.001v1600c0 26.667 9.33301 49.334 28 68.001s41.334 28 68.001 28h896c26.667 0 56 -6.66699 88 -20s57.333 -29.333 76 -48zM1056 1400v-376h376c-6.66699 19.333 -14 33 -22 41
l-313 313c-8 8 -21.667 15.333 -41 22zM1440 -128.001l0.000976562 1024h-416c-26.667 0 -49.334 9.33301 -68.001 28s-28 41.334 -28 68.001v416h-768v-1536h1280z" />
    <glyph glyph-name="guiconfilephp" unicode="&#xf130;" 
d="M1500 1156c18.667 -18.667 34.668 -44.001 48.001 -76.001s20 -61.333 20 -88v-1152c0 -26.667 -9.33301 -49.334 -28 -68.001s-41.334 -28 -68.001 -28h-1344c-26.667 0 -49.334 9.33301 -68.001 28s-28 41.334 -28 68.001v1600c0 26.667 9.33301 49.334 28 68.001
s41.334 28 68.001 28h896c26.667 0 56 -6.66699 88 -20s57.333 -29.333 76 -48zM1056 1400v-376h376c-6.66699 19.333 -14 33 -22 41l-313 313c-8 8 -21.667 15.333 -41 22zM1440 -128.001l0.000976562 1024h-416c-26.667 0 -49.334 9.33301 -68.001 28
s-28 41.334 -28 68.001v416h-768v-1536h1280zM852.502 741.498c43 36.333 102.833 54.5 179.5 54.5c56.667 0 104.5 -9.66699 143.5 -29s68 -44.833 87 -76.5s28.5 -66.5 28.5 -104.5c0 -57.333 -20.5 -105.666 -61.5 -144.999s-94.167 -68.333 -159.5 -87l-13 -115h-103
l-12 115c70 29.333 119.167 63.833 147.5 103.5s42.5 90.5 42.5 152.5c0 44.667 -8.33301 76.334 -25 95.001s-41.667 28 -75 28c-36 0 -62.833 -14.333 -80.5 -43s-28.167 -69.334 -31.5 -122.001l-143 18c7.33301 67.333 32.5 119.166 75.5 155.499zM933.002 28.498
c-17.333 17 -26 37.5 -26 61.5c0 23.333 8.66699 43.333 26 60s38.333 25 63 25c25.333 0 46.833 -8.33301 64.5 -25s26.5 -36.667 26.5 -60c0 -24 -8.83301 -44.5 -26.5 -61.5s-39.167 -25.5 -64.5 -25.5c-24.667 0 -45.667 8.5 -63 25.5zM731.002 576.998l-305 -197
l305 -198v-173l-395 273v197l395 273v-175z" />
    <glyph glyph-name="guiconfileless" unicode="&#xf131;" 
d="M1500 1156c18.667 -18.667 34.668 -44.001 48.001 -76.001s20 -61.333 20 -88v-1152c0 -26.667 -9.33301 -49.334 -28 -68.001s-41.334 -28 -68.001 -28h-1344c-26.667 0 -49.334 9.33301 -68.001 28s-28 41.334 -28 68.001v1600c0 26.667 9.33301 49.334 28 68.001
s41.334 28 68.001 28h896c26.667 0 56 -6.66699 88 -20s57.333 -29.333 76 -48zM1056 1400v-376h376c-6.66699 19.333 -14 33 -22 41l-313 313c-8 8 -21.667 15.333 -41 22zM1440 -128.001l0.000976562 1024h-416c-26.667 0 -49.334 9.33301 -68.001 28
s-28 41.334 -28 68.001v416h-768v-1536h1280zM601.002 372.998c11.333 -12.667 17 -30.002 17 -52.002c0 -12.667 -1.33301 -31.334 -4 -56.001c-2.66699 -26.667 -4 -50.334 -4 -71.001c0 -108 30.333 -162 91 -162v-62c-76.667 0 -132.334 19.333 -167.001 58
s-52 89.667 -52 153c0 15.333 1.33301 36.333 4 63c0.666992 6.66699 1.33398 14.334 2.00098 23.001s1 18.667 1 30c0 20.667 -6.33301 35.834 -19 45.501s-26 14.5 -40 14.5v63c14 0 27.333 4.83301 40 14.5s19 24.834 19 45.501c0 11.333 -0.333008 21.333 -1 30
s-1.33398 16.334 -2.00098 23.001c-2.66699 26.667 -4 47.667 -4 63c0 64.667 17.333 116 52 154s90.334 57 167.001 57v-62c-60.667 0 -91 -51.333 -91 -154c0 -18 1.33301 -40 4 -66c2.66699 -23.333 4 -41.333 4 -54c0 -22 -5.66699 -39.5 -17 -52.5
s-25.333 -19.5 -42 -19.5v-7c16.667 0 30.667 -6.33301 42 -19zM1032 398.996c-16.667 0 -30.667 6.50195 -42 19.502s-17 30.5 -17 52.5c0 12.667 1.33301 30.667 4 54c2.66699 26 4 48 4 66c0 102.667 -30.333 154 -91 154v62c76.667 0 132.334 -19 167.001 -57
s52 -89.333 52 -154c0 -15.333 -1.33301 -36.333 -4 -63c-0.666992 -6.66699 -1.33398 -14.334 -2.00098 -23.001s-1 -18.667 -1 -30c0 -20.667 6.33301 -35.834 19 -45.501s26 -14.5 40 -14.5v-63c-14 0 -27.333 -4.83301 -40 -14.5s-19 -24.834 -19 -45.501
c0 -11.333 0.333008 -21.333 1 -30s1.33398 -16.334 2.00098 -23.001c2.66699 -26.667 4 -47.667 4 -63c0 -63.333 -17.333 -114.333 -52 -153s-90.334 -58 -167.001 -58v62c60.667 0 91 54 91 162c0 20.667 -1.33301 44.334 -4 71.001c-2.66699 24.667 -4 43.334 -4 56.001
c0 22 5.66699 39.333 17 52s25.333 19 42 19v7z" />
    <glyph glyph-name="guiconfilejs" unicode="&#xf132;" 
d="M1500 1156c18.667 -18.667 34.668 -44.001 48.001 -76.001s20 -61.333 20 -88v-1152c0 -26.667 -9.33301 -49.334 -28 -68.001s-41.334 -28 -68.001 -28h-1344c-26.667 0 -49.334 9.33301 -68.001 28s-28 41.334 -28 68.001v1600c0 26.667 9.33301 49.334 28 68.001
s41.334 28 68.001 28h896c26.667 0 56 -6.66699 88 -20s57.333 -29.333 76 -48zM1056 1400v-376h376c-6.66699 19.333 -14 33 -22 41l-313 313c-8 8 -21.667 15.333 -41 22zM1440 -128.001l0.000976562 1024h-416c-26.667 0 -49.334 9.33301 -68.001 28
s-28 41.334 -28 68.001v416h-768v-1536h1280zM416.002 735.998c0 9.33301 3 17 9 23s13.667 9 23 9h704c9.33301 0 17 -3 23 -9s9 -13.667 9 -23v-64c0 -9.33301 -3 -17 -9 -23s-13.667 -9 -23 -9h-704c-9.33301 0 -17 3 -23 9s-9 13.667 -9 23v64zM1152 591.998
c9.33301 0 17 -3 23 -9s9 -13.667 9 -23v-64c0 -9.33301 -3 -17 -9 -23s-13.667 -9 -23 -9h-704c-9.33301 0 -17 3 -23 9s-9 13.667 -9 23v64c0 9.33301 3 17 9 23s13.667 9 23 9h704zM1152 405.998c9.33301 0 17 -3 23 -9s9 -13.667 9 -23v-64c0 -9.33301 -3 -17 -9 -23
s-13.667 -9 -23 -9h-704c-9.33301 0 -17 3 -23 9s-9 13.667 -9 23v64c0 9.33301 3 17 9 23s13.667 9 23 9h704zM851.002 22.498c6 -3 13.333 -4.50098 22 -4.50098c8 0 14.333 2.33301 19 7s7 10.334 7 17.001v179h62v-173c0 -36 -28 -54 -84 -54
c-19.333 0 -40 3.66699 -62 11l19 30c5.33301 -5.33301 11 -9.5 17 -12.5zM1150.5 109.497c9.66699 -9.66699 14.501 -23.5 14.501 -41.5c0 -20.667 -7 -37 -21 -49s-32.333 -18 -55 -18c-28 0 -48.5 5.83301 -61.5 17.5s-21.167 28.5 -24.5 50.5l42 4
c1.33301 -14 5.66602 -24.833 12.999 -32.5s17.666 -11.5 30.999 -11.5c9.33301 0 17 2.66699 23 8s9 12 9 20c0 7.33301 -3.16699 13.5 -9.5 18.5s-16.833 9.5 -31.5 13.5l-19 6c-18 5.33301 -31.5 13 -40.5 23s-13.5 24.333 -13.5 43c0 20 6.83301 35.667 20.5 47
s31.834 17 54.501 17c26 0 45.333 -5.66699 58 -17s20.334 -28 23.001 -50l-42 -3c-1.33301 13.333 -5.33301 23.666 -12 30.999s-15.667 11 -27 11c-10 0 -17.833 -2.16699 -23.5 -6.5s-8.5 -10.166 -8.5 -17.499c0 -8.66699 3.16699 -15.5 9.5 -20.5
s16.166 -9.83301 29.499 -14.5l18 -5c19.333 -6 33.833 -13.833 43.5 -23.5z" />
    <glyph glyph-name="guiconfiledb" unicode="&#xf134;" 
d="M1500 1156c18.667 -18.667 34.668 -44.001 48.001 -76.001s20 -61.333 20 -88v-1152c0 -26.667 -9.33301 -49.334 -28 -68.001s-41.334 -28 -68.001 -28h-1344c-26.667 0 -49.334 9.33301 -68.001 28s-28 41.334 -28 68.001v1600c0 26.667 9.33301 49.334 28 68.001
s41.334 28 68.001 28h896c26.667 0 56 -6.66699 88 -20s57.333 -29.333 76 -48zM1056 1400v-376h376c-6.66699 19.333 -14 33 -22 41l-313 313c-8 8 -21.667 15.333 -41 22zM1440 -128.001l0.000976562 1024h-416c-26.667 0 -49.334 9.33301 -68.001 28
s-28 41.334 -28 68.001v416h-768v-1536h1280zM781.502 486.998c82.333 0 159.168 7.33301 230.501 22s127.666 36.667 168.999 66v-88c0 -24 -17.833 -46.333 -53.5 -67s-84.167 -37 -145.5 -49s-128.166 -18 -200.499 -18s-139.166 6 -200.499 18
s-109.833 28.333 -145.5 49s-53.5 43 -53.5 67v88c41.333 -29.333 97.666 -51.333 168.999 -66s148.166 -22 230.499 -22zM781.504 86.998c82.333 0 159.168 7.5 230.501 22.5s127.666 37.167 168.999 66.5v-89c0 -24 -17.833 -46.167 -53.5 -66.5
s-84.167 -36.5 -145.5 -48.5s-128.166 -18 -200.499 -18s-139.166 6 -200.499 18s-109.833 28.167 -145.5 48.5s-53.5 42.5 -53.5 66.5v89c41.333 -29.333 97.666 -51.5 168.999 -66.5s148.166 -22.5 230.499 -22.5zM781.506 286.998c82.333 0 159.168 7.5 230.501 22.5
s127.666 36.833 168.999 65.5v-88c0 -24 -17.833 -46.167 -53.5 -66.5s-84.167 -36.5 -145.5 -48.5s-128.166 -18 -200.499 -18s-139.166 6 -200.499 18s-109.833 28.167 -145.5 48.5s-53.5 42.5 -53.5 66.5v88c41.333 -28.667 97.666 -50.5 168.999 -65.5
s148.166 -22.5 230.499 -22.5zM781.508 885.998c72.333 0 139.166 -6 200.499 -18s109.833 -28.167 145.5 -48.5s53.5 -42.5 53.5 -66.5v-67c0 -24 -17.833 -46.167 -53.5 -66.5s-84.167 -36.5 -145.5 -48.5s-128.166 -18 -200.499 -18s-139.166 6 -200.499 18
s-109.833 28.167 -145.5 48.5s-53.5 42.5 -53.5 66.5v67c0 24 17.833 46.167 53.5 66.5s84.167 36.5 145.5 48.5s128.166 18 200.499 18z" />
  </font>
</defs>
</svg>
