<?xml version="1.0" standalone="no"?>
<!DOCTYPE svg PUBLIC "-//W3C//DTD SVG 1.1//EN" "http://www.w3.org/Graphics/SVG/1.1/DTD/svg11.dtd" >
<svg>
<metadata>
Created by FontForge 20090914 at Tue Feb 24 21:11:15 2015
 By www-data
Copyright (c) 2012, Pablo Impallari (www.impallari.com|impallari@gmail.com), Rodrigo Fuenzalida (www.rfuenzalida.com), with Reserved Font Name Poetsen.
</metadata>
<defs>
<font id="PoetsenOne-Regular" horiz-adv-x="619" >
  <font-face 
    font-family="Poetsen One"
    font-weight="400"
    font-stretch="normal"
    units-per-em="1000"
    panose-1="2 1 8 3 3 0 0 13 2 3"
    ascent="800"
    descent="-200"
    x-height="549.998"
    cap-height="709.999"
    bbox="-174 -200.007 1197 1000"
    underline-thickness="50"
    underline-position="-50"
    unicode-range="U+0020-U+FB04"
  />
<missing-glyph horiz-adv-x="648" 
d="M534 1000c30 0 51.498 -7.33203 64.498 -21.999s19.5 -35.667 19.5 -63c0 -6.66699 -1 -26.5 -3 -59.5l-7.5 -120.5c-3 -47.333 -6.5 -99 -10.5 -155l-11.5 -162.5c-3.66699 -52.333 -7.16699 -100 -10.5 -143s-5.66602 -75.167 -6.99902 -96.5l-8 -109l-7.5 -104.5
c-2.33301 -32.333 -4.16602 -60.666 -5.49902 -84.999s-2 -40.833 -2 -49.5c0 -10 -5.33301 -15 -16 -15h-418c-29.333 0 -50.166 7.66699 -62.499 23s-18.5 36 -18.5 62c0 4.66699 0.5 17.167 1.5 37.5s2.5 45.666 4.5 75.999l7 103l8 118.5
c2.66699 40.667 5.5 81.5 8.5 122.5l8.5 115.5l7 97c2 28.667 3.66699 51 5 67l8 108.5l7.5 105c2.33301 32.333 4.16602 60.666 5.49902 84.999s2 40.833 2 49.5c0 10 5.33301 15 16 15h415zM404.998 -71.999l66.001 959h-228l-6.5 -98.5
c-3 -45.667 -6.66699 -98.5 -11 -158.5l-13.5 -192l-14 -199l-12.5 -179c-3.66699 -54.667 -6.83398 -98.667 -9.50098 -132h229z" />
    <glyph glyph-name="f_f" unicode="ff" horiz-adv-x="755" 
d="M551 346c-1.33301 -20 -2.99902 -41.6602 -4.99902 -64.9932l-6 -70.5c-2 -23.667 -3.83301 -46.834 -5.5 -69.501l-4.5 -60c-1.33301 -17.333 -2.5 -31.666 -3.5 -42.999s-1.5 -17.333 -1.5 -18c-0.666992 -8 -2.33398 -13.333 -5.00098 -16s-8.33398 -4 -17.001 -4h-36
c-36 0 -61.167 8.5 -75.5 25.5s-21.5 42.5 -21.5 76.5c0 4 0.5 14 1.5 30s2.33301 35.167 4 57.5l5.5 74.5l6 82h-139c-1.33301 -20 -3 -41.667 -5 -65l-6 -70.5c-2 -23.667 -3.83301 -46.834 -5.5 -69.501l-4.5 -60c-1.33301 -17.333 -2.5 -31.666 -3.5 -42.999
s-1.5 -17.333 -1.5 -18c-0.666992 -8 -2.33398 -13.333 -5.00098 -16s-8.33398 -4 -17.001 -4h-36c-18 0 -33.167 1.33301 -45.5 4s-22.333 7.66699 -30 15s-13.167 17.666 -16.5 30.999s-5 30.666 -5 51.999c1.33301 26 3.33301 52.667 6 80
c1.33301 23.333 3.16602 49.333 5.49902 78s4.5 57.334 6.5 86.001h-48c-7.33301 0 -11 3.66699 -11 11l3 54c0.666992 8 1.83398 16.167 3.50098 24.5s4.66699 15.666 9 21.999s10.833 11.666 19.5 15.999s20.334 6.83301 35.001 7.5c0 5.33301 0.333008 9 1 11
c4 43.333 13.333 79.833 28 109.5s33.167 53.667 55.5 72s48 31.5 77 39.5s59.5 12 91.5 12c27.333 0 51.5 -2 72.5 -6s39.5 -9.66699 55.5 -17c20 17.333 43.5 29.666 70.5 36.999s57.5 11 91.5 11c33.333 0 61.833 -3 85.5 -9s42.834 -14.333 57.501 -25
s25.334 -23.334 32.001 -38.001s10 -30.334 10 -47.001c0 -34.667 -10.833 -59.334 -32.5 -74.001s-50.834 -22 -87.501 -22c-10 0 -16.833 0.833008 -20.5 2.5s-5.5 5.5 -5.5 11.5c0 22 -2 39.333 -6 52s-15 19 -33 19c-13.333 0 -24.666 -4 -33.999 -12
s-17 -18.5 -23 -31.5s-10.5 -27.833 -13.5 -44.5s-5.5 -33.667 -7.5 -51h115c10.667 0 16 -4.66699 16 -14l-4 -54c-1.33301 -20 -6.83301 -36.167 -16.5 -48.5s-29.5 -18.5 -59.5 -18.5h-61zM349.001 591.007c-14 0 -26.167 -2.83398 -36.5 -8.50098s-19 -13.5 -26 -23.5
s-12.5 -21.667 -16.5 -35s-7.33301 -27.666 -10 -42.999h138l4 40c0 21.333 -3.66699 38.333 -11 51s-21.333 19 -42 19z" />
    <glyph glyph-name="f_i" unicode="fi" horiz-adv-x="577" 
d="M454 0c-20.667 0 -37.4971 2.1709 -50.4971 6.50391s-23.333 10.5 -31 18.5s-13 17.833 -16 29.5s-4.5 25.167 -4.5 40.5c0 8.66699 0.166992 17.5 0.5 26.5s1.16602 22 2.49902 39l5.5 69c2.33301 29 5.16602 67.833 8.49902 116.5h-121c-1.33301 -20 -3 -41.667 -5 -65
l-6 -70.5c-2 -23.667 -3.83301 -46.834 -5.5 -69.501l-4.5 -60c-1.33301 -17.333 -2.5 -31.666 -3.5 -42.999s-1.5 -17.333 -1.5 -18c-0.666992 -8 -2.33398 -13.333 -5.00098 -16s-8.33398 -4 -17.001 -4h-36c-18 0 -33.167 1.33301 -45.5 4s-22.333 7.66699 -30 15
s-13.167 17.666 -16.5 30.999s-5 30.666 -5 51.999c2 24.667 4 50.667 6 78c1.33301 23.333 3 49.5 5 78.5s4.33301 58.167 7 87.5h-48c-7.33301 0 -11 3.66699 -11 11l3 54c0.666992 8 1.83398 16.167 3.50098 24.5s4.66699 15.666 9 21.999s10.833 11.666 19.5 15.999
s20 6.83301 34 7.5l4 40c4 43.333 12.833 79.833 26.5 109.5s31.334 53.667 53.001 72s47.334 31.5 77.001 39.5s63.167 12 100.5 12c36.667 0 68 -3.16699 94 -9.5s47.333 -15.166 64 -26.499s28.667 -24.5 36 -39.5s11 -30.833 11 -47.5
c0 -34.667 -10.833 -59.334 -32.5 -74.001s-50.834 -22 -87.501 -22c-10 0 -16.833 0.833008 -20.5 2.5s-5.5 5.5 -5.5 11.5c0 10.667 -0.5 20.5 -1.5 29.5s-3.5 16.5 -7.5 22.5s-10 10.667 -18 14s-18.667 5 -32 5c-16.667 0 -30.667 -4 -42 -12
s-20.666 -18.5 -27.999 -31.5s-13 -27.833 -17 -44.5s-7.33301 -33.667 -10 -51h181c20 0 36.333 -2.16699 49 -6.5s22.667 -10.5 30 -18.5s12.5 -17.5 15.5 -28.5s4.5 -23.5 4.5 -37.5c0 -10 -0.333008 -21.333 -1 -34s-2 -32 -4 -58l-8 -104.5
c-3.33301 -43.667 -8 -101.5 -14 -173.5c-0.666992 -8 -2.33398 -13.333 -5.00098 -16s-8.33398 -4 -17.001 -4h-36z" />
    <glyph glyph-name="f_l" unicode="fl" horiz-adv-x="614" 
d="M469 -9c-40 0 -69.3311 10.835 -87.998 32.502s-28 52.167 -28 91.5c0 0.666992 0.833008 10.334 2.5 29.001s3.66699 42.667 6 72l7.5 97.5l7.5 104.5c2.33301 34 4.33301 65.5 6 94.5s2.5 51.5 2.5 67.5c0 15.333 -2.5 25.833 -7.5 31.5s-14.167 8.5 -27.5 8.5
c-16 0 -29.333 -3.5 -40 -10.5s-19.334 -16.667 -26.001 -29s-11.834 -27 -15.501 -44s-6.83398 -35.5 -9.50098 -55.5h44c10.667 0 16 -4.66699 16 -14l-4 -54c-1.33301 -20 -7.66602 -36.167 -18.999 -48.5s-27.333 -18.5 -48 -18.5l-14 -174l-7.5 -97
c-1.66699 -22 -2.83398 -36.333 -3.50098 -43s-1 -10.667 -1 -12c-0.666992 -8 -2.33398 -13.333 -5.00098 -16s-8.33398 -4 -17.001 -4h-36c-18 0 -33.167 1.33301 -45.5 4s-22.333 7.66699 -30 15s-13.167 17.666 -16.5 30.999s-5 30.666 -5 51.999
c2 24.667 4 50.667 6 78c1.33301 23.333 3 49.5 5 78.5s4.33301 58.167 7 87.5h-48c-7.33301 0 -11 3.66699 -11 11l3 54c0.666992 8 1.83398 16.167 3.50098 24.5s4.66699 15.666 9 21.999s10.833 11.666 19.5 15.999s20 6.83301 34 7.5l4 40
c4.66699 44 13.334 81 26.001 111s29.834 54 51.501 72s48 30.833 79 38.5s67.167 11.5 108.5 11.5c38 0 69.333 -3 94 -9s44 -15.167 58 -27.5s23.833 -27.833 29.5 -46.5s8.5 -40.667 8.5 -66c0 -15.333 -0.666992 -34.166 -2 -56.499s-3.16602 -46.5 -5.49902 -72.5
l-7 -81l-7 -81c-2.33301 -26 -4.16602 -50.333 -5.49902 -73s-2 -41.667 -2 -57c0 -20 3.16699 -34.333 9.5 -43s13.166 -14.334 20.499 -17.001s14.166 -4.33398 20.499 -5.00098s9.5 -3 9.5 -7c0 -15.333 -1.66699 -30.166 -5 -44.499s-9.5 -27.166 -18.5 -38.499
s-21 -20.5 -36 -27.5s-33.833 -10.5 -56.5 -10.5z" />
    <glyph glyph-name="f_f_i" unicode="ffi" horiz-adv-x="880" 
d="M757 0c-20.667 0 -37.4922 2.17285 -50.4922 6.50586s-23.333 10.5 -31 18.5s-13 17.833 -16 29.5s-4.5 25.167 -4.5 40.5c0 8.66699 0.166992 17.5 0.5 26.5s1.16602 22 2.49902 39l5.5 69c2.33301 29 5.16602 67.833 8.49902 116.5h-121
c-1.33301 -20 -3 -41.667 -5 -65l-6 -70.5c-2 -23.667 -3.83301 -46.834 -5.5 -69.501l-4.5 -60c-1.33301 -17.333 -2.5 -31.666 -3.5 -42.999s-1.5 -17.333 -1.5 -18c-0.666992 -8 -2.33398 -13.333 -5.00098 -16s-8.33398 -4 -17.001 -4h-36
c-18 0 -33.167 1.33301 -45.5 4s-22.333 7.66699 -30 15s-13.167 17.666 -16.5 30.999s-5 30.666 -5 51.999c2 24.667 4 50.667 6 78c1.33301 23.333 3 49.5 5 78.5s4.33301 58.167 7 87.5h-140c-1.33301 -20 -3 -41.667 -5 -65l-6 -70.5
c-2 -23.667 -3.83301 -46.834 -5.5 -69.501l-4.5 -60c-1.33301 -17.333 -2.5 -31.666 -3.5 -42.999s-1.5 -17.333 -1.5 -18c-0.666992 -8 -2.33398 -13.333 -5.00098 -16s-8.33398 -4 -17.001 -4h-36c-18 0 -33.167 1.33301 -45.5 4s-22.333 7.66699 -30 15
s-13.167 17.666 -16.5 30.999s-5 30.666 -5 51.999c1.33301 26 3.33301 52.667 6 80c1.33301 23.333 3.16602 49.333 5.49902 78s4.5 57.334 6.5 86.001h-48c-7.33301 0 -11 3.66699 -11 11l3 54c0.666992 8 1.83398 16.167 3.50098 24.5s4.66699 15.666 9 21.999
s10.833 11.666 19.5 15.999s20.334 6.83301 35.001 7.5c0 5.33301 0.333008 9 1 11c4 43.333 13.333 79.833 28 109.5s33.167 53.667 55.5 72s48 31.5 77 39.5s59.5 12 91.5 12c53.333 0 96.666 -8.33301 129.999 -25c22 19.333 48 33.166 78 41.499s64 12.5 102 12.5
c36.667 0 68 -3.16699 94 -9.5s47.333 -15.166 64 -26.499s28.667 -24.5 36 -39.5s11 -30.833 11 -47.5c0 -34.667 -10.833 -59.334 -32.5 -74.001s-50.834 -22 -87.501 -22c-10 0 -16.833 0.833008 -20.5 2.5s-5.5 5.5 -5.5 11.5c0 10.667 -0.5 20.5 -1.5 29.5
s-3.5 16.5 -7.5 22.5s-10 10.667 -18 14s-18.667 5 -32 5c-16.667 0 -30.667 -4 -42 -12s-20.666 -18.5 -27.999 -31.5s-13 -27.833 -17 -44.5s-7.33301 -33.667 -10 -51h181c20 0 36.333 -2.16699 49 -6.5s22.667 -10.5 30 -18.5s12.5 -17.5 15.5 -28.5
s4.5 -23.5 4.5 -37.5c0 -10 -0.333008 -21.333 -1 -34s-2 -32 -4 -58l-8 -104.5c-3.33301 -43.667 -8 -101.5 -14 -173.5c-0.666992 -8 -2.33398 -13.333 -5.00098 -16s-8.33398 -4 -17.001 -4h-36zM349.008 591.006c-14 0 -26.167 -2.83398 -36.5 -8.50098
s-19 -13.5 -26 -23.5s-12.5 -21.667 -16.5 -35s-7.33301 -27.666 -10 -42.999h138l4 40c0 21.333 -3.66699 38.333 -11 51s-21.333 19 -42 19z" />
    <glyph glyph-name="f_f_l" unicode="ffl" horiz-adv-x="917" 
d="M772 -9c-40 0 -69.3271 10.8359 -87.9941 32.5029s-28 52.167 -28 91.5c0 0.666992 0.833008 10.334 2.5 29.001s3.66699 42.667 6 72l7.5 97.5l7.5 104.5c2.33301 34 4.33301 65.5 6 94.5s2.5 51.5 2.5 67.5c0 15.333 -2.5 25.833 -7.5 31.5s-14.167 8.5 -27.5 8.5
c-16 0 -29.333 -3.5 -40 -10.5s-19.334 -16.667 -26.001 -29s-11.834 -27 -15.501 -44s-6.83398 -35.5 -9.50098 -55.5h44c10.667 0 16 -4.66699 16 -14l-4 -54c-1.33301 -20 -7.66602 -36.167 -18.999 -48.5s-27.333 -18.5 -48 -18.5l-14 -174l-7.5 -97
c-1.66699 -22 -2.83398 -36.333 -3.50098 -43s-1 -10.667 -1 -12c-0.666992 -8 -2.33398 -13.333 -5.00098 -16s-8.33398 -4 -17.001 -4h-36c-18 0 -33.167 1.33301 -45.5 4s-22.333 7.66699 -30 15s-13.167 17.666 -16.5 30.999s-5 30.666 -5 51.999
c2 24.667 4 50.667 6 78c1.33301 23.333 3 49.5 5 78.5s4.33301 58.167 7 87.5h-140c-1.33301 -20 -3 -41.667 -5 -65l-6 -70.5c-2 -23.667 -3.83301 -46.834 -5.5 -69.501l-4.5 -60c-1.33301 -17.333 -2.5 -31.666 -3.5 -42.999s-1.5 -17.333 -1.5 -18
c-0.666992 -8 -2.33398 -13.333 -5.00098 -16s-8.33398 -4 -17.001 -4h-36c-18 0 -33.167 1.33301 -45.5 4s-22.333 7.66699 -30 15s-13.167 17.666 -16.5 30.999s-5 30.666 -5 51.999c1.33301 26 3.33301 52.667 6 80c1.33301 23.333 3.16602 49.333 5.49902 78
s4.5 57.334 6.5 86.001h-48c-7.33301 0 -11 3.66699 -11 11l3 54c0.666992 8 1.83398 16.167 3.50098 24.5s4.66699 15.666 9 21.999s10.833 11.666 19.5 15.999s20.334 6.83301 35.001 7.5c0 5.33301 0.333008 9 1 11c4 43.333 13.333 79.833 28 109.5
s33.167 53.667 55.5 72s48 31.5 77 39.5s59.5 12 91.5 12c27.333 0 51.5 -2 72.5 -6s39.5 -9.66699 55.5 -17c21.333 18.667 47.833 32 79.5 40s68.5 12 110.5 12c38 0 69.333 -3 94 -9s44 -15.167 58 -27.5s23.833 -27.833 29.5 -46.5s8.5 -40.667 8.5 -66
c0 -15.333 -0.666992 -34.166 -2 -56.499s-3.16602 -46.5 -5.49902 -72.5l-7 -81l-7 -81c-2.33301 -26 -4.16602 -50.333 -5.49902 -73s-2 -41.667 -2 -57c0 -20 3.16699 -34.333 9.5 -43s13.166 -14.334 20.499 -17.001s14.166 -4.33398 20.499 -5.00098s9.5 -3 9.5 -7
c0 -15.333 -1.66699 -30.166 -5 -44.499s-9.5 -27.166 -18.5 -38.499s-21 -20.5 -36 -27.5s-33.833 -10.5 -56.5 -10.5zM349.006 591.003c-14 0 -26.167 -2.83398 -36.5 -8.50098s-19 -13.5 -26 -23.5s-12.5 -21.667 -16.5 -35s-7.33301 -27.666 -10 -42.999h138l4 40
c0 21.333 -3.66699 38.333 -11 51s-21.333 19 -42 19z" />
    <glyph glyph-name="f_b" unicode="fb" horiz-adv-x="929" 
d="M569 606c0 -5.33301 -0.163086 -11.1611 -0.496094 -17.4941s-0.833008 -14.5 -1.5 -24.5l-2.5 -37c-1 -14.667 -2.5 -33 -4.5 -55c17.333 30 37 52.167 59 66.5s51 21.5 87 21.5c60.667 0 107.167 -20 139.5 -60s48.5 -99.667 48.5 -179
c0 -20.667 -1.5 -43.334 -4.5 -68.001s-8.33301 -49.167 -16 -73.5s-18.5 -48 -32.5 -71s-31.833 -43.167 -53.5 -60.5s-47.834 -31.333 -78.501 -42s-67 -16 -109 -16c-51.333 0 -91.833 7.5 -121.5 22.5s-52.334 33.333 -68.001 55s-25.667 44.667 -30 69
s-6.5 45.833 -6.5 64.5c0 20 1.33301 46.667 4 80s5.66699 68 9 104s6.33301 70.833 9 104.5s4 61.5 4 83.5c0 14.667 -1.83301 26.167 -5.5 34.5s-14.167 12.5 -31.5 12.5c-18 0 -32.833 -3.5 -44.5 -10.5s-21.5 -16.667 -29.5 -29s-14.333 -27 -19 -44
s-8.33398 -35.5 -11.001 -55.5h44c10.667 0 16 -4.66699 16 -14l-4 -54c-1.33301 -20 -7.66602 -36.167 -18.999 -48.5s-27.333 -18.5 -48 -18.5l-14 -174l-7.5 -97c-1.66699 -22 -2.83398 -36.333 -3.50098 -43s-1 -10.667 -1 -12
c-0.666992 -8 -2.33398 -13.333 -5.00098 -16s-8.33398 -4 -17.001 -4h-36c-18 0 -33.167 1.33301 -45.5 4s-22.333 7.66699 -30 15s-13.167 17.666 -16.5 30.999s-5 30.666 -5 51.999c2 24.667 4 50.667 6 78c1.33301 23.333 3 49.5 5 78.5s4.33301 58.167 7 87.5h-48
c-7.33301 0 -11 3.66699 -11 11l3 54c0.666992 8 1.83398 16.167 3.50098 24.5s4.66699 15.666 9 21.999s10.833 11.666 19.5 15.999s20 6.83301 34 7.5l4 40c4.66699 44 13.667 81 27 111s31.5 54 54.5 72s51 30.833 84 38.5s71.167 11.5 114.5 11.5c38 0 69.333 -3 94 -9
s44 -15.167 58 -27.5s23.833 -27.833 29.5 -46.5s8.5 -40.334 8.5 -65.001zM646.004 427.005c-23.333 0 -41.832 -6.33203 -55.499 -18.999s-24.167 -28.167 -31.5 -46.5s-12 -37.5 -14 -57.5s-3 -37.333 -3 -52c0 -46 6.16699 -79 18.5 -99s31.166 -30 56.499 -30
c24 0 43 7.66699 57 23s24.5 33.166 31.5 53.499s11.5 41 13.5 62s3 37.5 3 49.5c0 38 -5.66699 66.833 -17 86.5s-31 29.5 -59 29.5z" />
    <glyph glyph-name="f_f_b" unicode="ffb" horiz-adv-x="1232" 
d="M248 346c-1.33301 -20 -2.99121 -41.6592 -4.99121 -64.9922l-6 -70.5c-2 -23.667 -3.83301 -46.834 -5.5 -69.501l-4.5 -60c-1.33301 -17.333 -2.5 -31.666 -3.5 -42.999s-1.5 -17.333 -1.5 -18c-0.666992 -8 -2.33398 -13.333 -5.00098 -16s-8.33398 -4 -17.001 -4h-36
c-18 0 -33.167 1.33301 -45.5 4s-22.333 7.66699 -30 15s-13.167 17.666 -16.5 30.999s-5 30.666 -5 51.999c1.33301 26 3.33301 52.667 6 80c1.33301 23.333 3.16602 49.333 5.49902 78s4.5 57.334 6.5 86.001h-48c-7.33301 0 -11 3.66699 -11 11l3 54
c0.666992 8 1.83398 16.167 3.50098 24.5s4.66699 15.666 9 21.999s10.833 11.666 19.5 15.999s20.334 6.83301 35.001 7.5c0 5.33301 0.333008 9 1 11c4 43.333 13.333 79.833 28 109.5s33.167 53.667 55.5 72s48 31.5 77 39.5s59.5 12 91.5 12
c53.333 0 96.666 -8.33301 129.999 -25c23.333 19.333 51.666 33.166 84.999 41.499s72.666 12.5 117.999 12.5c38 0 69.333 -3 94 -9s44 -15.167 58 -27.5s23.833 -27.833 29.5 -46.5s8.5 -40.334 8.5 -65.001c0 -6 -0.166992 -12.167 -0.5 -18.5
s-0.833008 -14.5 -1.5 -24.5l-2.5 -37c-1 -14.667 -2.5 -32.667 -4.5 -54c17.333 30 37 52.167 59 66.5s51 21.5 87 21.5c60.667 0 107.167 -20 139.5 -60s48.5 -99.667 48.5 -179c0 -20.667 -1.5 -43.334 -4.5 -68.001s-8.33301 -49.167 -16 -73.5s-18.5 -48 -32.5 -71
s-31.833 -43.167 -53.5 -60.5s-47.834 -31.333 -78.501 -42s-67 -16 -109 -16c-51.333 0 -91.833 7.5 -121.5 22.5s-52.334 33.333 -68.001 55s-25.667 44.667 -30 69s-6.5 45.833 -6.5 64.5c0 20 1.33301 46.667 4 80s5.66699 68 9 104s6.33301 70.833 9 104.5
s4 61.5 4 83.5c0 14.667 -1.83301 26.167 -5.5 34.5s-14.167 12.5 -31.5 12.5c-18 0 -32.833 -3.5 -44.5 -10.5s-21.5 -16.667 -29.5 -29s-14.333 -27 -19 -44s-8.33398 -35.5 -11.001 -55.5h44c10.667 0 16 -4.66699 16 -14l-4 -54
c-1.33301 -20 -7.66602 -36.167 -18.999 -48.5s-27.333 -18.5 -48 -18.5l-14 -174l-7.5 -97c-1.66699 -22 -2.83398 -36.333 -3.50098 -43s-1 -10.667 -1 -12c-0.666992 -8 -2.33398 -13.333 -5.00098 -16s-8.33398 -4 -17.001 -4h-36c-18 0 -33.167 1.33301 -45.5 4
s-22.333 7.66699 -30 15s-13.167 17.666 -16.5 30.999s-5 30.666 -5 51.999c2 24.667 4 50.667 6 78c1.33301 23.333 3 49.5 5 78.5s4.33301 58.167 7 87.5h-140zM949.009 427.008c-23.333 0 -41.832 -6.33203 -55.499 -18.999s-24.167 -28.167 -31.5 -46.5
s-12 -37.5 -14 -57.5s-3 -37.333 -3 -52c0 -46 6.16699 -79 18.5 -99s31.166 -30 56.499 -30c24 0 43 7.66699 57 23s24.5 33.166 31.5 53.499s11.5 41 13.5 62s3 37.5 3 49.5c0 38 -5.66699 66.833 -17 86.5s-31 29.5 -59 29.5zM349.01 591.009
c-14 0 -26.167 -2.83398 -36.5 -8.50098s-19 -13.5 -26 -23.5s-12.5 -21.667 -16.5 -35s-7.33301 -27.666 -10 -42.999h138l4 40c0 21.333 -3.66699 38.333 -11 51s-21.333 19 -42 19z" />
    <glyph glyph-name=".notdef" horiz-adv-x="648" 
d="M534 1000c30 0 51.498 -7.33203 64.498 -21.999s19.5 -35.667 19.5 -63c0 -6.66699 -1 -26.5 -3 -59.5l-7.5 -120.5c-3 -47.333 -6.5 -99 -10.5 -155l-11.5 -162.5c-3.66699 -52.333 -7.16699 -100 -10.5 -143s-5.66602 -75.167 -6.99902 -96.5l-8 -109l-7.5 -104.5
c-2.33301 -32.333 -4.16602 -60.666 -5.49902 -84.999s-2 -40.833 -2 -49.5c0 -10 -5.33301 -15 -16 -15h-418c-29.333 0 -50.166 7.66699 -62.499 23s-18.5 36 -18.5 62c0 4.66699 0.5 17.167 1.5 37.5s2.5 45.666 4.5 75.999l7 103l8 118.5
c2.66699 40.667 5.5 81.5 8.5 122.5l8.5 115.5l7 97c2 28.667 3.66699 51 5 67l8 108.5l7.5 105c2.33301 32.333 4.16602 60.666 5.49902 84.999s2 40.833 2 49.5c0 10 5.33301 15 16 15h415zM404.998 -71.999l66.001 959h-228l-6.5 -98.5
c-3 -45.667 -6.66699 -98.5 -11 -158.5l-13.5 -192l-14 -199l-12.5 -179c-3.66699 -54.667 -6.83398 -98.667 -9.50098 -132h229z" />
    <glyph glyph-name="space" unicode=" " horiz-adv-x="215" 
 />
    <glyph glyph-name="exclam" unicode="!" horiz-adv-x="295" 
d="M127 178c28 0 48 -6.83105 60 -20.498s18 -32.834 18 -57.501c0 -10.667 -1.33301 -22.334 -4 -35.001s-7.5 -24.5 -14.5 -35.5s-17 -20.333 -30 -28s-29.833 -11.5 -50.5 -11.5c-30 0 -50.333 7.83301 -61 23.5s-16 35.167 -16 58.5c0 13.333 1.66699 26.333 5 39
s8.66602 24 15.999 34s17.333 18 30 24s28.334 9 47.001 9zM149 248.002c-16.667 0 -30.335 2 -41.002 6s-19 10.167 -25 18.5s-10.167 18.666 -12.5 30.999s-3.5 26.5 -3.5 42.5c0 6 0.166992 12.5 0.5 19.5s1 15.833 2 26.5s2 24 3 40s2.5 36.5 4.5 61.5l7 90.5
c2.66699 35.333 5.66699 77.666 9 126.999c0.666992 14.667 2.33398 23.334 5.00098 26.001c2 2 7.33301 3 16 3h59c36.667 0 62.834 -7.16699 78.501 -21.5s23.5 -31.166 23.5 -50.499c0 -12 -1.16699 -27.833 -3.5 -47.5s-5.5 -41.5 -9.5 -65.5s-8.5 -49.167 -13.5 -75.5
l-15 -78l-14.5 -73.5l-12 -60c-1.33301 -8 -3.5 -13.333 -6.5 -16s-8.16699 -4 -15.5 -4h-36z" />
    <glyph glyph-name="quotedbl" unicode="&#x22;" horiz-adv-x="416" 
d="M106 454c-18 0 -30 4.5 -36 13.5s-9 22.167 -9 39.5c0 4.66699 0.333008 11.167 1 19.5s1.5 20.333 2.5 36s2.5 36.5 4.5 62.5s4.33301 59 7 99c0.666992 8 1.5 12.667 2.5 14s4.16699 2 9.5 2h62c20 0 34.333 -4 43 -12s13 -17 13 -27s-1.5 -25.333 -4.5 -46
s-6.5 -42.667 -10.5 -66s-8.16699 -46.333 -12.5 -69l-10.5 -55c-1.33301 -4.66699 -2.5 -7.66699 -3.5 -9s-3.83301 -2 -8.5 -2h-50zM301 454c-18 0 -30 4.5 -36 13.5s-9 22.167 -9 39.5c0 4.66699 0.333008 11.167 1 19.5s1.5 20.333 2.5 36s2.5 36.5 4.5 62.5
s4.33301 59 7 99c0.666992 8 1.5 12.667 2.5 14s4.16699 2 9.5 2h62c20 0 34.333 -4 43 -12s13 -17 13 -27s-1.5 -25.333 -4.5 -46s-6.5 -42.667 -10.5 -66s-8.16699 -46.333 -12.5 -69l-10.5 -55c-1.33301 -4.66699 -2.5 -7.66699 -3.5 -9s-3.83301 -2 -8.5 -2h-50z" />
    <glyph glyph-name="numbersign" unicode="#" horiz-adv-x="690" 
d="M470 0c-21.333 0 -38.332 2.16699 -50.999 6.5s-22.5 10.5 -29.5 18.5s-11.667 17.833 -14 29.5s-3.5 25.167 -3.5 40.5l9 85h-119l-20 -160c-2 -13.333 -9.33301 -20 -22 -20c-21.333 0 -38.333 2.16699 -51 6.5s-22.5 10.5 -29.5 18.5s-11.667 17.833 -14 29.5
s-3.5 25.167 -3.5 40.5l9 85h-99c-7.33301 0 -11 3.66699 -11 11c0 12.667 1.33301 25.167 4 37.5s7 23 13 32s14 16.333 24 22s22.333 8.5 37 8.5h46c4 34.667 9 74 15 118h-96c-7.33301 0 -11 3.66699 -11 11c0 29.333 5.66699 53.333 17 72s31.666 28 60.999 28h42
l10 78.5l10 82.5c2 19.333 10.667 29 26 29c38.667 0 64.667 -7.33301 78 -22s20 -35 20 -61c0 -1.33301 -1.16699 -11.5 -3.5 -30.5l-9.5 -76.5h119l10 78.5l10 82.5c2 19.333 10.667 29 26 29c38.667 0 64.667 -7.33301 78 -22s20 -35 20 -61
c0 -1.33301 -1.16699 -11.5 -3.5 -30.5l-9.5 -76.5h104c4 0 7.66699 -1.16699 11 -3.5s5 -5.83301 5 -10.5l-3 -30c-2 -20 -8.33301 -36.167 -19 -48.5s-31 -18.5 -61 -18.5h-50l-15 -118h100c4 0 7.66699 -1.16699 11 -3.5s5 -5.83301 5 -10.5l-3 -30
c-2 -20 -8.33301 -36.167 -19 -48.5s-31 -18.5 -61 -18.5h-47l-20 -160c-2 -13.333 -9.33301 -20 -22 -20zM276.001 291h119c4 34.667 9 74 15 118h-119z" />
    <glyph glyph-name="dollar" unicode="$" horiz-adv-x="528" 
d="M48 483c0 36 5.66797 67.3301 17.001 93.9971s26.5 49.334 45.5 68.001s40.667 33.5 65 44.5s49.833 19.167 76.5 24.5c1.33301 10.667 2.16602 21.834 2.49902 33.501s1.33301 22.167 3 31.5s4.16699 17 7.5 23s8.33301 9 15 9c33.333 0 55.833 -8.16699 67.5 -24.5
s17.5 -39.5 17.5 -69.5c46.667 -7.33301 81.5 -23.833 104.5 -49.5s34.5 -57.5 34.5 -95.5c0 -37.333 -10.333 -65.833 -31 -85.5s-50.334 -29.5 -89.001 -29.5c-12 0 -19.667 1.16699 -23 3.5s-5 7.16602 -5 14.499c0 6.66699 -0.5 15.334 -1.5 26.001s-3.5 21 -7.5 31
s-10.333 18.5 -19 25.5s-20.667 10.5 -36 10.5c-21.333 0 -40.333 -6.5 -57 -19.5s-25 -29.833 -25 -50.5c0 -18 6.83301 -32.667 20.5 -44s30.834 -21.833 51.501 -31.5s43.167 -19.5 67.5 -29.5s46.833 -23.167 67.5 -39.5s37.834 -36.666 51.501 -60.999
s20.5 -55.166 20.5 -92.499c0 -53.333 -15.333 -99 -46 -137s-76.667 -61.333 -138 -70l-8 -77c-1.33301 -8 -3.16602 -13.333 -5.49902 -16s-7.83301 -4 -16.5 -4c-16.667 0 -30.334 2.16699 -41.001 6.5s-19 10.666 -25 18.999s-10.167 18.666 -12.5 30.999
s-3.5 26.5 -3.5 42.5c-25.333 4 -48.333 10.167 -69 18.5s-38.334 17.333 -53.001 27s-26.167 19.667 -34.5 30s-12.5 20.166 -12.5 29.499c0 44 2.5 75.667 7.5 95s14.167 29 27.5 29c9.33301 0 19.166 -4 29.499 -12l35.5 -27c13.333 -10 28.833 -19 46.5 -27
s38.167 -12 61.5 -12c9.33301 0 18.5 0.833008 27.5 2.5s17 4.5 24 8.5s12.667 9.33301 17 16s6.5 14.667 6.5 24c0 16.667 -6.33301 30 -19 40s-28.667 19.167 -48 27.5l-62.5 26c-22.333 9 -43.166 21.333 -62.499 37s-35.333 35.834 -48 60.501s-19 56.334 -19 95.001z
" />
    <glyph glyph-name="percent" unicode="%" horiz-adv-x="781" 
d="M179 -13c-16.667 0 -26.667 3.16699 -30 9.5s-5 15.5 -5 27.5c0 7.33301 1.83301 15.833 5.5 25.5s8.83398 20.5 15.501 32.5c5.33301 10 19.166 33.167 41.499 69.5l84 135.5l114 182.5l132.5 211.5c9.33301 14.667 18.333 23.167 27 25.5s18 3.5 28 3.5
c18.667 0 30 -3.16699 34 -9.5s6 -15.5 6 -27.5c0 -7.33301 -1.83301 -15.5 -5.5 -24.5s-8.16699 -18.833 -13.5 -29.5c-3.33301 -6.66699 -11 -19.667 -23 -39l-45.5 -73l-63 -101l-76 -121.5l-85 -135l-89.5 -142.5c-5.33301 -8 -13 -13.333 -23 -16s-19.667 -4 -29 -4z
M214 720c46 0 79.001 -12 99.001 -36s30 -57.667 30 -101c0 -18 -2.16699 -38.167 -6.5 -60.5s-12.5 -43.166 -24.5 -62.499s-28.833 -35.666 -50.5 -48.999s-49.834 -20 -84.501 -20c-26 0 -47.667 3.66699 -65 11s-31 17.5 -41 30.5s-17.167 28.167 -21.5 45.5
s-6.5 36 -6.5 56c0 23.333 2.83301 46.166 8.5 68.499s15 42.166 28 59.499s30.5 31.333 52.5 42s49.333 16 82 16zM204.001 635c-12.667 0 -22.833 -3.5 -30.5 -10.5s-13.5 -15.5 -17.5 -25.5s-6.5 -20.333 -7.5 -31s-1.5 -20 -1.5 -28c0 -42.667 13 -64 39 -64
c10.667 0 19.5 3.83301 26.5 11.5s12.5 17 16.5 28s6.66699 22.333 8 34s2 21.5 2 29.5c0 17.333 -2.66699 31 -8 41s-14.333 15 -27 15zM615.002 319c46 0 79.001 -12 99.001 -36s30 -57.667 30 -101c0 -18 -2.16699 -38.167 -6.5 -60.5s-12.5 -43.166 -24.5 -62.499
s-28.833 -35.666 -50.5 -48.999s-49.834 -20 -84.501 -20c-26 0 -47.667 3.66699 -65 11s-31 17.5 -41 30.5s-17.167 28.167 -21.5 45.5s-6.5 36 -6.5 56c0 23.333 2.83301 46.166 8.5 68.499s15 42.166 28 59.499s30.5 31.333 52.5 42s49.333 16 82 16zM605.003 234
c-12.667 0 -22.833 -3.5 -30.5 -10.5s-13.5 -15.5 -17.5 -25.5s-6.5 -20.333 -7.5 -31s-1.5 -20 -1.5 -28c0 -42.667 13 -64 39 -64c10.667 0 19.5 3.83301 26.5 11.5s12.5 17 16.5 28s6.66699 22.333 8 34s2 21.5 2 29.5c0 17.333 -2.66699 31 -8 41s-14.333 15 -27 15z
" />
    <glyph glyph-name="ampersand" unicode="&#x26;" horiz-adv-x="679" 
d="M336 573c-14 0 -26.3369 -2.66504 -37.0039 -7.99805s-19.5 -12.333 -26.5 -21s-12.333 -18.167 -16 -28.5s-5.5 -20.833 -5.5 -31.5c0 -20 6.16699 -36.833 18.5 -50.5s30.5 -20.5 54.5 -20.5h332c4 0 7.66699 -1.16699 11 -3.5s5.33301 -5.83301 6 -10.5l-2 -42
c-0.666992 -10 -2.16699 -18.5 -4.5 -25.5s-6.66602 -12.5 -12.999 -16.5s-15 -6.83301 -26 -8.5s-25.167 -2.5 -42.5 -2.5c-4 -54 -14.167 -100.667 -30.5 -140s-38 -71.833 -65 -97.5s-59.167 -44.834 -96.5 -57.501s-78.666 -19 -123.999 -19
c-82 0 -143.167 17.667 -183.5 53s-60.5 85 -60.5 149c0 48 11 87.5 33 118.5s53 55.833 93 74.5c-20.667 15.333 -36.667 34.666 -48 57.999s-17 48 -17 74s5.83301 51.167 17.5 75.5s28.834 46 51.501 65s50.834 34.333 84.501 46s72.834 17.5 117.501 17.5
c34.667 0 64.167 -3.5 88.5 -10.5s44.333 -16.667 60 -29s27 -26.666 34 -42.999s10.5 -33.833 10.5 -52.5c0 -34 -11 -59.333 -33 -76s-54 -25 -96 -25c-7.33301 0 -11.666 0.666992 -12.999 2s-3 4.66602 -5 9.99902c-2.66699 30 -10.334 50.167 -23.001 60.5
s-27.334 15.5 -44.001 15.5zM209.996 221.002c0 -23.333 7.83301 -43.333 23.5 -60s37.5 -25 65.5 -25c31.333 0 58 13 80 39s36.667 69 44 129h-131c-26.667 0 -47 -8.33301 -61 -25s-21 -36 -21 -58z" />
    <glyph glyph-name="quotesingle" unicode="'" horiz-adv-x="221" 
d="M106 454c-18 0 -30 4.5 -36 13.5s-9 22.167 -9 39.5c0 4.66699 0.333008 11.167 1 19.5s1.5 20.333 2.5 36s2.5 36.5 4.5 62.5s4.33301 59 7 99c0.666992 8 1.5 12.667 2.5 14s4.16699 2 9.5 2h62c20 0 34.333 -4 43 -12s13 -17 13 -27s-1.5 -25.333 -4.5 -46
s-6.5 -42.667 -10.5 -66s-8.16699 -46.333 -12.5 -69l-10.5 -55c-1.33301 -4.66699 -2.5 -7.66699 -3.5 -9s-3.83301 -2 -8.5 -2h-50z" />
    <glyph glyph-name="parenleft" unicode="(" horiz-adv-x="410" 
d="M324 581c-19.333 0 -36.835 -9.33008 -52.502 -27.9971s-29 -45.334 -40 -80.001s-19.5 -76.834 -25.5 -126.501s-9 -105.5 -9 -167.5c0 -73.333 4.83301 -126.5 14.5 -159.5s26.5 -49.5 50.5 -49.5c10.667 0 20.667 2 30 6s16.666 6 21.999 6s9.5 -3.16699 12.5 -9.5
s4.5 -18.166 4.5 -35.499c0 -16.667 -1.5 -32.334 -4.5 -47.001s-8.33301 -27.667 -16 -39s-18.167 -20.333 -31.5 -27s-30.666 -10 -51.999 -10c-31.333 0 -59.166 7 -83.499 21s-44.833 36 -61.5 66s-29.5 68.667 -38.5 116s-13.5 104.666 -13.5 171.999
c0 86 7.33301 162.833 22 230.5s35.334 125 62.001 172s58.667 82.833 96 107.5s78.666 37 123.999 37c37.333 0 62.333 -5 75 -15s19 -24.667 19 -44c0 -3.33301 -1.16699 -10.833 -3.5 -22.5s-5.33301 -24 -9 -37s-7.66699 -24.5 -12 -34.5s-8.83301 -15 -13.5 -15
c-6 0 -15.167 2.16699 -27.5 6.5s-25.166 6.5 -38.499 6.5z" />
    <glyph glyph-name="parenright" unicode=")" horiz-adv-x="419" 
d="M80 -31c19.333 0 36.832 9.33105 52.499 27.998s29 45.334 40 80.001s19.5 76.834 25.5 126.501s9 105.5 9 167.5c0 73.333 -4.83301 126.5 -14.5 159.5s-26.5 49.5 -50.5 49.5c-10.667 0 -20.667 -2 -30 -6s-16.666 -6 -21.999 -6s-9.5 3.16699 -12.5 9.5
s-4.5 18.166 -4.5 35.499c0 16 1.5 31.5 4.5 46.5s8.33301 28.167 16 39.5s18.167 20.333 31.5 27s30.666 10 51.999 10c30.667 0 58.834 -7 84.501 -21s47.5 -36 65.5 -66s32 -68.667 42 -116s15 -104.666 15 -171.999c0 -86 -7.83301 -162.833 -23.5 -230.5
s-37.5 -125 -65.5 -172s-61.167 -82.833 -99.5 -107.5s-80.166 -37 -125.499 -37c-37.333 0 -62.333 5 -75 15s-19 24.667 -19 44c0 3.33301 1.16699 10.833 3.5 22.5s5.33301 24 9 37s7.66699 24.5 12 34.5s8.83301 15 13.5 15c6 0 15.167 -2.16699 27.5 -6.5
s25.166 -6.5 38.499 -6.5z" />
    <glyph glyph-name="asterisk" unicode="*" horiz-adv-x="464" 
d="M294 521c17.333 -21.333 32.6689 -38.6729 46.002 -52.0059s20 -26.666 20 -39.999c0 -8 -2.83301 -16.667 -8.5 -26s-13 -18.166 -22 -26.499s-19 -15.333 -30 -21s-21.833 -8.5 -32.5 -8.5c-12 0 -20.667 3.66699 -26 11s-8.83301 17.5 -10.5 30.5s-2.5 28.333 -2.5 46
s-0.333008 36.5 -1 56.5c-9.33301 -14 -17.333 -27 -24 -39s-13.334 -22.333 -20.001 -31s-13.5 -15.5 -20.5 -20.5s-15.5 -7.5 -25.5 -7.5s-20 2.16699 -30 6.5s-19 9.66602 -27 15.999s-14.5 13.5 -19.5 21.5s-7.5 15.667 -7.5 23c0 8.66699 3.66699 16.667 11 24
s17 14 29 20s25.667 12 41 18s31 12.667 47 20c-22 5.33301 -40.333 9.33301 -55 12s-26.667 6 -36 10s-16 9.33301 -20 16s-6 16.334 -6 29.001c0 14 2 26.5 6 37.5s9.16699 20.333 15.5 28s13 13.5 20 17.5s13.5 6 19.5 6c7.33301 0 14.5 -2.66699 21.5 -8
s14.333 -12.166 22 -20.499s15.834 -18.166 24.501 -29.499l28 -35c-2 8.66699 -3.66699 20.334 -5 35.001s-2 26 -2 34c0 50.667 28.333 76 85 76c23.333 0 38.666 -3.83301 45.999 -11.5s11 -16.167 11 -25.5c0 -15.333 -6.16699 -31.833 -18.5 -49.5l-47.5 -70.5
c25.333 10 46.166 19.5 62.499 28.5s29.5 13.5 39.5 13.5c6.66699 0 13.667 -2.33301 21 -7s13.666 -10.834 18.999 -18.501s9.83301 -16.667 13.5 -27s5.5 -21.166 5.5 -32.499c0 -21.333 -5.5 -35 -16.5 -41s-21.833 -9 -32.5 -9c-13.333 0 -28.666 2.33301 -45.999 7
s-38 9.33398 -62 14.001z" />
    <glyph glyph-name="plus" unicode="+" horiz-adv-x="481" 
d="M266 103c-20 0 -36.666 2.16602 -49.999 6.49902s-23.666 10.5 -30.999 18.5s-12.5 17.833 -15.5 29.5s-4.5 25.167 -4.5 40.5c0 10 0.333008 20 1 30s2 26 4 48h-133c-7.33301 0 -11 3.66699 -11 11v4v6c0 2.66699 0.166992 6.33398 0.5 11.001l1.5 20
c0.666992 8.66699 1.83398 17.167 3.50098 25.5s5 15.833 10 22.5s12.167 12 21.5 16s21.666 6 36.999 6h80c1.33301 19.333 3 40.666 5 63.999s4 50 6 80c0.666992 14.667 2.16699 23.167 4.5 25.5s8.5 3.5 18.5 3.5c20.667 0 37.5 -2 50.5 -6s23.333 -10 31 -18
s13 -17.667 16 -29s4.5 -24 4.5 -38c0 -9.33301 -0.333008 -19.666 -1 -30.999s-2 -28.333 -4 -51h131c4 0 7.66699 -1.16699 11 -3.5s5 -5.83301 5 -10.5l-3 -41c-1.33301 -20 -6.83301 -36.167 -16.5 -48.5s-29.5 -18.5 -59.5 -18.5h-79l-12 -153
c-0.666992 -8 -2.33398 -13.333 -5.00098 -16s-8.33398 -4 -17.001 -4z" />
    <glyph glyph-name="comma" unicode="," horiz-adv-x="259" 
d="M95 -10c-27.333 0 -46.5029 6.66992 -57.5029 20.0029s-16.5 29.666 -16.5 48.999c0 40.667 9.16699 70.667 27.5 90s44.5 29 78.5 29c14.667 0 26.834 -2.66699 36.501 -8s17.334 -12.833 23.001 -22.5s9.66699 -21 12 -34s3.5 -27.167 3.5 -42.5
c0 -32 -3.5 -63.333 -10.5 -94s-16.5 -58 -28.5 -82s-26.333 -43.333 -43 -58s-34.667 -22 -54 -22c-10 0 -18.167 1.83301 -24.5 5.5s-11.166 8.5 -14.499 14.5s-5.5 12.667 -6.5 20s-1.5 14.333 -1.5 21c0 4 3.83301 9.33301 11.5 16s16.167 14.667 25.5 24
s18 20.166 26 32.499s12.333 26.166 13 41.499z" />
    <glyph glyph-name="hyphen" unicode="-" horiz-adv-x="462" 
d="M59 209c-7.33301 0 -11 3.66699 -11 11l3 54c0.666992 8.66699 1.83398 17.167 3.50098 25.5s5 15.833 10 22.5s12.167 12 21.5 16s21.666 6 36.999 6h272c4 0 7.66699 -1.16699 11 -3.5s5 -5.83301 5 -10.5l-4 -54c-1.33301 -20 -6.83301 -36.167 -16.5 -48.5
s-29.5 -18.5 -59.5 -18.5h-272z" />
    <glyph glyph-name="period" unicode="." horiz-adv-x="251" 
d="M120 178c28 0 48.002 -6.83203 60.002 -20.499s18 -32.834 18 -57.501c0 -10 -1.33301 -21.5 -4 -34.5s-7.5 -25 -14.5 -36s-16.833 -20.333 -29.5 -28s-29.334 -11.5 -50.001 -11.5c-30.667 0 -51.334 7.83301 -62.001 23.5s-16 35.167 -16 58.5
c0 13.333 1.66699 26.333 5 39s8.66602 24 15.999 34s17.333 18 30 24s28.334 9 47.001 9z" />
    <glyph glyph-name="slash" unicode="/" horiz-adv-x="329" 
d="M84 -10c-9.33301 0 -17.9971 0.329102 -25.9971 0.996094s-15.167 2.83398 -21.5 6.50098s-11.333 8.83398 -15 15.501s-5.5 16 -5.5 28c0 8.66699 1.16699 19.5 3.5 32.5s6.16602 30 11.499 51s12.666 47 21.999 78l35 113.5l49.5 156.5l66.5 208.5
c4.66699 14 10.167 22.333 16.5 25s13.5 4 21.5 4c16.667 0 30.167 -1.16699 40.5 -3.5s18 -5.66602 23 -9.99902s8.33301 -9.66602 10 -15.999s2.5 -13.5 2.5 -21.5c0 -8.66699 -0.833008 -18.5 -2.5 -29.5s-4.83398 -25.667 -9.50098 -44s-11.167 -41.833 -19.5 -70.5
l-33 -108.5l-50 -158.5l-69.5 -220c-6 -18 -12.333 -28.833 -19 -32.5s-17 -5.5 -31 -5.5z" />
    <glyph glyph-name="zero" unicode="0" horiz-adv-x="658" 
d="M378 721c44 0 81.332 -6.83398 111.999 -20.501s55.667 -33.667 75 -60s33.5 -58.333 42.5 -96s13.5 -80.5 13.5 -128.5c0 -26.667 -1.66699 -55.667 -5 -87s-9.33301 -62.833 -18 -94.5s-20.667 -62.167 -36 -91.5s-35 -55.333 -59 -78s-52.833 -40.834 -86.5 -54.501
s-73.5 -20.5 -119.5 -20.5c-49.333 0 -90.166 8.33301 -122.499 25s-58.333 39.167 -78 67.5s-33.5 61.833 -41.5 100.5s-12 80 -12 124c0 52 5.5 102.833 16.5 152.5s29.5 93.834 55.5 132.501s60.5 69.834 103.5 93.501s96.167 35.5 159.5 35.5zM356.999 565.999
c-18.667 0 -34.833 -4.1709 -48.5 -12.5039s-25.334 -19.5 -35.001 -33.5s-17.334 -29.667 -23.001 -47s-10.167 -35.166 -13.5 -53.499s-5.5 -36 -6.5 -53s-1.5 -32.167 -1.5 -45.5c0 -60.667 7.5 -105 22.5 -133s36.5 -42 64.5 -42c24.667 0 44.834 9.83301 60.501 29.5
s27.834 43.334 36.501 71.001s14.5 56.334 17.5 86.001s4.5 54.834 4.5 75.501c0 48.667 -6 87.167 -18 115.5s-32 42.5 -60 42.5z" />
    <glyph glyph-name="one" unicode="1" horiz-adv-x="385" 
d="M117 676c11.333 6.66699 23.1689 13.9971 35.502 21.9971s19.166 12 20.499 12h60c36.667 0 63 -7.83301 79 -23.5s24 -35.834 24 -60.501c0 -7.33301 -0.5 -21.166 -1.5 -41.499s-2.5 -44.833 -4.5 -73.5l-6.5 -95.5l-7 -105.5l-7 -104l-6.5 -91.5l-5 -67.5
c-1.33301 -18 -2.33301 -28.667 -3 -32c-0.666992 -5.33301 -2 -9.16602 -4 -11.499s-6 -3.5 -12 -3.5h-55c-40 0 -67.333 8 -82 24s-22 41.333 -22 76c0 14 1 35.5 3 64.5s4.5 62.833 7.5 101.5l10 127l11.5 141c-7.33301 -8 -15.166 -13.667 -23.499 -17
s-16.5 -5 -24.5 -5c-12.667 0 -23.834 3.33301 -33.501 10s-17.834 14.667 -24.501 24s-11.667 19.5 -15 30.5s-5 20.833 -5 29.5c0 3.33301 0.833008 6.33301 2.5 9s5.5 6.33398 11.5 11.001s15 10.834 27 18.501z" />
    <glyph glyph-name="two" unicode="2" horiz-adv-x="579" 
d="M547 533c0 -32 -5.83203 -62.835 -17.499 -92.502s-26.5 -57.667 -44.5 -84s-38.167 -51 -60.5 -74s-44.333 -43.667 -66 -62s-41.834 -34.333 -60.501 -48s-33 -24.5 -43 -32.5h254c4 0 7.66699 -1 11 -3s5 -5.66699 5 -11l-4 -59
c-1.33301 -20 -6.83301 -36.167 -16.5 -48.5s-29.5 -18.5 -59.5 -18.5h-328c-34 0 -57.833 5.5 -71.5 16.5s-20.5 29.833 -20.5 56.5v60c0 3.33301 0.833008 7.33301 2.5 12s3.16699 8.33398 4.5 11.001c6 11.333 18.5 25.333 37.5 42s40.667 34.667 65 54l77 62
c27 22 51.667 44.333 74 67s40.833 45.167 55.5 67.5s22 43.833 22 64.5c0 16.667 -5.66699 30.834 -17 42.501s-29.666 17.5 -54.999 17.5c-16 0 -29.167 -4.33301 -39.5 -13s-18.666 -19.5 -24.999 -32.5s-11 -27.333 -14 -43s-5.16699 -30.167 -6.5 -43.5
c-1.33301 -6.66699 -3.5 -11.334 -6.5 -14.001s-11.5 -4 -25.5 -4c-74 0 -111 35.667 -111 107c0 34.667 7.5 64 22.5 88s34.833 43.667 59.5 59s52.167 26.5 82.5 33.5s61.166 10.5 92.499 10.5c44.667 0 81.667 -5.83301 111 -17.5s52.666 -26.667 69.999 -45
s29.333 -38.666 36 -60.999s10 -43.833 10 -64.5z" />
    <glyph glyph-name="three" unicode="3" horiz-adv-x="565" 
d="M288 573c-14.667 0 -30.1709 -3.16992 -46.5039 -9.50293s-28.166 -18.5 -35.499 -36.5c-2 -5.33301 -3.66699 -8.66602 -5 -9.99902s-5.66602 -2 -12.999 -2c-38.667 0 -66.667 7 -84 21s-26 32.667 -26 56c0 19.333 5.83301 37 17.5 53s27.667 29.667 48 41
s44.333 20 72 26s57.834 9 90.501 9c42.667 0 78 -5.16699 106 -15.5s50.167 -23.666 66.5 -39.999s27.666 -35.166 33.999 -56.499s9.5 -43 9.5 -65c0 -33.333 -6.83301 -62.833 -20.5 -88.5s-37.5 -49.167 -71.5 -70.5c30 -14.667 52.5 -32.667 67.5 -54
s22.5 -48 22.5 -80c0 -27.333 -5.66699 -56.333 -17 -87s-29.666 -58.834 -54.999 -84.501s-58.5 -47 -99.5 -64s-91.167 -25.5 -150.5 -25.5c-34 0 -63 3.16699 -87 9.5s-43.5 14.833 -58.5 25.5s-25.833 23.334 -32.5 38.001s-10 30.334 -10 47.001
c0 32 10.833 55.667 32.5 71s51.167 23 88.5 23c9.33301 0 14.5 -0.666992 15.5 -2s2.16699 -4.66602 3.5 -9.99902c2.66699 -10 7 -18 13 -24s12.833 -10.667 20.5 -14s15.5 -5.5 23.5 -6.5s15.333 -1.5 22 -1.5c21.333 0 38.833 3.66699 52.5 11s24.334 16 32.001 26
s13 20.667 16 32s4.5 21 4.5 29c0 21.333 -6.83301 37.166 -20.5 47.499s-28.167 15.833 -43.5 16.5l-143 6c-10.667 0 -16 4.66699 -16 14l3 28c2 20.667 8 36.667 18 48s29.667 17.666 59 18.999l90 4c22 1.33301 39.5 8.83301 52.5 22.5s19.5 33.167 19.5 58.5
c0 43.333 -21.667 65 -65 65z" />
    <glyph glyph-name="four" unicode="4" horiz-adv-x="599" 
d="M106 192c-26 0 -46.832 4.49902 -62.499 13.499s-23.5 24.167 -23.5 45.5c0 8 1.16699 17.167 3.5 27.5s5.66602 23.666 9.99902 39.999s10 36.5 17 60.5l25.5 89l17.5 63.5c5 19 9.16699 36.5 12.5 52.5s5.83301 30.833 7.5 44.5s2.5 27.167 2.5 40.5
c0 8 0.833008 16.833 2.5 26.5s6.16699 14.5 13.5 14.5h45c38 0 64.167 -6.66699 78.5 -20s21.5 -36 21.5 -68c0 -12 -1 -25.667 -3 -41s-5.5 -34.333 -10.5 -57s-11.333 -49.667 -19 -81l-28.5 -113h134l6.5 77.5c2.33301 28.333 4.5 55.833 6.5 82.5l5.5 72.5
c1.66699 21.667 2.83398 37.5 3.50098 47.5c1.33301 23.333 2 41.666 2 54.999s0.5 23.333 1.5 30s2.66699 10.834 5 12.501s6.16602 2.5 11.499 2.5h55c21.333 0 38.5 -2.16699 51.5 -6.5s23.167 -10.5 30.5 -18.5s12.333 -17.833 15 -29.5s4 -25.167 4 -40.5
s-0.833008 -40.166 -2.5 -74.499s-4 -73 -7 -116l-9 -133.5c-3 -46 -6 -88.667 -9 -128l-7.5 -100c-2 -27.333 -3.33301 -43.333 -4 -48c-0.666992 -5.33301 -2 -9.16602 -4 -11.499s-6 -3.5 -12 -3.5h-55c-36.667 -0 -63.167 7.33301 -79.5 22s-24.5 35.667 -24.5 63
c0 5.33301 0.333008 16 1 32s2 41 4 75h-233z" />
    <glyph glyph-name="five" unicode="5" horiz-adv-x="561" 
d="M240 -10c-28 0 -55.1689 2.66504 -81.502 7.99805s-49.833 13.166 -70.5 23.499s-37.167 23.333 -49.5 39s-18.5 34.167 -18.5 55.5c0 27.333 10.5 48.833 31.5 64.5s50.833 23.5 89.5 23.5c5.33301 0 9.33301 -0.666992 12 -2s4.66699 -4.66602 6 -9.99902
c2 -9.33301 6.33301 -17 13 -23s14.334 -10.667 23.001 -14s17.5 -5.66602 26.5 -6.99902s17.167 -2 24.5 -2c20 0 36.833 3.5 50.5 10.5s24.667 16 33 27s14.333 23.333 18 37s5.5 26.834 5.5 39.501c0 10 -1.16699 19.833 -3.5 29.5s-6 18.167 -11 25.5
s-11.667 13.333 -20 18s-18.833 7 -31.5 7c-12 0 -22.833 -2.66699 -32.5 -8s-16.834 -15 -21.501 -29c-2.66699 -10.667 -7.66699 -16 -15 -16h-55c-19.333 0 -35.166 1.66699 -47.499 5s-22 8.16602 -29 14.499s-11.833 14.333 -14.5 24s-4 20.834 -4 33.501
c0 16 1.5 39.5 4.5 70.5s6.66699 63.5 11 97.5l12.5 96.5c4 30.333 7 52.5 9 66.5c0.666992 10 6.33398 15 17.001 15h382c4 0 7.66699 -1 11 -3s5 -5.66699 5 -11l-4 -59c-1.33301 -20 -6.83301 -36.167 -16.5 -48.5s-29.5 -18.5 -59.5 -18.5h-181l-21 -152
c9.33301 8.66699 22.833 15.5 40.5 20.5s37.167 7.5 58.5 7.5c28.667 0 54.667 -4.83301 78 -14.5s43 -23 59 -40s28.333 -37.5 37 -61.5s13 -50.333 13 -79c0 -31.333 -5.33301 -62.5 -16 -93.5s-27.5 -59 -50.5 -84s-52.5 -45.167 -88.5 -60.5s-79 -23 -129 -23z" />
    <glyph glyph-name="six" unicode="6" horiz-adv-x="616" 
d="M361 566c-25.333 0 -46.1699 -6.33301 -62.5029 -19s-29.333 -28.167 -39 -46.5s-16.5 -37.666 -20.5 -57.999s-6 -38.166 -6 -53.499c0 -9.33301 1.33301 -15.666 4 -18.999c2 2 6.33301 7.66699 13 17s16.334 19.166 29.001 29.499s28.5 19.5 47.5 27.5
s42.167 12 69.5 12c22.667 0 44.834 -3.16699 66.501 -9.5s41 -17 58 -32s30.833 -34.667 41.5 -59s16 -54.5 16 -90.5c0 -38 -6.33301 -73.667 -19 -107s-31.5 -62.5 -56.5 -87.5s-56.167 -44.667 -93.5 -59s-80.333 -21.5 -129 -21.5c-49.333 0 -89.333 8 -120 24
s-54.667 37.5 -72 64.5s-29.166 58.667 -35.499 95s-9.5 74.833 -9.5 115.5c0 57.333 5.66699 112.166 17 164.499s29.833 98.333 55.5 138s59.5 71.167 101.5 94.5s93.667 35 155 35c70.667 0 122 -11.333 154 -34s48 -51.334 48 -86.001
c0 -31.333 -10.5 -54.666 -31.5 -69.999s-51.167 -23 -90.5 -23c-5.33301 0 -9.5 0.666992 -12.5 2s-4.5 4.66602 -4.5 9.99902c0 12.667 -5 23.5 -15 32.5s-29.667 13.5 -59 13.5zM324.996 336c-17.333 0 -32.001 -3.99707 -44.001 -11.9971s-21.5 -17.833 -28.5 -29.5
s-12 -24.334 -15 -38.001s-4.5 -25.834 -4.5 -36.501c0 -22.667 5.16699 -40.667 15.5 -54s25.166 -20 44.499 -20c18.667 0 34.334 4.33301 47.001 13s22.834 19.5 30.501 32.5s13.167 26.5 16.5 40.5s5 26.667 5 38c0 19.333 -5 35.166 -15 47.499s-27.333 18.5 -52 18.5z
" />
    <glyph glyph-name="seven" unicode="7" horiz-adv-x="492" 
d="M211 15c-4.66699 -10 -11.667 -15.001 -21 -15.001h-36c-33.333 0 -60.5 5.33301 -81.5 16s-31.5 26.667 -31.5 48c0 6.66699 1.5 14.5 4.5 23.5s8 20.833 15 35.5s16.5 33.167 28.5 55.5l45 83.5l63 117l42.5 80.5l26.5 52l15.5 31
c3.66699 7.66699 6.16699 13.334 7.5 17.001s3 7.16699 5 10.5h-238c-5.33301 0 -8.5 1 -9.5 3s-1.5 5.66699 -1.5 11l3 56c0.666992 8.66699 1.83398 17.167 3.50098 25.5s5 15.833 10 22.5s12.167 12 21.5 16s21.666 6 36.999 6h372c4 0 7.66699 -1 11 -3
s5 -5.66699 5 -11l-4 -54c-1.33301 -11.333 -3 -20 -5 -26s-4.33301 -11.667 -7 -17l-82 -165l-59.5 -120l-43.5 -88.5l-33.5 -70.5l-30 -66z" />
    <glyph glyph-name="eight" unicode="8" horiz-adv-x="603" 
d="M560 258c0 -27.333 -5.33301 -56.6621 -16 -87.9951s-27.667 -60.333 -51 -87s-53.5 -48.834 -90.5 -66.501s-81.833 -26.5 -134.5 -26.5c-38 0 -71.667 4.83301 -101 14.5s-54 23.167 -74 40.5s-35.167 38 -45.5 62s-15.5 50 -15.5 78c0 37.333 8.83301 71.5 26.5 102.5
s44.5 58.167 80.5 81.5c-18.667 8 -34.5 22.5 -47.5 43.5s-19.5 48.5 -19.5 82.5c0 26 4.66699 52.333 14 79s24.5 50.667 45.5 72s48.167 38.833 81.5 52.5s74 20.5 122 20.5c40.667 0 75 -5 103 -15s50.5 -23.333 67.5 -40s29.167 -35.834 36.5 -57.501
s11 -43.834 11 -66.501c0 -26.667 -5.5 -52.334 -16.5 -77.001s-32.167 -47.334 -63.5 -68.001c30 -15.333 52 -34 66 -56s21 -49 21 -81zM311 332.004c-19.333 0 -34.833 -3.99805 -46.5 -11.998s-20.5 -17.833 -26.5 -29.5s-10 -23.834 -12 -36.501s-3 -23.334 -3 -32.001
c0 -50.667 20.667 -76 62 -76c17.333 0 31.5 4.33301 42.5 13s19.5 19.167 25.5 31.5s10.167 25.333 12.5 39s3.5 25.5 3.5 35.5c0 26 -5.33301 43.667 -16 53s-24.667 14 -42 14zM329 579.006c-14.667 0 -26.6689 -3.5 -36.002 -10.5s-16.666 -15.333 -21.999 -25
s-9 -20 -11 -31s-3 -20.5 -3 -28.5c0 -21.333 4.5 -36.666 13.5 -45.999s21.833 -14 38.5 -14c15.333 0 27.833 3.5 37.5 10.5s17.334 15.5 23.001 25.5s9.5 20.667 11.5 32s3 21.666 3 30.999c0 16 -4.33301 29.333 -13 40s-22.667 16 -42 16z" />
    <glyph glyph-name="nine" unicode="9" horiz-adv-x="608" 
d="M229 145c31.333 0 57.5029 6.66992 78.5029 20.0029s37.667 29.666 50 48.999s21.166 39.666 26.499 60.999s8 40.333 8 57c0 9.33301 -1.33301 15.666 -4 18.999l-14.5 -19c-7 -9.33301 -16.667 -19 -29 -29s-28.166 -18.833 -47.499 -26.5s-42.333 -11.5 -69 -11.5
c-22 0 -43.833 3.16699 -65.5 9.5s-41 17 -58 32s-30.833 34.667 -41.5 59s-16 54.5 -16 90.5c0 36.667 6 71 18 103s29.667 60 53 84s52.666 43 87.999 57s76 21 122 21c50 0 90.833 -8.16699 122.5 -24.5s56.5 -38 74.5 -65s30.333 -58.5 37 -94.5s10 -73.333 10 -112
c0 -58 -6.33301 -113.333 -19 -166s-33 -99 -61 -139s-64.333 -71.667 -109 -95s-99.334 -35 -164.001 -35c-32 0 -59.333 3 -82 9s-41.167 14.333 -55.5 25s-24.666 23.167 -30.999 37.5s-9.5 30.166 -9.5 47.499c0 32 10.5 55.667 31.5 71s51.167 23 90.5 23
c7.33301 0 11.666 -0.666992 12.999 -2s2.66602 -4.66602 3.99902 -9.99902c3.33301 -18 7.83301 -30.167 13.5 -36.5s17.5 -9.5 35.5 -9.5zM296.003 385.003c16.667 0 30.668 3.66797 42.001 11.001s20.166 16.333 26.499 27s10.833 22 13.5 34s4 23 4 33
c0 23.333 -6 41.666 -18 54.999s-28 20 -48 20c-16 0 -29.333 -4 -40 -12s-19.167 -17.833 -25.5 -29.5s-10.833 -24 -13.5 -37s-4 -24.167 -4 -33.5c0 -20 5 -36.333 15 -49s26 -19 48 -19z" />
    <glyph glyph-name="colon" unicode=":" horiz-adv-x="279" 
d="M131 178c28 0 48.002 -6.83203 60.002 -20.499s18 -32.834 18 -57.501c0 -10 -1.33301 -21.5 -4 -34.5s-7.5 -25 -14.5 -36s-16.833 -20.333 -29.5 -28s-29.334 -11.5 -50.001 -11.5c-30.667 0 -51.334 7.83301 -62.001 23.5s-16 35.167 -16 58.5
c0 13.333 1.66699 26.333 5 39s8.66602 24 15.999 34s17.333 18 30 24s28.334 9 47.001 9zM156.002 474.001c28 0 48.002 -6.83203 60.002 -20.499s18 -32.834 18 -57.501c0 -10 -1.33301 -21.5 -4 -34.5s-7.5 -25 -14.5 -36s-16.833 -20.333 -29.5 -28
s-29.334 -11.5 -50.001 -11.5c-30.667 0 -51.334 7.83301 -62.001 23.5s-16 35.167 -16 58.5c0 13.333 1.66699 26.333 5 39s8.66602 24 15.999 34s17.333 18 30 24s28.334 9 47.001 9z" />
    <glyph glyph-name="semicolon" unicode=";" horiz-adv-x="283" 
d="M155 474c28 0 48.002 -6.83203 60.002 -20.499s18 -32.834 18 -57.501c0 -10 -1.33301 -21.5 -4 -34.5s-7.5 -25 -14.5 -36s-16.833 -20.333 -29.5 -28s-29.334 -11.5 -50.001 -11.5c-30.667 0 -51.334 7.83301 -62.001 23.5s-16 35.167 -16 58.5
c0 13.333 1.66699 26.333 5 39s8.66602 24 15.999 34s17.333 18 30 24s28.334 9 47.001 9zM108.002 -9.99902c-27.333 0 -46.5029 6.66992 -57.5029 20.0029s-16.5 29.666 -16.5 48.999c0 40.667 9.16699 70.667 27.5 90s44.5 29 78.5 29
c14.667 0 26.834 -2.66699 36.501 -8s17.334 -12.833 23.001 -22.5s9.66699 -21 12 -34s3.5 -27.167 3.5 -42.5c0 -32 -3.5 -63.333 -10.5 -94s-16.5 -58 -28.5 -82s-26.333 -43.333 -43 -58s-34.667 -22 -54 -22c-10 0 -18.167 1.83301 -24.5 5.5s-11.166 8.5 -14.499 14.5
s-5.5 12.667 -6.5 20s-1.5 14.333 -1.5 21c0 4 3.83301 9.33301 11.5 16s16.167 14.667 25.5 24s18 20.166 26 32.499s12.333 26.166 13 41.499z" />
    <glyph glyph-name="less" unicode="&#x3c;" horiz-adv-x="429" 
d="M158 345l37.0059 -18.998l19.5 -10c5 -2.66699 9.66699 -5 14 -7s11 -5.33301 20 -10l39 -19.5l71.5 -34.5c6.66699 -4 10 -10.667 10 -20c0 -6 -0.666992 -15 -2 -27s-3.83301 -24.167 -7.5 -36.5s-8.5 -23 -14.5 -32s-14 -13.5 -24 -13.5
c-8.66699 0 -21 3.33301 -37 10s-33.833 15.5 -53.5 26.5s-39.834 23 -60.501 36l-58.5 38.5c-18.333 12.667 -34.333 24.167 -48 34.5s-22.834 18.5 -27.501 24.5c-4 5.33301 -6.33301 9.83301 -7 13.5s-1 7.5 -1 11.5l4 61c0.666992 9.33301 2.5 16.333 5.5 21
s7.83301 9.66699 14.5 15c7.33301 5.33301 19.666 13.166 36.999 23.499l59 34l70 38c24.667 13 48.167 24.667 70.5 35s42.166 18.833 59.499 25.5s29.666 10 36.999 10c8 0 12 -4.33301 12 -13c0 -24.667 -1 -44.667 -3 -60s-5.33301 -27.833 -10 -37.5
s-10.334 -17.334 -17.001 -23.001s-14.667 -11.167 -24 -16.5l-31.5 -16c-11 -5.33301 -23.667 -11 -38 -17l-50 -20z" />
    <glyph glyph-name="equal" unicode="=" horiz-adv-x="543" 
d="M93 354c-7.33301 0 -11 3.66699 -11 11l3 54c0.666992 8.66699 1.83398 17.167 3.50098 25.5s5 15.833 10 22.5s12.167 12 21.5 16s21.666 6 36.999 6h322c10.667 0 16 -4.66699 16 -14l-4 -54c-1.33301 -20 -6.83301 -36.167 -16.5 -48.5s-29.5 -18.5 -59.5 -18.5h-322z
M57 94c-7.33301 0 -11 3.66699 -11 11l3 54c0.666992 8.66699 1.83398 17.167 3.50098 25.5s5 15.833 10 22.5s12.167 12 21.5 16s21.666 6 36.999 6h322c10.667 0 16 -4.66699 16 -14l-4 -54c-1.33301 -20 -6.83301 -36.167 -16.5 -48.5s-29.5 -18.5 -59.5 -18.5h-322z" />
    <glyph glyph-name="greater" unicode="&#x3e;" horiz-adv-x="431" 
d="M277 345l-37.0059 18.999l-19.5 10c-5 2.66699 -9.66699 5 -14 7s-11 5.33301 -20 10s-22.167 11.167 -39.5 19.5l-71 34.5c-6.66699 4 -10 10.667 -10 20c0 6 0.666992 15 2 27s3.83301 24.167 7.5 36.5s8.5 23 14.5 32s14 13.5 24 13.5c8.66699 0 21 -3.33301 37 -10
s33.833 -15.5 53.5 -26.5s39.834 -23 60.501 -36l58.5 -38.5c18.333 -12.667 34.333 -24.334 48 -35.001s22.834 -18.667 27.501 -24c4 -5.33301 6.33301 -9.83301 7 -13.5s1 -7.5 1 -11.5l-4 -61c-0.666992 -9.33301 -2.5 -16.333 -5.5 -21s-7.83301 -9.66699 -14.5 -15
c-7.33301 -5.33301 -19.666 -13.166 -36.999 -23.499l-59 -34l-70 -38c-24.667 -13 -48.167 -24.667 -70.5 -35s-42.166 -18.833 -59.499 -25.5s-29.666 -10 -36.999 -10c-8 0 -12 4.33301 -12 13c0 24.667 1 44.667 3 60s5.33301 27.833 10 37.5
s10.334 17.334 17.001 23.001s14.667 11.167 24 16.5l31.5 16c11 5.33301 23.667 11 38 17l49.5 20z" />
    <glyph glyph-name="question" unicode="?" horiz-adv-x="528" 
d="M235 178c28 0 48 -6.83105 60 -20.498s18 -32.834 18 -57.501c0 -10.667 -1.33301 -22.334 -4 -35.001s-7.5 -24.5 -14.5 -35.5s-17 -20.333 -30 -28s-29.833 -11.5 -50.5 -11.5c-30 0 -50.333 7.83301 -61 23.5s-16 35.167 -16 58.5c0 13.333 1.66699 26.333 5 39
s8.66602 24 15.999 34s17.333 18 30 24s28.334 9 47.001 9zM310 268.002c-4.66699 -9.33301 -8.66895 -15.0029 -12.002 -17.0029s-7.66602 -3 -12.999 -3h-36c-26 0 -44.667 5.5 -56 16.5s-17 24.5 -17 40.5c0 15.333 4.16699 30.166 12.5 44.499
s18.833 28.166 31.5 41.499s26.167 26.5 40.5 39.5s27.833 26 40.5 39s23.167 26.333 31.5 40s12.5 28.167 12.5 43.5c0 16 -5.16699 30.833 -15.5 44.5s-27.166 20.5 -50.499 20.5c-18 0 -32.5 -3.66699 -43.5 -11s-19.833 -16.666 -26.5 -27.999
s-11.667 -23.833 -15 -37.5s-6.33301 -27.167 -9 -40.5c-1.33301 -7.33301 -3.5 -12.166 -6.5 -14.499s-10.5 -3.5 -22.5 -3.5c-40.667 0 -69.5 7.16699 -86.5 21.5s-25.5 36.5 -25.5 66.5c0 31.333 7.5 58.333 22.5 81s34.667 41.334 59 56.001s52 25.5 83 32.5
s62.5 10.5 94.5 10.5c38 0 70.5 -4.83301 97.5 -14.5s49.167 -22.667 66.5 -39s30.166 -35.333 38.499 -57s12.5 -44.167 12.5 -67.5c0 -35.333 -8.66699 -66.666 -26 -93.999s-37.666 -52.666 -60.999 -75.999l-69.5 -67c-23 -21.333 -40.167 -44 -51.5 -68z" />
    <glyph glyph-name="at" unicode="@" horiz-adv-x="799" 
d="M416 368c-20 0 -35.333 -6.50098 -46 -19.501s-18.5 -27.5 -23.5 -43.5s-8 -31.333 -9 -46s-1.5 -23.667 -1.5 -27c0 -25.333 3.66699 -43.5 11 -54.5s18.666 -16.5 33.999 -16.5c14.667 0 27.167 4.5 37.5 13.5s18.833 20.5 25.5 34.5s11.334 29.333 14.001 46
s4 32.334 4 47.001c0 22 -3.33301 38.5 -10 49.5s-18.667 16.5 -36 16.5zM348 -109.001c-54 0 -100.999 7.99707 -140.999 23.9971s-73.167 38.5 -99.5 67.5s-46 64 -59 105s-19.5 86.167 -19.5 135.5c0 56 8.33301 108.333 25 157s42.167 91 76.5 127
s77.5 64.167 129.5 84.5s113 30.5 183 30.5c64 0 117.167 -8.33301 159.5 -25s76 -38.834 101 -66.501s42.667 -59.334 53 -95.001s15.5 -72.5 15.5 -110.5c0 -36 -4.16699 -69.5 -12.5 -100.5s-21.166 -58 -38.499 -81s-39.5 -41 -66.5 -54s-59.5 -19.5 -97.5 -19.5
c-15.333 0 -29.833 1.16699 -43.5 3.5s-25.834 5.83301 -36.501 10.5s-19 10.834 -25 18.501s-9 16.5 -9 26.5c-12.667 -16 -27.334 -29.667 -44.001 -41s-39 -17 -67 -17c-35.333 0 -63.333 12.167 -84 36.5s-31 65.5 -31 123.5c0 72.667 15.667 128.667 47 168
s74.333 59 129 59c25.333 0 44 -4.5 56 -13.5s20.667 -23.833 26 -44.5c0 4 0.5 9 1.5 15s2.16699 11.667 3.5 17s3 9.83301 5 13.5s4.33301 5.5 7 5.5h31c20.667 0 36 -4.16699 46 -12.5s15 -20.166 15 -35.499c0 -8 -1.33301 -20.833 -4 -38.5l-8.5 -57.5
c-3 -20.667 -5.66699 -41 -8 -61s-3.5 -36.333 -3.5 -49c0 -2.66699 0.166992 -6.16699 0.5 -10.5s1.5 -8.66602 3.5 -12.999s5 -8 9 -11s9.66699 -4.5 17 -4.5c11.333 0 21.333 4.16699 30 12.5s15.834 19.5 21.501 33.5s9.83398 30 12.501 48s4 36.667 4 56
c0 31.333 -4 59.833 -12 85.5s-20.667 47.667 -38 66s-40 32.5 -68 42.5s-62.333 15 -103 15c-52.667 0 -97.334 -8.16699 -134.001 -24.5s-66.334 -38.166 -89.001 -65.499s-39 -58.666 -49 -93.999s-15 -72 -15 -110c0 -78 19 -135.167 57 -171.5s89.667 -54.5 155 -54.5
c20.667 0 37.834 1.5 51.501 4.5s25.167 6.33301 34.5 10s17.166 7 23.499 10s12.833 4.5 19.5 4.5c5.33301 0 9.33301 -1.5 12 -4.5s4 -8.83301 4 -17.5c0 -4 -0.666992 -11.833 -2 -23.5s-5.33301 -23.5 -12 -35.5c-3.33301 -6 -8 -12.333 -14 -19
s-14.5 -12.5 -25.5 -17.5s-25 -9.16699 -42 -12.5s-38.167 -5 -63.5 -5z" />
    <glyph glyph-name="A" unicode="A" 
d="M366 710c16.667 0 30.501 -3.16602 41.501 -9.49902s20.167 -14.666 27.5 -24.999s13.333 -22.166 18 -35.499s8.66699 -27 12 -41l66 -267l41 -169.5c10 -43 17 -74.833 21 -95.5s6 -35 6 -43c0 -9.33301 -2.16699 -15.666 -6.5 -18.999s-11.166 -5 -20.499 -5h-51
c-28.667 0 -51.5 3.5 -68.5 10.5s-30 17.167 -39 30.5s-15.5 29.5 -19.5 48.5s-7.33301 40.5 -10 64.5h-174l-33 -138c-3.33301 -10.667 -11 -16 -23 -16h-53c-10.667 0 -21.667 1.16699 -33 3.5s-21.5 6.16602 -30.5 11.499s-16.5 12.166 -22.5 20.499s-9 18.5 -9 30.5
c0 14.667 4.66699 38.667 14 72s21.166 71.166 35.499 113.499s30.333 86.666 48 132.999l51.5 131.5l45.5 109c13.667 31.333 24.167 53.333 31.5 66c5.33301 9.33301 10.166 14.833 14.499 16.5s12.5 2.5 24.5 2.5h95zM246.001 299.001h115l-42 264z" />
    <glyph glyph-name="B" unicode="B" horiz-adv-x="605" 
d="M248 -10c-39.333 0 -71.665 2.49609 -96.998 7.49609s-45.5 12.333 -60.5 22s-25.333 21.834 -31 36.501s-8.5 32 -8.5 52c0 6 0.333008 14.5 1 25.5s1.66699 26.5 3 46.5s3.16602 45.833 5.49902 77.5s5.5 71.5 9.5 119.5l11 141c2.66699 34.667 4.66699 61.5 6 80.5
s2.16602 32.333 2.49902 40s0.5 14.167 0.5 19.5c0 10.667 0.166992 19.334 0.5 26.001s1 11.834 2 15.501s2.66699 6.33398 5 8.00098s5.83301 2.5 10.5 2.5c39.333 2.66699 72.833 4.66699 100.5 6s51.834 2 72.501 2c50.667 0 94.167 -4.16699 130.5 -12.5
s65.833 -20.166 88.5 -35.499s39.334 -34.333 50.001 -57s16 -48.334 16 -77.001c0 -16 -1.66699 -32.5 -5 -49.5s-9 -33.167 -17 -48.5s-18.833 -28.833 -32.5 -40.5s-30.834 -20.167 -51.501 -25.5c38.667 -12 66 -31.833 82 -59.5s24 -60.5 24 -98.5
c0 -30.667 -5 -59.5 -15 -86.5s-27.333 -50.667 -52 -71s-57.334 -36.5 -98.001 -48.5s-91.667 -18 -153 -18zM305.001 299.996c-7.33301 0 -16.334 -0.5 -27.001 -1.5s-21.667 -2.5 -33 -4.5l-11 -163c24 -7.33301 45.667 -11 65 -11c20.667 0 37.334 3 50.001 9
s22.5 13.5 29.5 22.5s11.667 19 14 30s3.5 21.167 3.5 30.5c0 24.667 -6.83301 45.5 -20.5 62.5s-37.167 25.5 -70.5 25.5zM263 574.996c-1.33301 -17.333 -2.5 -37.668 -3.5 -61.001s-2.5 -48.666 -4.5 -75.999c21.333 -5.33301 40.333 -8 57 -8c20 0 36 2.33301 48 7
s21.5 10.667 28.5 18s11.667 15.333 14 24s3.5 17 3.5 25c0 20.667 -6.83301 38.5 -20.5 53.5s-37.167 22.5 -70.5 22.5c-7.33301 0 -15.5 -0.5 -24.5 -1.5s-18.167 -2.16699 -27.5 -3.5z" />
    <glyph glyph-name="C" unicode="C" horiz-adv-x="617" 
d="M351 146c27.333 0 50.5 4 69.5 12s35.167 17 48.5 27l35.5 27c10.333 8 20.833 12 31.5 12c13.333 0 20 -10 20 -30c0 -10.667 -1.33301 -23.5 -4 -38.5s-6.33398 -31.833 -11.001 -50.5c-2.66699 -11.333 -9.16699 -23.666 -19.5 -36.999s-24.5 -25.833 -42.5 -37.5
s-40.167 -21.334 -66.5 -29.001s-56.5 -11.5 -90.5 -11.5s-68 5 -102 15s-64.333 27 -91 51s-48.334 56.333 -65.001 97s-25 91.667 -25 153c0 22 1.5 47.5 4.5 76.5s8.83301 58.833 17.5 89.5s20.834 60.834 36.501 90.501s35.834 56.167 60.501 79.5
s54.834 42.166 90.501 56.499s78.167 21.5 127.5 21.5c39.333 0 73.5 -4.66699 102.5 -14s53 -22.166 72 -38.499s33 -35.5 42 -57.5s13.5 -45.333 13.5 -70c0 -42.667 -12.5 -73.834 -37.5 -93.501s-60.5 -29.5 -106.5 -29.5c-14.667 0 -23.834 1.16699 -27.501 3.5
s-5.5 7.16602 -5.5 14.499c-0.666992 22.667 -1.33398 42.334 -2.00098 59.001s-3 30.5 -7 41.5s-10.167 19 -18.5 24s-19.833 7.5 -34.5 7.5c-21.333 0 -39.5 -4.5 -54.5 -13.5s-27.667 -20.667 -38 -35s-18.666 -30.5 -24.999 -48.5s-11.333 -36.333 -15 -55
s-6 -36.667 -7 -54s-1.5 -32.333 -1.5 -45c0 -61.333 10.167 -105 30.5 -131s51.833 -39 94.5 -39z" />
    <glyph glyph-name="D" unicode="D" horiz-adv-x="666" 
d="M92 695c0.666992 5.33301 2.83105 9.16992 6.49805 11.5029s7.16699 3.5 10.5 3.5c45.333 0 87.833 1.5 127.5 4.5s70.834 4.5 93.501 4.5c56.667 0 104.167 -5.66699 142.5 -17s69.333 -29 93 -53s40.5 -55 50.5 -93s15 -83.667 15 -137
c0 -54 -5.5 -106.833 -16.5 -158.5s-30.167 -97.5 -57.5 -137.5s-64.166 -72.167 -110.499 -96.5s-104.833 -36.5 -175.5 -36.5c-32.667 0 -62.5 0.666992 -89.5 2s-50.167 5.33301 -69.5 12s-34.333 16.667 -45 30s-16 31.666 -16 54.999c0 8.66699 0.5 21.667 1.5 39
s2.33301 38 4 62s3.66699 50.5 6 79.5l7.5 91.5l12.5 158c3 39.333 5 70.166 6 92.499s1.66699 39.166 2 50.499s0.833008 22.333 1.5 33zM277.997 148.004c37.333 0 67.167 8 89.5 24s39.5 36.333 51.5 61s20 51.667 24 81s6 57 6 83c0 28 -1.83301 52.5 -5.5 73.5
s-10 38.5 -19 52.5s-21.5 24.5 -37.5 31.5s-36 10.5 -60 10.5c-7.33301 0 -16.666 -0.333008 -27.999 -1s-25 -1.66699 -41 -3c-1.33301 -24.667 -3 -53.834 -5 -87.501l-6.5 -106c-2.33301 -37 -4.83301 -74.333 -7.5 -112s-5.33398 -72.5 -8.00098 -104.5
c10 -1.33301 19 -2.16602 27 -2.49902s14.667 -0.5 20 -0.5z" />
    <glyph glyph-name="E" unicode="E" horiz-adv-x="501" 
d="M155 0c-37.333 0 -63.998 7.33398 -79.998 22.001s-24 35.667 -24 63c0 13.333 1 36.166 3 68.499s4.66699 69.166 8 110.499s6.66602 85 9.99902 131s6.66602 89.333 9.99902 130s6 76.334 8 107.001s3 51.667 3 63c0 10 5.33301 15 16 15h352c4 0 7.66699 -1 11 -3
s5 -5.66699 5 -11l-4 -59c-1.33301 -20 -6.83301 -36.167 -16.5 -48.5s-29.5 -18.5 -59.5 -18.5h-138l-10 -141h142c4 0 7.66699 -1 11 -3s5 -5.66699 5 -11l-4 -59c-1.33301 -20 -6.83301 -36.167 -16.5 -48.5s-29.5 -18.5 -59.5 -18.5h-87l-11 -149h220
c4 0 7.66699 -1.16699 11 -3.5s5 -5.83301 5 -10.5l-4 -59c-1.33301 -20 -6.83301 -36.167 -16.5 -48.5s-29.5 -18.5 -59.5 -18.5h-230z" />
    <glyph glyph-name="F" unicode="F" horiz-adv-x="464" 
d="M240 289l-18.998 -274c-0.666992 -5.33301 -1.16699 -9.16602 -1.5 -11.499s-3.5 -3.5 -9.5 -3.5h-55c-37.333 0 -64 7.33301 -80 22s-24 35.667 -24 63c0 13.333 1 36.166 3 68.499s4.66699 69.166 8 110.499s6.66602 85 9.99902 131s6.66602 89.333 9.99902 130
s6 76.334 8 107.001s3 51.667 3 63c0 10 5.33301 15 16 15h352c4 0 7.66699 -1 11 -3s5 -5.66699 5 -11l-4 -59c-1.33301 -20 -6.83301 -36.167 -16.5 -48.5s-29.5 -18.5 -59.5 -18.5h-138l-10 -141h142c4 0 7.66699 -1 11 -3s5 -5.66699 5 -11l-4 -59
c-1.33301 -20 -6.83301 -36.167 -16.5 -48.5s-29.5 -18.5 -59.5 -18.5h-87z" />
    <glyph glyph-name="G" unicode="G" horiz-adv-x="640" 
d="M495 0c-34.667 0 -59.5 7.16895 -74.5 21.502s-23.167 32.166 -24.5 53.499c-7.33301 -22.667 -22.833 -42.5 -46.5 -59.5s-57.834 -25.5 -102.501 -25.5c-26 0 -51.333 5.16699 -76 15.5s-46.667 27.5 -66 51.5s-34.833 56 -46.5 96s-17.5 89.667 -17.5 149
c0 22.667 1.33301 48.834 4 78.501s8.16699 60 16.5 91s20.333 61.333 36 91s36.334 56.167 62.001 79.5s57.167 42.166 94.5 56.499s82 21.5 134 21.5c34 0 64.5 -3.66699 91.5 -11s50 -17.666 69 -30.999s33.667 -29.666 44 -48.999s15.5 -41 15.5 -65
c0 -38.667 -12.667 -67.834 -38 -87.501s-61 -29.5 -107 -29.5c-14.667 0 -23.5 1.16699 -26.5 3.5s-4.83301 7.16602 -5.5 14.499c-1.33301 12 -2.16602 24 -2.49902 36s-2 23 -5 33s-8.16699 18 -15.5 24s-19 9 -35 9c-32.667 0 -58.667 -9.33301 -78 -28
s-34 -41.334 -44 -68.001s-16.333 -54.167 -19 -82.5s-4 -52.166 -4 -71.499c0 -32 2 -58.833 6 -80.5s9.83301 -39.334 17.5 -53.001s16.834 -23.334 27.501 -29.001s23 -8.5 37 -8.5c25.333 0 46.666 5.33301 63.999 16s27.666 30 30.999 58l6 56
c2 19.333 4.66699 35.166 8 47.499s11.333 18.5 24 18.5h55c16.667 0 30.167 -1.83301 40.5 -5.5s18.333 -9.66699 24 -18s9.5 -19.166 11.5 -32.499s3 -29.666 3 -48.999c0 -13.333 -0.5 -31 -1.5 -53s-2.33301 -44.333 -4 -67s-3.5 -43.5 -5.5 -62.5
s-3.66699 -32.167 -5 -39.5c-1.33301 -6 -3 -10 -5 -12s-6 -3 -12 -3h-55z" />
    <glyph glyph-name="H" unicode="H" horiz-adv-x="674" 
d="M515 0c-37.333 0 -63.998 7.33008 -79.998 21.9971s-24 35.667 -24 63c0 14.667 1.33301 40.667 4 78l9 126h-178l-20 -274c-0.666992 -5.33301 -2 -9.16602 -4 -11.499s-6 -3.5 -12 -3.5h-55c-37.333 0 -64 7.33301 -80 22s-24 35.667 -24 63
c0 13.333 1 36.166 3 68.499s4.66699 69.166 8 110.499s6.66602 85 9.99902 131s6.66602 89.333 9.99902 130s6 76.334 8 107.001s3 51.667 3 63c0 10 5.33301 15 16 15h55c40.667 0 68 -8.66699 82 -26s21 -43 21 -77c0 -5.33301 -1 -24.166 -3 -56.499
s-4.66699 -71.166 -8 -116.499h179c2 29.333 4.16699 58 6.5 86s4.33301 53.667 6 77s3 43.5 4 60.5s1.5 29.5 1.5 37.5c0 10 5.33301 15 16 15h55c40.667 0 68 -8.66699 82 -26s21 -43 21 -77c0 -3.33301 -0.5 -14 -1.5 -32s-2.5 -40.667 -4.5 -68l-6.5 -91.5l-7 -103.5
l-7 -103.5l-6.5 -91.5l-5 -68.5c-1.33301 -18.333 -2.33301 -29.5 -3 -33.5c-0.666992 -5.33301 -2 -9.16602 -4 -11.499s-6 -3.5 -12 -3.5h-55z" />
    <glyph glyph-name="I" unicode="I" horiz-adv-x="314" 
d="M155 0c-37.333 0 -63.998 7.33301 -79.998 22s-24 35.667 -24 63c0 13.333 1 36.166 3 68.499s4.66699 69.166 8 110.499s6.66602 85 9.99902 131s6.66602 89.333 9.99902 130s6 76.334 8 107.001s3 51.667 3 63c0 10 5.33301 15 16 15h55c40.667 0 68 -8.66699 82 -26
s21 -43 21 -77c0 -3.33301 -0.5 -14 -1.5 -32s-2.5 -40.667 -4.5 -68l-6.5 -91.5l-7 -103.5l-7 -103.5l-6.5 -91.5l-5 -68.5c-1.33301 -18.333 -2.33301 -29.5 -3 -33.5c-0.666992 -5.33301 -2 -9.16602 -4 -11.499s-6 -3.5 -12 -3.5h-55z" />
    <glyph glyph-name="J" unicode="J" horiz-adv-x="479" 
d="M165 146c14.667 0 26.499 5.33496 35.499 16.002s16.5 25 22.5 43s10.833 38.833 14.5 62.5s7.16699 48.834 10.5 75.501c1.33301 12 2.66602 26.167 3.99902 42.5s2.83301 37.333 4.5 63l6 96l8.5 141.5c0.666992 9.33301 1.66699 15.666 3 18.999s5.66602 5 12.999 5
h55c22.667 0 40.5 -2 53.5 -6s22.833 -9 29.5 -15s10.667 -12.5 12 -19.5s2 -13.833 2 -20.5s-0.333008 -22 -1 -46s-1.66699 -51.833 -3 -83.5s-3.16602 -64.834 -5.49902 -99.501s-4.83301 -66 -7.5 -94c-4 -38 -10.167 -76.833 -18.5 -116.5
s-21.833 -75.834 -40.5 -108.501s-43.5 -59.334 -74.5 -80.001s-71.167 -31 -120.5 -31c-27.333 0 -51.833 3.33301 -73.5 10s-40 15.834 -55 27.501s-26.5 25.334 -34.5 41.001s-12 32.167 -12 49.5c0 16 3.16699 30.5 9.5 43.5s14.833 23.833 25.5 32.5
s22.834 15.334 36.501 20.001s27.834 7 42.501 7c4 0 6.83301 -3.83301 8.5 -11.5s4 -16.334 7 -26.001s7.5 -18.334 13.5 -26.001s15.667 -11.5 29 -11.5z" />
    <glyph glyph-name="K" unicode="K" horiz-adv-x="623" 
d="M598 65c0 -5.33301 -3.16504 -12.1699 -9.49805 -20.5029s-15 -16.5 -26 -24.5s-23.667 -15 -38 -21s-29.5 -9 -45.5 -9c-24.667 0 -46.334 7.83301 -65.001 23.5s-35.5 37.167 -50.5 64.5s-28.833 59.833 -41.5 97.5s-25.667 78.5 -39 122.5l-38 -25l-19 -258
c-0.666992 -5.33301 -2 -9.16602 -4 -11.499s-6 -3.5 -12 -3.5h-55c-38 0 -64.833 7.5 -80.5 22.5s-23.5 37.167 -23.5 66.5c0 9.33301 0.5 23.5 1.5 42.5s2.5 41.333 4.5 67l6.5 84.5l7.5 94c4.66699 64 8.5 114.667 11.5 152s5.16699 66.833 6.5 88.5l3 48
c0.666992 10.333 1 20.166 1 29.499c0 10 5.33301 15 16 15h55c21.333 0 38.5 -2.16699 51.5 -6.5s23.167 -10.5 30.5 -18.5s12.333 -17.833 15 -29.5s4 -25.167 4 -40.5s-0.833008 -40.166 -2.5 -74.499s-4.16699 -72.833 -7.5 -115.5l81.5 104l115.5 153
c2 2.66699 4.83301 6.16699 8.5 10.5s7.66699 8.5 12 12.5s9 7.5 14 10.5s9.83301 4.5 14.5 4.5c8.66699 0 18.667 -4.5 30 -13.5s22 -20 32 -33s18.5 -26.333 25.5 -40s10.5 -25.167 10.5 -34.5c0 -19.333 -17.333 -48.166 -52 -86.499s-84.334 -82.5 -149.001 -132.5
c11.333 -19.333 24.333 -40.166 39 -62.499l44 -68l43 -67l37.5 -58l26.5 -41.5c6.66699 -10.667 10 -16.667 10 -18z" />
    <glyph glyph-name="L" unicode="L" horiz-adv-x="448" 
d="M155 0c-37.333 0 -63.9971 7.33398 -79.9971 22.001s-24 35.667 -24 63c0 13.333 1 36.166 3 68.499s4.66699 69.166 8 110.499s6.66602 85 9.99902 131s6.66602 89.333 9.99902 130s6 76.334 8 107.001s3 51.667 3 63c0 10 5.33301 15 16 15h55
c37.333 0 63.166 -7.16699 77.499 -21.5s21.5 -35.5 21.5 -63.5c0 -3.33301 -0.166992 -6.33301 -0.5 -9s-0.5 -5.66699 -0.5 -9l-33 -467h180c4 0 7.66699 -1.16699 11 -3.5s5 -5.83301 5 -10.5l-4 -59c-1.33301 -20 -6.83301 -36.167 -16.5 -48.5s-29.5 -18.5 -59.5 -18.5
h-190z" />
    <glyph glyph-name="M" unicode="M" horiz-adv-x="908" 
d="M685 533l-20.4971 -62.5l-27.5 -84.5l-31 -97.5l-32.5 -100.5l-32.5 -93.5c-10.667 -29.667 -20.334 -55.5 -29.001 -77.5c-2.66699 -5.33301 -8.16699 -9.5 -16.5 -12.5s-21.5 -4.5 -39.5 -4.5c-11.333 0 -23 0.666992 -35 2s-23.167 4 -33.5 8s-19.333 9.33301 -27 16
s-13.5 15 -17.5 25c-10 34 -19.5 71.833 -28.5 113.5l-26.5 127.5l-25.5 127.5c-8.33301 41.667 -16.833 79.5 -25.5 113.5c0 -9.33301 -0.333008 -25.333 -1 -48s-1.33398 -49 -2.00098 -79s-1.5 -62.333 -2.5 -97s-1.83301 -68.5 -2.5 -101.5
s-1.33398 -63.667 -2.00098 -92s-1 -51.5 -1 -69.5c0 -20 -1.16699 -32.667 -3.5 -38s-6.5 -8 -12.5 -8h-55c-38 0 -64.833 7.5 -80.5 22.5s-23.5 37.167 -23.5 66.5c0 8 0.5 21.5 1.5 40.5s2.5 41.5 4.5 67.5l6.5 85.5c2.33301 31 4.83301 62.5 7.5 94.5l8.5 108.5
c2.33301 29 4.16602 53.167 5.49902 72.5s2.5 35 3.5 47s1.66699 22.667 2 32s0.666016 18.166 0.999023 26.499s0.5 18.833 0.5 31.5c0 5.33301 2 9.16602 6 11.499s7.66699 3.5 11 3.5h140c26 0 47.333 -4.16699 64 -12.5s30.334 -21.166 41.001 -38.499
s19.334 -39.833 26.001 -67.5s12.834 -60.5 18.501 -98.5l19 -131.5c7 -49.667 16.167 -105.5 27.5 -167.5l27 103l18.5 68.5l12.5 45.5l9 33.5l9 33.5l12 45l17.5 67.5l26.5 102.5c1.33301 4 3.66602 7.83301 6.99902 11.5s9.33301 5.5 18 5.5h156
c21.333 0 38.5 -2.16699 51.5 -6.5s23.167 -10.5 30.5 -18.5s12.333 -17.833 15 -29.5s4 -25.167 4 -40.5s-0.833008 -40.166 -2.5 -74.499s-4 -73 -7 -116l-9 -133.5c-3 -46 -6 -88.667 -9 -128l-7.5 -100c-2 -27.333 -3.33301 -43.333 -4 -48
c-0.666992 -5.33301 -2 -9.16602 -4 -11.499s-6 -3.5 -12 -3.5h-55c-38 0 -64.833 7.5 -80.5 22.5s-23.5 34.5 -23.5 58.5c0 7.33301 0.833008 20.666 2.5 39.999s3.83398 42 6.50098 68l9 85.5c3.33301 31 6.33301 61.833 9 92.5l7.5 89.5
c2.33301 29 4.16602 54.5 5.49902 76.5z" />
    <glyph glyph-name="N" unicode="N" horiz-adv-x="688" 
d="M499 0c-27.333 0 -47.667 4 -61 12s-23 18 -29 30l-97.5 205l-92.5 198c0.666992 -72 1.66699 -143.667 3 -215l4 -215c0 -10 -5.33301 -15 -16 -15h-55c-38 0 -64.833 7.5 -80.5 22.5s-23.5 37.167 -23.5 66.5c0 8 0.5 21.5 1.5 40.5s2.5 41.5 4.5 67.5l6.5 85.5
c2.33301 31 4.83301 62.5 7.5 94.5l10 126c2.66699 33.333 4.83398 61.5 6.50098 84.5s2.83398 42.667 3.50098 59l2 48.5c0 10 5.33301 15 16 15h80c22 0 40 -2.5 54 -7.5s25.5 -11.833 34.5 -20.5s16.167 -18.5 21.5 -29.5s10.333 -22.5 15 -34.5l42.5 -107l32.5 -79
l24.5 -59l19.5 -46l18 -40.5l19 -42.5c0 39.333 -0.166992 79.833 -0.5 121.5l-1 122l-1 114.5c-0.333008 36.667 -0.5 69.667 -0.5 99c0 6 5.66699 9 17 9h55c22 0 39.5 -2.16699 52.5 -6.5s23.167 -10.666 30.5 -18.999s12.166 -18.5 14.499 -30.5s3.5 -25.667 3.5 -41
c0 -16.667 -1 -42.167 -3 -76.5l-7 -115.5c-2.66699 -42.667 -5.66699 -86.834 -9 -132.501l-9.5 -126.5c-3 -38.667 -5.66699 -71.5 -8 -98.5s-3.83301 -42.833 -4.5 -47.5c0 -5.33301 -1.83301 -9.33301 -5.5 -12s-7.83398 -4 -12.501 -4h-82z" />
    <glyph glyph-name="O" unicode="O" horiz-adv-x="711" 
d="M405 721c48.667 0 90.334 -6.83398 125.001 -20.501s63 -33.667 85 -60s38 -58.333 48 -96s15 -80.5 15 -128.5c0 -26.667 -1.83301 -55.667 -5.5 -87s-10.334 -62.833 -20.001 -94.5s-22.834 -62.167 -39.501 -91.5s-38.167 -55.333 -64.5 -78
s-57.833 -40.834 -94.5 -54.501s-80 -20.5 -130 -20.5c-55.333 0 -101.166 8.33301 -137.499 25s-65.333 39.167 -87 67.5s-37 61.833 -46 100.5s-13.5 80 -13.5 124c0 52 6 102.833 18 152.5s32.167 93.834 60.5 132.501s65.833 69.834 112.5 93.501s104.667 35.5 174 35.5
zM384 565.999c-23.333 0 -43.498 -4.1709 -60.498 -12.5039s-31.333 -19.5 -43 -33.5s-21 -29.667 -28 -47s-12.5 -35.166 -16.5 -53.499s-6.66699 -36 -8 -53s-2 -32.167 -2 -45.5c0 -60.667 10.167 -105 30.5 -133s49.166 -42 86.499 -42c30.667 0 55.667 9.83301 75 29.5
s34.5 43.334 45.5 71.001s18.5 56.334 22.5 86.001s6 54.834 6 75.501c0 48.667 -8.33301 87.167 -25 115.5s-44.334 42.5 -83.001 42.5z" />
    <glyph glyph-name="P" unicode="P" horiz-adv-x="588" 
d="M155 0c-38 0 -64.832 7.5 -80.499 22.5s-23.5 37.167 -23.5 66.5c0 8.66699 0.5 22.5 1.5 41.5s2.5 41.5 4.5 67.5l6.5 85l7.5 94l8.5 101.5c2.33301 28.333 4.16602 52.666 5.49902 72.999s2.5 37.333 3.5 51s1.66699 25.667 2 36s0.666016 19.833 0.999023 28.5
s0.5 18 0.5 28c0 5.33301 1.66699 9.16602 5 11.499s6.66602 3.5 9.99902 3.5c17.333 0 36.333 0.5 57 1.5s41.334 2.16699 62.001 3.5s40.667 2.5 60 3.5s36.333 1.5 51 1.5c42.667 0 79.334 -5.16699 110.001 -15.5s55.5 -25.333 74.5 -45s33 -43.5 42 -71.5
s13.5 -60 13.5 -96c0 -39.333 -5.16699 -77.166 -15.5 -113.499s-26.5 -68.5 -48.5 -96.5s-50.333 -50.333 -85 -67s-76 -25 -124 -25c-28.667 0 -53 3 -73 9l-14 -184c-0.666992 -5.33301 -2 -9.16602 -4 -11.499s-6 -3.5 -12 -3.5h-46zM317.001 570
c-8.66699 0 -18.332 -0.5 -28.999 -1.5s-22 -2.16699 -34 -3.5l-5 -102c-2 -40 -4.66699 -82 -8 -126c10 -2.66699 19.833 -4.5 29.5 -5.5s18.5 -1.5 26.5 -1.5c23.333 0 42.166 5.5 56.499 16.5s25.5 24.5 33.5 40.5s13.333 32.667 16 50s4 32.333 4 45
c0 28.667 -6.5 50.5 -19.5 65.5s-36.5 22.5 -70.5 22.5z" />
    <glyph glyph-name="Q" unicode="Q" horiz-adv-x="682" 
d="M545 -118c0 -5.33301 -2.99902 -12.165 -8.99902 -20.498s-14.5 -16.666 -25.5 -24.999s-24 -15.5 -39 -21.5s-31.5 -9 -49.5 -9c-22 0 -41 4.83301 -57 14.5s-30.167 22.834 -42.5 39.501s-23.166 36.5 -32.499 59.5s-18.333 47.5 -27 73.5
c-42.667 4.66699 -78.334 16 -107.001 34s-51.5 41 -68.5 69s-29.167 59.833 -36.5 95.5s-11 73.834 -11 114.501c0 52 5.83301 102.833 17.5 152.5s31 94 58 133s62.5 70.333 106.5 94s98.333 35.5 163 35.5c47.333 0 87.666 -6.83301 120.999 -20.5
s60.5 -33.334 81.5 -59.001s36.333 -57.334 46 -95.001s14.5 -80.5 14.5 -128.5c0 -34.667 -3 -72.834 -9 -114.501s-17.333 -82 -34 -121s-39.5 -74.333 -68.5 -106s-66.833 -55.167 -113.5 -70.5c10 -10 22 -21.333 36 -34l40 -36.5
c12.667 -11.667 23.5 -22.334 32.5 -32.001s13.5 -16.834 13.5 -21.501zM364.001 566.001c-30 0 -54 -9.00098 -72 -27.001s-31.833 -40 -41.5 -66s-16.167 -53.167 -19.5 -81.5s-5 -52.833 -5 -73.5c0 -58 8.83301 -101.167 26.5 -129.5s42.5 -42.5 74.5 -42.5
c28 0 50.833 9.83301 68.5 29.5s31.5 43.334 41.5 71.001s16.667 56.667 20 87s5 56.5 5 78.5c0 48 -7.33301 85.667 -22 113s-40 41 -76 41z" />
    <glyph glyph-name="R" unicode="R" horiz-adv-x="617" 
d="M155 0c-38 0 -64.835 7.49902 -80.502 22.499s-23.5 37.167 -23.5 66.5c0 8 0.5 21.5 1.5 40.5s2.5 41.5 4.5 67.5l6.5 85.5c2.33301 31 4.83301 62.5 7.5 94.5c5.33301 67.333 9.16602 122 11.499 164l5.5 99c2 30 4 49.167 6 57.5s6.33301 12.5 13 12.5
c20.667 0 41.834 0.5 63.501 1.5s42.5 2.16699 62.5 3.5s38.833 2.5 56.5 3.5s33.5 1.5 47.5 1.5c42.667 0 79.334 -5.33301 110.001 -16s55.5 -25.667 74.5 -45s33 -42.666 42 -69.999s13.5 -58 13.5 -92c0 -52 -10.333 -98.333 -31 -139s-53.667 -71.667 -99 -93l84 -120
l35 -52.5c8 -12.333 12 -21.5 12 -27.5c0 -4.66699 -2.83301 -11.167 -8.5 -19.5s-14 -16.666 -25 -24.999s-24.333 -15.5 -40 -21.5s-33.167 -9 -52.5 -9c-21.333 0 -39.833 7 -55.5 21s-29.667 32.5 -42 55.5s-23 49.5 -32 79.5s-17.5 61.333 -25.5 94
c-24 1.33301 -43.667 3.66602 -59 6.99902l-6 -84c-2 -26.667 -3.66699 -50.5 -5 -71.5s-2.66602 -38.333 -3.99902 -52s-2 -21.834 -2 -24.501c-0.666992 -5.33301 -2 -9.16602 -4 -11.499s-6 -3.5 -12 -3.5h-50zM316.998 569.999c-8 0 -16.998 -0.500977 -26.998 -1.50098
s-20.667 -2.16699 -32 -3.5c-1.33301 -23.333 -2.83301 -51.166 -4.5 -83.499s-3.83398 -66.833 -6.50098 -103.5c23.333 -5.33301 43.666 -8 60.999 -8c20.667 0 37.5 4 50.5 12s23.167 17.833 30.5 29.5s12.166 24.167 14.499 37.5s3.5 25.333 3.5 36
c0 27.333 -6.66699 48.333 -20 63s-36.666 22 -69.999 22z" />
    <glyph glyph-name="S" unicode="S" horiz-adv-x="541" 
d="M326 720c62.667 0 109.165 -13.6709 139.498 -41.0039s45.5 -63 45.5 -107c0 -37.333 -10.333 -65.833 -31 -85.5s-50.334 -29.5 -89.001 -29.5c-12 0 -19.667 1.16699 -23 3.5s-5 7.16602 -5 14.499c0 6.66699 -0.5 15.334 -1.5 26.001s-3.5 21 -7.5 31
s-10.333 18.5 -19 25.5s-20.667 10.5 -36 10.5c-21.333 0 -40.333 -6.5 -57 -19.5s-25 -29.833 -25 -50.5c0 -18 6.83301 -32.667 20.5 -44s30.834 -21.833 51.501 -31.5s43.167 -19.5 67.5 -29.5s46.833 -23.167 67.5 -39.5s37.834 -36.666 51.501 -60.999
s20.5 -55.166 20.5 -92.499c0 -29.333 -4.83301 -56.833 -14.5 -82.5s-24 -48 -43 -67s-43 -33.833 -72 -44.5s-62.833 -16 -101.5 -16c-33.333 0 -64.166 3.66699 -92.499 11s-53 16.5 -74 27.5s-37.5 23 -49.5 36s-18 24.833 -18 35.5c0 44 2.5 75.667 7.5 95
s14.167 29 27.5 29c9.33301 0 19.166 -4 29.499 -12l35.5 -27c13.333 -10 28.833 -19 46.5 -27s38.167 -12 61.5 -12c9.33301 0 18.5 0.833008 27.5 2.5s17 4.5 24 8.5s12.667 9.33301 17 16s6.5 14.667 6.5 24c0 16.667 -6.33301 30 -19 40s-28.667 19.167 -48 27.5
l-62.5 26c-22.333 9 -43.166 21.333 -62.499 37s-35.333 35.834 -48 60.501s-19 56.334 -19 95.001c0 43.333 8.16699 80 24.5 110s37.333 54.5 63 73.5s54.667 32.667 87 41s64.5 12.5 96.5 12.5z" />
    <glyph glyph-name="T" unicode="T" horiz-adv-x="544" 
d="M375 570l-37.9971 -555c-0.666992 -10 -4.33398 -15 -11.001 -15h-55c-37.333 -0 -64 7.33301 -80 22s-24 35.667 -24 63c0 10 0.5 25 1.5 45s2.5 43.5 4.5 70.5l6.5 88c2.33301 31.667 4.83301 63.667 7.5 96s5.16699 64.5 7.5 96.5l6.5 89h-160
c-7.33301 0 -11 4.66699 -11 14l3 56c0.666992 8.66699 2.16699 17.167 4.5 25.5s6.16602 15.833 11.499 22.5s12.166 12 20.499 16s18.5 6 30.5 6h447c4 0 7.66699 -1 11 -3s5 -5.66699 5 -11l-4 -59c-1.33301 -20 -6.83301 -36.167 -16.5 -48.5s-29.5 -18.5 -59.5 -18.5
h-108z" />
    <glyph glyph-name="U" unicode="U" horiz-adv-x="659" 
d="M603 326c-2 -20 -4.99805 -42.1641 -8.99805 -66.4971s-10.167 -49 -18.5 -74s-19.5 -49.167 -33.5 -72.5s-32 -44.166 -54 -62.499s-48.5 -33 -79.5 -44s-67.833 -16.5 -110.5 -16.5c-43.333 0 -80.333 6.16699 -111 18.5s-55.667 29.333 -75 51
s-33.333 46.834 -42 75.501s-13 59.334 -13 92.001c0 14.667 0.666992 34.5 2 59.5s3.16602 52.167 5.49902 81.5l7.5 91.5l7.5 90.5l6.5 77.5c2 23 3.33301 40.5 4 52.5c0.666992 12.667 2.33398 20.834 5.00098 24.501s6.66699 5.5 12 5.5h55c40.667 0 68 -8.66699 82 -26
s21 -43 21 -77c0 -2 -0.5 -10.833 -1.5 -26.5s-2.33301 -34.834 -4 -57.501s-3.33398 -47.334 -5.00098 -74.001s-3.33398 -52 -5.00098 -76s-3 -45 -4 -63s-1.5 -30 -1.5 -36c0 -11.333 0.5 -24.333 1.5 -39s3.66699 -28.667 8 -42s11.333 -24.5 21 -33.5
s23.5 -13.5 41.5 -13.5c22.667 0 41.167 7.66699 55.5 23s25.333 33.666 33 54.999s13 43 16 65s5.16699 40 6.5 54l8.5 105c3 36 5.66699 69.667 8 101s4.16602 58.666 5.49902 81.999s2 39.333 2 48c0 13.333 1 21.833 3 25.5s6.33301 5.5 13 5.5h55
c22.667 0 40.5 -2 53.5 -6s22.833 -9.33301 29.5 -16s10.834 -14.334 12.501 -23.001s2.5 -17.667 2.5 -27c0 -8.66699 -0.5 -25 -1.5 -49l-3.5 -82c-1.33301 -30.667 -3 -62.334 -5 -95.001s-4.33301 -61.334 -7 -86.001z" />
    <glyph glyph-name="V" unicode="V" horiz-adv-x="623" 
d="M307 149l36.0029 122.998l30 109c10 37.333 20.667 79.333 32 126l43 174c3.33301 12.667 7.16602 20.834 11.499 24.501s14.166 5.5 29.499 5.5c6.66699 0 17.167 -0.5 31.5 -1.5s28.833 -4 43.5 -9s27.667 -12.333 39 -22s17 -23.5 17 -41.5
c0 -16 -4.5 -40.5 -13.5 -73.5s-20.5 -70.5 -34.5 -112.5s-29.5 -85.833 -46.5 -131.5l-50.5 -129.5l-45.5 -107c-13.667 -30.667 -23.834 -52 -30.501 -64c-7.33301 -12.667 -20.333 -19 -39 -19h-105c-16.667 0 -30.5 3.16699 -41.5 9.5s-20.167 14.833 -27.5 25.5
s-13.333 22.834 -18 36.501s-8.66699 27.5 -12 41.5l-58.5 246.5l-40.5 175c-10.667 47 -18.667 83.167 -24 108.5s-8 41 -8 47c0 7.33301 5.33301 12.833 16 16.5s28.667 5.5 54 5.5c26.667 0 48.5 -2.66699 65.5 -8s30.667 -12.833 41 -22.5s18 -21 23 -34
s8.5 -27.167 10.5 -42.5c2 -11.333 4 -24.833 6 -40.5s5.5 -39.5 10.5 -71.5l20.5 -129.5z" />
    <glyph glyph-name="W" unicode="W" horiz-adv-x="946" 
d="M668 149l17.9941 92.4951c5.33301 26.333 10 50.833 14 73.5l11.5 67.5l12 75l15 95l20.5 128.5c2 12.667 5.33301 20.834 10 24.501s16.334 5.5 35.001 5.5c7.33301 0 18.333 -0.5 33 -1.5s29.334 -4 44.001 -9s27.5 -12.667 38.5 -23s16.5 -24.833 16.5 -43.5
c0 -10.667 -2 -27.167 -6 -49.5s-9.5 -48 -16.5 -77s-15 -60.5 -24 -94.5l-27.5 -103l-28.5 -101l-27 -88.5c-8.33301 -26.333 -15.833 -48.5 -22.5 -66.5s-11.334 -29.667 -14.001 -35c-4 -7.33301 -9.66699 -12.333 -17 -15s-14.666 -4 -21.999 -4h-95
c-17.333 0 -31.833 3.33301 -43.5 10s-21.334 15.334 -29.001 26.001s-13.667 22.667 -18 36s-7.16602 27 -8.49902 41l-50 449l-13.5 -99l-16 -112l-16.5 -112c-5.33301 -36.667 -10.666 -70.167 -15.999 -100.5s-10.333 -56.166 -15 -77.499s-8.66699 -35.333 -12 -42
c-3.33301 -7.33301 -8.66602 -12.333 -15.999 -15s-15 -4 -23 -4h-95c-16.667 0 -30.5 3.16699 -41.5 9.5s-20.167 14.833 -27.5 25.5s-13.333 22.834 -18 36.501s-8.66699 27.5 -12 41.5l-66.5 268l-40.5 168.5c-10 42.333 -16.833 73.333 -20.5 93
s-5.5 33.834 -5.5 42.501c0 11.333 3.5 18.666 10.5 21.999s21.833 5 44.5 5c28 0 51.5 -2 70.5 -6s34.5 -10.167 46.5 -18.5s21.167 -19.333 27.5 -33s10.5 -30.167 12.5 -49.5c0 -2.66699 0.333008 -6.5 1 -11.5s1.5 -13.167 2.5 -24.5s2.66699 -26.833 5 -46.5l9 -78.5
l14 -121.5l20.5 -173.5l17.5 98.5l11.5 66c3.33301 19 6.33301 37.333 9 55l9.5 66c3.66699 26.333 8 59.5 13 99.5l19.5 156c0.666992 4.66699 3.5 8.33398 8.5 11.001s11.167 4.66699 18.5 6s15.5 2.16602 24.5 2.49902s17.5 0.5 25.5 0.5
c26.667 0 49.334 -1.5 68.001 -4.5s34.167 -8.16699 46.5 -15.5s22.166 -17.166 29.499 -29.499s13.333 -27.5 18 -45.5c2 -8.66699 4.33301 -20.5 7 -35.5s5.83398 -38.833 9.50098 -71.5s8.33398 -77.5 14.001 -134.5z" />
    <glyph glyph-name="X" unicode="X" horiz-adv-x="640" 
d="M604 21c0 -9.33301 -5.50293 -15.3301 -16.5029 -17.9971s-26.5 -4 -46.5 -4c-25.333 0 -47 1.33301 -65 4s-33.167 6.66699 -45.5 12s-22.5 11.833 -30.5 19.5s-14.333 16.834 -19 27.501l-84 175l-69 -108.5l-74 -115.5c-1.33301 -2 -6.16602 -6.33301 -14.499 -13
s-17.166 -10 -26.499 -10s-19.833 5.16699 -31.5 15.5s-22.5 22.666 -32.5 36.999s-18.333 29.666 -25 45.999s-10 30.5 -10 42.5c0 14 7.33301 30.833 22 50.5s33 40 55 61s45.833 41.5 71.5 61.5s49.834 37.667 72.501 53l-77 129.5l-62 104.5l-41 72
c-10 18 -15 28.667 -15 32s5.66699 6.66602 17 9.99902s27.666 5 48.999 5c26 0 48.833 -1.66699 68.5 -5s36.667 -9 51 -17s26.833 -18.667 37.5 -32s20.334 -29.666 29.001 -48.999l55 -125c14 18 26.333 35 37 51l33 50l37 56l47 69c6 8 14.333 12 25 12
c12 0 24.167 -5.5 36.5 -16.5s23.5 -24 33.5 -39s18.167 -30.333 24.5 -46s9.5 -28.167 9.5 -37.5c0 -12.667 -7.83301 -28.667 -23.5 -48s-34.834 -39.333 -57.501 -60s-46.667 -40.834 -72 -60.501s-47.666 -35.834 -66.999 -48.501c8 -16 18.333 -34.5 31 -55.5l40.5 -66
l43.5 -69l39.5 -64.5c11.667 -20 21.167 -37.833 28.5 -53.5s11 -27.167 11 -34.5z" />
    <glyph glyph-name="Y" unicode="Y" horiz-adv-x="609" 
d="M296 0c-40 0 -67.335 7.83691 -82.002 23.5039s-22 39.834 -22 72.501c0 11.333 0.666992 29.666 2 54.999s4.33301 64.666 9 117.999l-14 26l-12 23c-4 8 -8.33301 17.333 -13 28l-18 40l-38.5 86l-41.5 94.5c-13.333 30.333 -24.5 57.166 -33.5 80.499
s-13.5 38 -13.5 44c0 14 22.333 21 67 21c28 0 50.5 -2.83301 67.5 -8.5s30.833 -13.334 41.5 -23.001s18.667 -21 24 -34s10.333 -26.833 15 -41.5c6 -19.333 10.333 -33.666 13 -42.999l6.5 -23c1.66699 -6 3.5 -11.833 5.5 -17.5s4.83301 -14.5 8.5 -26.5l15.5 -50
l28 -88l46.5 99c11.667 25.333 21.834 48.833 30.501 70.5s16.834 44 24.501 67l29.5 87.5c4 12.667 8.16699 20.834 12.5 24.501s11.166 5.5 20.499 5.5c3.33301 0 12.5 -0.5 27.5 -1.5s30.667 -3.5 47 -7.5s31.166 -10.333 44.499 -19s20 -20.334 20 -35.001
c0 -11.333 -3.83301 -27.333 -11.5 -48s-17.667 -43.834 -30 -69.501s-26.666 -52.834 -42.999 -81.501s-33.166 -56.667 -50.499 -84s-34.5 -52.5 -51.5 -75.5s-32.5 -41.833 -46.5 -56.5c-0.666992 -16 -1.5 -35 -2.5 -57s-2.33301 -43.833 -4 -65.5l-4.5 -59
c-1.33301 -17.667 -2.33301 -29.834 -3 -36.501c-0.666992 -5.33301 -2 -9.16602 -4 -11.499s-6 -3.5 -12 -3.5h-55z" />
    <glyph glyph-name="Z" unicode="Z" horiz-adv-x="554" 
d="M18 0c-7.33301 0 -11 3.66602 -11 10.999l3 54c0.666992 6 1.66699 13.5 3 22.5s4.33301 16.5 9 22.5c11.333 20.667 25 43 41 67l58 88l79.5 125.5c30.333 49 65.5 108.833 105.5 179.5h-228c-5.33301 0 -8.5 1 -9.5 3s-1.5 5.66699 -1.5 11l3 56
c0.666992 8.66699 1.83398 17.167 3.50098 25.5s5 15.833 10 22.5s12.167 12 21.5 16s21.666 6 36.999 6h382c4 0 7.66699 -1 11 -3s5 -5.66699 5 -11l-4 -54c-1.33301 -17.333 -5.33301 -31.666 -12 -42.999l-29 -47.5l-66 -107.5l-89.5 -145l-99.5 -159h254
c4 0 7.66699 -1 11 -3s5 -5.66699 5 -11l-4 -59c-1.33301 -20 -6.83301 -36.167 -16.5 -48.5s-29.5 -18.5 -59.5 -18.5h-412z" />
    <glyph glyph-name="bracketleft" unicode="[" horiz-adv-x="400" 
d="M114 -185c-29.333 0 -50.166 7.6709 -62.499 23.0039s-18.5 36 -18.5 62c0 6.66699 0.666992 20 2 40s2.83301 44.167 4.5 72.5s3.66699 59.166 6 92.499s4.83301 66.666 7.5 99.999s5 65 7 95s4 55.667 6 77l8 108.5l7.5 105
c2.33301 32.333 4.16602 60.666 5.49902 84.999s2 40.833 2 49.5c0 10 5.33301 15 16 15h287c4 0 7.66699 -1 11 -3s5 -5.66699 5 -11l-4 -59c-1.33301 -20 -6.83301 -36.167 -16.5 -48.5s-29.5 -18.5 -59.5 -18.5h-92l-5 -73.5l-6.5 -101.5
c-2.33301 -37.333 -5 -76.833 -8 -118.5s-5.83301 -83.334 -8.5 -125.001s-5.5 -82 -8.5 -121s-5.5 -74.167 -7.5 -105.5h141c4 0 7.66699 -1 11 -3s5 -5.66699 5 -11l-4 -59c-1.33301 -20 -6.83301 -36.167 -16.5 -48.5s-29.5 -18.5 -59.5 -18.5h-155z" />
    <glyph glyph-name="backslash" unicode="\" horiz-adv-x="329" 
d="M199 -10c-14.667 0 -24.834 1.83008 -30.501 5.49707s-10.167 14.5 -13.5 32.5l-44.5 268.5l-30.5 174c-8 45 -13.833 79.667 -17.5 104s-5.5 43.5 -5.5 57.5c0 12 0.666992 22.833 2 32.5s4.66602 17.834 9.99902 24.501s13.833 11.834 25.5 15.501
s27.834 5.5 48.501 5.5c8 0 15 -1.33301 21 -4s10.333 -11 13 -25l47 -261.5c12.667 -71 22.834 -130.167 30.501 -177.5s13.167 -84.666 16.5 -111.999s5 -49 5 -65c0 -18 -2 -32 -6 -42s-9.5 -17.5 -16.5 -22.5s-15.167 -8 -24.5 -9s-19.333 -1.5 -30 -1.5z" />
    <glyph glyph-name="bracketright" unicode="]" horiz-adv-x="400" 
d="M278 740c30 0 51.498 -7.33594 64.498 -22.0029s19.5 -35.667 19.5 -63c0 -6.66699 -0.666992 -20 -2 -40s-2.83301 -44.167 -4.5 -72.5s-3.66699 -59.166 -6 -92.499s-4.83301 -66.666 -7.5 -99.999l-7.5 -95c-2.33301 -30 -4.16602 -55.667 -5.49902 -77l-8 -109
l-7.5 -104.5c-2.33301 -32.333 -4.16602 -60.666 -5.49902 -84.999s-2 -40.833 -2 -49.5c0 -10 -5.33301 -15 -16 -15h-287c-10.667 0 -16 4.66699 -16 14l4 59c1.33301 20 6.83301 36.167 16.5 48.5s29.5 18.5 59.5 18.5h92l43 645h-140c-10.667 0 -16 4.66699 -16 14l4 59
c1.33301 20 6.83301 36.167 16.5 48.5s29.5 18.5 59.5 18.5h152z" />
    <glyph glyph-name="asciicircum" unicode="^" horiz-adv-x="457" 
d="M366 148c-7.33301 0 -16.001 4.33301 -26.001 13s-20.667 20 -32 34s-23.333 30.167 -36 48.5s-25 37.166 -37 56.499l-49 -56.5c-16.667 -18.333 -32.5 -34.5 -47.5 -48.5s-28.5 -25.333 -40.5 -34s-21.333 -13 -28 -13c-4.66699 0 -9.83398 1.83301 -15.501 5.5
s-11 8 -16 13s-9.33301 9.83301 -13 14.5s-5.5 8 -5.5 10c0 4 5.16699 13 15.5 27s23.5 30.833 39.5 50.5l52.5 63.5l54.5 65c4 4.66699 12.833 8.33398 26.5 11.001s26.834 4 39.501 4c8.66699 0 18.834 -1 30.501 -3s19.167 -6 22.5 -12l43.5 -72l38.5 -65l27.5 -48
c7 -12.667 10.5 -19.667 10.5 -21s-2 -4.33301 -6 -9s-8.83301 -9.5 -14.5 -14.5s-11.667 -9.5 -18 -13.5s-11.833 -6 -16.5 -6z" />
    <glyph glyph-name="underscore" unicode="_" horiz-adv-x="526" 
d="M35 -150c-7.33301 0 -11 3.66699 -11 11l3 54c0.666992 8.66699 1.83398 17.167 3.50098 25.5s5 15.833 10 22.5s12.167 12 21.5 16s21.666 6 36.999 6h332c4 0 7.66699 -1.16699 11 -3.5s5 -5.83301 5 -10.5l-4 -54c-1.33301 -20 -6.83301 -36.167 -16.5 -48.5
s-29.5 -18.5 -59.5 -18.5h-332z" />
    <glyph glyph-name="grave" unicode="`" horiz-adv-x="211" 
d="M144 615c-8 0 -19.334 6.50098 -34.001 19.501s-29.5 28.167 -44.5 45.5s-28 34.5 -39 51.5s-16.5 29.167 -16.5 36.5c0 6 4.16699 12.5 12.5 19.5s18.333 13.5 30 19.5s23.834 11.167 36.501 15.5s23 6.5 31 6.5c5.33301 0 9.5 -0.833008 12.5 -2.5
s5.83301 -5.83398 8.5 -12.501l20.5 -51.5l19.5 -46.5c6 -14 10.833 -25.833 14.5 -35.5s5.5 -15.5 5.5 -17.5c0 -4 -2.16699 -8.83301 -6.5 -14.5s-9.5 -11 -15.5 -16s-12.333 -9.16699 -19 -12.5s-12 -5 -16 -5z" />
    <glyph glyph-name="a" unicode="a" horiz-adv-x="563" 
d="M11 123c0 60 27 106.996 81 140.996s133.667 52.333 239 55c0.666992 7.33301 1.16699 13.5 1.5 18.5s0.5 11.167 0.5 18.5c0 21.333 -4 38.333 -12 51s-24.667 19 -50 19c-14 0 -25.333 -2 -34 -6s-15.667 -9.5 -21 -16.5s-9.66602 -15.5 -12.999 -25.5
s-6.33301 -21 -9 -33c-1.33301 -6 -4.33301 -9.83301 -9 -11.5s-12 -2.5 -22 -2.5c-68 0 -102 25.667 -102 77c0 20.667 4.83301 40.334 14.5 59.001s24 34.834 43 48.501s42.833 24.5 71.5 32.5s62 12 100 12c74 0 127.667 -15.333 161 -46s50 -74 50 -130
c0 -7.33301 -0.833008 -20.5 -2.5 -39.5s-3.66699 -39 -6 -60s-4.33301 -40.833 -6 -59.5s-2.5 -31.667 -2.5 -39c0 -16.667 3 -28.5 9 -35.5s12.833 -11.833 20.5 -14.5s14.5 -4.66699 20.5 -6s9 -4.66602 9 -9.99902c0 -14.667 -2 -29.667 -6 -45s-10.5 -29.333 -19.5 -42
s-21.333 -23 -37 -31s-34.834 -12 -57.501 -12c-32 0 -56 7.66699 -72 23s-26.667 36.666 -32 63.999c-16 -23.333 -36.833 -43.666 -62.5 -60.999s-59.167 -26 -100.5 -26c-20 0 -38.833 2.33301 -56.5 7s-33 12.334 -46 23.001s-23.333 24.5 -31 41.5
s-11.5 37.5 -11.5 61.5zM322 236.996c-17.333 0 -34.334 -1.33398 -51.001 -4.00098s-31.5 -6.83398 -44.5 -12.501s-23.5 -13.167 -31.5 -22.5s-12 -20.666 -12 -33.999c0 -15.333 4.83301 -26 14.5 -32s20.167 -9 31.5 -9c10.667 0 21.334 2.33301 32.001 7
s20.167 11.834 28.5 21.501s15.5 21.5 21.5 35.5s9.66699 30.667 11 50z" />
    <glyph glyph-name="b" unicode="b" horiz-adv-x="600" 
d="M270 -10c-51.333 0 -92.0029 7.50098 -122.003 22.501s-52.667 33.833 -68 56.5s-25 47.167 -29 73.5s-6 50.5 -6 72.5c0 8.66699 0.833008 25.667 2.5 51s3.83398 54.666 6.50098 87.999s5.33398 68.833 8.00098 106.5s5.33398 73.334 8.00098 107.001
s4.83398 63.5 6.50098 89.5s2.5 44 2.5 54c0 14.667 1 23.167 3 25.5s8 3.5 18 3.5h39c20 0 36.667 -2.33301 50 -7s24 -11 32 -19s13.667 -17.167 17 -27.5s5 -21.5 5 -33.5c0 -11.333 -1.16699 -33.333 -3.5 -66l-8.5 -115c17.333 30 37 52.167 59 66.5s51 21.5 87 21.5
c60.667 0 107.167 -20 139.5 -60s48.5 -99.667 48.5 -179c0 -20.667 -1.5 -43.334 -4.5 -68.001s-8.33301 -49.167 -16 -73.5s-18.334 -48 -32.001 -71s-31.5 -43.167 -53.5 -60.5s-48.5 -31.333 -79.5 -42s-67.5 -16 -109.5 -16zM314.997 427.001
c-24 0 -42.834 -6.33398 -56.501 -19.001s-24.167 -28 -31.5 -46s-12 -37.167 -14 -57.5s-3 -38.166 -3 -53.499c0 -46 6.33301 -78.833 19 -98.5s31.667 -29.5 57 -29.5c24 0 42.833 7.5 56.5 22.5s24 32.833 31 53.5s11.5 41.667 13.5 63s3 38 3 50
c0 37.333 -5.66699 65.833 -17 85.5s-30.666 29.5 -57.999 29.5z" />
    <glyph glyph-name="c" unicode="c" horiz-adv-x="508" 
d="M293 123c19.333 0 36.167 2.66406 50.5 7.99707s26.833 11.333 37.5 18s19.667 12.667 27 18s14 8 20 8c15.333 0 23 -10 23 -30c0 -4.66699 -1 -11.167 -3 -19.5s-4.66699 -17 -8 -26s-6.83301 -17.5 -10.5 -25.5s-7.16699 -14 -10.5 -18
c-3.33301 -3.33301 -9.16602 -8.66602 -17.499 -15.999s-19.5 -14.666 -33.5 -21.999s-30.333 -13.833 -49 -19.5s-39.334 -8.5 -62.001 -8.5c-25.333 0 -51.5 3.83301 -78.5 11.5s-51.5 21 -73.5 40s-40.167 44.667 -54.5 77s-21.5 72.833 -21.5 121.5
c0 17.333 1.16699 37.166 3.5 59.499s7.16602 45.333 14.499 69s17.166 47 29.499 70s28.833 43.5 49.5 61.5s45.5 32.5 74.5 43.5s63.5 16.5 103.5 16.5c32.667 0 60.834 -3.83301 84.501 -11.5s43.167 -18 58.5 -31s26.833 -28.167 34.5 -45.5s11.5 -36 11.5 -56
c0 -36 -11.333 -62.5 -34 -79.5s-54.667 -25.5 -96 -25.5c-10 0 -16.833 0.833008 -20.5 2.5s-5.5 5.5 -5.5 11.5c0 16 -0.333008 30.333 -1 43s-2.5 23.334 -5.5 32.001s-7.5 15.334 -13.5 20.001s-14.667 7 -26 7c-20.667 0 -37.167 -6.66699 -49.5 -20
s-21.666 -29.5 -27.999 -48.5s-10.333 -38.5 -12 -58.5s-2.5 -36.667 -2.5 -50c0 -47.333 7.5 -80.333 22.5 -99s38.833 -28 71.5 -28z" />
    <glyph glyph-name="d" unicode="d" horiz-adv-x="608" 
d="M224 -10c-26 0 -50.8281 4.66309 -74.4951 13.9961s-44.334 24 -62.001 44s-31.667 45.333 -42 76s-15.5 67.667 -15.5 111c0 19.333 1.33301 40.833 4 64.5s7.33398 47.5 14.001 71.5s16 47.333 28 70s27.167 42.834 45.5 60.501s40.333 31.834 66 42.501
s55.834 16 90.501 16c33.333 0 60.166 -5.83301 80.499 -17.5s33.166 -31.834 38.499 -60.501c1.33301 26 2.66602 48.667 3.99902 68s2.5 37.333 3.5 54s2.16699 33.334 3.5 50.001s2.66602 35.667 3.99902 57c0.666992 14.667 2.33398 23.334 5.00098 26.001
c1.33301 1.33301 3 2.16602 5 2.49902s5.66699 0.5 11 0.5h39c20 0 36.667 -2.33301 50 -7s24 -11 32 -19s13.667 -17.167 17 -27.5s5 -21.166 5 -32.499l-2 -25c-1.33301 -16.667 -3 -38.834 -5 -66.501l-7 -94.5l-8 -109.5l-8 -112
c-2.66699 -37 -5.33398 -71 -8.00098 -102s-4.83398 -57.667 -6.50098 -80s-2.83398 -37.166 -3.50098 -44.499c-1.33301 -8 -3 -13.333 -5 -16s-7.66699 -4 -17 -4h-36c-14 0 -27.167 1.16699 -39.5 3.5s-23 6.33301 -32 12s-16 13.334 -21 23.001s-7.5 22.167 -7.5 37.5
c-12 -25.333 -30.167 -46 -54.5 -62s-54.833 -24 -91.5 -24zM311.005 426.996c-34 0 -59.166 -14.834 -75.499 -44.501s-24.5 -69.5 -24.5 -119.5c0 -17.333 1.16699 -34.333 3.5 -51s6.5 -31.667 12.5 -45s14.167 -24 24.5 -32s23.5 -12 39.5 -12c28.667 0 52.667 14 72 42
s29 72 29 132c0 16.667 -1 32.834 -3 48.501s-6 29.5 -12 41.5s-14.333 21.667 -25 29s-24.334 11 -41.001 11z" />
    <glyph glyph-name="e" unicode="e" horiz-adv-x="532" 
d="M272 -10c-29.333 0 -58.5 3.66504 -87.5 10.998s-55 20 -78 38s-41.833 42 -56.5 72s-22 67.667 -22 113c0 16.667 1.33301 36.667 4 60s7.83398 47.333 15.501 72s18.334 49.167 32.001 73.5s31.5 46.166 53.5 65.499s48.667 35 80 47s68.666 18 111.999 18
c34.667 0 64 -4 88 -12s43.333 -18.833 58 -32.5s25.334 -29.5 32.001 -47.5s10 -37.333 10 -58c0 -30.667 -6.16699 -56.667 -18.5 -78s-28.333 -39.166 -48 -53.499s-41.5 -25.5 -65.5 -33.5s-47.667 -14.167 -71 -18.5s-44.833 -7 -64.5 -8s-34.834 -1.5 -45.501 -1.5
c0 -12.667 1.83301 -25.167 5.5 -37.5s9.16699 -23.166 16.5 -32.499s17 -17 29 -23s26.667 -9 44 -9s30.833 2.83301 40.5 8.5s17.5 12 23.5 19s11.167 13.333 15.5 19s10.166 8.5 17.499 8.5c3.33301 0 9.16602 -0.833008 17.499 -2.5s16.833 -5.16699 25.5 -10.5
s16.334 -12.666 23.001 -21.999s10 -21.333 10 -36c0 -19.333 -6 -36 -18 -50s-27.5 -25.333 -46.5 -34s-40.167 -15 -63.5 -19s-46 -6 -68 -6zM291 426.998c-14.667 0 -27.168 -4.16699 -37.501 -12.5s-19 -18.833 -26 -31.5s-12.333 -26.667 -16 -42s-6.5 -30 -8.5 -44
c41.333 0.666992 74.833 7.66699 100.5 21s38.5 32.333 38.5 57c0 13.333 -4.16699 25.333 -12.5 36s-21.166 16 -38.499 16z" />
    <glyph glyph-name="f" unicode="f" horiz-adv-x="451" 
d="M248 346c-1.33301 -20 -3.00098 -41.6611 -5.00098 -64.9941l-6 -70.5c-2 -23.667 -3.83301 -46.834 -5.5 -69.501l-4.5 -60c-1.33301 -17.333 -2.5 -31.666 -3.5 -42.999s-1.5 -17.333 -1.5 -18c-0.666992 -8 -2.33398 -13.333 -5.00098 -16s-8.33398 -4 -17.001 -4h-36
c-36 0 -61.167 8.5 -75.5 25.5s-21.5 42.5 -21.5 76.5c0 4 0.5 14 1.5 30s2.33301 35.167 4 57.5l5.5 74.5l6 82h-47c-7.33301 0 -11 3.66699 -11 11c0 5.33301 0.333008 13.166 1 23.499l2 30.5c0.666992 8 1.83398 16.167 3.50098 24.5s4.66699 15.666 9 21.999
s10.833 11.666 19.5 15.999s20 6.83301 34 7.5l4 40c4 43.333 12.167 79.666 24.5 108.999s28.5 52.833 48.5 70.5s43.833 30.334 71.5 38.001s58.5 11.5 92.5 11.5c33.333 0 61.833 -3 85.5 -9s42.834 -14.333 57.501 -25s25.334 -23.334 32.001 -38.001
s10 -30.334 10 -47.001c0 -34.667 -10.833 -59.334 -32.5 -74.001s-50.834 -22 -87.501 -22c-10 0 -16.833 0.833008 -20.5 2.5s-5.5 5.5 -5.5 11.5c0 22 -2 39.333 -6 52s-15 19 -33 19c-13.333 0 -24.666 -4 -33.999 -12s-17 -18.5 -23 -31.5s-10.5 -27.833 -13.5 -44.5
s-5.5 -33.667 -7.5 -51h115c10.667 0 16 -4.66699 16 -14l-4 -54c-1.33301 -20 -6.83301 -36.167 -16.5 -48.5s-29.5 -18.5 -59.5 -18.5h-61z" />
    <glyph glyph-name="g" unicode="g" horiz-adv-x="607" 
d="M368 118c-16.667 -30 -36.998 -52.168 -60.998 -66.501s-54 -21.5 -90 -21.5c-27.333 0 -52.333 4.33301 -75 13s-42 22.334 -58 41.001s-28.5 42.167 -37.5 70.5s-13.5 62.166 -13.5 101.499c0 32 3.33301 65.833 10 101.5s18.834 68.5 36.501 98.5
s41.834 54.833 72.501 74.5s70 29.5 118 29.5c20 0 37.167 -2.16699 51.5 -6.5s26.666 -10.166 36.999 -17.499s18.666 -16 24.999 -26s11.166 -20.667 14.499 -32c0 -0.666992 0.166992 1.83301 0.5 7.5s0.833008 12.167 1.5 19.5s1.16699 14.5 1.5 21.5s0.5 11.5 0.5 13.5
c0.666992 6.66699 5 10 13 10h46c34.667 0 59.834 -7.16699 75.501 -21.5s23.5 -41.5 23.5 -81.5c0 -5.33301 -0.333008 -17.5 -1 -36.5s-1.83398 -41.833 -3.50098 -68.5s-3.83398 -56.167 -6.50098 -88.5s-5.66699 -64.833 -9 -97.5s-7 -64 -11 -94
s-8.33301 -56.333 -13 -79s-12.667 -44.667 -24 -66s-27.333 -40.333 -48 -57s-47.167 -30 -79.5 -40s-71.833 -15 -118.5 -15c-35.333 0 -66.166 3.33301 -92.499 10s-48.166 15.5 -65.499 26.5s-30.5 23.5 -39.5 37.5s-13.5 28 -13.5 42c0 12.667 2.66699 23.667 8 33
s12.333 17 21 23s18.167 10.5 28.5 13.5s20.166 4.5 29.499 4.5c11.333 0 19.666 -3.33301 24.999 -10l18 -22.5c6.66699 -8.33301 16 -15.833 28 -22.5s30.667 -10 56 -10c44 0 74.833 16.167 92.5 48.5s26.5 78.833 26.5 139.5zM284.002 162.999
c24 0 42.834 5.66406 56.501 16.9971s24.167 25 31.5 41s12 32.667 14 50s3 32.333 3 45c0 40 -6.16699 68.5 -18.5 85.5s-30.833 25.5 -55.5 25.5s-44 -6.66699 -58 -20s-24.5 -29.166 -31.5 -47.499s-11.5 -36.666 -13.5 -54.999s-3 -32.5 -3 -42.5
c0 -33.333 5.66699 -58.166 17 -74.499s30.666 -24.5 57.999 -24.5z" />
    <glyph glyph-name="h" unicode="h" horiz-adv-x="608" 
d="M373 124l6.49805 68.998c2.33301 24 4.33301 47 6 69l4.5 59c1.33301 17.333 2 30 2 38c0 17.333 -4.16699 32.833 -12.5 46.5s-24.5 20.5 -48.5 20.5c-32 0 -57.833 -15 -77.5 -45s-31.167 -70 -34.5 -120c-1.33301 -14 -3 -33.5 -5 -58.5l-6 -76l-5.5 -69
c-1.66699 -20.333 -2.5 -32.833 -2.5 -37.5c0 -8 -1.5 -13.333 -4.5 -16s-8.83301 -4 -17.5 -4h-36c-20.667 0 -37.5 2.16699 -50.5 6.5s-23.333 10.5 -31 18.5s-13 17.833 -16 29.5s-4.5 25.167 -4.5 40.5c0 14.667 1.16699 35.167 3.5 61.5l9.5 109
c4 46.333 8.66699 105.5 14 177.5s11 161.333 17 268c0.666992 14.667 2.33398 23.334 5.00098 26.001c2 2 7.33301 3 16 3h39c20 0 36.667 -2.33301 50 -7s24 -11 32 -19s13.667 -17.167 17 -27.5s5 -21.166 5 -32.499c0 -12 -1.16699 -34.333 -3.5 -67l-8.5 -115
c20 33.333 42.167 56.333 66.5 69s55.166 19 92.499 19c28 0 52.333 -3 73 -9s37.834 -16.167 51.501 -30.5s23.834 -33 30.501 -56s10 -51.5 10 -85.5c0 -10.667 -1 -29 -3 -55s-4.5 -55.667 -7.5 -89l-9 -104.5c-3 -36.333 -5.5 -69.5 -7.5 -99.5
c-0.666992 -7.33301 -1.33398 -13 -2.00098 -17s-1.83398 -7 -3.50098 -9s-4.16699 -3.33301 -7.5 -4s-8 -1 -14 -1h-32c-21.333 0 -38.666 2 -51.999 6s-23.666 9.66699 -30.999 17s-12.5 16.5 -15.5 27.5s-4.5 23.5 -4.5 37.5c0 6.66699 0.166992 13 0.5 19
s0.833008 11.667 1.5 17z" />
    <glyph glyph-name="i" unicode="i" horiz-adv-x="281" 
d="M144 0c-20.667 0 -37.5 2.16699 -50.5 6.5s-23.333 10.5 -31 18.5s-13 17.833 -16 29.5s-4.5 25.167 -4.5 40.5c0 10 0.5 24.167 1.5 42.5s2.83301 43.666 5.5 75.999s5.83398 73.333 9.50098 123l13.5 184.5c0.666992 14.667 2.33398 23.334 5.00098 26.001
c2 2 7.33301 3 16 3h39c20.667 0 37.5 -2 50.5 -6s23.333 -10 31 -18s13 -17.667 16 -29s4.5 -24 4.5 -38c0 -10 -0.666992 -25 -2 -45l-5.5 -81.5c-2.33301 -34.333 -5.5 -77 -9.5 -128l-15 -184.5c-0.666992 -8 -2.33398 -13.333 -5.00098 -16s-8.33398 -4 -17.001 -4h-36
zM73 668c0 26.667 9.66602 47.667 28.999 63s45.333 23 78 23c28.667 0 49.5 -5.83301 62.5 -17.5s19.5 -27.167 19.5 -46.5c0 -24.667 -9.16699 -45.167 -27.5 -61.5s-45.166 -24.5 -80.499 -24.5c-54 0 -81 21.333 -81 64z" />
    <glyph glyph-name="j" unicode="j" horiz-adv-x="279" 
d="M71 535c0 6 1.00098 10.001 3.00098 12.001s8.33301 3 19 3h36c16.667 0 31.5 -2.16699 44.5 -6.5s24 -9.66602 33 -15.999s15.833 -13.5 20.5 -21.5s7 -16 7 -24c0 -4 -0.5 -14.833 -1.5 -32.5s-2.5 -39.667 -4.5 -66l-6.5 -87l-7 -96l-7 -93.5
c-2.33301 -30 -4.16602 -56 -5.49902 -78c-3.33301 -47.333 -10.833 -85.5 -22.5 -114.5s-25.834 -51.667 -42.501 -68s-35.334 -27.333 -56.001 -33s-42 -8.5 -64 -8.5c-19.333 0 -38.833 1.83301 -58.5 5.5s-37.5 9.16699 -53.5 16.5s-29 16.666 -39 27.999
s-15 24.666 -15 39.999c0 16 4.83301 28.667 14.5 38s21 16.333 34 21s25.667 7.66699 38 9s21.5 2 27.5 2c2 0 3.83301 -1.83301 5.5 -5.5s3.66699 -7.66699 6 -12s5.5 -8.33301 9.5 -12s9.66699 -5.5 17 -5.5c8 0 14.167 3.16699 18.5 9.5s7.83301 16.833 10.5 31.5
s5 34.167 7 58.5s4 54.833 6 91.5zM61.001 668.001c0 26.667 9.66602 47.667 28.999 63s45.333 23 78 23c28.667 0 49.5 -5.83301 62.5 -17.5s19.5 -27.167 19.5 -46.5c0 -24.667 -9.16699 -45.167 -27.5 -61.5s-45.166 -24.5 -80.499 -24.5c-54 0 -81 21.333 -81 64z" />
    <glyph glyph-name="k" unicode="k" horiz-adv-x="539" 
d="M516 81c0 -3.33301 -1.66699 -10 -5 -20s-8.66602 -20.333 -15.999 -31s-16.5 -20 -27.5 -28s-24.167 -12 -39.5 -12c-18 0 -35.833 6 -53.5 18s-35.167 28.333 -52.5 49s-34.833 45.167 -52.5 73.5s-35.5 59.166 -53.5 92.499l-8 -104l-8 -99
c-0.666992 -8 -2.33398 -13.333 -5.00098 -16s-8.33398 -4 -17.001 -4h-36c-20.667 0 -37.667 2.16699 -51 6.5s-23.666 10.5 -30.999 18.5s-12.5 18.167 -15.5 30.5s-4.5 26.5 -4.5 42.5c0 8 0.333008 16.333 1 25s1.66699 21 3 37l5.5 63
c2.33301 26 5.16602 60.333 8.49902 103s7.16602 95.167 11.499 157.5s9.16602 138.166 14.499 227.499c0.666992 14.667 2.33398 23.334 5.00098 26.001c2 2 7.33301 3 16 3h39c20.667 0 37.667 -2.33301 51 -7s24 -11 32 -19s13.5 -17.333 16.5 -28s4.5 -21.667 4.5 -33
c0 -6.66699 -0.5 -17.834 -1.5 -33.501l-3.5 -57c-1.33301 -22.333 -3.16602 -47.5 -5.49902 -75.5s-4.5 -57.333 -6.5 -88l160 146c6 5.33301 11.5 9 16.5 11s8.83301 3 11.5 3c7.33301 0 15.333 -4.66699 24 -14s16.834 -20.166 24.501 -32.499s14 -25 19 -38
s7.5 -23.5 7.5 -31.5c0 -19.333 -15.5 -39.666 -46.5 -60.999s-77.833 -45.333 -140.5 -72l80 -86l66.5 -69l45.5 -49c11.333 -12.667 17 -21 17 -25z" />
    <glyph glyph-name="l" unicode="l" horiz-adv-x="302" 
d="M157 -9c-41.333 0 -70.998 10.998 -88.998 32.998s-27 58.333 -27 109c0 8 0.5 18 1.5 30l4 46.5c1.66699 19 3.83398 42.5 6.50098 70.5s5.5 62 8.5 102s6.33301 87 10 141s7.5 116.667 11.5 188c0.666992 14.667 2.33398 23.334 5.00098 26.001c2 2 7.33301 3 16 3h39
c20 0 36.667 -2.33301 50 -7s24 -11 32 -19s13.667 -17.167 17 -27.5s5 -21.166 5 -32.499c0 -13.333 -0.833008 -32.5 -2.5 -57.5s-3.83398 -53.167 -6.50098 -84.5l-8 -98l-8 -97.5c-2.66699 -31 -4.83398 -58.833 -6.50098 -83.5s-2.5 -43.334 -2.5 -56.001
c0 -17.333 3.16699 -29.666 9.5 -36.999s13.166 -12.5 20.499 -15.5s14.166 -5 20.499 -6s9.5 -3.16699 9.5 -6.5c0 -14.667 -1.66699 -29.167 -5 -43.5s-9.33301 -27.333 -18 -39s-20.5 -21 -35.5 -28s-34.167 -10.5 -57.5 -10.5z" />
    <glyph glyph-name="m" unicode="m" horiz-adv-x="902" 
d="M214 180c-2 -30.667 -4.33203 -59.8311 -6.99902 -87.498s-4.66699 -51.834 -6 -72.501c-0.666992 -8 -2.33398 -13.333 -5.00098 -16s-8.33398 -4 -17.001 -4h-36c-20.667 0 -37.5 2.16699 -50.5 6.5s-23.333 10.5 -31 18.5s-13 17.833 -16 29.5s-4.5 25.167 -4.5 40.5
c0 10 0.5 24.167 1.5 42.5s2.83301 43.666 5.5 75.999s5.83398 73.333 9.50098 123l13.5 184.5c0.666992 14.667 2.33398 23.334 5.00098 26.001c2 2 7.33301 3 16 3h39c20 0 36.333 -2.33301 49 -7s23 -10.667 31 -18s13.667 -16 17 -26s5.33301 -20.333 6 -31
c19.333 36 41.333 60.333 66 73s53.667 19 87 19c18 0 35.333 -1.66699 52 -5s31.667 -9 45 -17s24.666 -18.5 33.999 -31.5s16 -29.5 20 -49.5c20.667 38.667 43.334 65.5 68.001 80.5s55.667 22.5 93 22.5c20.667 0 40.5 -2.16699 59.5 -6.5s35.5 -11.833 49.5 -22.5
s25.167 -25.167 33.5 -43.5s12.5 -41.166 12.5 -68.499c0 -20.667 -1 -46 -3 -76s-4.33301 -62.5 -7 -97.5s-5.66699 -71 -9 -108s-6 -72.5 -8 -106.5c-0.666992 -7.33301 -1.33398 -13 -2.00098 -17s-1.83398 -7 -3.50098 -9s-4.16699 -3.33301 -7.5 -4s-8 -1 -14 -1h-32
c-21.333 0 -38.666 2 -51.999 6s-23.666 9.66699 -30.999 17s-12.5 16.5 -15.5 27.5s-4.5 23.5 -4.5 37.5c0 8.66699 0.5 21 1.5 37s2.33301 33.333 4 52l5 58c1.66699 20 3.33398 38.5 5.00098 55.5s3 31.833 4 44.5s1.5 21 1.5 25c0 17.333 -3.5 32.666 -10.5 45.999
s-20.5 20 -40.5 20c-17.333 0 -32.333 -5.66699 -45 -17s-23.334 -27 -32.001 -47s-15.667 -43.667 -21 -71s-9 -57 -11 -89c-1.33301 -20.667 -3 -44.334 -5 -71.001s-4.33301 -60 -7 -100c-0.666992 -7.33301 -1.33398 -13 -2.00098 -17s-1.83398 -7 -3.50098 -9
s-4.16699 -3.33301 -7.5 -4s-8 -1 -14 -1h-32c-21.333 0 -38.666 2 -51.999 6s-23.666 9.66699 -30.999 17s-12.5 16.5 -15.5 27.5s-4.5 23.5 -4.5 37.5c0 13.333 1.16699 32.833 3.5 58.5l7 80c2.33301 27.667 4.66602 54 6.99902 79s3.5 43.167 3.5 54.5
c0 17.333 -3.5 32.666 -10.5 45.999s-20.5 20 -40.5 20c-18 0 -33.333 -6.66699 -46 -20s-23.167 -31.166 -31.5 -53.499s-15 -48.5 -20 -78.5s-8.5 -61.333 -10.5 -94z" />
    <glyph glyph-name="n" unicode="n" 
d="M382 88c0 14.667 1.16016 33.834 3.49316 57.501s4.66602 48.667 6.99902 75l7 76.5c2.33301 24.667 3.5 45.334 3.5 62.001c0 17.333 -4.16699 32.833 -12.5 46.5s-24.5 20.5 -48.5 20.5c-23.333 0 -42.666 -5.66699 -57.999 -17s-28.166 -32 -38.499 -62
s-18.833 -71.333 -25.5 -124s-13 -120.334 -19 -203.001c-0.666992 -8 -2.33398 -13.333 -5.00098 -16s-8.33398 -4 -17.001 -4h-36c-20.667 0 -37.5 2.16699 -50.5 6.5s-23.333 10.5 -31 18.5s-13 17.833 -16 29.5s-4.5 25.167 -4.5 40.5c0 10 0.5 24.167 1.5 42.5
s2.83301 43.666 5.5 75.999s5.83398 73.333 9.50098 123l13.5 184.5c0.666992 14.667 2.33398 23.334 5.00098 26.001c2 2 7.33301 3 16 3h39c20 0 36.5 -2.33301 49.5 -7s23.5 -10.834 31.5 -18.501s13.667 -16.667 17 -27s5.33301 -20.833 6 -31.5
c20.667 35.333 44.334 59.833 71.001 73.5s60 20.5 100 20.5c28 0 52.333 -3 73 -9s37.834 -16.167 51.501 -30.5s23.834 -33 30.501 -56s10 -51.5 10 -85.5c0 -10.667 -0.666992 -26 -2 -46s-3 -41.833 -5 -65.5l-6.5 -74l-6.5 -71.5c-2 -22 -3.66699 -41.333 -5 -58
s-2 -27.667 -2 -33c0 -14.667 -1.66699 -23.5 -5 -26.5s-10.666 -4.5 -21.999 -4.5h-32c-21.333 0 -38.666 2 -51.999 6s-23.666 9.66699 -30.999 17s-12.5 16.5 -15.5 27.5s-4.5 23.5 -4.5 37.5z" />
    <glyph glyph-name="o" unicode="o" horiz-adv-x="598" 
d="M265 -10c-46 0 -84.166 6.5 -114.499 19.5s-54.5 30.833 -72.5 53.5s-30.667 49.167 -38 79.5s-11 62.833 -11 97.5c0 40 4.83301 79.167 14.5 117.5s26.167 72.5 49.5 102.5s54.166 54.167 92.499 72.5s86.166 27.5 143.499 27.5c84 0 144.167 -20.5 180.5 -61.5
s54.5 -98.5 54.5 -172.5c0 -20.667 -1.5 -43.5 -4.5 -68.5s-8.66699 -49.833 -17 -74.5s-19.666 -48.667 -33.999 -72s-32.5 -44 -54.5 -62s-48.5 -32.333 -79.5 -43s-67.5 -16 -109.5 -16zM312.001 427c-25.333 0 -45.5 -6.50293 -60.5 -19.5029s-26.333 -28.667 -34 -47
s-12.667 -37.666 -15 -57.999s-3.5 -37.5 -3.5 -51.5c0 -44 7 -76.333 21 -97s34 -31 60 -31c23.333 0 42.5 7.33301 57.5 22s26.667 32.334 35 53.001s14 42.334 17 65.001s4.5 41.667 4.5 57c0 33.333 -6.16699 59.5 -18.5 78.5s-33.5 28.5 -63.5 28.5z" />
    <glyph glyph-name="p" unicode="p" horiz-adv-x="612" 
d="M387 560c62.667 0 109.837 -19.333 141.504 -58s47.5 -99.667 47.5 -183c0 -52 -6 -98.333 -18 -139s-28.667 -75.167 -50 -103.5s-46.333 -49.833 -75 -64.5s-59.667 -22 -93 -22c-35.333 0 -63 7.66699 -83 23s-35.667 37 -47 65c-2 -24 -3.66699 -42.333 -5 -55
s-2.33301 -22.834 -3 -30.501s-1.16699 -14.5 -1.5 -20.5s-1 -14 -2 -24s-2.16699 -23.667 -3.5 -41s-3.33301 -41.333 -6 -72c-0.666992 -8 -2.33398 -13.333 -5.00098 -16s-8.33398 -4 -17.001 -4h-36c-20.667 0 -37.5 2.16699 -50.5 6.5s-23.333 10.5 -31 18.5
s-13 17.833 -16 29.5s-4.5 25.167 -4.5 40.5c0 6.66699 1 24.667 3 54l7.5 105.5l10 132.5l10.5 135.5c3.33301 43 6.16602 81.167 8.49902 114.5s4.16602 56.333 5.49902 69c0.666992 14.667 2.33398 23.334 5.00098 26.001c2 2 7.33301 3 16 3h39
c36 0 62.167 -7.5 78.5 -22.5s24.5 -32.833 24.5 -53.5c15.333 30.667 35.166 52.667 59.499 66s54.5 20 90.5 20zM314.003 427c-34 0 -58.999 -14.668 -74.999 -44.001s-24 -69.333 -24 -120c0 -17.333 1.16699 -34.333 3.5 -51s6.5 -31.667 12.5 -45s14.167 -24 24.5 -32
s23.5 -12 39.5 -12c28.667 0 52.667 14 72 42s29 72 29 132c0 16.667 -1.16699 32.834 -3.5 48.501s-6.5 29.5 -12.5 41.5s-14.333 21.667 -25 29s-24.334 11 -41.001 11z" />
    <glyph glyph-name="q" unicode="q" horiz-adv-x="609" 
d="M276 560c32.667 0 59.335 -8.16699 80.002 -24.5s34 -36.833 40 -61.5c0 3.33301 0.166992 9.16602 0.5 17.499s1.16602 16.833 2.49902 25.5s3.33301 16.334 6 23.001s6 10 10 10h45c34 0 59.833 -7.33301 77.5 -22s26.5 -36 26.5 -64c0 -6 -0.333008 -14.333 -1 -25
s-2 -25.5 -4 -44.5s-4.16699 -43.333 -6.5 -73l-8.5 -111l-11.5 -158c-4.33301 -61 -8.83301 -132.167 -13.5 -213.5c-0.666992 -19.333 -7.66699 -29 -21 -29h-39c-20 0 -36.667 2.33301 -50 7s-24 11 -32 19s-13.667 17.167 -17 27.5s-5 21.5 -5 33.5
c0 11.333 1.16699 33.333 3.5 66l8.5 115c-15.333 -27.333 -35.5 -48.833 -60.5 -64.5s-56.5 -23.5 -94.5 -23.5c-27.333 0 -52 4.5 -74 13.5s-40.833 23.333 -56.5 43s-27.834 45 -36.501 76s-13 68.5 -13 112.5c0 107.333 21.167 188.333 63.5 243s102.5 82 180.5 82z
M312.001 427c-23.333 0 -41.999 -6.33203 -55.999 -18.999s-24.5 -28.167 -31.5 -46.5s-11.5 -37.5 -13.5 -57.5s-3 -37.333 -3 -52c0 -46 6.16699 -79 18.5 -99s31.166 -30 56.499 -30c24 0 43 7.66699 57 23s24.5 33.166 31.5 53.499s11.5 41 13.5 62s3 37.5 3 49.5
c0 38 -5.66699 66.833 -17 86.5s-31 29.5 -59 29.5z" />
    <glyph glyph-name="r" unicode="r" horiz-adv-x="479" 
d="M364 311c-4 0 -8.50586 0.166992 -13.5059 0.5s-9.83301 1 -14.5 2s-8.66699 2.33301 -12 4s-5 3.83398 -5 6.50098c0 8.66699 0.333008 16.667 1 24s1 15 1 23c0 14.667 -2 26.667 -6 36s-12 14 -24 14c-18.667 0 -34.167 -12.167 -46.5 -36.5
s-20.166 -60.833 -23.499 -109.5c-1.33301 -21.333 -3.16602 -45.5 -5.49902 -72.5l-6.5 -78c-2 -25 -3.66699 -47.167 -5 -66.5s-2 -32 -2 -38c0 -6.66699 -2.33301 -11.667 -7 -15s-9.66699 -5 -15 -5h-36c-20.667 0 -37.5 2.16699 -50.5 6.5s-23.333 10.5 -31 18.5
s-13 17.833 -16 29.5s-4.5 25.167 -4.5 40.5c0 10 0.5 24.167 1.5 42.5s2.83301 43.666 5.5 75.999s5.83398 73.333 9.50098 123l13.5 184.5c1.33301 19.333 8.33301 29 21 29h39c18.667 0 34.334 -2 47.001 -6s23 -9.5 31 -16.5s13.833 -15.167 17.5 -24.5
s6.16699 -19 7.5 -29c8 15.333 17.5 28.5 28.5 39.5s22.5 20 34.5 27s24.333 12 37 15s24.334 4.5 35.001 4.5c12.667 0 25.5 -2.33301 38.5 -7s24.833 -11.667 35.5 -21s19.167 -21.333 25.5 -36s9.5 -32 9.5 -52c0 -18 -2.66699 -35 -8 -51s-13 -30.167 -23 -42.5
s-22.167 -22 -36.5 -29s-30.166 -10.5 -47.499 -10.5z" />
    <glyph glyph-name="s" unicode="s" horiz-adv-x="470" 
d="M274 560c56.667 0 98.3291 -11.1729 124.996 -33.5059s40 -50.833 40 -85.5c0 -29.333 -9.16699 -51.666 -27.5 -66.999s-44.833 -23 -79.5 -23c-9.33301 0 -15.666 1 -18.999 3s-5 5.66699 -5 11c0 6 -0.5 12.833 -1.5 20.5s-3.33301 15 -7 22
s-9.33398 12.833 -17.001 17.5s-18.5 7 -32.5 7c-18.667 0 -33.667 -4.5 -45 -13.5s-17 -20.167 -17 -33.5c0 -14 5.83301 -25.167 17.5 -33.5s26.334 -16.166 44.001 -23.499s36.834 -14.833 57.501 -22.5s39.834 -17.834 57.501 -30.501s32.334 -28.5 44.001 -47.5
s17.5 -43.5 17.5 -73.5c0 -48 -17 -87.333 -51 -118s-85 -46 -153 -46c-18.667 0 -40.167 1.5 -64.5 4.5s-47.5 7.66699 -69.5 14s-40.5 14.833 -55.5 25.5s-22.5 24 -22.5 40c0 6 1.16699 13.333 3.5 22s6 17 11 25s11 14.833 18 20.5s15.5 8.5 25.5 8.5
c8 0 15.333 -2 22 -6s14.5 -8.16699 23.5 -12.5s20.167 -8.5 33.5 -12.5s31 -6 53 -6c16.667 0 31.5 2 44.5 6s19.5 13 19.5 27c0 12.667 -5.33301 22.834 -16 30.501s-24.167 14.834 -40.5 21.501l-53 21.5c-19 7.66699 -36.667 17.834 -53 30.501
s-29.833 28.834 -40.5 48.501s-16 45.167 -16 76.5c0 34 6.83301 62.833 20.5 86.5s31.334 42.834 53.001 57.501s46.167 25.167 73.5 31.5s54.666 9.5 81.999 9.5z" />
    <glyph glyph-name="t" unicode="t" horiz-adv-x="399" 
d="M256 415c-2 -25.333 -4.16797 -50.3359 -6.50098 -75.0029l-6.5 -70c-2 -22 -3.5 -41.667 -4.5 -59s-1.5 -30.666 -1.5 -39.999c0 -17.333 2 -28.833 6 -34.5s10.667 -8.5 20 -8.5c7.33301 0 13.666 1.33301 18.999 4s10.333 5.66699 15 9l12.5 9
c3.66699 2.66699 7.83398 4 12.501 4s9 -2.66699 13 -8s6 -17.666 6 -36.999c0 -36.667 -10 -65.667 -30 -87s-54.333 -32 -103 -32c-48 0 -83.5 11.167 -106.5 33.5s-34.5 56.5 -34.5 102.5c0 10 0.5 21.833 1.5 35.5s2.5 31.5 4.5 53.5l7.5 81
c3 32 6.16699 71.667 9.5 119h-53c-5.33301 0 -8.5 1.16699 -9.5 3.5s-1.5 5.83301 -1.5 10.5l3 51c0.666992 8.66699 1.83398 17.167 3.50098 25.5s5 15.833 10 22.5s12.167 12 21.5 16s21.666 6 36.999 6l16 43l18 48.5c6 15.667 11.833 28.834 17.5 39.501
s10.834 16 15.501 16h29c28 0 47.333 -8.66699 58 -26s16 -38 16 -62c0 -13.333 -1 -33 -3 -59h105c10.667 0 16 -4.66699 16 -14l-4 -54c-1.33301 -20 -6.83301 -36.167 -16.5 -48.5s-29.5 -18.5 -59.5 -18.5h-53z" />
    <glyph glyph-name="u" unicode="u" horiz-adv-x="600" 
d="M232 465c0 -14 -1.16992 -33.6729 -3.50293 -59.0059l-7 -79c-2.33301 -27.333 -4.66602 -53 -6.99902 -77s-3.5 -41.333 -3.5 -52c0 -23.333 5.83301 -41.5 17.5 -54.5s27.834 -19.5 48.501 -19.5c18 0 33.167 7.16699 45.5 21.5s22.333 33 30 56
s13.834 49.167 18.501 78.5s8.16699 59 10.5 89s4.33301 59.167 6 87.5s3.5 52.833 5.5 73.5c0.666992 5.33301 2.66699 10 6 14s8.66602 6 15.999 6h36c20.667 0 37.5 -2.16699 50.5 -6.5s23.333 -10.5 31 -18.5s13 -17.833 16 -29.5s4.5 -25.167 4.5 -40.5
c0 -10 -0.5 -24.167 -1.5 -42.5s-2.83301 -43.666 -5.5 -75.999s-5.83398 -73.333 -9.50098 -123l-13.5 -184.5c-1.33301 -14 -2.83301 -22.333 -4.5 -25s-7.16699 -4 -16.5 -4h-39c-20 0 -36.5 2.33301 -49.5 7s-23.5 10.667 -31.5 18s-13.667 16 -17 26
s-5.33301 20.333 -6 31c-10 -17.333 -21.167 -32 -33.5 -44s-25.166 -21.5 -38.499 -28.5s-27 -12 -41 -15s-27.667 -4.5 -41 -4.5c-25.333 0 -48 4.16699 -68 12.5s-36.833 19.5 -50.5 33.5s-24.167 30.667 -31.5 50s-11 40 -11 62c0 8.66699 0.5 22.834 1.5 42.501
s2.33301 41.834 4 66.501l5.5 78.5l5.5 78.5c1.66699 24.667 3.33398 46.334 5.00098 65.001l3.5 40c1.33301 12 4 20.167 8 24.5s10.667 6.5 20 6.5h32c20.667 0 37.667 -2 51 -6s23.833 -9.66699 31.5 -17s13 -16.166 16 -26.499s4.5 -22.166 4.5 -35.499z" />
    <glyph glyph-name="v" unicode="v" horiz-adv-x="560" 
d="M270 127c8 28 15.501 55.666 22.501 82.999s14 56.5 21 87.5l23 102l29.5 126.5c2 9.33301 5 15.5 9 18.5s12.667 4.5 26 4.5c10 0 23.333 -0.333008 40 -1s33 -3 49 -7s29.833 -10 41.5 -18s17.5 -19 17.5 -33c0 -11.333 -4 -29.666 -12 -54.999
s-18.333 -54.166 -31 -86.499s-26.834 -66.166 -42.501 -101.499l-45.5 -100c-14.667 -31.333 -28.334 -58.833 -41.001 -82.5s-22 -40.167 -28 -49.5c-5.33301 -7.33301 -10 -11.666 -14 -12.999s-10.667 -2 -20 -2h-89c-14 0 -25.5 2.5 -34.5 7.5s-16.5 11.5 -22.5 19.5
s-11 17.167 -15 27.5s-7.66699 21.166 -11 32.499l-50.5 171.5l-36.5 119.5l-24 76.5l-14 44c-3.33301 10.333 -5.66602 17.333 -6.99902 21s-2 6.16699 -2 7.5c0.666992 4.66699 4 9.66699 10 15s13.667 8 23 8c30.667 0 56.834 -1.16699 78.501 -3.5s39.667 -6.5 54 -12.5
s25.333 -14.333 33 -25s13.167 -24.667 16.5 -42l4 -28c2 -14 4.16699 -30.833 6.5 -50.5s5.16602 -41.334 8.49902 -65.001s6.5 -47.334 9.5 -71.001l9 -68.5c3 -22 5.83301 -41 8.5 -57z" />
    <glyph glyph-name="w" unicode="w" horiz-adv-x="839" 
d="M577 107l22.4971 127.504l16 94.5l11 69l8 51.5l6 40c1.66699 11.667 3.5 23.834 5.5 36.501c1.33301 7.33301 4.83301 13 10.5 17s16.5 6 32.5 6c8.66699 0 20.834 -0.5 36.501 -1.5s31.167 -3.5 46.5 -7.5s28.5 -10.167 39.5 -18.5s16.5 -19.833 16.5 -34.5
c0 -10.667 -3 -26.5 -9 -47.5s-13.667 -45.167 -23 -72.5s-20 -56.5 -32 -87.5l-36.5 -92l-35.5 -86.5l-29 -71c-5.33301 -12 -10.5 -20 -15.5 -24s-13.833 -6 -26.5 -6h-59c-18.667 0 -34 2.33301 -46 7s-21.667 11 -29 19s-13 17.167 -17 27.5s-7 21.5 -9 33.5
c-6.66699 34 -13.667 79.667 -21 137s-14 125 -20 203c-3.33301 -14.667 -7.16602 -34.334 -11.499 -59.001l-14 -80l-15.5 -88l-15 -83.5c-4.66699 -25.667 -9 -47.667 -13 -66s-7.33301 -30.166 -10 -35.499c-3.33301 -6.66699 -7.5 -10.834 -12.5 -12.501
s-12.167 -2.5 -21.5 -2.5h-70c-17.333 0 -32.166 2.5 -44.499 7.5s-23 11.5 -32 19.5s-16.333 17.167 -22 27.5s-9.83398 21.166 -12.501 32.499l-82.5 323c-18.333 72.667 -27.5 111.667 -27.5 117c0 6 3 11.333 9 16s13.667 7 23 7c28.667 0 53.334 -1.16699 74.001 -3.5
s37.834 -6.5 51.501 -12.5s24.167 -14.333 31.5 -25s12 -24.667 14 -42l4 -57l6.5 -97.5l7 -110.5c2.33301 -37.333 4.5 -69 6.5 -95l19.5 99l12.5 62l8.5 44l8.5 45c3.33301 17.333 7.16602 39 11.499 65s10.5 60.667 18.5 104c2.66699 16 20.334 24 53.001 24
c20.667 0 40 -0.666992 58 -2s34 -4.5 48 -9.5s26 -12.333 36 -22s17 -22.834 21 -39.501c1.33301 -4.66699 2.5 -9.33398 3.5 -14.001s2.16699 -11.334 3.5 -20.001s2.83301 -20.667 4.5 -36s3.66699 -36 6 -62l8.5 -97c3.33301 -38.667 7.66602 -85.667 12.999 -141z" />
    <glyph glyph-name="x" unicode="x" horiz-adv-x="555" 
d="M308 369c14 18 27.668 38.1641 41.001 60.4971l37.5 62c11.667 19 22.167 35 31.5 48s17 19.5 23 19.5c4.66699 0 11.5 -3.66699 20.5 -11s18 -16.666 27 -27.999s16.833 -24.166 23.5 -38.499s10 -28.5 10 -42.5c0 -28.667 -14.333 -56.167 -43 -82.5
s-66 -55.5 -112 -87.5l73 -109l49.5 -74.5c13 -19.667 22.5 -34.834 28.5 -45.501s9 -18 9 -22c0 -4.66699 -2.66699 -8.83398 -8 -12.501s-12.666 -5.5 -21.999 -5.5h-68c-34.667 0 -63 8.33301 -85 25s-40.667 41 -56 73l-40 80
c-25.333 -28.667 -46.166 -54.667 -62.499 -78l-40.5 -59.5c-10.667 -16.333 -19.334 -29 -26.001 -38s-13.334 -13.5 -20.001 -13.5c-4.66699 0 -11.834 2.33301 -21.501 7s-19.5 11.5 -29.5 20.5s-18.667 20 -26 33s-11 28.167 -11 45.5
c0 14.667 3.33301 28.834 10 42.501s17.167 27.334 31.5 41.001s32.5 28.167 54.5 43.5s48.667 32.333 80 51c-22 39.333 -42.167 73.666 -60.5 102.999l-47 74.5c-13 20.333 -23.167 36.833 -30.5 49.5s-11 22.334 -11 29.001s4.5 11.834 13.5 15.501s25.5 5.5 49.5 5.5
c26 0 47.667 -2.16699 65 -6.5s32 -10.5 44 -18.5s21.833 -17.667 29.5 -29s15.167 -24 22.5 -38z" />
    <glyph glyph-name="y" unicode="y" horiz-adv-x="610" 
d="M232 458c0 -15.333 -0.993164 -33.5 -2.99316 -54.5s-4.16699 -42 -6.5 -63l-6.5 -59c-2 -18.333 -3 -32.5 -3 -42.5c0 -25.333 6.16699 -44.166 18.5 -56.499s27.5 -18.5 45.5 -18.5c31.333 0 56.333 16.333 75 49s30.334 76 35.001 130l16 187
c0.666992 7.33301 3.16699 12.5 7.5 15.5s9.16602 4.5 14.499 4.5h36c14 0 27.167 -1.16699 39.5 -3.5s23.166 -6.66602 32.499 -12.999s16.666 -14.833 21.999 -25.5s8 -24.334 8 -41.001c0 -6.66699 -0.5 -19.167 -1.5 -37.5s-2.66699 -44.666 -5 -78.999
s-5.5 -77.666 -9.5 -129.999l-14 -191.5c-3.33301 -44 -13.166 -80.5 -29.499 -109.5s-36.833 -52 -61.5 -69s-52.334 -28.833 -83.001 -35.5s-62 -10 -94 -10c-34 0 -65.167 3 -93.5 9s-52.833 14.333 -73.5 25s-36.834 23 -48.501 37s-17.5 29 -17.5 45
c0 12.667 2.83301 23.667 8.5 33s13.167 17 22.5 23s20.166 10.5 32.499 13.5s25.166 4.5 38.499 4.5c6.66699 0 11.5 -3.33301 14.5 -10s7.66699 -14.167 14 -22.5s16.5 -15.833 30.5 -22.5s35 -10 63 -10c24.667 0 44.667 6 60 18s27.166 27.333 35.499 46
s13.833 39 16.5 61s4 43 4 63c-10.667 -18.667 -22.5 -33.834 -35.5 -45.501s-26.5 -20.667 -40.5 -27s-28 -10.5 -42 -12.5s-27.333 -3 -40 -3c-24.667 0 -47.167 3.33301 -67.5 10s-37.833 17.5 -52.5 32.5s-26 34.5 -34 58.5s-12 53 -12 87
c0 12.667 0.666992 29.5 2 50.5s3 44.667 5 71l6.5 85.5l7.5 94c1.33301 20.667 10.666 31 27.999 31h32c21.333 0 38.666 -2 51.999 -6s23.833 -9.83301 31.5 -17.5s12.834 -17.334 15.501 -29.001s4 -24.834 4 -39.501z" />
    <glyph glyph-name="z" unicode="z" horiz-adv-x="513" 
d="M13 0c-7.33301 0 -10.999 3.66602 -10.999 10.999l3 54c0.666992 18 6.83398 35.333 18.501 52s28.167 37.334 49.5 62.001l79 93.5c31.333 37.667 67.666 86.834 108.999 147.501h-188c-5.33301 0 -8.5 1.16699 -9.5 3.5s-1.5 5.83301 -1.5 10.5l3 46
c0.666992 8.66699 1.83398 17.167 3.50098 25.5s5 15.833 10 22.5s12.167 12 21.5 16s21.666 6 36.999 6h342c4 0 7.66699 -1 11 -3s5 -5.66699 5 -11l-4 -54c-0.666992 -16.667 -7.33398 -34.334 -20.001 -53.001c-2 -3.33301 -10.667 -14 -26 -32l-56.5 -68.5l-74 -93
l-79.5 -105.5h214c4 0 7.66699 -1 11 -3s5 -5.66699 5 -11l-4 -49c-1.33301 -20 -6.83301 -36.167 -16.5 -48.5s-29.5 -18.5 -59.5 -18.5h-372z" />
    <glyph glyph-name="braceleft" unicode="{" horiz-adv-x="449" 
d="M255 142c0 -10 -0.165039 -19.5029 -0.498047 -28.5029s-0.5 -17.5 -0.5 -25.5c0 -22 1 -41.333 3 -58s5.83301 -30.5 11.5 -41.5s13.834 -19.333 24.501 -25s25 -8.5 43 -8.5h46c4 0 7.66699 -1 11 -3s5 -5.66699 5 -11l-4 -59c-0.666992 -10 -1.66699 -19.167 -3 -27.5
s-4.16602 -15.333 -8.49902 -21s-10.833 -10.167 -19.5 -13.5s-20.334 -5 -35.001 -5h-72c-34 0 -61.333 5.66699 -82 17s-36.334 26 -47.001 44s-17.667 38.167 -21 60.5s-5 44.5 -5 66.5c0 16 0.333008 31.167 1 45.5s1 28.5 1 42.5c0 16 -1 31.167 -3 45.5
s-6 26.833 -12 37.5s-14.667 19.167 -26 25.5s-26 9.5 -44 9.5c-10.667 0 -16 4.66699 -16 14l7 112c0.666992 5.33301 2.83398 9 6.50098 11s7.5 3 11.5 3c20.667 0 37.5 5.33301 50.5 16s23.167 26 30.5 46s13 44.167 17 72.5s8 60.166 12 95.499
c5.33301 52 25.666 91.833 60.999 119.5s81.666 41.5 138.999 41.5h89c11.333 0 19.166 -3 23.499 -9s6.5 -14 6.5 -24l-3 -40c-1.33301 -15.333 -4 -27.333 -8 -36s-9.33301 -15.167 -16 -19.5s-14.334 -7.16602 -23.001 -8.49902s-18.334 -2.33301 -29.001 -3
c-21.333 -2 -38.166 -6.33301 -50.499 -13s-22 -16 -29 -28s-12 -27 -15 -45s-5.83301 -39 -8.5 -63c-4 -34 -12.833 -65.167 -26.5 -93.5s-36.5 -51.166 -68.5 -68.499c14.667 -5.33301 26.834 -13.166 36.501 -23.499s17.5 -22 23.5 -35s10.167 -27.167 12.5 -42.5
s3.5 -30.666 3.5 -45.999z" />
    <glyph glyph-name="bar" unicode="|" horiz-adv-x="275" 
d="M135 -185c-20.667 0 -37.4971 2.16699 -50.4971 6.5s-23.333 10.5 -31 18.5s-13 17.833 -16 29.5s-4.5 25.167 -4.5 40.5c0 6.66699 0.833008 23.667 2.5 51s4 61.333 7 102l10.5 137.5l12 159l12.5 165c4.33301 55 8.16602 107.167 11.499 156.5
c1.33301 14 2.83301 22.333 4.5 25s7.16699 4 16.5 4h23c20.667 0 37.5 -2 50.5 -6s23.333 -10 31 -18s13 -17.667 16 -29s4.5 -24 4.5 -38c0 -6.66699 -0.833008 -24 -2.5 -52s-4 -63 -7 -105l-10.5 -142l-12.5 -163l-13 -167l-12.5 -155
c-0.666992 -8 -2.33398 -13.333 -5.00098 -16s-8.33398 -4 -17.001 -4h-20z" />
    <glyph glyph-name="braceright" unicode="}" horiz-adv-x="449" 
d="M189 413c0 10 0.166016 19.5039 0.499023 28.5039s0.5 17.5 0.5 25.5c0 22 -1 41.333 -3 58s-5.83301 30.5 -11.5 41.5s-13.834 19.333 -24.501 25s-25 8.5 -43 8.5h-46c-4 0 -7.66699 1 -11 3s-5 5.66699 -5 11l4 59c1.33301 20 6.83301 36.167 16.5 48.5
s29.5 18.5 59.5 18.5h62c34 0 61.333 -5.66699 82 -17s36.334 -26 47.001 -44s17.667 -38.167 21 -60.5s5 -44.5 5 -66.5c0 -16 -0.333008 -31.167 -1 -45.5s-1 -28.5 -1 -42.5c0 -16 1 -31.167 3 -45.5s6 -26.833 12 -37.5s14.667 -19.167 26 -25.5s26 -9.5 44 -9.5
c10.667 0 16 -4.66699 16 -14l-7 -112c-0.666992 -5.33301 -2.83398 -9 -6.50098 -11s-7.5 -3 -11.5 -3c-21.333 0 -38.333 -5.5 -51 -16.5s-22.667 -26.5 -30 -46.5s-13 -44.167 -17 -72.5s-8 -59.833 -12 -94.5c-5.33301 -52 -25.666 -91.833 -60.999 -119.5
s-81.666 -41.5 -138.999 -41.5h-89c-11.333 0 -19.166 3 -23.499 9s-6.5 14 -6.5 24l3 40c0.666992 15.333 3 27.333 7 36s9.33301 15.167 16 19.5s14.334 7.16602 23.001 8.49902s18.667 2.33301 30 3c21.333 2 38.166 6.33301 50.499 13s22 16 29 28s12 27 15 45
s5.83301 39 8.5 63c4 34 12.833 65.167 26.5 93.5s36.5 51.166 68.5 68.499c-14.667 5.33301 -26.834 13.166 -36.501 23.499s-17.5 22 -23.5 35s-10.167 27.167 -12.5 42.5s-3.5 30.666 -3.5 45.999z" />
    <glyph glyph-name="asciitilde" unicode="~" horiz-adv-x="604" 
d="M424 311c16.667 0 30.5 3.16699 41.5 9.5s20.5 13.166 28.5 20.499l21.5 20.5c6.33301 6.33301 12.833 9.5 19.5 9.5c3.33301 0 7.5 -2.16699 12.5 -6.5s7.5 -15.5 7.5 -33.5c0 -16.667 -2.5 -33.5 -7.5 -50.5s-13.5 -32.5 -25.5 -46.5s-28 -25.5 -48 -34.5
s-45 -13.5 -75 -13.5c-28 0 -52.833 3.33301 -74.5 10s-41.5 14.167 -59.5 22.5l-50.5 22.5c-15.667 6.66699 -31.5 10 -47.5 10s-29 -3.33301 -39 -10s-18.5 -14.167 -25.5 -22.5l-19 -22.5c-5.66699 -6.66699 -11.834 -10 -18.501 -10c-4 0 -8.33301 2.33301 -13 7
s-7 16 -7 34c0 15.333 2.16699 31.5 6.5 48.5s12 32.5 23 46.5s25.833 25.667 44.5 35s42.667 14 72 14c26 0 49.5 -3.16699 70.5 -9.5s40.833 -13.166 59.5 -20.499l53 -20.5c16.667 -6.33301 33.334 -9.5 50.001 -9.5z" />
    <glyph glyph-name="uni00A0" unicode="&#xa0;" horiz-adv-x="215" 
 />
    <glyph glyph-name="exclamdown" unicode="&#xa1;" horiz-adv-x="286" 
d="M157 377c-28 0 -48 6.83105 -60 20.498s-18 32.834 -18 57.501c0 10.667 1.33301 22.334 4 35.001s7.5 24.5 14.5 35.5s17 20.333 30 28s29.833 11.5 50.5 11.5c30 0 50.333 -7.83301 61 -23.5s16 -35.167 16 -58.5c0 -13.333 -1.66699 -26.333 -5 -39
s-8.66602 -24 -15.999 -34s-17.333 -18 -30 -24s-28.334 -9 -47.001 -9zM135 306.998c32.667 0 54.5 -8.16797 65.5 -24.501s16.5 -40.833 16.5 -73.5c0 -6 -0.166992 -12.5 -0.5 -19.5s-0.833008 -15.833 -1.5 -26.5s-1.66699 -24 -3 -40l-5 -61.5l-7 -91l-9 -126.5
c-0.666992 -7.33301 -1.16699 -13.166 -1.5 -17.499s-1.16602 -7.16602 -2.49902 -8.49902c-2 -2 -7.66699 -3 -17 -3h-59c-36.667 0 -62.834 7.16699 -78.501 21.5s-23.5 31.166 -23.5 50.499c0 12 1.16699 27.833 3.5 47.5s5.5 41.5 9.5 65.5s8.5 49.167 13.5 75.5l15 78
l14.5 73l12 60.5c1.33301 8 3.5 13.333 6.5 16s8.16699 4 15.5 4h36z" />
    <glyph glyph-name="cent" unicode="&#xa2;" horiz-adv-x="511" 
d="M289 123c19.333 0 36.166 2.66797 50.499 8.00098s26.833 11.333 37.5 18s19.667 12.667 27 18s14 8 20 8c15.333 0 23 -10 23 -30c0 -4.66699 -1 -11.167 -3 -19.5s-4.66699 -17 -8 -26s-6.83301 -17.5 -10.5 -25.5s-7.16699 -14 -10.5 -18
c-2.66699 -2.66699 -7 -6.66699 -13 -12s-13.5 -10.833 -22.5 -16.5s-19.667 -11.334 -32 -17.001s-25.833 -10.167 -40.5 -13.5l-8 -81c-1.33301 -8 -3.16602 -13.333 -5.49902 -16s-7.83301 -4 -16.5 -4c-16.667 0 -30.334 2.16699 -41.001 6.5s-19 10.5 -25 18.5
s-10.167 17.833 -12.5 29.5s-3.5 25.167 -3.5 40.5v6c-21.333 4.66699 -42.166 12.5 -62.499 23.5s-38.5 26.167 -54.5 45.5s-28.833 43.166 -38.5 71.499s-14.5 62.5 -14.5 102.5c0 23.333 2.5 51.5 7.5 84.5s15.333 65.333 31 97s37.834 60 66.501 85s67 41.5 115 49.5
c1.33301 11.333 2.16602 23 2.49902 35s1.33301 22.833 3 32.5s4.16699 17.667 7.5 24s8.33301 9.5 15 9.5c33.333 0 55.833 -8 67.5 -24s17.5 -38.333 17.5 -67v-4.5c0 -1.66699 -0.333008 -3.83398 -1 -6.50098c45.333 -8 78.666 -24.667 99.999 -50s32 -55 32 -89
c0 -36 -11.333 -62.5 -34 -79.5s-54.667 -25.5 -96 -25.5c-10 0 -16.833 0.833008 -20.5 2.5s-5.5 5.5 -5.5 11.5c0 16 -0.333008 30.333 -1 43s-2.5 23.334 -5.5 32.001s-7.5 15.334 -13.5 20.001s-14.667 7 -26 7c-20.667 0 -37.167 -6.66699 -49.5 -20
s-21.666 -29.5 -27.999 -48.5s-10.333 -38.5 -12 -58.5s-2.5 -36.667 -2.5 -50c0 -47.333 7.5 -80.333 22.5 -99s38.833 -28 71.5 -28z" />
    <glyph glyph-name="sterling" unicode="&#xa3;" horiz-adv-x="555" 
d="M26 0c-5.33301 0 -8.5 1.16797 -9.5 3.50098s-1.5 5.83301 -1.5 10.5l6 92c0.666992 7.33301 4.83398 12.666 12.501 15.999s16.167 8.16602 25.5 14.499s18.333 15.833 27 28.5s14 32.667 16 60l5 68h-53c-5.33301 0 -8.5 1.16699 -9.5 3.5s-1.5 5.83301 -1.5 10.5l3 51
c0.666992 8.66699 1.83398 17.167 3.50098 25.5s5 15.833 10 22.5s12.167 12 21.5 16s21.666 6 36.999 6l5 70c2.66699 43.333 10.167 79.5 22.5 108.5s28.666 52.333 48.999 70s44.333 30.167 72 37.5s58.167 11 91.5 11c34 0 62.833 -3.16699 86.5 -9.5
s42.834 -15.166 57.501 -26.499s25.334 -24.5 32.001 -39.5s10 -31.167 10 -48.5c0 -34 -10.833 -58.333 -32.5 -73s-50.834 -22 -87.501 -22c-10 0 -16.833 0.833008 -20.5 2.5s-5.5 5.5 -5.5 11.5c-0.666992 25.333 -2.83398 43.5 -6.50098 54.5s-14.167 16.5 -31.5 16.5
s-31 -5 -41 -15s-17.667 -22.833 -23 -38.5s-9 -33.167 -11 -52.5s-3.66699 -38.333 -5 -57h140c10.667 0 16 -4.66699 16 -14l-4 -54c-1.33301 -20 -6.83301 -36.167 -16.5 -48.5s-29.5 -18.5 -59.5 -18.5h-87l-6 -72c-1.33301 -16.667 -7.5 -32 -18.5 -46
s-24.5 -25.667 -40.5 -35h272c4 0 7.66699 -1.16699 11 -3.5s5 -5.83301 5 -10.5l-4 -59c-1.33301 -20 -6.83301 -36.167 -16.5 -48.5s-29.5 -18.5 -59.5 -18.5h-386z" />
    <glyph glyph-name="currency" unicode="&#xa4;" horiz-adv-x="672" 
d="M293 70c-41.333 0 -77.667 4.66699 -109 14l-60.5 -54.5c-17 -15 -30.833 -22.5 -41.5 -22.5c-6 0 -11.833 2.66699 -17.5 8s-10.5 11.833 -14.5 19.5s-7.16699 15.334 -9.5 23.001s-3.5 14.167 -3.5 19.5c0 7.33301 3.5 16.166 10.5 26.499s21.5 25.5 43.5 45.5
c-13.333 18 -22.5 38.333 -27.5 61s-7.5 46.667 -7.5 72c0 33.333 4.33301 65.833 13 97.5s23.667 60.167 45 85.5c-15.333 18 -28.833 35.167 -40.5 51.5s-17.5 27.166 -17.5 32.499c0 2.66699 2 6.33398 6 11.001s9.16699 9.33398 15.5 14.001s13.5 8.5 21.5 11.5
s15.667 4.5 23 4.5c14 0 27.333 -5.66699 40 -17s25.667 -25 39 -41c20.667 9.33301 43.5 16.333 68.5 21s53.167 7 84.5 7c38 0 71 -3.83301 99 -11.5s51.667 -19.167 71 -34.5c24.667 20.667 43.5 35.834 56.5 45.501s22.5 14.5 28.5 14.5c4 0 8.5 -2.5 13.5 -7.5
s9.5 -11 13.5 -18s7.33301 -14.667 10 -23s4 -15.5 4 -21.5c0 -14.667 -6.83301 -28.834 -20.5 -42.501s-29.167 -27.5 -46.5 -41.5c5.33301 -22.667 8 -45.667 8 -69c0 -29.333 -4.33301 -61.333 -13 -96s-25.334 -66.667 -50.001 -96c20.667 -24 37 -43.667 49 -59
s18 -26.333 18 -33c0 -4 -2.33301 -8.5 -7 -13.5s-10.5 -9.5 -17.5 -13.5s-14.833 -7.5 -23.5 -10.5s-17 -4.5 -25 -4.5c-6.66699 0 -12.834 1.16699 -18.501 3.5s-11.667 6.16602 -18 11.499s-13.5 12.5 -21.5 21.5s-17.333 20.167 -28 33.5
c-19.333 -8 -40.666 -14.167 -63.999 -18.5s-49.666 -6.5 -78.999 -6.5zM337.999 427c-25.333 0 -45.333 -5.00195 -60 -15.002s-25.834 -22.167 -33.501 -36.5s-12.667 -29.166 -15 -44.499s-3.5 -28 -3.5 -38c0 -31.333 6.83301 -54.166 20.5 -68.499
s33.5 -21.5 59.5 -21.5c24 0 43.333 5 58 15s26.334 22.167 35.001 36.5s14.5 29.5 17.5 45.5s4.5 30 4.5 42c0 26 -6.33301 46.667 -19 62s-34 23 -64 23z" />
    <glyph glyph-name="yen" unicode="&#xa5;" horiz-adv-x="658" 
d="M406 94c-2 -35.333 -3.50293 -59.8311 -4.50293 -73.498s-6.83301 -20.5 -17.5 -20.5h-55c-39.333 0 -66.5 7.66699 -81.5 23s-22.5 39 -22.5 71h-140c-7.33301 0 -11 3.66699 -11 11l3 54c0.666992 8.66699 1.83398 17.167 3.50098 25.5s5 15.833 10 22.5
s12.167 12 21.5 16s21.666 6 36.999 6h84l3 40l-9 15h-116c-7.33301 0 -11 3.66699 -11 11l3 54c0.666992 8 1.66699 15.833 3 23.5s4.16602 14.834 8.49902 21.501s10.333 12 18 16s18.167 6.66699 31.5 8l-36.5 83l-36.5 83.5
c-11.333 26.333 -20.666 49.166 -27.999 68.499s-11 32 -11 38c0 14 22.333 21 67 21c28 0 50.5 -2.83301 67.5 -8.5s30.833 -13.334 41.5 -23.001s18.667 -21 24 -34s10.333 -26.833 15 -41.5c6 -19.333 10.333 -33.666 13 -42.999l6.5 -23
c1.66699 -6 3.5 -11.833 5.5 -17.5s4.83301 -14.5 8.5 -26.5l15.5 -50l28 -88l46.5 99c11.667 25.333 21.834 48.833 30.501 70.5s16.834 44 24.501 67l29.5 87.5c3.33301 11.333 6.83301 19.166 10.5 23.499s11.167 6.5 22.5 6.5c3.33301 0 12.5 -0.5 27.5 -1.5
s30.667 -3.5 47 -7.5s31.166 -10.333 44.499 -19s20 -20.334 20 -35.001c0 -9.33301 -2.66699 -22 -8 -38s-12.666 -34.333 -21.999 -55s-20.166 -42.667 -32.499 -66s-25.5 -46.666 -39.5 -69.999h32c10.667 0 16 -4.66699 16 -14l-4 -54
c-1.33301 -20 -6.83301 -36.167 -16.5 -48.5s-29.5 -18.5 -59.5 -18.5h-57l-21.5 -28c-7 -8.66699 -13.833 -16.334 -20.5 -23.001v-4h137c10.667 0 16 -4.66699 16 -14l-4 -54c-1.33301 -20 -6.83301 -36.167 -16.5 -48.5s-29.5 -18.5 -59.5 -18.5h-81z" />
    <glyph glyph-name="brokenbar" unicode="&#xa6;" horiz-adv-x="274" 
d="M170 315c-13.333 0 -26.166 1.16895 -38.499 3.50195s-23.166 6.66602 -32.499 12.999s-16.833 14.833 -22.5 25.5s-8.5 24.667 -8.5 42c0 10 0.833008 27.833 2.5 53.5s3.66699 53.167 6 82.5l6.5 85c2 27.333 3.66699 47.666 5 60.999
c1.33301 14 2.83301 22.333 4.5 25s7.16699 4 16.5 4h23c40 0 67 -8 81 -24s21 -38.333 21 -67c0 -12.667 -0.833008 -33.167 -2.5 -61.5s-3.66699 -57.833 -6 -88.5l-6.5 -84.5c-2 -25.667 -3.33301 -42.167 -4 -49.5s-3.83398 -12.5 -9.50098 -15.5
s-10.834 -4.5 -15.501 -4.5h-20zM134 -184.998c-13.333 0 -26.168 1.16895 -38.501 3.50195s-23.166 6.66602 -32.499 12.999s-16.833 14.833 -22.5 25.5s-8.5 24.667 -8.5 42c0 10 0.833008 27.833 2.5 53.5s3.66699 53.167 6 82.5l6.5 85
c2 27.333 3.66699 47.666 5 60.999c1.33301 14 2.83301 22.333 4.5 25s7.16699 4 16.5 4h23c38.667 0 65.334 -7.5 80.001 -22.5s22 -33.833 22 -56.5c0 -6 -0.5 -16.833 -1.5 -32.5s-2 -33.667 -3 -54s-2.33301 -41.833 -4 -64.5l-4.5 -63.5
c-1.33301 -19.667 -2.66602 -37 -3.99902 -52s-2 -24.833 -2 -29.5c-0.666992 -7.33301 -3.83398 -12.5 -9.50098 -15.5s-10.834 -4.5 -15.501 -4.5h-20z" />
    <glyph glyph-name="section" unicode="&#xa7;" horiz-adv-x="516" 
d="M326 720c55.333 0 96.501 -11.1641 123.501 -33.4971s40.5 -50.833 40.5 -85.5c0 -29.333 -9.16699 -51.666 -27.5 -66.999s-44.833 -23 -79.5 -23c-10.667 0 -17.334 1 -20.001 3s-4 5.66699 -4 11c0 6 -0.5 12.833 -1.5 20.5s-3.33301 15 -7 22
s-9.33398 12.833 -17.001 17.5s-18.167 7 -31.5 7c-18.667 0 -35.334 -5 -50.001 -15s-22 -23.667 -22 -41c0 -16 6.16699 -28.333 18.5 -37s27.5 -16.334 45.5 -23.001s37.833 -13.334 59.5 -20.001s41.5 -15.5 59.5 -26.5s33.167 -25.667 45.5 -44s18.5 -42.5 18.5 -72.5
c0 -32 -8.33301 -61.167 -25 -87.5s-43.334 -46.166 -80.001 -59.499c16 -11.333 29.833 -25.5 41.5 -42.5s17.5 -40.5 17.5 -70.5c0 -24 -4.16699 -45.833 -12.5 -65.5s-21.166 -36.834 -38.499 -51.501s-39 -26 -65 -34s-56.667 -12 -92 -12c-28 0 -54.667 2.33301 -80 7
s-47.5 10.667 -66.5 18s-34 15 -45 23s-16.5 15.667 -16.5 23c0 32.667 2.33301 55.667 7 69s13.334 20 26.001 20c8 0 16.5 -2 25.5 -6s19.5 -8.16699 31.5 -12.5s26.333 -8.5 43 -12.5s36.334 -6 59.001 -6c16.667 0 31.167 2.16699 43.5 6.5s18.5 14.166 18.5 29.499
c0 14 -5.66699 25 -17 33s-25.333 15 -42 21l-55 19c-20 6.66699 -38.333 15.834 -55 27.501s-30.667 27 -42 46s-17 43.833 -17 74.5c0 36.667 8.16699 67.5 24.5 92.5s37.5 45.167 63.5 60.5c-12.667 11.333 -22.834 25.666 -30.501 42.999s-11.5 38.666 -11.5 63.999
c0 34 7.16699 63.167 21.5 87.5s32.833 44 55.5 59s48.334 26 77.001 33s57 10.5 85 10.5zM209.001 379.003c-9.33301 -5.33301 -17.998 -14.832 -25.998 -28.499s-12 -28.167 -12 -43.5c0 -16.667 4.16699 -30.667 12.5 -42s18.666 -21 30.999 -29
s25.666 -14.667 39.999 -20l39.5 -15c10 5.33301 19.667 14.833 29 28.5s14 28.167 14 43.5c0 16 -4.33301 29.833 -13 41.5s-19.5 21.667 -32.5 30s-27 15.166 -42 20.499z" />
    <glyph glyph-name="dieresis" unicode="&#xa8;" horiz-adv-x="386" 
d="M0 677c0 24 7.99902 43 23.999 57s37.667 21 65 21c24 0 41.5 -5.33301 52.5 -16s16.5 -24.667 16.5 -42c0 -22 -7.66699 -40.5 -23 -55.5s-37.666 -22.5 -66.999 -22.5c-45.333 0 -68 19.333 -68 58zM227.999 677c0 24 7.99902 43 23.999 57s37.667 21 65 21
c24 0 41.5 -5.33301 52.5 -16s16.5 -24.667 16.5 -42c0 -22 -7.66699 -40.5 -23 -55.5s-37.666 -22.5 -66.999 -22.5c-45.333 0 -68 19.333 -68 58z" />
    <glyph glyph-name="copyright" unicode="&#xa9;" horiz-adv-x="803" 
d="M426 249c14 0 26.1689 1.83301 36.502 5.5s19.166 7.66699 26.499 12s13.666 8.33301 18.999 12s10.333 5.5 15 5.5c4 0 7.5 -1.83301 10.5 -5.5s4.5 -8.16699 4.5 -13.5c0 -3.33301 -0.666992 -7.83301 -2 -13.5s-3 -11.5 -5 -17.5s-4.33301 -11.833 -7 -17.5
s-5.33398 -9.83398 -8.00098 -12.501c-2 -2.66699 -6.16699 -6.5 -12.5 -11.5s-14.5 -10 -24.5 -15s-22 -9.33301 -36 -13s-29.333 -5.5 -46 -5.5c-17.333 0 -35.166 2.5 -53.499 7.5s-35 14 -50 27s-27.333 30.5 -37 52.5s-14.5 49.667 -14.5 83c0 17.333 2 38.333 6 63
s12.667 48.334 26 71.001s32.333 42 57 58s57.667 24 99 24c46 0 80.167 -9.5 102.5 -28.5s33.5 -42.167 33.5 -69.5c0 -23.333 -8 -40.833 -24 -52.5s-39 -17.5 -69 -17.5c-10 0 -15.833 4 -17.5 12s-2.83398 17 -3.50098 27s-2.5 19 -5.5 27s-10.5 12 -22.5 12
c-14 0 -25 -4.5 -33 -13.5s-14.167 -19.833 -18.5 -32.5s-7.16602 -26 -8.49902 -40s-2 -25.667 -2 -35c0 -32 5.16699 -54.167 15.5 -66.5s26.5 -18.5 48.5 -18.5zM377.002 86c52.667 0 97.334 8.49805 134.001 25.498s66.667 39.667 90 68s40.333 60.833 51 97.5
s16 75 16 115c0 80.667 -20 139.834 -60 177.501s-97.333 56.5 -172 56.5c-52.667 0 -97.834 -8.66699 -135.501 -26s-68.5 -40.166 -92.5 -68.499s-41.5 -61 -52.5 -98s-16.5 -75.167 -16.5 -114.5c0 -80 21 -138.833 63 -176.5s100.333 -56.5 175 -56.5zM445.002 720.998
c57.333 0 106.499 -7.99902 147.499 -23.999s74.5 -38.333 100.5 -67s45.167 -62.834 57.5 -102.501s18.5 -83.5 18.5 -131.5c0 -58 -8.66699 -111.833 -26 -161.5s-43 -92.5 -77 -128.5s-76 -64.333 -126 -85s-107.667 -31 -173 -31c-57.333 0 -106.666 8 -147.999 24
s-75.5 38.333 -102.5 67s-46.833 63 -59.5 103s-19 84 -19 132c0 58 9 111.667 27 161s44.167 92 78.5 128s76.833 64.333 127.5 85s108.667 31 174 31z" />
    <glyph glyph-name="ordfeminine" unicode="&#xaa;" horiz-adv-x="394" 
d="M45 464c0 36 16.6709 65.1689 50.0039 87.502s82.333 34.166 147 35.499v20c0 18 -10.333 27 -31 27c-12 0 -20.333 -2.16699 -25 -6.5s-8.33398 -9 -11.001 -14s-6 -9.66699 -10 -14s-11.333 -6.5 -22 -6.5c-23.333 0 -40.5 3 -51.5 9s-16.5 16.333 -16.5 31
c0 10.667 3 21 9 31s14.833 18.833 26.5 26.5s26.334 13.834 44.001 18.501s38.5 7 62.5 7c46 0 79.667 -8.83301 101 -26.5s32 -41.834 32 -72.501c0 -6 -0.333008 -14.5 -1 -25.5s-1.33398 -22.667 -2.00098 -35s-1.33398 -23.833 -2.00098 -34.5s-1 -18.334 -1 -23.001
c0 -10.667 1.5 -17.667 4.5 -21s6.5 -5.5 10.5 -6.5s7.5 -2.33301 10.5 -4s4.5 -6.16699 4.5 -13.5c0 -6 -1.33301 -12.833 -4 -20.5s-7 -15 -13 -22s-14 -13 -24 -18s-22.333 -7.5 -37 -7.5c-17.333 0 -30.833 3.66699 -40.5 11s-16.167 17.666 -19.5 30.999
c-9.33301 -11.333 -21.333 -21.166 -36 -29.499s-34.667 -12.5 -60 -12.5c-12.667 0 -24.834 1.33301 -36.501 4s-21.834 7 -30.501 13s-15.5 14 -20.5 24s-7.5 22.333 -7.5 37zM235.004 529.002c-19.333 0 -36.502 -3.33301 -51.502 -10s-22.5 -17.667 -22.5 -33
c0 -8.66699 2.33301 -14.667 7 -18s10.334 -5 17.001 -5c12.667 0 23.834 5.5 33.501 16.5s15.167 27.5 16.5 49.5z" />
    <glyph glyph-name="guillemotleft" unicode="&#xab;" horiz-adv-x="659" 
d="M114 275l56.002 -27.501l39.5 -18.5l35.5 -15.5l45 -19.5c6.66699 -2.66699 10 -7.66699 10 -15c0 -9.33301 -0.833008 -21.5 -2.5 -36.5s-4.66699 -29.667 -9 -44s-10 -26.666 -17 -36.999s-15.5 -15.5 -25.5 -15.5c-11.333 0 -27 6 -47 18s-40.5 26.167 -61.5 42.5
s-40.5 33 -58.5 50s-30.667 30.167 -38 39.5c-3.33301 4 -5.5 7.5 -6.5 10.5s-1.5 6.16699 -1.5 9.5c0 6.66699 0.833008 19.667 2.5 39s3.16699 41.666 4.5 66.999c0.666992 8.66699 2.16699 15.334 4.5 20.001s7.16602 10 14.499 16c12.667 10 31 23.167 55 39.5
s49 32.333 75 48s50.333 29.334 73 41.001s39 17.5 49 17.5c8 0 12 -4.66699 12 -14c0 -24 -1.16699 -44.667 -3.5 -62s-5.83301 -32 -10.5 -44s-10.5 -22 -17.5 -30s-14.833 -15 -23.5 -21c-8.66699 -5.33301 -19.334 -10.833 -32.001 -16.5s-26 -11 -40 -16l-42.5 -14.5
c-14.333 -4.66699 -27.5 -8.33398 -39.5 -11.001zM414.002 274.999l56.002 -27.501l39.5 -18.5l35.5 -15.5l45 -19.5c6.66699 -2.66699 10 -7.66699 10 -15c0 -9.33301 -0.833008 -21.5 -2.5 -36.5s-4.66699 -29.667 -9 -44s-10 -26.666 -17 -36.999
s-15.5 -15.5 -25.5 -15.5c-11.333 0 -27 6 -47 18s-40.5 26.167 -61.5 42.5s-40.5 33 -58.5 50s-30.667 30.167 -38 39.5c-3.33301 4 -5.5 7.5 -6.5 10.5s-1.5 6.16699 -1.5 9.5c0 6.66699 0.833008 19.667 2.5 39s3.16699 41.666 4.5 66.999
c0.666992 8.66699 2.16699 15.334 4.5 20.001s7.16602 10 14.499 16c12.667 10 31 23.167 55 39.5s49 32.333 75 48s50.333 29.334 73 41.001s39 17.5 49 17.5c8 0 12 -4.66699 12 -14c0 -24 -1.16699 -44.667 -3.5 -62s-5.83301 -32 -10.5 -44s-10.5 -22 -17.5 -30
s-14.833 -15 -23.5 -21c-8.66699 -5.33301 -19.334 -10.833 -32.001 -16.5s-26 -11 -40 -16l-42.5 -14.5c-14.333 -4.66699 -27.5 -8.33398 -39.5 -11.001z" />
    <glyph glyph-name="logicalnot" unicode="&#xac;" horiz-adv-x="613" 
d="M507 50c-35.333 0 -59.667 4.66602 -73 13.999s-20 27 -20 53c0 9.33301 0.5 22.333 1.5 39s2.16699 34.334 3.5 53.001h-372c-7.33301 0 -11 3.66699 -11 11l3 54c0.666992 8.66699 1.83398 17.167 3.50098 25.5s5 15.833 10 22.5s12.167 12 21.5 16s21.666 6 36.999 6
h426c4 0 7.66699 -1.16699 11 -3.5s5 -5.83301 5 -10.5l-17 -260c-0.666992 -9.33301 -2.5 -15 -5.5 -17s-10.833 -3 -23.5 -3z" />
    <glyph glyph-name="uni00AD" unicode="&#xad;" horiz-adv-x="462" 
d="M59 209c-7.33301 0 -11 3.66699 -11 11l3 54c0.666992 8.66699 1.83398 17.167 3.50098 25.5s5 15.833 10 22.5s12.167 12 21.5 16s21.666 6 36.999 6h272c4 0 7.66699 -1.16699 11 -3.5s5 -5.83301 5 -10.5l-4 -54c-1.33301 -20 -6.83301 -36.167 -16.5 -48.5
s-29.5 -18.5 -59.5 -18.5h-272z" />
    <glyph glyph-name="registered" unicode="&#xae;" horiz-adv-x="803" 
d="M377 86c52.667 0 97.334 8.49805 134.001 25.498s66.667 39.667 90 68s40.333 60.833 51 97.5s16 75 16 115c0 80.667 -20 139.834 -60 177.501s-97.333 56.5 -172 56.5c-52.667 0 -97.834 -8.66699 -135.501 -26s-68.5 -40.166 -92.5 -68.499s-41.5 -61 -52.5 -98
s-16.5 -75.167 -16.5 -114.5c0 -80 21 -138.833 63 -176.5s100.333 -56.5 175 -56.5zM445 720.998c57.333 0 106.499 -7.99902 147.499 -23.999s74.5 -38.333 100.5 -67s45.167 -62.834 57.5 -102.501s18.5 -83.5 18.5 -131.5c0 -58 -8.66699 -111.833 -26 -161.5
s-43 -92.5 -77 -128.5s-76 -64.333 -126 -85s-107.667 -31 -173 -31c-57.333 0 -106.666 8 -147.999 24s-75.5 38.333 -102.5 67s-46.833 63 -59.5 103s-19 84 -19 132c0 58 9 111.667 27 161s44.167 92 78.5 128s76.833 64.333 127.5 85s108.667 31 174 31z
M320.999 162.999c-41.333 0 -62.001 15.668 -62.001 47.001c0 10 1 29.5 3 58.5s4.33301 60.833 7 95.5c2.66699 39.333 5.33398 70.666 8.00098 93.999s5.16699 41.166 7.5 53.499s5 20.333 8 24s6.5 5.5 10.5 5.5c18.667 0 38.667 1 60 3s39.333 3 54 3
c46 0 80 -10.833 102 -32.5s33 -50.5 33 -86.5c0 -28 -5.5 -52.833 -16.5 -74.5s-28.5 -38.167 -52.5 -49.5l45 -64c16.667 -23.333 25 -37.666 25 -42.999c0 -2 -2 -5.16699 -6 -9.5s-9.33301 -8.66602 -16 -12.999s-14.5 -8.16602 -23.5 -11.499s-18.5 -5 -28.5 -5
c-11.333 0 -21.333 3.5 -30 10.5s-16.167 16.5 -22.5 28.5s-12 25.833 -17 41.5s-9.5 32.167 -13.5 49.5c-6 0 -11.5 0.333008 -16.5 1s-9.83301 1.66699 -14.5 3c-2 -26 -3.33301 -47.333 -4 -64s-1.5 -29.834 -2.5 -39.501s-2.33301 -16.334 -4 -20.001
s-4.16699 -5.5 -7.5 -5.5h-26zM406.998 464c-9.33301 0 -20.001 -1 -32.001 -3c0 -12.667 -0.5 -26.5 -1.5 -41.5l-3.5 -51.5c12 -3.33301 22.667 -5 32 -5c11.333 0 20.5 2 27.5 6s12.333 9 16 15s6.16699 12.333 7.5 19s2 12.667 2 18c0 15.333 -3.66699 26.333 -11 33
s-19.666 10 -36.999 10z" />
    <glyph glyph-name="macron" unicode="&#xaf;" horiz-adv-x="381" 
d="M21 618c-7.33301 0 -11.002 3.66699 -11.002 11c0 12 0.5 23.667 1.5 35s3.66699 21.5 8 30.5s11.5 16.333 21.5 22s24 8.5 42 8.5h272c4 0 7.66699 -1.16699 11 -3.5s5 -5.83301 5 -10.5c0 -14 -0.833008 -26.667 -2.5 -38s-5.16699 -21 -10.5 -29
s-13.166 -14.333 -23.499 -19s-24.166 -7 -41.499 -7h-272z" />
    <glyph glyph-name="degree" unicode="&#xb0;" horiz-adv-x="380" 
d="M191 426c-27.333 0 -49.999 3.16895 -67.999 9.50195s-32.5 15.166 -43.5 26.499s-18.667 24.666 -23 39.999s-6.5 31.666 -6.5 48.999c0 20.667 3 40.834 9 60.501s15.833 37.167 29.5 52.5s31.667 27.833 54 37.5s50.166 14.5 83.499 14.5c50 0 85.833 -11 107.5 -33
s32.5 -52.333 32.5 -91c0 -16 -2.16699 -33.667 -6.5 -53s-12.833 -37.333 -25.5 -54s-30.5 -30.667 -53.5 -42s-52.833 -17 -89.5 -17zM217.001 622.002c-11.333 0 -20.5 -2 -27.5 -6s-12.833 -9 -17.5 -15s-7.83398 -12.5 -9.50098 -19.5s-2.5 -13.833 -2.5 -20.5
c0 -15.333 4 -26 12 -32s18 -9 30 -9c11.333 0 20.5 2.16699 27.5 6.5s12.5 9.5 16.5 15.5s6.66699 12.667 8 20s2 14 2 20c0 11.333 -2.66699 20.833 -8 28.5s-15.666 11.5 -30.999 11.5z" />
    <glyph glyph-name="plusminus" unicode="&#xb1;" horiz-adv-x="513" 
d="M290 164c-20 0 -36.666 2.16602 -49.999 6.49902s-23.666 10.5 -30.999 18.5s-12.5 17.833 -15.5 29.5s-4.5 25.167 -4.5 40.5c0 10 0.333008 20 1 30s2 26 4 48h-133c-7.33301 0 -11 3.66699 -11 11v4v6c0 2.66699 0.166992 6.33398 0.5 11.001l1.5 20
c0.666992 8.66699 1.83398 17.167 3.50098 25.5s5 15.833 10 22.5s12.167 12 21.5 16s21.666 6 36.999 6h80c1.33301 19.333 3 40.666 5 63.999s4 50 6 80c0.666992 14.667 2.16699 23.167 4.5 25.5s8.5 3.5 18.5 3.5c20.667 0 37.5 -2 50.5 -6s23.333 -10 31 -18
s13 -17.667 16 -29s4.5 -24 4.5 -38c0 -9.33301 -0.333008 -19.666 -1 -30.999s-2 -28.333 -4 -51h131c4 0 7.66699 -1.16699 11 -3.5s5 -5.83301 5 -10.5l-3 -41c-1.33301 -20 -6.83301 -36.167 -16.5 -48.5s-29.5 -18.5 -59.5 -18.5h-79l-12 -153
c-0.666992 -8 -2.33398 -13.333 -5.00098 -16s-8.33398 -4 -17.001 -4zM26.001 -0.000976562c-7.33301 0 -11 3.66602 -11 10.999v4v6c0 2.66699 0.166992 6.33398 0.5 11.001l1.5 20c0.666992 8.66699 1.83398 17.167 3.50098 25.5s5 15.833 10 22.5s12.167 12 21.5 16
s21.666 6 36.999 6h342c4 0 7.66699 -1.16699 11 -3.5s5 -5.83301 5 -10.5l-3 -41c-1.33301 -20 -6.83301 -36.167 -16.5 -48.5s-29.5 -18.5 -59.5 -18.5h-342z" />
    <glyph glyph-name="twosuperior" unicode="&#xb2;" horiz-adv-x="318" 
d="M311 635c0 -20 -6.5 -38.835 -19.5 -56.502s-28 -33.5 -45 -47.5s-33.833 -26 -50.5 -36l-37 -22h135c4.66699 0 7 -2 7 -6l-2 -42c-0.666992 -9.33301 -4.33398 -16.666 -11.001 -21.999s-21 -8 -43 -8h-168c-15.333 0 -26 2.5 -32 7.5s-9 13.5 -9 25.5v42
c0 1.33301 0.333008 3 1 5s1.33398 3.66699 2.00098 5c4.66699 6.66699 16.167 15 34.5 25l57.5 33c20 12 37.833 24.333 53.5 37s23.5 24.667 23.5 36c0 8 -2.33301 14.5 -7 19.5s-13 7.5 -25 7.5s-20.167 -2.66699 -24.5 -8s-7.5 -11.333 -9.5 -18s-4 -12.667 -6 -18
s-6.33301 -8 -13 -8c-46.667 0 -70 16 -70 48c0 15.333 4 28.5 12 39.5s18.5 20 31.5 27s27.5 12 43.5 15s32.333 4.5 49 4.5c24 0 44 -2.66699 60 -8s28.5 -12.166 37.5 -20.499s15.333 -17.5 19 -27.5s5.5 -19.667 5.5 -29z" />
    <glyph glyph-name="threesuperior" unicode="&#xb3;" horiz-adv-x="297" 
d="M162 648c-5.33301 0 -11.3311 -1.33105 -17.998 -3.99805s-11.334 -8 -14.001 -16c-1.33301 -3.33301 -2.33301 -5.16602 -3 -5.49902s-2.33398 -0.5 -5.00098 -0.5c-23.333 0 -40 3.66699 -50 11s-15 17 -15 29c0 17.333 10.667 31.333 32 42s48.333 16 81 16
c23.333 0 42.5 -2.33301 57.5 -7s27 -10.667 36 -18s15.167 -15.833 18.5 -25.5s5 -19.5 5 -29.5c0 -28 -15.333 -51.667 -46 -71c13.333 -6.66699 24.166 -14.834 32.499 -24.501s12.5 -21.834 12.5 -36.501c0 -12 -3 -25 -9 -39s-15.5 -26.667 -28.5 -38
s-30 -20.833 -51 -28.5s-46.5 -11.5 -76.5 -11.5c-34 0 -58.167 5.16699 -72.5 15.5s-21.5 23.166 -21.5 38.499c0 17.333 4.83301 30.333 14.5 39s22.834 13 39.501 13c4.66699 0 7.16699 -0.333008 7.5 -1s0.833008 -2 1.5 -4c2.66699 -9.33301 9 -15.166 19 -17.499
s18.667 -3.5 26 -3.5c21.333 0 35.5 4 42.5 12s10.5 14.333 10.5 19c0 9.33301 -3.83301 16 -11.5 20s-15.167 6.33301 -22.5 7l-75 3c-4.66699 0 -7 2 -7 6l2 15c1.33301 11.333 3.83301 20.166 7.5 26.499s12.5 9.83301 26.5 10.5l51 2c21.333 1.33301 32 10.333 32 27
c0 19.333 -9.66699 29 -29 29z" />
    <glyph glyph-name="acute" unicode="&#xb4;" horiz-adv-x="257" 
d="M61 615c-4.66699 0 -9.83301 1.66602 -15.5 4.99902s-11.167 7.5 -16.5 12.5s-9.83301 10.333 -13.5 16s-5.5 10.5 -5.5 14.5c0 1.33301 3.33301 7 10 17l25 37l33 48l34 49c4 6 7.33301 10 10 12s7 3 13 3c8 0 18.333 -2 31 -6s25 -9 37 -15s22.333 -12.5 31 -19.5
s13 -13.5 13 -19.5c0 -4.66699 -3.83301 -11.667 -11.5 -21s-17.5 -19.666 -29.5 -30.999s-25.333 -23 -40 -35s-29 -23 -43 -33s-26.5 -18.167 -37.5 -24.5s-19.167 -9.5 -24.5 -9.5z" />
    <glyph glyph-name="mu" unicode="&#xb5;" horiz-adv-x="600" 
d="M240 465c0 -14 -1.16992 -33.6699 -3.50293 -59.0029l-7 -79c-2.33301 -27.333 -4.66602 -53 -6.99902 -77s-3.5 -41 -3.5 -51c0 -23.333 5.83301 -41.666 17.5 -54.999s26.834 -20 45.501 -20c28 0 50.5 14.333 67.5 43s27.5 67.667 31.5 117l20 246
c0.666992 8 2.33398 13.333 5.00098 16s8.33398 4 17.001 4h36c20.667 0 37.5 -2.16699 50.5 -6.5s23.333 -10.5 31 -18.5s13 -17.833 16 -29.5s4.5 -25.167 4.5 -40.5c0 -10 -0.5 -24.167 -1.5 -42.5s-2.83301 -43.666 -5.5 -75.999s-5.83398 -73.333 -9.50098 -123
l-13.5 -184.5c-1.33301 -14 -3 -22.333 -5 -25s-7.66699 -4 -17 -4h-38c-38 0 -64.5 7.83301 -79.5 23.5s-23.167 34.167 -24.5 55.5c-14.667 -28 -31.667 -49.833 -51 -65.5s-40.666 -23.5 -63.999 -23.5c-12 0 -23 2 -33 6s-18.667 9.66699 -26 17v-178
c0 -8 -1.5 -13.333 -4.5 -16s-8.83301 -4 -17.5 -4h-36c-20.667 0 -37.5 2 -50.5 6s-23.333 10 -31 18s-13 17.833 -16 29.5s-4.5 25.167 -4.5 40.5c0 21.333 2.16699 54.333 6.5 99s8.5 101.334 12.5 170.001c0.666992 6 1.5 17.5 2.5 34.5l3.5 59
c1.33301 22.333 3 46.166 5 71.499s3.83301 49.666 5.5 72.999l4.5 62.5c1.33301 18.333 2.66602 31.833 3.99902 40.5c1.33301 14.667 3.83301 23.5 7.5 26.5s10.5 4.5 20.5 4.5h32c20.667 0 37.667 -2 51 -6s23.833 -9.66699 31.5 -17s13 -16.166 16 -26.499
s4.5 -22.166 4.5 -35.499z" />
    <glyph glyph-name="paragraph" unicode="&#xb6;" horiz-adv-x="588" 
d="M532 712c4 0 6.99707 -0.667969 8.99707 -2.00098s3 -4.66602 3 -9.99902s-1 -20.333 -3 -45l-7 -86l-8.5 -102c-3 -35.333 -5.5 -66.333 -7.5 -93l-26 -354c-0.666992 -8 -2.5 -13.333 -5.5 -16s-9.16699 -4 -18.5 -4c-27.333 0 -45.833 8.16699 -55.5 24.5
s-14.5 39.166 -14.5 68.499c0 7.33301 0.833008 23.833 2.5 49.5s3.83398 56.167 6.50098 91.5l8.5 114l9 117.5l8 101.5c2.33301 30 3.83301 52 4.5 66h-38c0 -5.33301 -0.666992 -16.833 -2 -34.5s-3.16602 -38.667 -5.49902 -63s-4.66602 -50.666 -6.99902 -78.999
s-4.5 -55.833 -6.5 -82.5l-26 -354c-0.666992 -8 -2.5 -13.333 -5.5 -16s-9.16699 -4 -18.5 -4c-27.333 0 -45.833 8.16699 -55.5 24.5s-14.5 39.166 -14.5 68.499c0 22.667 1.66699 53.334 5 92.001s6.33301 79 9 121c-7.33301 -1.33301 -15 -2.33301 -23 -3
s-15.667 -1 -23 -1c-33.333 0 -61.833 4.83301 -85.5 14.5s-43 23 -58 40s-25.833 37.167 -32.5 60.5s-10 49 -10 77c0 68.667 19.167 123.5 57.5 164.5s93.833 61.5 166.5 61.5c46 0 91.833 -1.33301 137.5 -4s89.167 -4 130.5 -4z" />
    <glyph glyph-name="periodcentered" unicode="&#xb7;" horiz-adv-x="260" 
d="M137 367c28 0 48.002 -6.83203 60.002 -20.499s18 -32.834 18 -57.501c0 -10 -1.33301 -21.5 -4 -34.5s-7.5 -25 -14.5 -36s-16.833 -20.333 -29.5 -28s-29.334 -11.5 -50.001 -11.5c-30.667 0 -51.334 7.83301 -62.001 23.5s-16 35.167 -16 58.5
c0 13.333 1.66699 26.333 5 39s8.66602 24 15.999 34s17.333 18 30 24s28.334 9 47.001 9z" />
    <glyph glyph-name="cedilla" unicode="&#xb8;" horiz-adv-x="230" 
d="M124 -40c30 0 53.501 -4.83203 70.501 -14.499s25.5 -26.5 25.5 -50.5c0 -28 -11.333 -50.833 -34 -68.5s-52 -26.5 -88 -26.5c-7.33301 0 -16.166 0.5 -26.499 1.5s-20 3.33301 -29 7s-16.667 8.66699 -23 15s-9.5 14.833 -9.5 25.5
c0 8.66699 1.83301 17.834 5.5 27.501s8.16699 14.5 13.5 14.5c2.66699 0 5.5 -1.33301 8.5 -4l11 -9.5c4.33301 -3.66699 9.66602 -6.83398 15.999 -9.50098s13.833 -4 22.5 -4c9.33301 0 17.333 1.66699 24 5s10 8.66602 10 15.999c0 8 -3.83301 14.333 -11.5 19
s-16.334 8.5 -26.001 11.5l-26 8c-7.66699 2.33301 -11.5 4.5 -11.5 6.5c0 5.33301 1 12.666 3 21.999s4.5 19 7.5 29s6 19.333 9 28s5.83301 15.334 8.5 20.001l59 -5z" />
    <glyph glyph-name="onesuperior" unicode="&#xb9;" horiz-adv-x="214" 
d="M76 694l15.499 9.99902c5 3.33301 8.16699 5.33301 9.5 6h47c16.667 0 28.667 -3.5 36 -10.5s11 -16.167 11 -27.5c0 -4 -0.5 -13.333 -1.5 -28l-3.5 -51.5c-1.33301 -19.667 -2.83301 -40.5 -4.5 -62.5l-4.5 -61.5l-3.5 -48.5c-1 -13.333 -1.5 -21 -1.5 -23
c0 -4.66699 -2.33301 -7 -7 -7h-45c-18 0 -30.167 3.66699 -36.5 11s-9.5 18.666 -9.5 33.999c0 6 0.333008 15 1 27s1.66699 26 3 42l4.5 53c1.66699 19.333 3.5 39 5.5 59c-5.33301 -6.66699 -12.666 -10 -21.999 -10c-6 0 -11.167 1.83301 -15.5 5.5
s-8 8.33398 -11 14.001s-5.16699 11.834 -6.5 18.501s-2 12.667 -2 18c0 2.66699 2.33301 5.5 7 8.5s16 10.833 34 23.5z" />
    <glyph glyph-name="ordmasculine" unicode="&#xba;" horiz-adv-x="394" 
d="M196 386c-28.667 0 -52.3311 3.66699 -70.998 11s-33.667 17.5 -45 30.5s-19.333 28.333 -24 46s-7 36.5 -7 56.5c0 23.333 3 46 9 68s16 41.667 30 59s32.667 31.333 56 42s52.666 16 87.999 16c52.667 0 90.334 -11.667 113.001 -35s34 -56.666 34 -99.999
c0 -18 -2.33301 -38.333 -7 -61s-13.834 -43.834 -27.501 -63.501s-32.334 -36.167 -56.001 -49.5s-54.5 -20 -92.5 -20zM223.003 628c-13.333 0 -24 -3.00098 -32 -9.00098s-14 -13.333 -18 -22s-6.66699 -17.5 -8 -26.5s-2 -16.833 -2 -23.5c0 -49.333 14 -74 42 -74
c12 0 21.833 3.5 29.5 10.5s13.667 15.333 18 25s7.33301 19.834 9 30.501s2.5 19.667 2.5 27c0 19.333 -3 34.5 -9 45.5s-16.667 16.5 -32 16.5z" />
    <glyph glyph-name="guillemotright" unicode="&#xbb;" horiz-adv-x="667" 
d="M241 275l-57.002 24.002l-39.5 16l-35.5 14c-12 4.66699 -27.333 10.334 -46 17.001c-4 1.33301 -6.66699 3 -8 5s-2 5.66699 -2 11c0 8.66699 1 21 3 37s5.16699 31.833 9.5 47.5s10 29.167 17 40.5s15.5 17 25.5 17c11.333 0 27 -6 47 -18s40.5 -26.167 61.5 -42.5
s40.5 -33 58.5 -50s30.667 -30.167 38 -39.5c5.33301 -7.33301 8 -14 8 -20c0 -4.66699 -0.833008 -17.334 -2.5 -38.001s-3.16699 -43.334 -4.5 -68.001c-0.666992 -9.33301 -2.16699 -16.333 -4.5 -21s-7.16602 -9.66699 -14.499 -15c-12.667 -10 -31 -23.167 -55 -39.5
s-49 -32.5 -75 -48.5s-50.333 -29.667 -73 -41s-39 -17 -49 -17c-8 0 -12 4.66699 -12 14c0 22.667 1.16699 42 3.5 58s5.83301 29.5 10.5 40.5s10.334 20.333 17.001 28s14.667 14.5 24 20.5c8.66699 6 19.5 12.333 32.5 19s26.5 13 40.5 19s28.167 11.667 42.5 17
s27.5 9.66602 39.5 12.999zM547.998 275.002l-57.002 24.002l-39.5 16l-35.5 14c-12 4.66699 -27.333 10.334 -46 17.001c-4 1.33301 -6.66699 3 -8 5s-2 5.66699 -2 11c0 8.66699 1 21 3 37s5.16699 31.833 9.5 47.5s10 29.167 17 40.5s15.5 17 25.5 17
c11.333 0 27 -6 47 -18s40.5 -26.167 61.5 -42.5s40.5 -33 58.5 -50s30.667 -30.167 38 -39.5c5.33301 -7.33301 8 -14 8 -20c0 -4.66699 -0.833008 -17.334 -2.5 -38.001s-3.16699 -43.334 -4.5 -68.001c-0.666992 -9.33301 -2.16699 -16.333 -4.5 -21
s-7.16602 -9.66699 -14.499 -15c-12.667 -10 -31 -23.167 -55 -39.5s-49 -32.5 -75 -48.5s-50.333 -29.667 -73 -41s-39 -17 -49 -17c-8 0 -12 4.66699 -12 14c0 22.667 1.16699 42 3.5 58s5.83301 29.5 10.5 40.5s10.334 20.333 17.001 28s14.667 14.5 24 20.5
c8.66699 6 19.5 12.333 32.5 19s26.5 13 40.5 19s28.167 11.667 42.5 17s27.5 9.66602 39.5 12.999z" />
    <glyph glyph-name="onequarter" unicode="&#xbc;" horiz-adv-x="702" 
d="M102 -13c-16.667 0 -26.667 3.16699 -30 9.5s-5 15.5 -5 27.5c0 7.33301 1.83301 15.833 5.5 25.5s8.83398 20.5 15.501 32.5c5.33301 10 19.166 33.167 41.499 69.5l84 135.5l114 182.5l132.5 211.5c9.33301 14.667 18.333 23.167 27 25.5s18 3.5 28 3.5
c18.667 0 30 -3.16699 34 -9.5s6 -15.5 6 -27.5c0 -7.33301 -1.83301 -15.5 -5.5 -24.5s-8.16699 -18.833 -13.5 -29.5c-3.33301 -6.66699 -11 -19.667 -23 -39l-45.5 -73l-63 -101l-76 -121.5l-85 -135l-89.5 -142.5c-5.33301 -8 -13 -13.333 -23 -16s-19.667 -4 -29 -4z
M90 694l15.499 9.99902c5 3.33301 8.16699 5.33301 9.5 6h47c16.667 0 28.667 -3.5 36 -10.5s11 -16.167 11 -27.5c0 -4 -0.5 -13.333 -1.5 -28l-3.5 -51.5c-1.33301 -19.667 -2.83301 -40.5 -4.5 -62.5l-4.5 -61.5l-3.5 -48.5c-1 -13.333 -1.5 -21 -1.5 -23
c0 -4.66699 -2.33301 -7 -7 -7h-45c-18 0 -30.167 3.66699 -36.5 11s-9.5 18.666 -9.5 33.999c0 6 0.333008 15 1 27s1.66699 26 3 42l4.5 53c1.66699 19.333 3.5 39 5.5 59c-5.33301 -6.66699 -12.666 -10 -21.999 -10c-6 0 -11.167 1.83301 -15.5 5.5
s-8 8.33398 -11 14.001s-5.16699 11.834 -6.5 18.501s-2 12.667 -2 18c0 2.66699 2.33301 5.5 7 8.5s16 10.833 34 23.5zM420.999 86.999c-12 0 -21.499 2.00098 -28.499 6.00098s-10.5 10.667 -10.5 20c0 -0.666992 1.16699 4.16602 3.5 14.499s5.5 23.166 9.5 38.499
l12.5 50l12 50l9.5 38.5l4 15.5h40c17.333 0 29.166 -3.16699 35.499 -9.5s9.5 -16.5 9.5 -30.5c0 -5.33301 -0.5 -11.166 -1.5 -17.499s-2.5 -14.166 -4.5 -23.499s-4.83301 -20.5 -8.5 -33.5l-13.5 -46.5h61l10 116c0.666992 22 1.5 35 2.5 39s3.16699 6 6.5 6h44
c19.333 0 31.833 -3.83301 37.5 -11.5s8.5 -18.167 8.5 -31.5c0 -6.66699 -0.5 -17.667 -1.5 -33l-3.5 -52l-4 -60.5c-1.33301 -21 -2.66602 -40.333 -3.99902 -58l-3.5 -45c-1 -12.333 -1.5 -19.5 -1.5 -21.5c0 -4.66699 -2.33301 -7 -7 -7h-45
c-31.333 0 -47 12.667 -47 38c0 2.66699 0.166992 7.66699 0.5 15s1.16602 18.666 2.49902 33.999h-125z" />
    <glyph glyph-name="onehalf" unicode="&#xbd;" horiz-adv-x="694" 
d="M102 -13c-16.667 0 -26.667 3.16699 -30 9.5s-5 15.5 -5 27.5c0 7.33301 1.83301 15.833 5.5 25.5s8.83398 20.5 15.501 32.5c5.33301 10 19.166 33.167 41.499 69.5l84 135.5l114 182.5l132.5 211.5c9.33301 14.667 18.333 23.167 27 25.5s18 3.5 28 3.5
c18.667 0 30 -3.16699 34 -9.5s6 -15.5 6 -27.5c0 -7.33301 -1.83301 -15.5 -5.5 -24.5s-8.16699 -18.833 -13.5 -29.5c-3.33301 -6.66699 -11 -19.667 -23 -39l-45.5 -73l-63 -101l-76 -121.5l-85 -135l-89.5 -142.5c-5.33301 -8 -13 -13.333 -23 -16s-19.667 -4 -29 -4z
M90 694l15.499 9.99902c5 3.33301 8.16699 5.33301 9.5 6h47c16.667 0 28.667 -3.5 36 -10.5s11 -16.167 11 -27.5c0 -4 -0.5 -13.333 -1.5 -28l-3.5 -51.5c-1.33301 -19.667 -2.83301 -40.5 -4.5 -62.5l-4.5 -61.5l-3.5 -48.5c-1 -13.333 -1.5 -21 -1.5 -23
c0 -4.66699 -2.33301 -7 -7 -7h-45c-18 0 -30.167 3.66699 -36.5 11s-9.5 18.666 -9.5 33.999c0 6 0.333008 15 1 27s1.66699 26 3 42l4.5 53c1.66699 19.333 3.5 39 5.5 59c-5.33301 -6.66699 -12.666 -10 -21.999 -10c-6 0 -11.167 1.83301 -15.5 5.5
s-8 8.33398 -11 14.001s-5.16699 11.834 -6.5 18.501s-2 12.667 -2 18c0 2.66699 2.33301 5.5 7 8.5s16 10.833 34 23.5zM653.999 234.999c0 -20 -6.49902 -38.501 -19.499 -55.501s-28 -32.167 -45 -45.5s-33.833 -24.833 -50.5 -34.5l-37 -21.5h135c4.66699 0 7 -2 7 -6
l-2 -42c-0.666992 -9.33301 -4.33398 -16.666 -11.001 -21.999s-21 -8 -43 -8h-168c-15.333 0 -26 2.5 -32 7.5s-9 13.5 -9 25.5v42c0 4.66699 4.16699 10 12.5 16s19 12.5 32 19.5l41.5 23c14.667 8.33301 28.5 16.666 41.5 24.999s23.667 17 32 26s12.5 17.833 12.5 26.5
c0 8 -2.33301 14.5 -7 19.5s-13 7.5 -25 7.5s-20.167 -2.66699 -24.5 -8s-7.5 -11.333 -9.5 -18s-4 -12.667 -6 -18s-6.33301 -8 -13 -8c-46.667 0 -70 16 -70 48c0 15.333 4 28.5 12 39.5s18.5 20 31.5 27s27.5 12 43.5 15s32.333 4.5 49 4.5c24 0 44 -2.66699 60 -8
s28.5 -12.166 37.5 -20.499s15.333 -17.5 19 -27.5s5.5 -19.667 5.5 -29z" />
    <glyph glyph-name="threequarters" unicode="&#xbe;" horiz-adv-x="733" 
d="M135 -13c-16.667 0 -26.667 3.16699 -30 9.5s-5 15.5 -5 27.5c0 7.33301 1.83301 15.833 5.5 25.5s8.83398 20.5 15.501 32.5c5.33301 10 19.166 33.167 41.499 69.5l84 135.5l114 182.5l132.5 211.5c9.33301 14.667 18.333 23.167 27 25.5s18 3.5 28 3.5
c18.667 0 30 -3.16699 34 -9.5s6 -15.5 6 -27.5c0 -7.33301 -1.83301 -15.5 -5.5 -24.5s-8.16699 -18.833 -13.5 -29.5c-3.33301 -6.66699 -11 -19.667 -23 -39l-45.5 -73l-63 -101l-76 -121.5l-85 -135l-89.5 -142.5c-5.33301 -8 -13 -13.333 -23 -16s-19.667 -4 -29 -4z
M454 87c-12 0 -21.499 2.00098 -28.499 6.00098s-10.5 10.667 -10.5 20c0 -0.666992 1.16699 4.16602 3.5 14.499s5.5 23.166 9.5 38.499l12.5 50l12 50l9.5 38.5l4 15.5h40c17.333 0 29.166 -3.16699 35.499 -9.5s9.5 -16.5 9.5 -30.5
c0 -5.33301 -0.5 -11.166 -1.5 -17.499s-2.5 -14.166 -4.5 -23.499s-4.83301 -20.5 -8.5 -33.5l-13.5 -46.5h61l10 116c0.666992 22 1.5 35 2.5 39s3.16699 6 6.5 6h44c19.333 0 31.833 -3.83301 37.5 -11.5s8.5 -18.167 8.5 -31.5c0 -6.66699 -0.5 -17.667 -1.5 -33
l-3.5 -52l-4 -60.5c-1.33301 -21 -2.66602 -40.333 -3.99902 -58l-3.5 -45c-1 -12.333 -1.5 -19.5 -1.5 -21.5c0 -4.66699 -2.33301 -7 -7 -7h-45c-31.333 0 -47 12.667 -47 38c0 2.66699 0.166992 7.66699 0.5 15s1.16602 18.666 2.49902 33.999h-125zM172.001 648.001
c-5.33301 0 -11.3311 -1.33105 -17.998 -3.99805s-11.334 -8 -14.001 -16c-1.33301 -3.33301 -2.33301 -5.16602 -3 -5.49902s-2.33398 -0.5 -5.00098 -0.5c-23.333 0 -40 3.66699 -50 11s-15 17 -15 29c0 17.333 10.667 31.333 32 42s48.333 16 81 16
c23.333 0 42.5 -2.33301 57.5 -7s27 -10.667 36 -18s15.167 -15.833 18.5 -25.5s5 -19.5 5 -29.5c0 -28 -15.333 -51.667 -46 -71c13.333 -6.66699 24.166 -14.834 32.499 -24.501s12.5 -21.834 12.5 -36.501c0 -12 -3 -25 -9 -39s-15.5 -26.667 -28.5 -38
s-30 -20.833 -51 -28.5s-46.5 -11.5 -76.5 -11.5c-34 0 -58.167 5.16699 -72.5 15.5s-21.5 23.166 -21.5 38.499c0 17.333 4.83301 30.333 14.5 39s22.834 13 39.501 13c4.66699 0 7.16699 -0.333008 7.5 -1s0.833008 -2 1.5 -4c2.66699 -9.33301 9 -15.166 19 -17.499
s18.667 -3.5 26 -3.5c21.333 0 35.5 4 42.5 12s10.5 14.333 10.5 19c0 9.33301 -3.83301 16 -11.5 20s-15.167 6.33301 -22.5 7l-75 3c-4.66699 0 -7 2 -7 6l2 15c1.33301 11.333 3.83301 20.166 7.5 26.499s12.5 9.83301 26.5 10.5l51 2c21.333 1.33301 32 10.333 32 27
c0 19.333 -9.66699 29 -29 29z" />
    <glyph glyph-name="questiondown" unicode="&#xbf;" horiz-adv-x="525" 
d="M286 377c-28 0 -48 6.83105 -60 20.498s-18 32.834 -18 57.501c0 10.667 1.33301 22.334 4 35.001s7.5 24.5 14.5 35.5s17 20.333 30 28s29.833 11.5 50.5 11.5c30 0 50.333 -7.83301 61 -23.5s16 -35.167 16 -58.5c0 -13.333 -1.66699 -26.333 -5 -39
s-8.66602 -24 -15.999 -34s-17.333 -18 -30 -24s-28.334 -9 -47.001 -9zM211 286.998c4.66699 9.33301 8.50195 15.002 11.502 17.002s7.5 3 13.5 3h36c26 0 44.667 -5.5 56 -16.5s17 -24.5 17 -40.5c0 -15.333 -4.16699 -30.166 -12.5 -44.499
s-18.833 -28.166 -31.5 -41.499s-26.167 -26.5 -40.5 -39.5s-27.833 -26 -40.5 -39s-23.167 -26.5 -31.5 -40.5s-12.5 -28.333 -12.5 -43c0 -16 5.16699 -30.833 15.5 -44.5s27.166 -20.5 50.499 -20.5c18 0 32.5 3.66699 43.5 11s19.833 16.666 26.5 27.999
s11.667 23.833 15 37.5s6.33301 27.167 9 40.5c1.33301 7.33301 3.5 12.166 6.5 14.499s10.5 3.5 22.5 3.5c40.667 0 69.5 -7.16699 86.5 -21.5s25.5 -36.5 25.5 -66.5c0 -33.333 -7.5 -61.5 -22.5 -84.5s-34.667 -41.5 -59 -55.5s-52 -24.167 -83 -30.5
s-62.5 -9.5 -94.5 -9.5c-73.333 0 -127.5 15.5 -162.5 46.5s-52.5 74.833 -52.5 131.5c0 35.333 8.66699 66.666 26 93.999s37.666 52.666 60.999 75.999l69.5 67c23 21.333 40.167 44 51.5 68z" />
    <glyph glyph-name="Agrave" unicode="&#xc0;" 
d="M366 710c16.667 0 30.501 -3.16602 41.501 -9.49902s20.167 -14.666 27.5 -24.999s13.333 -22.166 18 -35.499s8.66699 -27 12 -41l66 -267l41 -169.5c10 -43 17 -74.833 21 -95.5s6 -35 6 -43c0 -9.33301 -2.16699 -15.666 -6.5 -18.999s-11.166 -5 -20.499 -5h-51
c-28.667 0 -51.5 3.5 -68.5 10.5s-30 17.167 -39 30.5s-15.5 29.5 -19.5 48.5s-7.33301 40.5 -10 64.5h-174l-33 -138c-3.33301 -10.667 -11 -16 -23 -16h-53c-10.667 0 -21.667 1.16699 -33 3.5s-21.5 6.16602 -30.5 11.499s-16.5 12.166 -22.5 20.499s-9 18.5 -9 30.5
c0 14.667 4.66699 38.667 14 72s21.166 71.166 35.499 113.499s30.333 86.666 48 132.999l51.5 131.5l45.5 109c13.667 31.333 24.167 53.333 31.5 66c5.33301 9.33301 10.166 14.833 14.499 16.5s12.5 2.5 24.5 2.5h95zM246.001 299.001h115l-42 264zM368.001 843.001
c0 -5.33301 -1.16309 -11.665 -3.49609 -18.998s-5.33301 -14.166 -9 -20.499s-8 -11.833 -13 -16.5s-10.167 -7 -15.5 -7c-14.667 0 -32.334 3 -53.001 9s-40.5 13 -59.5 21s-35.167 16.333 -48.5 25s-20 15.667 -20 21c0 8 3.16699 17.833 9.5 29.5s13.666 23 21.999 34
s17 20.5 26 28.5s16.5 12 22.5 12c3.33301 0 9.16602 -2.66699 17.499 -8s17.666 -11.833 27.999 -19.5s21.333 -16.334 33 -26.001s22.167 -18.834 31.5 -27.501s17 -16.334 23 -23.001s9 -11 9 -13z" />
    <glyph glyph-name="Aacute" unicode="&#xc1;" 
d="M366 710c16.667 0 30.501 -3.16602 41.501 -9.49902s20.167 -14.666 27.5 -24.999s13.333 -22.166 18 -35.499s8.66699 -27 12 -41l66 -267l41 -169.5c10 -43 17 -74.833 21 -95.5s6 -35 6 -43c0 -9.33301 -2.16699 -15.666 -6.5 -18.999s-11.166 -5 -20.499 -5h-51
c-28.667 0 -51.5 3.5 -68.5 10.5s-30 17.167 -39 30.5s-15.5 29.5 -19.5 48.5s-7.33301 40.5 -10 64.5h-174l-33 -138c-3.33301 -10.667 -11 -16 -23 -16h-53c-10.667 0 -21.667 1.16699 -33 3.5s-21.5 6.16602 -30.5 11.499s-16.5 12.166 -22.5 20.499s-9 18.5 -9 30.5
c0 14.667 4.66699 38.667 14 72s21.166 71.166 35.499 113.499s30.333 86.666 48 132.999l51.5 131.5l45.5 109c13.667 31.333 24.167 53.333 31.5 66c5.33301 9.33301 10.166 14.833 14.499 16.5s12.5 2.5 24.5 2.5h95zM246.001 299.001h115l-42 264zM332.001 780.001
c-7.33301 0 -13.832 2.49902 -19.499 7.49902s-10.5 10.833 -14.5 17.5s-7 12.834 -9 18.501s-3 9.5 -3 11.5c0 4.66699 6.66699 14 20 28s29 28.5 47 43.5s35.833 28.333 53.5 40s30.834 17.5 39.501 17.5c6 0 14.667 -3.5 26 -10.5s22.333 -15 33 -24s20 -18.333 28 -28
s12 -16.834 12 -21.501c0 -5.33301 -4.5 -11.5 -13.5 -18.5s-20.333 -14.167 -34 -21.5s-28.834 -14.666 -45.501 -21.999s-32.834 -13.833 -48.501 -19.5s-30 -10.167 -43 -13.5s-22.5 -5 -28.5 -5z" />
    <glyph glyph-name="Acircumflex" unicode="&#xc2;" 
d="M366 710c16.667 0 30.501 -3.16602 41.501 -9.49902s20.167 -14.666 27.5 -24.999s13.333 -22.166 18 -35.499s8.66699 -27 12 -41l66 -267l41 -169.5c10 -43 17 -74.833 21 -95.5s6 -35 6 -43c0 -9.33301 -2.16699 -15.666 -6.5 -18.999s-11.166 -5 -20.499 -5h-51
c-28.667 0 -51.5 3.5 -68.5 10.5s-30 17.167 -39 30.5s-15.5 29.5 -19.5 48.5s-7.33301 40.5 -10 64.5h-174l-33 -138c-3.33301 -10.667 -11 -16 -23 -16h-53c-10.667 0 -21.667 1.16699 -33 3.5s-21.5 6.16602 -30.5 11.499s-16.5 12.166 -22.5 20.499s-9 18.5 -9 30.5
c0 14.667 4.66699 38.667 14 72s21.166 71.166 35.499 113.499s30.333 86.666 48 132.999l51.5 131.5l45.5 109c13.667 31.333 24.167 53.333 31.5 66c5.33301 9.33301 10.166 14.833 14.499 16.5s12.5 2.5 24.5 2.5h95zM246.001 299.001h115l-42 264zM451.001 780.001
c-6 0 -13.3311 2.33105 -21.998 6.99805s-17.834 10.834 -27.501 18.501s-19.834 16.334 -30.501 26.001s-21 19.834 -31 30.501c-14 -10.667 -28.5 -20.834 -43.5 -30.501l-42 -26c-13 -7.66699 -24.667 -13.834 -35 -18.501s-18.5 -7 -24.5 -7
c-4.66699 0 -9.83398 1.83301 -15.501 5.5s-11 8 -16 13s-9.33301 9.83301 -13 14.5s-5.5 8 -5.5 10s4.16699 7.16699 12.5 15.5l32 30.5l43 39l44.5 41c5.33301 4.66699 15.5 8.33398 30.5 11.001s30.167 4 45.5 4c8.66699 0 18.834 -1 30.501 -3s19.167 -6 22.5 -12
l36 -42.5l32 -39.5l23 -30c6 -8 9 -12.667 9 -14s-2 -4.33301 -6 -9s-8.83301 -9.5 -14.5 -14.5s-11.667 -9.5 -18 -13.5s-11.833 -6 -16.5 -6z" />
    <glyph glyph-name="Atilde" unicode="&#xc3;" 
d="M366 710c16.667 0 30.501 -3.16602 41.501 -9.49902s20.167 -14.666 27.5 -24.999s13.333 -22.166 18 -35.499s8.66699 -27 12 -41l66 -267l41 -169.5c10 -43 17 -74.833 21 -95.5s6 -35 6 -43c0 -9.33301 -2.16699 -15.666 -6.5 -18.999s-11.166 -5 -20.499 -5h-51
c-28.667 0 -51.5 3.5 -68.5 10.5s-30 17.167 -39 30.5s-15.5 29.5 -19.5 48.5s-7.33301 40.5 -10 64.5h-174l-33 -138c-3.33301 -10.667 -11 -16 -23 -16h-53c-10.667 0 -21.667 1.16699 -33 3.5s-21.5 6.16602 -30.5 11.499s-16.5 12.166 -22.5 20.499s-9 18.5 -9 30.5
c0 14.667 4.66699 38.667 14 72s21.166 71.166 35.499 113.499s30.333 86.666 48 132.999l51.5 131.5l45.5 109c13.667 31.333 24.167 53.333 31.5 66c5.33301 9.33301 10.166 14.833 14.499 16.5s12.5 2.5 24.5 2.5h95zM246.001 299.001h115l-42 264zM415.001 895.001
c14 0 26.332 3.16406 36.999 9.49707s20.167 13.166 28.5 20.499l22.5 20.5c6.66699 6.33301 13 9.5 19 9.5c3.33301 0 7.5 -2.16699 12.5 -6.5s7.5 -15.166 7.5 -32.499c0 -15.333 -2.83301 -31.166 -8.5 -47.499s-14.334 -31 -26.001 -44s-26.5 -23.667 -44.5 -32
s-39.333 -12.5 -64 -12.5c-23.333 0 -42.666 3.33301 -57.999 10s-29 14.167 -41 22.5l-33.5 22.5c-10.333 6.66699 -22.5 10 -36.5 10s-25.667 -3.33301 -35 -10s-17.666 -14.167 -24.999 -22.5l-19.5 -22.5c-5.66699 -6.66699 -11.834 -10 -18.501 -10
c-3.33301 0 -7.5 2.33301 -12.5 7s-7.5 15.667 -7.5 33c0 14.667 2.33301 29.834 7 45.501s12.334 30.167 23.001 43.5s24.5 24.333 41.5 33s38.167 13 63.5 13c22 0 40.5 -3.16699 55.5 -9.5s28.5 -13.166 40.5 -20.499l34.5 -20.5c11 -6.33301 23.5 -9.5 37.5 -9.5z" />
    <glyph glyph-name="Adieresis" unicode="&#xc4;" 
d="M366 710c16.667 0 30.501 -3.16602 41.501 -9.49902s20.167 -14.666 27.5 -24.999s13.333 -22.166 18 -35.499s8.66699 -27 12 -41l66 -267l41 -169.5c10 -43 17 -74.833 21 -95.5s6 -35 6 -43c0 -9.33301 -2.16699 -15.666 -6.5 -18.999s-11.166 -5 -20.499 -5h-51
c-28.667 0 -51.5 3.5 -68.5 10.5s-30 17.167 -39 30.5s-15.5 29.5 -19.5 48.5s-7.33301 40.5 -10 64.5h-174l-33 -138c-3.33301 -10.667 -11 -16 -23 -16h-53c-10.667 0 -21.667 1.16699 -33 3.5s-21.5 6.16602 -30.5 11.499s-16.5 12.166 -22.5 20.499s-9 18.5 -9 30.5
c0 14.667 4.66699 38.667 14 72s21.166 71.166 35.499 113.499s30.333 86.666 48 132.999l51.5 131.5l45.5 109c13.667 31.333 24.167 53.333 31.5 66c5.33301 9.33301 10.166 14.833 14.499 16.5s12.5 2.5 24.5 2.5h95zM246.001 299.001h115l-42 264zM134.001 838.001
c0 24 7.99902 43 23.999 57s37.667 21 65 21c24 0 41.5 -5.33301 52.5 -16s16.5 -24.667 16.5 -42c0 -22 -7.66699 -40.5 -23 -55.5s-37.666 -22.5 -66.999 -22.5c-45.333 0 -68 19.333 -68 58zM362 838.001c0 24 7.99902 43 23.999 57s37.667 21 65 21
c24 0 41.5 -5.33301 52.5 -16s16.5 -24.667 16.5 -42c0 -22 -7.66699 -40.5 -23 -55.5s-37.666 -22.5 -66.999 -22.5c-45.333 0 -68 19.333 -68 58z" />
    <glyph glyph-name="Aring" unicode="&#xc5;" 
d="M366 710c16.667 0 30.501 -3.16602 41.501 -9.49902s20.167 -14.666 27.5 -24.999s13.333 -22.166 18 -35.499s8.66699 -27 12 -41l66 -267l41 -169.5c10 -43 17 -74.833 21 -95.5s6 -35 6 -43c0 -9.33301 -2.16699 -15.666 -6.5 -18.999s-11.166 -5 -20.499 -5h-51
c-28.667 0 -51.5 3.5 -68.5 10.5s-30 17.167 -39 30.5s-15.5 29.5 -19.5 48.5s-7.33301 40.5 -10 64.5h-174l-33 -138c-3.33301 -10.667 -11 -16 -23 -16h-53c-10.667 0 -21.667 1.16699 -33 3.5s-21.5 6.16602 -30.5 11.499s-16.5 12.166 -22.5 20.499s-9 18.5 -9 30.5
c0 14.667 4.66699 38.667 14 72s21.166 71.166 35.499 113.499s30.333 86.666 48 132.999l51.5 131.5l45.5 109c13.667 31.333 24.167 53.333 31.5 66c5.33301 9.33301 10.166 14.833 14.499 16.5s12.5 2.5 24.5 2.5h95zM246.001 299.001h115l-42 264zM340.001 931.001
c28.667 0 50.167 -6.16699 64.5 -18.5s21.5 -27.833 21.5 -46.5c0 -7.33301 -1.33301 -16 -4 -26s-7.66699 -19.5 -15 -28.5s-17.333 -16.5 -30 -22.5s-29 -9 -49 -9c-31.333 0 -53.333 7 -66 21s-19 29.667 -19 47c0 10 1.83301 20 5.5 30s9.5 18.833 17.5 26.5
s18 14 30 19s26.667 7.5 44 7.5zM336.001 882.001c-9.33301 0 -16 -3 -20 -9s-6 -12.667 -6 -20c0 -6.66699 1.66699 -12.5 5 -17.5s9 -7.5 17 -7.5c10.667 0 17.667 3.83301 21 11.5s5 14.167 5 19.5c0 6.66699 -1.83301 12.167 -5.5 16.5s-9.16699 6.5 -16.5 6.5z" />
    <glyph glyph-name="AE" unicode="&#xc6;" horiz-adv-x="819" 
d="M486 0c-28 0 -49.8389 3.50098 -65.5059 10.501s-27.167 17 -34.5 30s-11.666 29.167 -12.999 48.5s-2 41 -2 65h-174l-50 -138c-1.33301 -3.33301 -4 -6.83301 -8 -10.5s-9.66699 -5.5 -17 -5.5h-53c-10 0 -20.167 1 -30.5 3s-19.666 5.33301 -27.999 10
s-15 10.667 -20 18s-7.5 16.333 -7.5 27c0 11.333 6.16699 33 18.5 65s28.166 69.167 47.499 111.5l64.5 135.5l69 136.5l61.5 114.5c18.667 33.333 32.667 56.666 42 69.999c4 6 9.16699 10.667 15.5 14s14.833 5 25.5 5h392c4 0 7.66699 -1 11 -3s5 -5.66699 5 -11l-6 -59
c-1.33301 -10 -3.16602 -19.167 -5.49902 -27.5s-6.16602 -15.333 -11.499 -21s-12.833 -10.167 -22.5 -13.5s-22.167 -5 -37.5 -5h-142c3.33301 -26 6.33301 -50.667 9 -74l8 -67h196c4 0 7.66699 -1 11 -3s5 -5.66699 5 -11l-5 -59c-2 -20 -8.16699 -36.167 -18.5 -48.5
s-30.166 -18.5 -59.499 -18.5h-111l17 -149h216c4 0 7.66699 -1.16699 11 -3.5s5 -5.83301 5 -10.5l-6 -59c-1.33301 -10 -3.16602 -19.167 -5.49902 -27.5s-6.16602 -15.333 -11.499 -21s-12.833 -10.167 -22.5 -13.5s-22.167 -5 -37.5 -5h-225zM250.994 299.001h106v264z
" />
    <glyph glyph-name="Ccedilla" unicode="&#xc7;" horiz-adv-x="618" 
d="M352 146c27.333 0 50.502 4 69.502 12s35.167 17 48.5 27l35.5 27c10.333 8 20.833 12 31.5 12c13.333 0 20 -10 20 -30c0 -10.667 -1.33301 -23.5 -4 -38.5s-6.33398 -31.833 -11.001 -50.5c-2.66699 -10.667 -8.83398 -22.334 -18.501 -35.001
s-22.834 -24.667 -39.501 -36s-36.834 -21 -60.501 -29s-51.167 -12.667 -82.5 -14l-4 -31c30 0 53.5 -4.83301 70.5 -14.5s25.5 -26.5 25.5 -50.5c0 -28 -11.333 -50.833 -34 -68.5s-52 -26.5 -88 -26.5c-7.33301 0 -16.166 0.5 -26.499 1.5s-20 3.33301 -29 7
s-16.667 8.66699 -23 15s-9.5 14.833 -9.5 25.5c0 8.66699 1.83301 17.834 5.5 27.501s8.16699 14.5 13.5 14.5c2.66699 0 5.5 -1.33301 8.5 -4l11 -9.5c4.33301 -3.66699 9.66602 -6.83398 15.999 -9.50098s13.833 -4 22.5 -4c9.33301 0 17.333 1.66699 24 5
s10 8.66602 10 15.999c0 8 -3.83301 14.333 -11.5 19s-16.334 8.5 -26.001 11.5l-26 8c-7.66699 2.33301 -11.5 4.5 -11.5 6.5c0 6.66699 1.33301 16 4 28s6 24 10 36c-30 4 -59.167 12.333 -87.5 25s-53.166 31.334 -74.499 56.001s-38.5 55.834 -51.5 93.501
s-19.5 83.5 -19.5 137.5c0 22 1.5 47.5 4.5 76.5s8.83301 58.833 17.5 89.5s20.834 60.834 36.501 90.501s35.834 56.167 60.501 79.5s54.834 42.166 90.501 56.499s78.167 21.5 127.5 21.5c39.333 0 73.5 -4.66699 102.5 -14s53 -22.166 72 -38.499s33 -35.5 42 -57.5
s13.5 -45.333 13.5 -70c0 -42.667 -12.5 -73.834 -37.5 -93.501s-60.5 -29.5 -106.5 -29.5c-14.667 0 -23.834 1.16699 -27.501 3.5s-5.5 7.16602 -5.5 14.499c-0.666992 22.667 -1.33398 42.334 -2.00098 59.001s-3 30.5 -7 41.5s-10.167 19 -18.5 24
s-19.833 7.5 -34.5 7.5c-21.333 0 -39.5 -4.5 -54.5 -13.5s-27.667 -20.667 -38 -35s-18.666 -30.5 -24.999 -48.5s-11.333 -36.333 -15 -55s-6 -36.667 -7 -54s-1.5 -32.333 -1.5 -45c0 -61.333 10.167 -105 30.5 -131s51.833 -39 94.5 -39z" />
    <glyph glyph-name="Egrave" unicode="&#xc8;" horiz-adv-x="501" 
d="M155 0c-37.333 0 -63.998 7.33398 -79.998 22.001s-24 35.667 -24 63c0 13.333 1 36.166 3 68.499s4.66699 69.166 8 110.499s6.66602 85 9.99902 131s6.66602 89.333 9.99902 130s6 76.334 8 107.001s3 51.667 3 63c0 10 5.33301 15 16 15h352c4 0 7.66699 -1 11 -3
s5 -5.66699 5 -11l-4 -59c-1.33301 -20 -6.83301 -36.167 -16.5 -48.5s-29.5 -18.5 -59.5 -18.5h-138l-10 -141h142c4 0 7.66699 -1 11 -3s5 -5.66699 5 -11l-4 -59c-1.33301 -20 -6.83301 -36.167 -16.5 -48.5s-29.5 -18.5 -59.5 -18.5h-87l-11 -149h220
c4 0 7.66699 -1.16699 11 -3.5s5 -5.83301 5 -10.5l-4 -59c-1.33301 -20 -6.83301 -36.167 -16.5 -48.5s-29.5 -18.5 -59.5 -18.5h-230zM334.002 843.001c0 -5.33301 -1.16309 -11.665 -3.49609 -18.998s-5.33301 -14.166 -9 -20.499s-8 -11.833 -13 -16.5
s-10.167 -7 -15.5 -7c-14.667 0 -32.334 3 -53.001 9s-40.5 13 -59.5 21s-35.167 16.333 -48.5 25s-20 15.667 -20 21c0 8 3.16699 17.833 9.5 29.5s13.666 23 21.999 34s17 20.5 26 28.5s16.5 12 22.5 12c3.33301 0 9.16602 -2.66699 17.499 -8
s17.666 -11.833 27.999 -19.5s21.333 -16.334 33 -26.001s22.167 -18.834 31.5 -27.501s17 -16.334 23 -23.001s9 -11 9 -13z" />
    <glyph glyph-name="Eacute" unicode="&#xc9;" horiz-adv-x="501" 
d="M155 0c-37.333 0 -63.998 7.33398 -79.998 22.001s-24 35.667 -24 63c0 13.333 1 36.166 3 68.499s4.66699 69.166 8 110.499s6.66602 85 9.99902 131s6.66602 89.333 9.99902 130s6 76.334 8 107.001s3 51.667 3 63c0 10 5.33301 15 16 15h352c4 0 7.66699 -1 11 -3
s5 -5.66699 5 -11l-4 -59c-1.33301 -20 -6.83301 -36.167 -16.5 -48.5s-29.5 -18.5 -59.5 -18.5h-138l-10 -141h142c4 0 7.66699 -1 11 -3s5 -5.66699 5 -11l-4 -59c-1.33301 -20 -6.83301 -36.167 -16.5 -48.5s-29.5 -18.5 -59.5 -18.5h-87l-11 -149h220
c4 0 7.66699 -1.16699 11 -3.5s5 -5.83301 5 -10.5l-4 -59c-1.33301 -20 -6.83301 -36.167 -16.5 -48.5s-29.5 -18.5 -59.5 -18.5h-230zM298.002 780.001c-7.33301 0 -13.832 2.49902 -19.499 7.49902s-10.5 10.833 -14.5 17.5s-7 12.834 -9 18.501s-3 9.5 -3 11.5
c0 4.66699 6.66699 14 20 28s29 28.5 47 43.5s35.833 28.333 53.5 40s30.834 17.5 39.501 17.5c6 0 14.667 -3.5 26 -10.5s22.333 -15 33 -24s20 -18.333 28 -28s12 -16.834 12 -21.501c0 -5.33301 -4.5 -11.5 -13.5 -18.5s-20.333 -14.167 -34 -21.5
s-28.834 -14.666 -45.501 -21.999s-32.834 -13.833 -48.501 -19.5s-30 -10.167 -43 -13.5s-22.5 -5 -28.5 -5z" />
    <glyph glyph-name="Ecircumflex" unicode="&#xca;" horiz-adv-x="501" 
d="M155 0c-37.333 0 -63.998 7.33398 -79.998 22.001s-24 35.667 -24 63c0 13.333 1 36.166 3 68.499s4.66699 69.166 8 110.499s6.66602 85 9.99902 131s6.66602 89.333 9.99902 130s6 76.334 8 107.001s3 51.667 3 63c0 10 5.33301 15 16 15h352c4 0 7.66699 -1 11 -3
s5 -5.66699 5 -11l-4 -59c-1.33301 -20 -6.83301 -36.167 -16.5 -48.5s-29.5 -18.5 -59.5 -18.5h-138l-10 -141h142c4 0 7.66699 -1 11 -3s5 -5.66699 5 -11l-4 -59c-1.33301 -20 -6.83301 -36.167 -16.5 -48.5s-29.5 -18.5 -59.5 -18.5h-87l-11 -149h220
c4 0 7.66699 -1.16699 11 -3.5s5 -5.83301 5 -10.5l-4 -59c-1.33301 -20 -6.83301 -36.167 -16.5 -48.5s-29.5 -18.5 -59.5 -18.5h-230zM417.002 780.001c-6 0 -13.3311 2.33105 -21.998 6.99805s-17.834 10.834 -27.501 18.501s-19.834 16.334 -30.501 26.001
s-21 19.834 -31 30.501c-14 -10.667 -28.5 -20.834 -43.5 -30.501l-42 -26c-13 -7.66699 -24.667 -13.834 -35 -18.501s-18.5 -7 -24.5 -7c-4.66699 0 -9.83398 1.83301 -15.501 5.5s-11 8 -16 13s-9.33301 9.83301 -13 14.5s-5.5 8 -5.5 10s4.16699 7.16699 12.5 15.5
l32 30.5l43 39l44.5 41c5.33301 4.66699 15.5 8.33398 30.5 11.001s30.167 4 45.5 4c8.66699 0 18.834 -1 30.501 -3s19.167 -6 22.5 -12l36 -42.5l32 -39.5l23 -30c6 -8 9 -12.667 9 -14s-2 -4.33301 -6 -9s-8.83301 -9.5 -14.5 -14.5s-11.667 -9.5 -18 -13.5
s-11.833 -6 -16.5 -6z" />
    <glyph glyph-name="Edieresis" unicode="&#xcb;" horiz-adv-x="501" 
d="M155 0c-37.333 0 -63.998 7.33398 -79.998 22.001s-24 35.667 -24 63c0 13.333 1 36.166 3 68.499s4.66699 69.166 8 110.499s6.66602 85 9.99902 131s6.66602 89.333 9.99902 130s6 76.334 8 107.001s3 51.667 3 63c0 10 5.33301 15 16 15h352c4 0 7.66699 -1 11 -3
s5 -5.66699 5 -11l-4 -59c-1.33301 -20 -6.83301 -36.167 -16.5 -48.5s-29.5 -18.5 -59.5 -18.5h-138l-10 -141h142c4 0 7.66699 -1 11 -3s5 -5.66699 5 -11l-4 -59c-1.33301 -20 -6.83301 -36.167 -16.5 -48.5s-29.5 -18.5 -59.5 -18.5h-87l-11 -149h220
c4 0 7.66699 -1.16699 11 -3.5s5 -5.83301 5 -10.5l-4 -59c-1.33301 -20 -6.83301 -36.167 -16.5 -48.5s-29.5 -18.5 -59.5 -18.5h-230zM100.002 838.001c0 24 7.99902 43 23.999 57s37.667 21 65 21c24 0 41.5 -5.33301 52.5 -16s16.5 -24.667 16.5 -42
c0 -22 -7.66699 -40.5 -23 -55.5s-37.666 -22.5 -66.999 -22.5c-45.333 0 -68 19.333 -68 58zM328.001 838.001c0 24 7.99902 43 23.999 57s37.667 21 65 21c24 0 41.5 -5.33301 52.5 -16s16.5 -24.667 16.5 -42c0 -22 -7.66699 -40.5 -23 -55.5
s-37.666 -22.5 -66.999 -22.5c-45.333 0 -68 19.333 -68 58z" />
    <glyph glyph-name="Igrave" unicode="&#xcc;" horiz-adv-x="314" 
d="M155 0c-37.333 0 -63.998 7.33301 -79.998 22s-24 35.667 -24 63c0 13.333 1 36.166 3 68.499s4.66699 69.166 8 110.499s6.66602 85 9.99902 131s6.66602 89.333 9.99902 130s6 76.334 8 107.001s3 51.667 3 63c0 10 5.33301 15 16 15h55c40.667 0 68 -8.66699 82 -26
s21 -43 21 -77c0 -3.33301 -0.5 -14 -1.5 -32s-2.5 -40.667 -4.5 -68l-6.5 -91.5l-7 -103.5l-7 -103.5l-6.5 -91.5l-5 -68.5c-1.33301 -18.333 -2.33301 -29.5 -3 -33.5c-0.666992 -5.33301 -2 -9.16602 -4 -11.499s-6 -3.5 -12 -3.5h-55zM221.002 843
c0 -5.33301 -1.16309 -11.665 -3.49609 -18.998s-5.33301 -14.166 -9 -20.499s-8 -11.833 -13 -16.5s-10.167 -7 -15.5 -7c-14.667 0 -32.334 3 -53.001 9s-40.5 13 -59.5 21s-35.167 16.333 -48.5 25s-20 15.667 -20 21c0 8 3.16699 17.833 9.5 29.5s13.666 23 21.999 34
s17 20.5 26 28.5s16.5 12 22.5 12c3.33301 0 9.16602 -2.66699 17.499 -8s17.666 -11.833 27.999 -19.5s21.333 -16.334 33 -26.001s22.167 -18.834 31.5 -27.501s17 -16.334 23 -23.001s9 -11 9 -13z" />
    <glyph glyph-name="Iacute" unicode="&#xcd;" horiz-adv-x="314" 
d="M155 0c-37.333 0 -63.998 7.33301 -79.998 22s-24 35.667 -24 63c0 13.333 1 36.166 3 68.499s4.66699 69.166 8 110.499s6.66602 85 9.99902 131s6.66602 89.333 9.99902 130s6 76.334 8 107.001s3 51.667 3 63c0 10 5.33301 15 16 15h55c40.667 0 68 -8.66699 82 -26
s21 -43 21 -77c0 -3.33301 -0.5 -14 -1.5 -32s-2.5 -40.667 -4.5 -68l-6.5 -91.5l-7 -103.5l-7 -103.5l-6.5 -91.5l-5 -68.5c-1.33301 -18.333 -2.33301 -29.5 -3 -33.5c-0.666992 -5.33301 -2 -9.16602 -4 -11.499s-6 -3.5 -12 -3.5h-55zM185.002 780
c-7.33301 0 -13.832 2.49902 -19.499 7.49902s-10.5 10.833 -14.5 17.5s-7 12.834 -9 18.501s-3 9.5 -3 11.5c0 4.66699 6.66699 14 20 28s29 28.5 47 43.5s35.833 28.333 53.5 40s30.834 17.5 39.501 17.5c6 0 14.667 -3.5 26 -10.5s22.333 -15 33 -24s20 -18.333 28 -28
s12 -16.834 12 -21.501c0 -5.33301 -4.5 -11.5 -13.5 -18.5s-20.333 -14.167 -34 -21.5s-28.834 -14.666 -45.501 -21.999s-32.834 -13.833 -48.501 -19.5s-30 -10.167 -43 -13.5s-22.5 -5 -28.5 -5z" />
    <glyph glyph-name="Icircumflex" unicode="&#xce;" horiz-adv-x="314" 
d="M155 0c-37.333 0 -63.998 7.33301 -79.998 22s-24 35.667 -24 63c0 13.333 1 36.166 3 68.499s4.66699 69.166 8 110.499s6.66602 85 9.99902 131s6.66602 89.333 9.99902 130s6 76.334 8 107.001s3 51.667 3 63c0 10 5.33301 15 16 15h55c40.667 0 68 -8.66699 82 -26
s21 -43 21 -77c0 -3.33301 -0.5 -14 -1.5 -32s-2.5 -40.667 -4.5 -68l-6.5 -91.5l-7 -103.5l-7 -103.5l-6.5 -91.5l-5 -68.5c-1.33301 -18.333 -2.33301 -29.5 -3 -33.5c-0.666992 -5.33301 -2 -9.16602 -4 -11.499s-6 -3.5 -12 -3.5h-55zM304.002 780
c-6 0 -13.3311 2.33105 -21.998 6.99805s-17.834 10.834 -27.501 18.501s-19.834 16.334 -30.501 26.001s-21 19.834 -31 30.501c-14 -10.667 -28.5 -20.834 -43.5 -30.501l-42 -26c-13 -7.66699 -24.667 -13.834 -35 -18.501s-18.5 -7 -24.5 -7
c-4.66699 0 -9.83398 1.83301 -15.501 5.5s-11 8 -16 13s-9.33301 9.83301 -13 14.5s-5.5 8 -5.5 10s4.16699 7.16699 12.5 15.5l32 30.5l43 39l44.5 41c5.33301 4.66699 15.5 8.33398 30.5 11.001s30.167 4 45.5 4c8.66699 0 18.834 -1 30.501 -3s19.167 -6 22.5 -12
l36 -42.5l32 -39.5l23 -30c6 -8 9 -12.667 9 -14s-2 -4.33301 -6 -9s-8.83301 -9.5 -14.5 -14.5s-11.667 -9.5 -18 -13.5s-11.833 -6 -16.5 -6z" />
    <glyph glyph-name="Idieresis" unicode="&#xcf;" horiz-adv-x="314" 
d="M155 0c-37.333 0 -63.998 7.33301 -79.998 22s-24 35.667 -24 63c0 13.333 1 36.166 3 68.499s4.66699 69.166 8 110.499s6.66602 85 9.99902 131s6.66602 89.333 9.99902 130s6 76.334 8 107.001s3 51.667 3 63c0 10 5.33301 15 16 15h55c40.667 0 68 -8.66699 82 -26
s21 -43 21 -77c0 -3.33301 -0.5 -14 -1.5 -32s-2.5 -40.667 -4.5 -68l-6.5 -91.5l-7 -103.5l-7 -103.5l-6.5 -91.5l-5 -68.5c-1.33301 -18.333 -2.33301 -29.5 -3 -33.5c-0.666992 -5.33301 -2 -9.16602 -4 -11.499s-6 -3.5 -12 -3.5h-55zM-12.998 838
c0 24 7.99902 43 23.999 57s37.667 21 65 21c24 0 41.5 -5.33301 52.5 -16s16.5 -24.667 16.5 -42c0 -22 -7.66699 -40.5 -23 -55.5s-37.666 -22.5 -66.999 -22.5c-45.333 0 -68 19.333 -68 58zM215.001 838c0 24 7.99902 43 23.999 57s37.667 21 65 21
c24 0 41.5 -5.33301 52.5 -16s16.5 -24.667 16.5 -42c0 -22 -7.66699 -40.5 -23 -55.5s-37.666 -22.5 -66.999 -22.5c-45.333 0 -68 19.333 -68 58z" />
    <glyph glyph-name="Eth" unicode="&#xd0;" horiz-adv-x="672" 
d="M98 695c0 5.33301 1.99512 9.16895 5.99512 11.502s7.66699 3.5 11 3.5h24c46 2.66699 84.667 4.83398 116 6.50098s58.333 2.5 81 2.5c56.667 0 104.167 -5.66699 142.5 -17s69.333 -29 93 -53s40.5 -55 50.5 -93s15 -83.667 15 -137c0 -54 -5.5 -106.833 -16.5 -158.5
s-30.167 -97.5 -57.5 -137.5s-64.166 -72.167 -110.499 -96.5s-104.833 -36.5 -175.5 -36.5c-32.667 0 -62.5 0.666992 -89.5 2s-50.167 5.33301 -69.5 12s-34.333 16.667 -45 30s-16 31.666 -16 54.999c0 6.66699 0.333008 16.834 1 30.501s1.66699 29.667 3 48l4.5 61
l5.5 70.5h-50c-7.33301 0 -11 3.66699 -11 11l3 54c0.666992 8 1.83398 16.167 3.50098 24.5s4.83398 15.666 9.50098 21.999s11.334 11.666 20.001 15.999s20.334 6.83301 35.001 7.5c2.66699 36 5 66 7 90s3.5 43.833 4.5 59.5s1.83301 28.167 2.5 37.5
s1.16699 17.666 1.5 24.999s0.5 14.5 0.5 21.5s0.333008 16.167 1 27.5zM247.995 299.003c-1.33301 -26.667 -3.00098 -52.502 -5.00098 -77.502s-4 -48.5 -6 -70.5c10 -1.33301 19 -2.16602 27 -2.49902s14.667 -0.5 20 -0.5c37.333 0 67.166 8 89.499 24
s39.5 36.333 51.5 61s20 51.667 24 81s6 57 6 83c0 28 -1.83301 52.5 -5.5 73.5s-10 38.5 -19 52.5s-21.5 24.5 -37.5 31.5s-36 10.5 -60 10.5c-7.33301 0 -16.666 -0.333008 -27.999 -1s-25 -1.66699 -41 -3c-0.666992 -17.333 -1.66699 -36.666 -3 -57.999
s-2.66602 -44.333 -3.99902 -69h80c4 0 7.66699 -1.16699 11 -3.5s5 -5.83301 5 -10.5l-4 -54c-1.33301 -20 -6.83301 -36.167 -16.5 -48.5s-29.5 -18.5 -59.5 -18.5h-25z" />
    <glyph glyph-name="Ntilde" unicode="&#xd1;" horiz-adv-x="688" 
d="M499 0c-27.333 0 -47.667 4 -61 12s-23 18 -29 30l-97.5 205l-92.5 198c0.666992 -72 1.66699 -143.667 3 -215l4 -215c0 -10 -5.33301 -15 -16 -15h-55c-38 0 -64.833 7.5 -80.5 22.5s-23.5 37.167 -23.5 66.5c0 8 0.5 21.5 1.5 40.5s2.5 41.5 4.5 67.5l6.5 85.5
c2.33301 31 4.83301 62.5 7.5 94.5l10 126c2.66699 33.333 4.83398 61.5 6.50098 84.5s2.83398 42.667 3.50098 59l2 48.5c0 10 5.33301 15 16 15h80c22 0 40 -2.5 54 -7.5s25.5 -11.833 34.5 -20.5s16.167 -18.5 21.5 -29.5s10.333 -22.5 15 -34.5l42.5 -107l32.5 -79
l24.5 -59l19.5 -46l18 -40.5l19 -42.5c0 39.333 -0.166992 79.833 -0.5 121.5l-1 122l-1 114.5c-0.333008 36.667 -0.5 69.667 -0.5 99c0 6 5.66699 9 17 9h55c22 0 39.5 -2.16699 52.5 -6.5s23.167 -10.666 30.5 -18.999s12.166 -18.5 14.499 -30.5s3.5 -25.667 3.5 -41
c0 -16.667 -1 -42.167 -3 -76.5l-7 -115.5c-2.66699 -42.667 -5.66699 -86.834 -9 -132.501l-9.5 -126.5c-3 -38.667 -5.66699 -71.5 -8 -98.5s-3.83301 -42.833 -4.5 -47.5c0 -5.33301 -1.83301 -9.33301 -5.5 -12s-7.83398 -4 -12.501 -4h-82zM473.999 895
c14 0 26.332 3.16406 36.999 9.49707s20.167 13.166 28.5 20.499l22.5 20.5c6.66699 6.33301 13 9.5 19 9.5c3.33301 0 7.5 -2.16699 12.5 -6.5s7.5 -15.166 7.5 -32.499c0 -15.333 -2.83301 -31.166 -8.5 -47.499s-14.334 -31 -26.001 -44s-26.5 -23.667 -44.5 -32
s-39.333 -12.5 -64 -12.5c-23.333 0 -42.666 3.33301 -57.999 10s-29 14.167 -41 22.5l-33.5 22.5c-10.333 6.66699 -22.5 10 -36.5 10s-25.667 -3.33301 -35 -10s-17.666 -14.167 -24.999 -22.5l-19.5 -22.5c-5.66699 -6.66699 -11.834 -10 -18.501 -10
c-3.33301 0 -7.5 2.33301 -12.5 7s-7.5 15.667 -7.5 33c0 14.667 2.33301 29.834 7 45.501s12.334 30.167 23.001 43.5s24.5 24.333 41.5 33s38.167 13 63.5 13c22 0 40.5 -3.16699 55.5 -9.5s28.5 -13.166 40.5 -20.499l34.5 -20.5c11 -6.33301 23.5 -9.5 37.5 -9.5z" />
    <glyph glyph-name="Ograve" unicode="&#xd2;" horiz-adv-x="711" 
d="M405 721c48.667 0 90.334 -6.83398 125.001 -20.501s63 -33.667 85 -60s38 -58.333 48 -96s15 -80.5 15 -128.5c0 -26.667 -1.83301 -55.667 -5.5 -87s-10.334 -62.833 -20.001 -94.5s-22.834 -62.167 -39.501 -91.5s-38.167 -55.333 -64.5 -78
s-57.833 -40.834 -94.5 -54.501s-80 -20.5 -130 -20.5c-55.333 0 -101.166 8.33301 -137.499 25s-65.333 39.167 -87 67.5s-37 61.833 -46 100.5s-13.5 80 -13.5 124c0 52 6 102.833 18 152.5s32.167 93.834 60.5 132.501s65.833 69.834 112.5 93.501s104.667 35.5 174 35.5
zM384 565.999c-23.333 0 -43.498 -4.1709 -60.498 -12.5039s-31.333 -19.5 -43 -33.5s-21 -29.667 -28 -47s-12.5 -35.166 -16.5 -53.499s-6.66699 -36 -8 -53s-2 -32.167 -2 -45.5c0 -60.667 10.167 -105 30.5 -133s49.166 -42 86.499 -42c30.667 0 55.667 9.83301 75 29.5
s34.5 43.334 45.5 71.001s18.5 56.334 22.5 86.001s6 54.834 6 75.501c0 48.667 -8.33301 87.167 -25 115.5s-44.334 42.5 -83.001 42.5zM452.002 842.995c0 -5.33301 -1.16309 -11.665 -3.49609 -18.998s-5.33301 -14.166 -9 -20.499s-8 -11.833 -13 -16.5
s-10.167 -7 -15.5 -7c-14.667 0 -32.334 3 -53.001 9s-40.5 13 -59.5 21s-35.167 16.333 -48.5 25s-20 15.667 -20 21c0 8 3.16699 17.833 9.5 29.5s13.666 23 21.999 34s17 20.5 26 28.5s16.5 12 22.5 12c3.33301 0 9.16602 -2.66699 17.499 -8
s17.666 -11.833 27.999 -19.5s21.333 -16.334 33 -26.001s22.167 -18.834 31.5 -27.501s17 -16.334 23 -23.001s9 -11 9 -13z" />
    <glyph glyph-name="Oacute" unicode="&#xd3;" horiz-adv-x="711" 
d="M405 721c48.667 0 90.334 -6.83398 125.001 -20.501s63 -33.667 85 -60s38 -58.333 48 -96s15 -80.5 15 -128.5c0 -26.667 -1.83301 -55.667 -5.5 -87s-10.334 -62.833 -20.001 -94.5s-22.834 -62.167 -39.501 -91.5s-38.167 -55.333 -64.5 -78
s-57.833 -40.834 -94.5 -54.501s-80 -20.5 -130 -20.5c-55.333 0 -101.166 8.33301 -137.499 25s-65.333 39.167 -87 67.5s-37 61.833 -46 100.5s-13.5 80 -13.5 124c0 52 6 102.833 18 152.5s32.167 93.834 60.5 132.501s65.833 69.834 112.5 93.501s104.667 35.5 174 35.5
zM384 565.999c-23.333 0 -43.498 -4.1709 -60.498 -12.5039s-31.333 -19.5 -43 -33.5s-21 -29.667 -28 -47s-12.5 -35.166 -16.5 -53.499s-6.66699 -36 -8 -53s-2 -32.167 -2 -45.5c0 -60.667 10.167 -105 30.5 -133s49.166 -42 86.499 -42c30.667 0 55.667 9.83301 75 29.5
s34.5 43.334 45.5 71.001s18.5 56.334 22.5 86.001s6 54.834 6 75.501c0 48.667 -8.33301 87.167 -25 115.5s-44.334 42.5 -83.001 42.5zM416.002 779.995c-7.33301 0 -13.832 2.49902 -19.499 7.49902s-10.5 10.833 -14.5 17.5s-7 12.834 -9 18.501s-3 9.5 -3 11.5
c0 4.66699 6.66699 14 20 28s29 28.5 47 43.5s35.833 28.333 53.5 40s30.834 17.5 39.501 17.5c6 0 14.667 -3.5 26 -10.5s22.333 -15 33 -24s20 -18.333 28 -28s12 -16.834 12 -21.501c0 -5.33301 -4.5 -11.5 -13.5 -18.5s-20.333 -14.167 -34 -21.5
s-28.834 -14.666 -45.501 -21.999s-32.834 -13.833 -48.501 -19.5s-30 -10.167 -43 -13.5s-22.5 -5 -28.5 -5z" />
    <glyph glyph-name="Ocircumflex" unicode="&#xd4;" horiz-adv-x="711" 
d="M405 721c48.667 0 90.334 -6.83398 125.001 -20.501s63 -33.667 85 -60s38 -58.333 48 -96s15 -80.5 15 -128.5c0 -26.667 -1.83301 -55.667 -5.5 -87s-10.334 -62.833 -20.001 -94.5s-22.834 -62.167 -39.501 -91.5s-38.167 -55.333 -64.5 -78
s-57.833 -40.834 -94.5 -54.501s-80 -20.5 -130 -20.5c-55.333 0 -101.166 8.33301 -137.499 25s-65.333 39.167 -87 67.5s-37 61.833 -46 100.5s-13.5 80 -13.5 124c0 52 6 102.833 18 152.5s32.167 93.834 60.5 132.501s65.833 69.834 112.5 93.501s104.667 35.5 174 35.5
zM384 565.999c-23.333 0 -43.498 -4.1709 -60.498 -12.5039s-31.333 -19.5 -43 -33.5s-21 -29.667 -28 -47s-12.5 -35.166 -16.5 -53.499s-6.66699 -36 -8 -53s-2 -32.167 -2 -45.5c0 -60.667 10.167 -105 30.5 -133s49.166 -42 86.499 -42c30.667 0 55.667 9.83301 75 29.5
s34.5 43.334 45.5 71.001s18.5 56.334 22.5 86.001s6 54.834 6 75.501c0 48.667 -8.33301 87.167 -25 115.5s-44.334 42.5 -83.001 42.5zM535.002 779.995c-6 0 -13.3311 2.33105 -21.998 6.99805s-17.834 10.834 -27.501 18.501s-19.834 16.334 -30.501 26.001
s-21 19.834 -31 30.501c-14 -10.667 -28.5 -20.834 -43.5 -30.501l-42 -26c-13 -7.66699 -24.667 -13.834 -35 -18.501s-18.5 -7 -24.5 -7c-4.66699 0 -9.83398 1.83301 -15.501 5.5s-11 8 -16 13s-9.33301 9.83301 -13 14.5s-5.5 8 -5.5 10s4.16699 7.16699 12.5 15.5
l32 30.5l43 39l44.5 41c5.33301 4.66699 15.5 8.33398 30.5 11.001s30.167 4 45.5 4c8.66699 0 18.834 -1 30.501 -3s19.167 -6 22.5 -12l36 -42.5l32 -39.5l23 -30c6 -8 9 -12.667 9 -14s-2 -4.33301 -6 -9s-8.83301 -9.5 -14.5 -14.5s-11.667 -9.5 -18 -13.5
s-11.833 -6 -16.5 -6z" />
    <glyph glyph-name="Otilde" unicode="&#xd5;" horiz-adv-x="711" 
d="M405 721c48.667 0 90.334 -6.83398 125.001 -20.501s63 -33.667 85 -60s38 -58.333 48 -96s15 -80.5 15 -128.5c0 -26.667 -1.83301 -55.667 -5.5 -87s-10.334 -62.833 -20.001 -94.5s-22.834 -62.167 -39.501 -91.5s-38.167 -55.333 -64.5 -78
s-57.833 -40.834 -94.5 -54.501s-80 -20.5 -130 -20.5c-55.333 0 -101.166 8.33301 -137.499 25s-65.333 39.167 -87 67.5s-37 61.833 -46 100.5s-13.5 80 -13.5 124c0 52 6 102.833 18 152.5s32.167 93.834 60.5 132.501s65.833 69.834 112.5 93.501s104.667 35.5 174 35.5
zM384 565.999c-23.333 0 -43.498 -4.1709 -60.498 -12.5039s-31.333 -19.5 -43 -33.5s-21 -29.667 -28 -47s-12.5 -35.166 -16.5 -53.499s-6.66699 -36 -8 -53s-2 -32.167 -2 -45.5c0 -60.667 10.167 -105 30.5 -133s49.166 -42 86.499 -42c30.667 0 55.667 9.83301 75 29.5
s34.5 43.334 45.5 71.001s18.5 56.334 22.5 86.001s6 54.834 6 75.501c0 48.667 -8.33301 87.167 -25 115.5s-44.334 42.5 -83.001 42.5zM499.002 894.995c14 0 26.332 3.16406 36.999 9.49707s20.167 13.166 28.5 20.499l22.5 20.5c6.66699 6.33301 13 9.5 19 9.5
c3.33301 0 7.5 -2.16699 12.5 -6.5s7.5 -15.166 7.5 -32.499c0 -15.333 -2.83301 -31.166 -8.5 -47.499s-14.334 -31 -26.001 -44s-26.5 -23.667 -44.5 -32s-39.333 -12.5 -64 -12.5c-23.333 0 -42.666 3.33301 -57.999 10s-29 14.167 -41 22.5l-33.5 22.5
c-10.333 6.66699 -22.5 10 -36.5 10s-25.667 -3.33301 -35 -10s-17.666 -14.167 -24.999 -22.5l-19.5 -22.5c-5.66699 -6.66699 -11.834 -10 -18.501 -10c-3.33301 0 -7.5 2.33301 -12.5 7s-7.5 15.667 -7.5 33c0 14.667 2.33301 29.834 7 45.501s12.334 30.167 23.001 43.5
s24.5 24.333 41.5 33s38.167 13 63.5 13c22 0 40.5 -3.16699 55.5 -9.5s28.5 -13.166 40.5 -20.499l34.5 -20.5c11 -6.33301 23.5 -9.5 37.5 -9.5z" />
    <glyph glyph-name="Odieresis" unicode="&#xd6;" horiz-adv-x="711" 
d="M405 721c48.667 0 90.334 -6.83398 125.001 -20.501s63 -33.667 85 -60s38 -58.333 48 -96s15 -80.5 15 -128.5c0 -26.667 -1.83301 -55.667 -5.5 -87s-10.334 -62.833 -20.001 -94.5s-22.834 -62.167 -39.501 -91.5s-38.167 -55.333 -64.5 -78
s-57.833 -40.834 -94.5 -54.501s-80 -20.5 -130 -20.5c-55.333 0 -101.166 8.33301 -137.499 25s-65.333 39.167 -87 67.5s-37 61.833 -46 100.5s-13.5 80 -13.5 124c0 52 6 102.833 18 152.5s32.167 93.834 60.5 132.501s65.833 69.834 112.5 93.501s104.667 35.5 174 35.5
zM384 565.999c-23.333 0 -43.498 -4.1709 -60.498 -12.5039s-31.333 -19.5 -43 -33.5s-21 -29.667 -28 -47s-12.5 -35.166 -16.5 -53.499s-6.66699 -36 -8 -53s-2 -32.167 -2 -45.5c0 -60.667 10.167 -105 30.5 -133s49.166 -42 86.499 -42c30.667 0 55.667 9.83301 75 29.5
s34.5 43.334 45.5 71.001s18.5 56.334 22.5 86.001s6 54.834 6 75.501c0 48.667 -8.33301 87.167 -25 115.5s-44.334 42.5 -83.001 42.5zM218.002 837.995c0 24 7.99902 43 23.999 57s37.667 21 65 21c24 0 41.5 -5.33301 52.5 -16s16.5 -24.667 16.5 -42
c0 -22 -7.66699 -40.5 -23 -55.5s-37.666 -22.5 -66.999 -22.5c-45.333 0 -68 19.333 -68 58zM446.001 837.995c0 24 7.99902 43 23.999 57s37.667 21 65 21c24 0 41.5 -5.33301 52.5 -16s16.5 -24.667 16.5 -42c0 -22 -7.66699 -40.5 -23 -55.5
s-37.666 -22.5 -66.999 -22.5c-45.333 0 -68 19.333 -68 58z" />
    <glyph glyph-name="multiply" unicode="&#xd7;" horiz-adv-x="497" 
d="M84 103c-5.33301 0 -11.333 3.16699 -18 9.5s-12.834 13.833 -18.501 22.5s-10.334 17.5 -14.001 26.5s-5.5 16.5 -5.5 22.5c0 11.333 3.16699 22.333 9.5 33s15.166 21.667 26.499 33c7.33301 7.33301 18.5 17.5 33.5 30.5l63.5 52.5l-88 137
c-2 3.33301 -4.16699 7.33301 -6.5 12s-3.5 8.33398 -3.5 11.001c0 2 2.5 6.16699 7.5 12.5s11.5 12.666 19.5 18.999s16.833 12.166 26.5 17.499s19.5 8 29.5 8c7.33301 0 15.833 -1.5 25.5 -4.5s18.167 -10.167 25.5 -21.5l35.5 -55l31.5 -49l134 115
c6 5.33301 10.5 9.16602 13.5 11.499s5.83301 3.5 8.5 3.5c4.66699 0 10.334 -3.5 17.001 -10.5s12.834 -15.167 18.501 -24.5s10.5 -18.666 14.5 -27.999s6 -16.666 6 -21.999c0 -11.333 -3.16699 -22 -9.5 -32s-14.5 -20 -24.5 -30
c-7.33301 -7.33301 -19.5 -18.333 -36.5 -33l-70.5 -59l43.5 -68l28 -44c7 -11.333 11.833 -19.833 14.5 -25.5s4 -9.5 4 -11.5c0 -6 -3.16699 -12.5 -9.5 -19.5s-13.833 -13.333 -22.5 -19s-17.834 -10.5 -27.501 -14.5s-17.5 -6 -23.5 -6
c-7.33301 0 -16.166 1.83301 -26.499 5.5s-19.166 11.5 -26.499 23.5l-58 91l-62 -53l-71 -60c-5.33301 -4.66699 -10 -7 -14 -7z" />
    <glyph glyph-name="Oslash" unicode="&#xd8;" horiz-adv-x="711" 
d="M405 721c47.333 0 88.335 -6.6709 123.002 -20.0039l35 49c7.33301 10 17.5 17.5 30.5 22.5s24.833 7.5 35.5 7.5c15.333 0 25.666 -3.83301 30.999 -11.5s8 -14.5 8 -20.5c0 -7.33301 -4.16699 -19.166 -12.5 -35.499s-22.166 -40.166 -41.499 -71.499
c22 -26.667 38.167 -58.834 48.5 -96.501s15.5 -80.5 15.5 -128.5c0 -26.667 -1.83301 -55.667 -5.5 -87s-10.334 -62.833 -20.001 -94.5s-22.834 -62.167 -39.501 -91.5s-38.167 -55.333 -64.5 -78s-57.833 -40.834 -94.5 -54.501s-80 -20.5 -130 -20.5
c-28 0 -53.167 2.16699 -75.5 6.5s-42.833 10.5 -61.5 18.5l-38 -55c-7.33301 -10.667 -17.833 -17.834 -31.5 -21.501s-25.167 -5.5 -34.5 -5.5c-14 0 -23.5 3.16699 -28.5 9.5s-7.5 13.5 -7.5 21.5c0 10 4 23.833 12 41.5s22 42.834 42 75.501
c-22.667 28.667 -38.5 62.334 -47.5 101.001s-13.5 80.334 -13.5 125.001c0 52 6 102.833 18 152.5s32.167 93.834 60.5 132.501s65.833 69.834 112.5 93.501s104.667 35.5 174 35.5zM489.002 452.996l-89 -130.503l-113 -163.5c15.333 -8.66699 34 -13 56 -13
c30.667 0 55.667 9.83301 75 29.5s34.5 43.334 45.5 71.001s18.5 56.334 22.5 86.001s6 54.834 6 75.501c0 16 -1 31 -3 45zM384.002 565.993c-23.333 0 -43.5 -4.16797 -60.5 -12.501s-31.333 -19.5 -43 -33.5s-21 -29.667 -28 -47s-12.5 -35.166 -16.5 -53.499
s-6.66699 -36 -8 -53s-2 -32.167 -2 -45.5c0 -18 1 -34.333 3 -49l87 127l111 158c-12 6 -26.333 9 -43 9z" />
    <glyph glyph-name="Ugrave" unicode="&#xd9;" horiz-adv-x="659" 
d="M603 326c-2 -20 -4.99805 -42.1641 -8.99805 -66.4971s-10.167 -49 -18.5 -74s-19.5 -49.167 -33.5 -72.5s-32 -44.166 -54 -62.499s-48.5 -33 -79.5 -44s-67.833 -16.5 -110.5 -16.5c-43.333 0 -80.333 6.16699 -111 18.5s-55.667 29.333 -75 51
s-33.333 46.834 -42 75.501s-13 59.334 -13 92.001c0 14.667 0.666992 34.5 2 59.5s3.16602 52.167 5.49902 81.5l7.5 91.5l7.5 90.5l6.5 77.5c2 23 3.33301 40.5 4 52.5c0.666992 12.667 2.33398 20.834 5.00098 24.501s6.66699 5.5 12 5.5h55c40.667 0 68 -8.66699 82 -26
s21 -43 21 -77c0 -2 -0.5 -10.833 -1.5 -26.5s-2.33301 -34.834 -4 -57.501s-3.33398 -47.334 -5.00098 -74.001s-3.33398 -52 -5.00098 -76s-3 -45 -4 -63s-1.5 -30 -1.5 -36c0 -11.333 0.5 -24.333 1.5 -39s3.66699 -28.667 8 -42s11.333 -24.5 21 -33.5
s23.5 -13.5 41.5 -13.5c22.667 0 41.167 7.66699 55.5 23s25.333 33.666 33 54.999s13 43 16 65s5.16699 40 6.5 54l8.5 105c3 36 5.66699 69.667 8 101s4.16602 58.666 5.49902 81.999s2 39.333 2 48c0 13.333 1 21.833 3 25.5s6.33301 5.5 13 5.5h55
c22.667 0 40.5 -2 53.5 -6s22.833 -9.33301 29.5 -16s10.834 -14.334 12.501 -23.001s2.5 -17.667 2.5 -27c0 -8.66699 -0.5 -25 -1.5 -49l-3.5 -82c-1.33301 -30.667 -3 -62.334 -5 -95.001s-4.33301 -61.334 -7 -86.001zM407.002 843.003
c0 -5.33301 -1.16309 -11.665 -3.49609 -18.998s-5.33301 -14.166 -9 -20.499s-8 -11.833 -13 -16.5s-10.167 -7 -15.5 -7c-14.667 0 -32.334 3 -53.001 9s-40.5 13 -59.5 21s-35.167 16.333 -48.5 25s-20 15.667 -20 21c0 8 3.16699 17.833 9.5 29.5s13.666 23 21.999 34
s17 20.5 26 28.5s16.5 12 22.5 12c3.33301 0 9.16602 -2.66699 17.499 -8s17.666 -11.833 27.999 -19.5s21.333 -16.334 33 -26.001s22.167 -18.834 31.5 -27.501s17 -16.334 23 -23.001s9 -11 9 -13z" />
    <glyph glyph-name="Uacute" unicode="&#xda;" horiz-adv-x="659" 
d="M603 326c-2 -20 -4.99805 -42.1641 -8.99805 -66.4971s-10.167 -49 -18.5 -74s-19.5 -49.167 -33.5 -72.5s-32 -44.166 -54 -62.499s-48.5 -33 -79.5 -44s-67.833 -16.5 -110.5 -16.5c-43.333 0 -80.333 6.16699 -111 18.5s-55.667 29.333 -75 51
s-33.333 46.834 -42 75.501s-13 59.334 -13 92.001c0 14.667 0.666992 34.5 2 59.5s3.16602 52.167 5.49902 81.5l7.5 91.5l7.5 90.5l6.5 77.5c2 23 3.33301 40.5 4 52.5c0.666992 12.667 2.33398 20.834 5.00098 24.501s6.66699 5.5 12 5.5h55c40.667 0 68 -8.66699 82 -26
s21 -43 21 -77c0 -2 -0.5 -10.833 -1.5 -26.5s-2.33301 -34.834 -4 -57.501s-3.33398 -47.334 -5.00098 -74.001s-3.33398 -52 -5.00098 -76s-3 -45 -4 -63s-1.5 -30 -1.5 -36c0 -11.333 0.5 -24.333 1.5 -39s3.66699 -28.667 8 -42s11.333 -24.5 21 -33.5
s23.5 -13.5 41.5 -13.5c22.667 0 41.167 7.66699 55.5 23s25.333 33.666 33 54.999s13 43 16 65s5.16699 40 6.5 54l8.5 105c3 36 5.66699 69.667 8 101s4.16602 58.666 5.49902 81.999s2 39.333 2 48c0 13.333 1 21.833 3 25.5s6.33301 5.5 13 5.5h55
c22.667 0 40.5 -2 53.5 -6s22.833 -9.33301 29.5 -16s10.834 -14.334 12.501 -23.001s2.5 -17.667 2.5 -27c0 -8.66699 -0.5 -25 -1.5 -49l-3.5 -82c-1.33301 -30.667 -3 -62.334 -5 -95.001s-4.33301 -61.334 -7 -86.001zM371.002 780.003
c-7.33301 0 -13.832 2.49902 -19.499 7.49902s-10.5 10.833 -14.5 17.5s-7 12.834 -9 18.501s-3 9.5 -3 11.5c0 4.66699 6.66699 14 20 28s29 28.5 47 43.5s35.833 28.333 53.5 40s30.834 17.5 39.501 17.5c6 0 14.667 -3.5 26 -10.5s22.333 -15 33 -24s20 -18.333 28 -28
s12 -16.834 12 -21.501c0 -5.33301 -4.5 -11.5 -13.5 -18.5s-20.333 -14.167 -34 -21.5s-28.834 -14.666 -45.501 -21.999s-32.834 -13.833 -48.501 -19.5s-30 -10.167 -43 -13.5s-22.5 -5 -28.5 -5z" />
    <glyph glyph-name="Ucircumflex" unicode="&#xdb;" horiz-adv-x="659" 
d="M603 326c-2 -20 -4.99805 -42.1641 -8.99805 -66.4971s-10.167 -49 -18.5 -74s-19.5 -49.167 -33.5 -72.5s-32 -44.166 -54 -62.499s-48.5 -33 -79.5 -44s-67.833 -16.5 -110.5 -16.5c-43.333 0 -80.333 6.16699 -111 18.5s-55.667 29.333 -75 51
s-33.333 46.834 -42 75.501s-13 59.334 -13 92.001c0 14.667 0.666992 34.5 2 59.5s3.16602 52.167 5.49902 81.5l7.5 91.5l7.5 90.5l6.5 77.5c2 23 3.33301 40.5 4 52.5c0.666992 12.667 2.33398 20.834 5.00098 24.501s6.66699 5.5 12 5.5h55c40.667 0 68 -8.66699 82 -26
s21 -43 21 -77c0 -2 -0.5 -10.833 -1.5 -26.5s-2.33301 -34.834 -4 -57.501s-3.33398 -47.334 -5.00098 -74.001s-3.33398 -52 -5.00098 -76s-3 -45 -4 -63s-1.5 -30 -1.5 -36c0 -11.333 0.5 -24.333 1.5 -39s3.66699 -28.667 8 -42s11.333 -24.5 21 -33.5
s23.5 -13.5 41.5 -13.5c22.667 0 41.167 7.66699 55.5 23s25.333 33.666 33 54.999s13 43 16 65s5.16699 40 6.5 54l8.5 105c3 36 5.66699 69.667 8 101s4.16602 58.666 5.49902 81.999s2 39.333 2 48c0 13.333 1 21.833 3 25.5s6.33301 5.5 13 5.5h55
c22.667 0 40.5 -2 53.5 -6s22.833 -9.33301 29.5 -16s10.834 -14.334 12.501 -23.001s2.5 -17.667 2.5 -27c0 -8.66699 -0.5 -25 -1.5 -49l-3.5 -82c-1.33301 -30.667 -3 -62.334 -5 -95.001s-4.33301 -61.334 -7 -86.001zM490.002 780.003
c-6 0 -13.3311 2.33105 -21.998 6.99805s-17.834 10.834 -27.501 18.501s-19.834 16.334 -30.501 26.001s-21 19.834 -31 30.501c-14 -10.667 -28.5 -20.834 -43.5 -30.501l-42 -26c-13 -7.66699 -24.667 -13.834 -35 -18.501s-18.5 -7 -24.5 -7
c-4.66699 0 -9.83398 1.83301 -15.501 5.5s-11 8 -16 13s-9.33301 9.83301 -13 14.5s-5.5 8 -5.5 10s4.16699 7.16699 12.5 15.5l32 30.5l43 39l44.5 41c5.33301 4.66699 15.5 8.33398 30.5 11.001s30.167 4 45.5 4c8.66699 0 18.834 -1 30.501 -3s19.167 -6 22.5 -12
l36 -42.5l32 -39.5l23 -30c6 -8 9 -12.667 9 -14s-2 -4.33301 -6 -9s-8.83301 -9.5 -14.5 -14.5s-11.667 -9.5 -18 -13.5s-11.833 -6 -16.5 -6z" />
    <glyph glyph-name="Udieresis" unicode="&#xdc;" horiz-adv-x="659" 
d="M603 326c-2 -20 -4.99805 -42.1641 -8.99805 -66.4971s-10.167 -49 -18.5 -74s-19.5 -49.167 -33.5 -72.5s-32 -44.166 -54 -62.499s-48.5 -33 -79.5 -44s-67.833 -16.5 -110.5 -16.5c-43.333 0 -80.333 6.16699 -111 18.5s-55.667 29.333 -75 51
s-33.333 46.834 -42 75.501s-13 59.334 -13 92.001c0 14.667 0.666992 34.5 2 59.5s3.16602 52.167 5.49902 81.5l7.5 91.5l7.5 90.5l6.5 77.5c2 23 3.33301 40.5 4 52.5c0.666992 12.667 2.33398 20.834 5.00098 24.501s6.66699 5.5 12 5.5h55c40.667 0 68 -8.66699 82 -26
s21 -43 21 -77c0 -2 -0.5 -10.833 -1.5 -26.5s-2.33301 -34.834 -4 -57.501s-3.33398 -47.334 -5.00098 -74.001s-3.33398 -52 -5.00098 -76s-3 -45 -4 -63s-1.5 -30 -1.5 -36c0 -11.333 0.5 -24.333 1.5 -39s3.66699 -28.667 8 -42s11.333 -24.5 21 -33.5
s23.5 -13.5 41.5 -13.5c22.667 0 41.167 7.66699 55.5 23s25.333 33.666 33 54.999s13 43 16 65s5.16699 40 6.5 54l8.5 105c3 36 5.66699 69.667 8 101s4.16602 58.666 5.49902 81.999s2 39.333 2 48c0 13.333 1 21.833 3 25.5s6.33301 5.5 13 5.5h55
c22.667 0 40.5 -2 53.5 -6s22.833 -9.33301 29.5 -16s10.834 -14.334 12.501 -23.001s2.5 -17.667 2.5 -27c0 -8.66699 -0.5 -25 -1.5 -49l-3.5 -82c-1.33301 -30.667 -3 -62.334 -5 -95.001s-4.33301 -61.334 -7 -86.001zM173.002 838.003c0 24 7.99902 43 23.999 57
s37.667 21 65 21c24 0 41.5 -5.33301 52.5 -16s16.5 -24.667 16.5 -42c0 -22 -7.66699 -40.5 -23 -55.5s-37.666 -22.5 -66.999 -22.5c-45.333 0 -68 19.333 -68 58zM401.001 838.003c0 24 7.99902 43 23.999 57s37.667 21 65 21c24 0 41.5 -5.33301 52.5 -16
s16.5 -24.667 16.5 -42c0 -22 -7.66699 -40.5 -23 -55.5s-37.666 -22.5 -66.999 -22.5c-45.333 0 -68 19.333 -68 58z" />
    <glyph glyph-name="Yacute" unicode="&#xdd;" horiz-adv-x="609" 
d="M296 0c-40 0 -67.335 7.83691 -82.002 23.5039s-22 39.834 -22 72.501c0 11.333 0.666992 29.666 2 54.999s4.33301 64.666 9 117.999l-14 26l-12 23c-4 8 -8.33301 17.333 -13 28l-18 40l-38.5 86l-41.5 94.5c-13.333 30.333 -24.5 57.166 -33.5 80.499
s-13.5 38 -13.5 44c0 14 22.333 21 67 21c28 0 50.5 -2.83301 67.5 -8.5s30.833 -13.334 41.5 -23.001s18.667 -21 24 -34s10.333 -26.833 15 -41.5c6 -19.333 10.333 -33.666 13 -42.999l6.5 -23c1.66699 -6 3.5 -11.833 5.5 -17.5s4.83301 -14.5 8.5 -26.5l15.5 -50
l28 -88l46.5 99c11.667 25.333 21.834 48.833 30.501 70.5s16.834 44 24.501 67l29.5 87.5c4 12.667 8.16699 20.834 12.5 24.501s11.166 5.5 20.499 5.5c3.33301 0 12.5 -0.5 27.5 -1.5s30.667 -3.5 47 -7.5s31.166 -10.333 44.499 -19s20 -20.334 20 -35.001
c0 -11.333 -3.83301 -27.333 -11.5 -48s-17.667 -43.834 -30 -69.501s-26.666 -52.834 -42.999 -81.501s-33.166 -56.667 -50.499 -84s-34.5 -52.5 -51.5 -75.5s-32.5 -41.833 -46.5 -56.5c-0.666992 -16 -1.5 -35 -2.5 -57s-2.33301 -43.833 -4 -65.5l-4.5 -59
c-1.33301 -17.667 -2.33301 -29.834 -3 -36.501c-0.666992 -5.33301 -2 -9.16602 -4 -11.499s-6 -3.5 -12 -3.5h-55zM329.998 780.004c-7.33301 0 -13.832 2.49902 -19.499 7.49902s-10.5 10.833 -14.5 17.5s-7 12.834 -9 18.501s-3 9.5 -3 11.5c0 4.66699 6.66699 14 20 28
s29 28.5 47 43.5s35.833 28.333 53.5 40s30.834 17.5 39.501 17.5c6 0 14.667 -3.5 26 -10.5s22.333 -15 33 -24s20 -18.333 28 -28s12 -16.834 12 -21.501c0 -5.33301 -4.5 -11.5 -13.5 -18.5s-20.333 -14.167 -34 -21.5s-28.834 -14.666 -45.501 -21.999
s-32.834 -13.833 -48.501 -19.5s-30 -10.167 -43 -13.5s-22.5 -5 -28.5 -5z" />
    <glyph glyph-name="Thorn" unicode="&#xde;" horiz-adv-x="598" 
d="M155 0c-38 0 -64.832 7.50293 -80.499 22.5029s-23.5 37.167 -23.5 66.5c0 8 0.5 21.5 1.5 40.5s2.5 41.5 4.5 67.5l6.5 85.5c2.33301 31 4.83301 62.5 7.5 94.5l12.5 158.5c3 38.333 5.16699 68.666 6.5 90.999s2.33301 40.166 3 53.499s1 28.333 1 45
c0 5.33301 2 9.16602 6 11.499s7.66699 3.5 11 3.5h55c20.667 0 37.167 -2.16699 49.5 -6.5s21.666 -10.166 27.999 -17.499s10.333 -16.333 12 -27s2.5 -22.334 2.5 -35.001v-13c0 -4.66699 -0.333008 -9.66699 -1 -15c15.333 1.33301 30 2.5 44 3.5s27.667 1.5 41 1.5
c42 0 77.833 -5.33301 107.5 -16s54 -25.834 73 -45.501s32.833 -43.667 41.5 -72s13 -60.166 13 -95.499c0 -38.667 -5.16699 -76.167 -15.5 -112.5s-26.5 -68.5 -48.5 -96.5s-50.333 -50.333 -85 -67s-76 -25 -124 -25c-16.667 0 -31.334 1 -44.001 3
s-24.667 4.66699 -36 8c-1.33301 -25.333 -2.66602 -45.5 -3.99902 -60.5s-2.66602 -26.333 -3.99902 -34s-3.33301 -12.5 -6 -14.5s-6.33398 -3 -11.001 -3h-44zM317.001 481.003c-20 0 -42.332 -2 -66.999 -6l-15 -226c23.333 -5.33301 44 -8 62 -8
c23.333 0 42.166 5.5 56.499 16.5s25.5 24.5 33.5 40.5s13.333 32.667 16 50s4 32.333 4 45c0 28.667 -6.5 50.5 -19.5 65.5s-36.5 22.5 -70.5 22.5z" />
    <glyph glyph-name="germandbls" unicode="&#xdf;" horiz-adv-x="634" 
d="M559 642c0 -23.333 -5.33496 -46.001 -16.002 -68.001s-22.5 -42.833 -35.5 -62.5l-35.5 -55c-10.667 -17 -16 -32.5 -16 -46.5c0 -11.333 3.83301 -21 11.5 -29s17 -15.833 28 -23.5s23.167 -15.667 36.5 -24s25.5 -18.666 36.5 -30.999s20.333 -27.5 28 -45.5
s11.5 -40 11.5 -66c0 -27.333 -4.5 -53.166 -13.5 -77.499s-22 -45.666 -39 -63.999s-37.833 -32.833 -62.5 -43.5s-53 -16 -85 -16c-22 0 -42.5 2.33301 -61.5 7s-35.667 10.5 -50 17.5s-25.5 14.667 -33.5 23s-12 15.833 -12 22.5c0 31.333 2.5 54.166 7.5 68.499
s12.833 21.5 23.5 21.5c6.66699 0 13.334 -2 20.001 -6l21.5 -12.5c7.66699 -4.33301 16.334 -8.5 26.001 -12.5s20.834 -6 33.501 -6c16.667 0 31.334 4.16699 44.001 12.5s19 22.166 19 41.499c0 14 -3.5 26.333 -10.5 37s-16 20.667 -27 30s-22.667 18.5 -35 27.5
s-24 19 -35 30s-20 23.667 -27 38s-10.5 31.5 -10.5 51.5c0 25.333 5.33301 48 16 68s22.167 38.167 34.5 54.5l34.5 44.5c10.667 13.333 16 26 16 38c0 10.667 -4.66699 19 -14 25s-21 9 -35 9c-20 0 -37 -6.16699 -51 -18.5s-25.667 -27.833 -35 -46.5
s-16.833 -39 -22.5 -61s-9.83398 -42.667 -12.501 -62c-3.33301 -22.667 -6.66602 -51.167 -9.99902 -85.5s-6.5 -70.5 -9.5 -108.5s-5.83301 -76.167 -8.5 -114.5l-7 -103.5c-0.666992 -8 -2.33398 -13.333 -5.00098 -16s-8.33398 -4 -17.001 -4h-41
c-18.667 -0 -34 0.833008 -46 2.5s-21.667 6.33398 -29 14.001s-12.5 19.167 -15.5 34.5s-4.5 36.666 -4.5 63.999c0 21.333 0.833008 47.166 2.5 77.499s4.16699 62.333 7.5 96s7.5 67.834 12.5 102.501s10.833 67.667 17.5 99c9.33301 42.667 21 80.5 35 113.5
s32.167 60.833 54.5 83.5s50 39.667 83 51s73.167 17 120.5 17c65.333 0 112.833 -10 142.5 -30s44.5 -47.667 44.5 -83z" />
    <glyph glyph-name="agrave" unicode="&#xe0;" horiz-adv-x="563" 
d="M11 123c0 60 27 106.996 81 140.996s133.667 52.333 239 55c0.666992 7.33301 1.16699 13.5 1.5 18.5s0.5 11.167 0.5 18.5c0 21.333 -4 38.333 -12 51s-24.667 19 -50 19c-14 0 -25.333 -2 -34 -6s-15.667 -9.5 -21 -16.5s-9.66602 -15.5 -12.999 -25.5
s-6.33301 -21 -9 -33c-1.33301 -6 -4.33301 -9.83301 -9 -11.5s-12 -2.5 -22 -2.5c-68 0 -102 25.667 -102 77c0 20.667 4.83301 40.334 14.5 59.001s24 34.834 43 48.501s42.833 24.5 71.5 32.5s62 12 100 12c74 0 127.667 -15.333 161 -46s50 -74 50 -130
c0 -7.33301 -0.833008 -20.5 -2.5 -39.5s-3.66699 -39 -6 -60s-4.33301 -40.833 -6 -59.5s-2.5 -31.667 -2.5 -39c0 -16.667 3 -28.5 9 -35.5s12.833 -11.833 20.5 -14.5s14.5 -4.66699 20.5 -6s9 -4.66602 9 -9.99902c0 -14.667 -2 -29.667 -6 -45s-10.5 -29.333 -19.5 -42
s-21.333 -23 -37 -31s-34.834 -12 -57.501 -12c-32 0 -56 7.66699 -72 23s-26.667 36.666 -32 63.999c-16 -23.333 -36.833 -43.666 -62.5 -60.999s-59.167 -26 -100.5 -26c-20 0 -38.833 2.33301 -56.5 7s-33 12.334 -46 23.001s-23.333 24.5 -31 41.5
s-11.5 37.5 -11.5 61.5zM322 236.996c-17.333 0 -34.334 -1.33398 -51.001 -4.00098s-31.5 -6.83398 -44.5 -12.501s-23.5 -13.167 -31.5 -22.5s-12 -20.666 -12 -33.999c0 -15.333 4.83301 -26 14.5 -32s20.167 -9 31.5 -9c10.667 0 21.334 2.33301 32.001 7
s20.167 11.834 28.5 21.501s15.5 21.5 21.5 35.5s9.66699 30.667 11 50zM298.999 614.995c-8 0 -19.334 6.50098 -34.001 19.501s-29.5 28.167 -44.5 45.5s-28 34.5 -39 51.5s-16.5 29.167 -16.5 36.5c0 6 4.16699 12.5 12.5 19.5s18.333 13.5 30 19.5
s23.834 11.167 36.501 15.5s23 6.5 31 6.5c5.33301 0 9.5 -0.833008 12.5 -2.5s5.83301 -5.83398 8.5 -12.501l20.5 -51.5l19.5 -46.5c6 -14 10.833 -25.833 14.5 -35.5s5.5 -15.5 5.5 -17.5c0 -4 -2.16699 -8.83301 -6.5 -14.5s-9.5 -11 -15.5 -16
s-12.333 -9.16699 -19 -12.5s-12 -5 -16 -5z" />
    <glyph glyph-name="aacute" unicode="&#xe1;" horiz-adv-x="563" 
d="M11 123c0 60 27 106.996 81 140.996s133.667 52.333 239 55c0.666992 7.33301 1.16699 13.5 1.5 18.5s0.5 11.167 0.5 18.5c0 21.333 -4 38.333 -12 51s-24.667 19 -50 19c-14 0 -25.333 -2 -34 -6s-15.667 -9.5 -21 -16.5s-9.66602 -15.5 -12.999 -25.5
s-6.33301 -21 -9 -33c-1.33301 -6 -4.33301 -9.83301 -9 -11.5s-12 -2.5 -22 -2.5c-68 0 -102 25.667 -102 77c0 20.667 4.83301 40.334 14.5 59.001s24 34.834 43 48.501s42.833 24.5 71.5 32.5s62 12 100 12c74 0 127.667 -15.333 161 -46s50 -74 50 -130
c0 -7.33301 -0.833008 -20.5 -2.5 -39.5s-3.66699 -39 -6 -60s-4.33301 -40.833 -6 -59.5s-2.5 -31.667 -2.5 -39c0 -16.667 3 -28.5 9 -35.5s12.833 -11.833 20.5 -14.5s14.5 -4.66699 20.5 -6s9 -4.66602 9 -9.99902c0 -14.667 -2 -29.667 -6 -45s-10.5 -29.333 -19.5 -42
s-21.333 -23 -37 -31s-34.834 -12 -57.501 -12c-32 0 -56 7.66699 -72 23s-26.667 36.666 -32 63.999c-16 -23.333 -36.833 -43.666 -62.5 -60.999s-59.167 -26 -100.5 -26c-20 0 -38.833 2.33301 -56.5 7s-33 12.334 -46 23.001s-23.333 24.5 -31 41.5
s-11.5 37.5 -11.5 61.5zM322 236.996c-17.333 0 -34.334 -1.33398 -51.001 -4.00098s-31.5 -6.83398 -44.5 -12.501s-23.5 -13.167 -31.5 -22.5s-12 -20.666 -12 -33.999c0 -15.333 4.83301 -26 14.5 -32s20.167 -9 31.5 -9c10.667 0 21.334 2.33301 32.001 7
s20.167 11.834 28.5 21.501s15.5 21.5 21.5 35.5s9.66699 30.667 11 50zM298.999 614.995c-4.66699 0 -9.83301 1.66602 -15.5 4.99902s-11.167 7.5 -16.5 12.5s-9.83301 10.333 -13.5 16s-5.5 10.5 -5.5 14.5c0 1.33301 3.33301 7 10 17l25 37l33 48l34 49
c4 6 7.33301 10 10 12s7 3 13 3c8 0 18.333 -2 31 -6s25 -9 37 -15s22.333 -12.5 31 -19.5s13 -13.5 13 -19.5c0 -4.66699 -3.83301 -11.667 -11.5 -21s-17.5 -19.666 -29.5 -30.999s-25.333 -23 -40 -35s-29 -23 -43 -33s-26.5 -18.167 -37.5 -24.5
s-19.167 -9.5 -24.5 -9.5z" />
    <glyph glyph-name="acircumflex" unicode="&#xe2;" horiz-adv-x="563" 
d="M11 123c0 60 27 106.996 81 140.996s133.667 52.333 239 55c0.666992 7.33301 1.16699 13.5 1.5 18.5s0.5 11.167 0.5 18.5c0 21.333 -4 38.333 -12 51s-24.667 19 -50 19c-14 0 -25.333 -2 -34 -6s-15.667 -9.5 -21 -16.5s-9.66602 -15.5 -12.999 -25.5
s-6.33301 -21 -9 -33c-1.33301 -6 -4.33301 -9.83301 -9 -11.5s-12 -2.5 -22 -2.5c-68 0 -102 25.667 -102 77c0 20.667 4.83301 40.334 14.5 59.001s24 34.834 43 48.501s42.833 24.5 71.5 32.5s62 12 100 12c74 0 127.667 -15.333 161 -46s50 -74 50 -130
c0 -7.33301 -0.833008 -20.5 -2.5 -39.5s-3.66699 -39 -6 -60s-4.33301 -40.833 -6 -59.5s-2.5 -31.667 -2.5 -39c0 -16.667 3 -28.5 9 -35.5s12.833 -11.833 20.5 -14.5s14.5 -4.66699 20.5 -6s9 -4.66602 9 -9.99902c0 -14.667 -2 -29.667 -6 -45s-10.5 -29.333 -19.5 -42
s-21.333 -23 -37 -31s-34.834 -12 -57.501 -12c-32 0 -56 7.66699 -72 23s-26.667 36.666 -32 63.999c-16 -23.333 -36.833 -43.666 -62.5 -60.999s-59.167 -26 -100.5 -26c-20 0 -38.833 2.33301 -56.5 7s-33 12.334 -46 23.001s-23.333 24.5 -31 41.5
s-11.5 37.5 -11.5 61.5zM322 236.996c-17.333 0 -34.334 -1.33398 -51.001 -4.00098s-31.5 -6.83398 -44.5 -12.501s-23.5 -13.167 -31.5 -22.5s-12 -20.666 -12 -33.999c0 -15.333 4.83301 -26 14.5 -32s20.167 -9 31.5 -9c10.667 0 21.334 2.33301 32.001 7
s20.167 11.834 28.5 21.501s15.5 21.5 21.5 35.5s9.66699 30.667 11 50zM425.999 614.995c-5.33301 0 -12 2.83105 -20 8.49805s-16.5 13.334 -25.5 23.001s-18.333 20.5 -28 32.5s-18.834 24.667 -27.501 38c-13.333 -13.333 -26.833 -26 -40.5 -38
s-26.667 -22.833 -39 -32.5s-23.333 -17.334 -33 -23.001s-17.167 -8.5 -22.5 -8.5c-4.66699 0 -9.83398 1.83301 -15.501 5.5s-11 8 -16 13s-9.33301 9.83301 -13 14.5s-5.5 8 -5.5 10c0 2.66699 4.16699 9.33398 12.5 20.001s19 23.5 32 38.5l43 48l44.5 49.5
c4 4.66699 12.833 8.33398 26.5 11.001s26.834 4 39.501 4c8.66699 0 18.834 -1 30.501 -3s19.167 -6 22.5 -12l32 -53.5l29 -48.5c8.66699 -14.667 15.667 -27 21 -37s8 -15.667 8 -17s-2 -4.33301 -6 -9s-8.83301 -9.5 -14.5 -14.5s-11.667 -9.5 -18 -13.5
s-11.833 -6 -16.5 -6z" />
    </font>
</defs>
</svg>
